<?xml version="1.0" encoding="utf-8"?>
<!-- Generator: Adobe Illustrator 16.0.0, SVG Export Plug-In . SVG Version: 6.00 Build 0)  -->
<!DOCTYPE svg PUBLIC "-//W3C//DTD SVG 1.1//EN" "http://www.w3.org/Graphics/SVG/1.1/DTD/svg11.dtd">
<svg version="1.1" id="Layer_1" xmlns="http://www.w3.org/2000/svg" xmlns:xlink="http://www.w3.org/1999/xlink" x="0px" y="0px"
	 width="147px" height="147px" viewBox="0 0 147 147" enable-background="new 0 0 147 147" xml:space="preserve">
<path fill="#808285" d="M41.843,98.912c0,3.669,2.987,6.643,6.643,6.643H98.2c3.669,0,6.643-2.986,6.643-6.643V49.197
	c0-3.669-2.986-6.643-6.643-6.643H48.485c-3.669,0-6.643,2.986-6.643,6.643V98.912z M98.2,102.401H48.485
	c-1.918,0-3.489-1.57-3.489-3.489v-8.303l11.946-11.946l10.208,10.208c0.618,0.619,1.609,0.619,2.227,0l18.435-18.433l13.877,13.876
	v14.598C101.689,100.831,100.118,102.401,98.2,102.401z M48.485,45.709H98.2c1.918,0,3.489,1.57,3.489,3.488v30.65L88.919,67.091
	c-0.618-0.618-1.608-0.618-2.228,0L68.258,85.524L58.05,75.316c-0.618-0.617-1.609-0.617-2.227,0L44.997,86.143V49.197
	C44.997,47.279,46.567,45.709,48.485,45.709z"/>
<path fill="#808285" d="M61.371,67.799c4.428,0,8.02-3.604,8.02-8.02s-3.604-8.02-8.02-8.02s-8.02,3.604-8.02,8.02
	S56.943,67.799,61.371,67.799z M61.371,54.913c2.69,0,4.866,2.188,4.866,4.866s-2.188,4.866-4.866,4.866s-4.866-2.188-4.866-4.866
	S58.681,54.913,61.371,54.913z"/>
</svg>
