<?xml version="1.0" encoding="utf-8"?>
<!-- Generator: Adobe Illustrator 21.0.0, SVG Export Plug-In . SVG Version: 6.00 Build 0)  -->
<svg version="1.1" id="Layer_1" xmlns="http://www.w3.org/2000/svg" xmlns:xlink="http://www.w3.org/1999/xlink" x="0px" y="0px"
	 viewBox="0 0 150 150" style="enable-background:new 0 0 150 150;" xml:space="preserve">
<style type="text/css">
	.st0{fill:#040305;}
	.st1{fill:#EE3626;stroke:#EE3626;stroke-width:3;stroke-miterlimit:10;}
</style>
<g>
	<g>
		<path class="st0" d="M83.5,57.3H66.4c-4.9,0-8.9,4-8.9,8.9v17.1c0,4.9,4,8.9,8.9,8.9h17.1c4.9,0,8.9-4,8.9-8.9V66.2
			C92.4,61.3,88.4,57.3,83.5,57.3z M66.4,59.3L66.4,59.3l17.1,0c3.8,0,6.9,3.1,6.9,6.9v2.2h-11C78.2,67.5,76.6,67,75,67
			c-1.7,0-3.2,0.5-4.5,1.4h-11v-2.2C59.5,62.4,62.6,59.3,66.4,59.3z M75,69c3.2,0,5.8,2.6,5.8,5.8c0,3.2-2.6,5.8-5.8,5.8
			c-3.2,0-5.8-2.6-5.8-5.8C69.2,71.6,71.8,69,75,69z M83.5,90.3H66.4c-3.8,0-6.9-3.1-6.9-6.9V70.4h9c-0.8,1.2-1.3,2.7-1.3,4.4
			c0,4.3,3.5,7.8,7.8,7.8c4.3,0,7.8-3.5,7.8-7.8c0-1.6-0.5-3.1-1.3-4.4h9v12.9C90.4,87.1,87.3,90.3,83.5,90.3z"/>
		<path class="st0" d="M81.7,67.8h4.5c0.5,0,1-0.4,1-1v-4.5c0-0.6-0.5-1-1-1h-4.5c-0.5,0-1,0.4-1,1v4.5
			C80.7,67.4,81.2,67.8,81.7,67.8z M82.7,63.4h2.5v2.5h-2.5V63.4z"/>
	</g>
	<path class="st1" d="M75,43.6c-17.2,0-31.2,14-31.2,31.2C43.8,92,57.8,106,75,106c17.2,0,31.2-14,31.2-31.2
		C106.2,57.6,92.2,43.6,75,43.6z M45,74.8c0-16.5,13.4-30,30-30c8.2,0,15.6,3.3,21,8.6L53.1,95.2C48.1,89.9,45,82.7,45,74.8z
		 M75,104.8c-8.6,0-16.3-3.6-21.8-9.4c0.2,0.3,0.5,0.5,0.8,0.7l42.9-41.7c-0.2-0.3-0.5-0.5-0.7-0.8c5.4,5.4,8.8,12.9,8.8,21.2
		C104.9,91.3,91.5,104.8,75,104.8z"/>
</g>
</svg>
