<?xml version="1.0" encoding="utf-8"?>
<!-- Generator: Adobe Illustrator 16.0.0, SVG Export Plug-In . SVG Version: 6.00 Build 0)  -->
<!DOCTYPE svg PUBLIC "-//W3C//DTD SVG 1.1//EN" "http://www.w3.org/Graphics/SVG/1.1/DTD/svg11.dtd">
<svg version="1.1" id="Layer_1" xmlns="http://www.w3.org/2000/svg" xmlns:xlink="http://www.w3.org/1999/xlink" x="0px" y="0px"
	 width="345px" height="345px" viewBox="0 0 345 345" enable-background="new 0 0 345 345" xml:space="preserve">
<g>
	<polygon fill-rule="evenodd" clip-rule="evenodd" fill="#FFFFFF" points="0,0 345,0 345,345 0,345 0,0 	"/>
	<polygon fill-rule="evenodd" clip-rule="evenodd" fill="#00944D" points="15.22,101.16 329.779,101.16 329.779,243.84 
		15.22,243.84 15.22,101.16 	"/>
	<polygon fill-rule="evenodd" clip-rule="evenodd" fill="#FFE200" points="22.521,107.133 322.48,107.133 322.48,179.469 
		22.521,179.469 22.521,107.133 	"/>
	<path fill-rule="evenodd" clip-rule="evenodd" fill="#00944D" d="M44.959,163.832V136.21h25.449v8.157
		c0.241,0,0.482-0.024,0.724-0.075c0.24-0.049,0.522-0.089,0.841-0.124c0.241-0.064,0.483-0.122,0.727-0.171
		c0.242-0.049,0.482-0.106,0.724-0.174c0.56-0.098,1.105-0.22,1.628-0.371c0.522-0.147,1.024-0.287,1.506-0.419
		c1.127-0.263,2.233-0.559,3.316-0.889c1.086-0.33,2.151-0.692,3.197-1.088c1.046-0.362,2.01-0.741,2.895-1.136
		c0.884-0.395,1.688-0.79,2.412-1.185c0.323-0.165,0.623-0.313,0.905-0.445c0.281-0.132,0.542-0.28,0.783-0.446
		c0.241-0.13,0.481-0.27,0.726-0.418c0.24-0.149,0.441-0.289,0.601-0.419c0.322-0.296,0.564-0.586,0.724-0.864
		c0.162-0.282,0.241-0.537,0.241-0.768c0-0.46-0.282-0.864-0.842-1.209c-0.564-0.346-1.41-0.667-2.535-0.963
		c-1.204-0.264-2.773-0.455-4.704-0.568c-1.93-0.116-4.261-0.173-6.995-0.173l-38.11-0.099l6.753-9.339h34.131
		c4.985,0.066,9.73,0.281,14.234,0.643c4.502,0.363,8.723,0.89,12.661,1.582c4.021,0.724,7.036,1.852,9.046,3.383
		c2.009,1.533,3.015,3.467,3.015,5.807c0,0.032,0,0.065,0,0.099c0,0.032,0,0.049,0,0.049c0,0.033,0,0.066,0,0.099
		c0,0.033,0,0.05,0,0.05c0,0.033,0,0.066,0,0.099c0,0.032,0,0.065,0,0.099c0,1.977-0.983,3.845-2.956,5.607
		c-1.969,1.763-4.923,3.435-8.863,5.015c-3.94,1.615-8.041,3.08-12.303,4.398c-4.26,1.318-8.723,2.471-13.388,3.457
		c-0.481,0.1-0.964,0.199-1.446,0.297c-0.482,0.098-0.923,0.197-1.325,0.297c-0.485,0.098-0.966,0.189-1.449,0.271
		c-0.481,0.083-0.965,0.156-1.446,0.222c-0.964,0.164-1.889,0.322-2.774,0.47c-0.884,0.148-1.77,0.289-2.652,0.419v8.447H44.959
		L44.959,163.832z M123.593,140.167c0.242-2.997,1.307-5.558,3.197-7.682c1.888-2.125,4.562-3.83,8.019-5.114
		c3.538-1.284,7.88-2.256,13.025-2.914c5.146-0.66,11.018-0.99,17.608-0.99l33.166-0.099l6.637,9.388h-35.943
		c-3.618,0.065-6.652,0.255-9.104,0.567c-2.451,0.314-4.284,0.8-5.488,1.458c-1.286,0.692-2.311,1.524-3.075,2.494
		c-0.764,0.973-1.267,2.101-1.508,3.385c0,0.033,0,0.058,0,0.074c0,0.018,0,0.024,0,0.024c0,0.034,0,0.058,0,0.075
		c0,0.017,0,0.023,0,0.023c0,0.034,0,0.066,0,0.1c0,0.033,0,0.066,0,0.098c0,0.034,0,0.058,0,0.075c0,0.017,0,0.041,0,0.074
		c0,1.317,0.444,2.561,1.327,3.728c0.885,1.171,2.211,2.25,3.979,3.237c1.69,1.021,3.497,1.937,5.43,2.742
		c1.928,0.806,3.979,1.508,6.149,2.099c1.127,0.331,2.272,0.619,3.438,0.865c1.165,0.247,2.27,0.453,3.316,0.617
		c1.125,0.199,2.191,0.339,3.195,0.419c1.007,0.084,1.91,0.124,2.714,0.124c0,0,0.062,0,0.182,0c0.119,0,0.221,0,0.303,0
		c0.159,0,0.259,0,0.299,0s0.102,0,0.182,0v-9.486h-10.614v-9.338h36.182v28.013h-20.019c-8.04,0-15.137-0.329-21.289-0.986
		c-6.15-0.66-11.356-1.664-15.617-3.015c-4.343-1.352-8.081-2.774-11.218-4.274c-3.134-1.498-5.626-3.073-7.478-4.719
		c-1.287-1.052-2.35-2.099-3.196-3.136c-0.843-1.038-1.506-2.066-1.989-3.086c-0.563-0.958-0.985-1.838-1.267-2.645
		c-0.282-0.807-0.46-1.524-0.543-2.15V140.167L123.593,140.167z M215.616,138.982c0-0.033,0-0.074,0-0.124c0-0.049,0-0.09,0-0.123
		s0-0.074,0-0.123c0-0.05,0-0.091,0-0.125c0-0.032-0.019-0.065-0.059-0.099c-0.042-0.032-0.063-0.065-0.063-0.099
		c0,0,0-0.017,0-0.049c0-0.033,0-0.066,0-0.099c0-0.066,0-0.124,0-0.173c0-0.05,0-0.107,0-0.173c0-0.132,0-0.263,0-0.396
		c0-0.131,0.04-0.263,0.122-0.394c0-0.099,0-0.214,0-0.347c0-0.132,0-0.262,0-0.394c0.083-0.265,0.161-0.536,0.241-0.816
		c0.081-0.28,0.2-0.551,0.364-0.814c0.559-1.483,1.786-2.916,3.676-4.299s4.441-2.701,7.657-3.952
		c3.056-1.218,7.339-2.132,12.847-2.742c5.508-0.609,12.16-0.914,19.959-0.914c1.206,0,2.573,0.009,4.103,0.025
		c1.526,0.016,3.174,0.041,4.943,0.073c1.851,0.099,3.698,0.223,5.549,0.371c1.846,0.148,3.737,0.338,5.667,0.568
		c3.056,0.395,5.971,0.932,8.745,1.606c2.773,0.675,5.446,1.507,8.021,2.494c2.571,1.021,4.541,2.306,5.909,3.854
		c1.367,1.549,2.21,3.359,2.533,5.435c0,0.066,0,0.139,0,0.223c0,0.082,0,0.171,0,0.271c0,0.099,0,0.197,0,0.297
		c0,0.099,0,0.181,0,0.247c0,0.033,0,0.065,0,0.099s0,0.066,0,0.099c0,3.985-1.087,7.592-3.257,10.82
		c-2.17,3.227-5.39,6.06-9.649,8.499c-4.421,2.437-9.346,4.256-14.773,5.458c-5.429,1.201-11.357,1.804-17.79,1.804
		c-5.947,0-11.317-0.487-16.102-1.457c-4.782-0.972-8.983-2.445-12.604-4.423c-3.616-1.977-6.61-4.067-8.984-6.274
		c-2.37-2.208-4.121-4.511-5.245-6.917c-0.321-0.559-0.564-1.136-0.724-1.73c-0.162-0.591-0.321-1.184-0.48-1.777
		c-0.082-0.263-0.164-0.535-0.241-0.814c-0.082-0.281-0.164-0.568-0.245-0.865c-0.078-0.263-0.119-0.536-0.119-0.814
		c0-0.281,0-0.553,0-0.816V138.982L215.616,138.982z M243.116,139.723c0.241,2.109,0.863,4.051,1.868,5.83s2.393,3.426,4.162,4.941
		c1.687,1.516,3.534,2.651,5.544,3.408s4.225,1.136,6.635,1.136l0,0c0,0,0.04,0,0.123,0l0,0c0,0,0.036,0,0.118,0c0,0,0.021,0,0.06,0
		c0.04,0,0.102,0,0.182,0l0,0l0,0c1.528,0,2.935-0.197,4.22-0.592c1.288-0.395,2.456-1.003,3.499-1.829
		c1.126-0.758,2.133-1.564,3.016-2.42c0.884-0.855,1.647-1.778,2.291-2.767c0.646-0.757,1.168-1.498,1.568-2.223
		c0.399-0.724,0.724-1.449,0.965-2.174c0.241-0.691,0.441-1.276,0.604-1.753c0.159-0.479,0.241-0.832,0.241-1.063
		c0-0.065,0-0.124,0-0.171c0-0.051,0.04-0.108,0.119-0.174c0-0.033,0-0.082,0-0.149c0-0.065,0-0.115,0-0.147
		c0-0.099,0-0.198,0-0.296s0-0.198,0-0.297c0-0.988-0.303-1.876-0.906-2.668c-0.601-0.79-1.589-1.481-2.952-2.074
		c-1.286-0.593-3.097-1.037-5.431-1.335c-2.328-0.296-5.224-0.443-8.682-0.443c-3.537,0-6.451,0.146-8.744,0.443
		c-2.292,0.298-3.999,0.742-5.125,1.335c-1.206,0.625-2.092,1.284-2.651,1.975c-0.564,0.693-0.846,1.417-0.846,2.174
		c0,0.132,0,0.255,0,0.371s0,0.239,0,0.371s0,0.255,0,0.371s0.04,0.222,0.122,0.321V139.723L243.116,139.723z"/>
	<path fill-rule="evenodd" clip-rule="evenodd" fill="#FFFFFF" d="M266.78,216.045c3.313,0,6.611,0,9.929,0
		c0,0.022-0.023,0.047-0.026,0.07c-0.203,0.908,0.108,1.604,0.937,2.097c0.812,0.482,2.058,0.732,3.749,0.732
		c1.25,0,2.241-0.166,2.994-0.507c0.73-0.328,1.201-0.833,1.354-1.503c0.184-0.803-1.146-1.646-3.906-2.523
		c-0.519-0.167-1.042-0.336-1.563-0.508c-3.879-1.281-6.425-2.501-7.679-3.646c-0.941-0.858-1.414-1.853-1.438-2.996
		c-0.485,1.033-1.224,1.96-2.207,2.79c-1.409,1.188-3.306,2.127-5.7,2.789c1.482,0.414,2.48,0.955,3.019,1.633
		C266.581,214.901,266.763,215.428,266.78,216.045L266.78,216.045z M131.88,204.581c-2.474,0-4.652,0.795-6.561,2.37
		c-1.919,1.583-3.145,3.641-3.722,6.194c-0.385,1.709-0.148,3.003,0.702,3.899c0.84,0.886,2.24,1.341,4.245,1.341
		c2.499,0,4.717-0.818,6.638-2.463c1.906-1.631,3.144-3.821,3.749-6.541c0.33-1.485,0.08-2.653-0.833-3.515
		C135.188,205.009,133.781,204.581,131.88,204.581L131.88,204.581z M167.651,204.581c-2.5,0-4.674,0.802-6.561,2.37
		c-1.913,1.59-3.146,3.641-3.723,6.194c-0.385,1.709-0.175,3.003,0.676,3.899c0.841,0.886,2.266,1.341,4.271,1.341
		c2.499,0,4.697-0.812,6.612-2.463c1.886-1.626,3.17-3.821,3.775-6.541c0.332-1.485,0.054-2.653-0.859-3.515
		C170.934,205.009,169.526,204.581,167.651,204.581L167.651,204.581z M100.354,214.491c3.242,0,6.467,0,9.704,0
		c0.047-0.48,0.124-0.974,0.24-1.484c0.357-1.563,0.965-3.029,1.793-4.413c-3.123-0.002-6.246-0.011-9.369-0.018
		c0.286-1.215,0.007-2.213-0.833-2.963c-0.799-0.715-2.031-1.063-3.75-1.063c-2.473,0-4.607,0.795-6.507,2.375
		c-1.9,1.582-3.151,3.66-3.723,6.22c-0.39,1.744-0.202,3.057,0.572,3.962c0.761,0.892,2.135,1.348,4.035,1.348
		c1.641,0,3.126-0.335,4.478-1.014C98.323,216.773,99.441,215.786,100.354,214.491L100.354,214.491z M43.928,216.045
		c3.698,0,7.368,0,11.091,0c-0.025,0.022-0.022,0.049-0.025,0.07c-0.201,0.907,0.11,1.605,0.912,2.097
		c0.782,0.482,2.056,0.732,3.721,0.732c1.25,0,2.267-0.173,3.021-0.507c0.751-0.332,1.202-0.835,1.354-1.503
		c0.182-0.801-1.118-1.662-3.879-2.523c-0.567-0.177-1.073-0.331-1.614-0.508c-3.854-1.272-6.403-2.503-7.655-3.646
		c-1.269-1.159-1.679-2.573-1.301-4.256c0.529-2.356,2.193-4.202,5.024-5.53c2.814-1.32,6.457-1.989,10.961-1.989
		c4.53,0,7.943,0.699,10.256,2.103c1.197,0.728,2.042,1.575,2.578,2.532c0.579,1.035,0.729,2.18,0.443,3.405
		c-3.566,0-7.134,0-10.674,0c0.053-0.844-0.266-1.468-0.962-1.881c-0.679-0.4-1.719-0.615-3.125-0.615
		c-0.913,0-1.726,0.154-2.422,0.489c-0.653,0.316-1.069,0.732-1.172,1.212c-0.154,0.72,1.434,1.603,4.764,2.649
		c1.066,0.336,2.142,0.671,3.203,1.012c2.682,0.862,4.571,1.888,5.675,3.073c1.079,1.157,1.447,2.565,1.093,4.17
		c-0.552,2.505-2.353,4.45-5.389,5.866c-2.973,1.388-6.925,2.106-11.769,2.106c-5.049,0-8.803-0.75-11.298-2.26
		C44.267,220.85,43.304,218.743,43.928,216.045L43.928,216.045z M249.632,209.723c1.797,0,3.594,0,5.415,0
		c1.692,0,2.998-0.195,3.933-0.606c0.913-0.4,1.444-1.054,1.64-1.938c0.166-0.744-0.054-1.279-0.702-1.629
		c-0.628-0.334-1.745-0.511-3.359-0.511c-1.613,0-3.229,0-4.815,0C251.013,206.602,250.311,208.162,249.632,209.723L249.632,209.723
		z M110.098,216.638c-0.525,0.755-1.122,1.465-1.779,2.122c-1.248,1.244-2.761,2.319-4.53,3.218
		c-3.541,1.797-7.628,2.695-12.34,2.695c-5.39,0-9.372-1.063-12.028-3.192c-1.326-1.063-2.227-2.333-2.656-3.793
		c-0.43-1.466-0.433-3.13,0-4.995c0.426-1.833,1.224-3.611,2.5-5.331c1.275-1.72,2.889-3.247,4.843-4.565
		c2.106-1.419,4.451-2.501,7.055-3.238c2.628-0.745,5.416-1.114,8.41-1.114c4.92,0,8.571,0.86,10.934,2.598
		c1.228,0.902,2.097,1.974,2.604,3.167c0.298,0.706,0.474,1.453,0.514,2.237c1.181-1.407,2.628-2.669,4.355-3.77
		c2.136-1.363,4.503-2.418,7.158-3.144c2.655-0.725,5.416-1.089,8.332-1.089c5.389,0,9.373,1.04,11.976,3.113
		c1.301,1.036,2.175,2.274,2.604,3.695c0.232,0.769,0.343,1.596,0.336,2.477c0.109-0.155,0.225-0.314,0.34-0.469
		c1.308-1.744,2.938-3.286,4.973-4.584c2.155-1.376,4.558-2.416,7.213-3.144c2.628-0.722,5.414-1.089,8.304-1.089
		c5.416,0,9.396,1.044,11.976,3.113c0.729,0.586,1.325,1.23,1.785,1.935c0.667-1.454,1.342-2.911,2.043-4.367
		c9.954,0,19.91,0,29.887,0c0.108,0,0.219,0,0.327,0c0.035,0,0.07,0,0.106,0c0.126,0,0.255,0,0.381,0c0.018,0,0.035,0,0.051,0
		c0.146,0,0.29,0,0.434,0c0,0,0.002,0,0.004,0c8.783,0,17.007,0,25.764,0c-0.911,1.973-1.795,3.944-2.682,5.914
		c-5.492,0-10.432,0-15.896,0c-0.523,1.137-1.044,2.271-1.563,3.407c4.867,0,9.735,0,14.629,0c-0.857,1.844-1.691,3.688-2.523,5.528
		c-4.868,0-9.737,0-14.605,0c-0.547,1.325-1.094,2.649-1.666,3.975c5.771,0,11.567,0,17.341,0c0.94-2.138,1.881-4.273,2.81-6.411
		c1.795-4.136,3.67-8.274,5.52-12.413c5.493,0,11.012,0,16.531,0c4.607,0,7.816,0.524,9.735,1.609
		c1.505,0.852,2.23,2.115,2.195,3.765c0.813-1.649,2.325-2.99,4.522-4.026c2.791-1.316,6.456-1.989,10.961-1.989
		c4.504,0,7.945,0.692,10.231,2.103c1.175,0.726,2.049,1.569,2.603,2.532c0.593,1.031,0.729,2.18,0.444,3.405
		c-3.567,0-7.135,0-10.7,0c0.024-0.844-0.265-1.467-0.964-1.881c-0.68-0.402-1.693-0.615-3.099-0.615
		c-0.937,0-1.75,0.152-2.447,0.489c-0.655,0.316-1.069,0.729-1.173,1.212c-0.153,0.722,1.463,1.594,4.791,2.649
		c1.044,0.33,2.113,0.668,3.178,1.012c2.659,0.862,4.536,1.892,5.649,3.073c1.098,1.166,1.484,2.565,1.118,4.17
		c-0.571,2.507-2.371,4.457-5.389,5.866c-2.995,1.398-6.925,2.106-11.767,2.106c-5.051,0-8.799-0.755-11.3-2.26
		c-1.29-0.776-2.164-1.713-2.622-2.808c-0.215,0.571-0.428,1.144-0.658,1.713c-0.077,0.175-0.13,0.352-0.183,0.524
		c-0.025,0.104-0.052,0.204-0.076,0.305c-0.079,0.323-0.086,0.589,0.051,0.767c0.148,0.189,0.39,0.338,0.755,0.467
		c-0.053,0.212-0.077,0.425-0.13,0.637c-4.035,0-8.044,0-12.079,0c-0.026-0.168,0-0.336-0.026-0.507
		c0.026-0.199,0.077-0.4,0.104-0.604c0.051-0.186,0.104-0.37,0.156-0.558c0.103-0.27,0.208-0.54,0.286-0.811
		c0.363-0.829,0.728-1.661,1.093-2.493c0.078-0.151,0.129-0.306,0.182-0.461c0.053-0.212,0.129-0.418,0.184-0.637
		c0.257-1.04-0.055-1.784-0.808-2.214c-0.755-0.432-2.239-0.65-4.426-0.65c-0.991,0-1.954,0-2.917,0
		c-0.677,1.491-1.369,2.987-2.003,4.469c-0.64,1.493-1.329,2.977-1.952,4.465c-3.62,0-7.211,0-10.779,0c-0.021,0-0.041,0-0.062,0
		c-0.058,0-0.117,0-0.173,0c-9.528,0-19.029,0-28.559,0c1.848-4.136,3.694-8.276,5.518-12.412c0.896-2.031,1.804-4.059,2.717-6.09
		c-2.839,0-5.681,0-8.521,0c-1.354,3.085-2.698,6.178-4.035,9.254c-1.343,3.086-2.708,6.166-4.036,9.248c-3.802,0-7.575,0-11.375,0
		c1.353-3.082,2.731-6.167,4.06-9.248c1.327-3.082,2.708-6.169,4.087-9.254c-2.793,0-5.581,0-8.376,0
		c0.38,1.379,0.407,2.935,0.02,4.662c-0.451,2.015-1.327,3.882-2.578,5.614c-1.248,1.731-2.867,3.214-4.789,4.464
		c-2.217,1.44-4.66,2.55-7.315,3.295c-2.681,0.751-5.493,1.122-8.514,1.122c-5.311,0-9.266-1.044-11.898-3.124
		c-1.324-1.047-2.225-2.269-2.655-3.681c-0.231-0.761-0.348-1.573-0.343-2.443c-0.084,0.122-0.168,0.244-0.256,0.367
		c-1.249,1.731-2.843,3.214-4.765,4.464c-2.216,1.44-4.66,2.55-7.315,3.295c-2.681,0.751-5.494,1.122-8.488,1.122
		c-5.336,0-9.315-1.049-11.924-3.124c-1.321-1.05-2.251-2.269-2.682-3.681C110.237,217.428,110.154,217.038,110.098,216.638
		L110.098,216.638z"/>
</g>
</svg>
