<?xml version="1.0" encoding="utf-8"?>
<!-- Generator: Adobe Illustrator 16.0.0, SVG Export Plug-In . SVG Version: 6.00 Build 0)  -->
<!DOCTYPE svg PUBLIC "-//W3C//DTD SVG 1.1//EN" "http://www.w3.org/Graphics/SVG/1.1/DTD/svg11.dtd">
<svg version="1.1" id="Layer_1" xmlns="http://www.w3.org/2000/svg" xmlns:xlink="http://www.w3.org/1999/xlink" x="0px" y="0px"
	 width="345px" height="345px" viewBox="0 0 345 345" enable-background="new 0 0 345 345" xml:space="preserve">
<g>
	<linearGradient id="SVGID_1_" gradientUnits="userSpaceOnUse" x1="1.2793" y1="172.5015" x2="27.6416" y2="172.5015">
		<stop  offset="0" style="stop-color:#666666"/>
		<stop  offset="1" style="stop-color:#B3B3B3"/>
	</linearGradient>
	<rect x="1.279" y="119.819" fill-rule="evenodd" clip-rule="evenodd" fill="url(#SVGID_1_)" width="26.362" height="105.364"/>
	<rect x="27.645" y="119.816" fill-rule="evenodd" clip-rule="evenodd" fill="#FF0000" width="316.076" height="105.362"/>
	<g>
		<g>
			<path fill-rule="evenodd" clip-rule="evenodd" fill="#FFFFFF" d="M82.219,149.434H57.777v46.146H82.43
				c7.796,0,13.698-0.421,18.648-3.054c5.27-2.74,8.007-6.43,9.168-9.063c1.473-3.265,2.107-6.951,2.107-10.532
				c0-6.851-2.212-10.853-3.16-12.54C103.291,150.065,89.594,149.434,82.219,149.434z M91.49,181.566
				c-1.789,1.688-4.847,2.634-10.112,2.634h-6.639v-18.648l-9.691-4.842h16.854c2.741,0,6.427,0.313,9.168,2.525
				c2.107,1.792,3.897,4.846,3.897,9.063C94.968,175.984,93.494,179.67,91.49,181.566z M223.506,173.563
				c1.896-2.424,2.952-6.113,2.952-9.379c0-4.738-2.001-9.269-5.371-11.798c-3.794-2.848-8.955-2.952-12.964-2.952h-34.345v46.146
				h16.538v-15.803h9.588l9.171,15.803h18.328l-11.166-17.487C218.238,177.668,221.191,176.3,223.506,173.563z M203.176,169.346
				h-12.859v-9.479h14.229c1.265,0,2.945,0.207,4.211,1.579c0.847,0.842,1.16,2.105,1.16,3.266
				C209.916,169.346,205.705,169.346,203.176,169.346z M293.572,149.434v46.146h16.96v-46.146H293.572z M276.503,170.61
				c5.584-1.369,8.851-4.53,8.851-10.324c0-2.105-0.633-5.899-4.003-8.323c-3.161-2.32-7.482-2.529-10.644-2.529h-37.295v46.146
				h34.031c4,0,8.321-0.313,12.012-1.685c4.634-1.789,8.219-5.584,8.219-12.01c0-3.269-0.633-5.374-2.64-7.482
				C282.511,171.666,279.24,171.034,276.503,170.61z M249.426,159.233h14.751c1.577,0,2.633,0.104,3.267,0.421
				c1.472,0.841,2.104,2.104,2.104,3.477c0,2.109-0.736,3.266-2.002,3.687c-0.423,0.211-0.944,0.527-3.474,0.527h-14.646V159.233z
				 M268.812,185.152c-0.737,0.314-2.002,0.527-3.579,0.527h-15.807v-8.852h15.487c2,0,3.161,0,4.217,0.313
				c1.369,0.526,2.21,1.688,2.21,3.584C271.34,182.518,270.916,184.2,268.812,185.152z M134.795,177.355h28.34v-10.538h-28.235
				v-7.06h30.661v-10.324h-47.624v46.146h48.255v-10.428h-31.396V177.355z"/>
		</g>
	</g>
</g>
</svg>
