<?xml version="1.0" encoding="utf-8"?>
<!-- Generator: Adobe Illustrator 16.0.0, SVG Export Plug-In . SVG Version: 6.00 Build 0)  -->
<!DOCTYPE svg PUBLIC "-//W3C//DTD SVG 1.1//EN" "http://www.w3.org/Graphics/SVG/1.1/DTD/svg11.dtd">
<svg version="1.1" id="Layer_1" xmlns="http://www.w3.org/2000/svg" xmlns:xlink="http://www.w3.org/1999/xlink" x="0px" y="0px"
	 width="345px" height="345px" viewBox="0 0 345 345" enable-background="new 0 0 345 345" xml:space="preserve">
<g id="g10" transform="matrix(1.25,0,0,-1.25,0,171.425)">
	<g id="g12" transform="scale(0.1,0.1)">
		<g id="g14">
			<g>
				<defs>
					<polygon id="SVGID_1_" points="1334.039,1078.595 2001.508,694.728 2001.508,-78.787 1334.039,-462.678 665.961,-78.787 
						665.961,694.728 					"/>
				</defs>
				<clipPath id="SVGID_2_">
					<use xlink:href="#SVGID_1_"  overflow="visible"/>
				</clipPath>
				<g id="g16" clip-path="url(#SVGID_2_)">
					
						<linearGradient id="path32_1_" gradientUnits="userSpaceOnUse" x1="18.9102" y1="-1378.3342" x2="20.5014" y2="-1378.3342" gradientTransform="matrix(103.4999 -61.1245 -61.1245 -103.4999 -85530.4688 -140805.75)">
						<stop  offset="0" style="stop-color:#231F20"/>
						<stop  offset="0.2122" style="stop-color:#FFFFFF"/>
						<stop  offset="0.27" style="stop-color:#FFFFFF"/>
						<stop  offset="1" style="stop-color:#656263"/>
					</linearGradient>
					<path id="path32" fill="url(#path32_1_)" d="M1334.039,1078.595l667.469-383.867V-78.787l-667.469-383.891L665.961-78.787
						v773.516L1334.039,1078.595"/>
				</g>
			</g>
		</g>
		<path id="path34" fill="none" stroke="#BDBCBC" stroke-width="9" d="M1334.039,1078.595l667.469-383.867V-78.787l-667.469-383.891
			L665.961-78.787v773.516L1334.039,1078.595z"/>
		<path id="path36" fill="#918F90" d="M1332.414,956.861l564.398-323.73V-17.186L1332.414-340.92L770.641-17.186V633.13
			L1332.414,956.861"/>
		<path id="path38" fill="none" stroke="#E9E9E9" stroke-width="9" d="M1332.414,956.861l564.398-323.73V-17.186L1332.414-340.92
			L770.641-17.186V633.13L1332.414,956.861z"/>
		<path id="path40" fill="#231F20" d="M1709.766,260.232c-14.688-22.047-34.703-33.938-63.008-37.488
			c-79.953-10.051-190.406,48.441-242.633,86.043V613.06c46.805-32.719,112.352-66.426,204.023-97.859
			c71.727-24.566,100.266-80.93,110.891-112.34C1736.289,351.81,1732.562,294.47,1709.766,260.232L1709.766,260.232z
			 M999.023,222.744c-28.285,3.551-48.301,15.441-62.98,37.488c-22.824,34.238-26.555,91.578-9.293,142.629
			c10.637,31.41,39.199,87.773,110.918,112.34c91.688,31.434,157.184,65.141,204.047,97.859V308.787
			C1189.441,271.185,1078.996,212.693,999.023,222.744z M1828.617,439.966c-30.109,89-95.078,154.605-182.961,184.715
			c-118.922,40.762-220.93,114.195-220.93,114.195c-13.094,11.793-37.313,42.816-37.313,42.816
			c-41.492,58.996-58.141,126.703-58.141,126.703h-19.145c-11.836-58.203-53.949-132.117-55.672-135.395
			c-23.723-32.34-40.695-42.844-40.695-42.844c-38.758-30.305-106.055-68.613-213.617-105.476
			c-87.859-30.109-152.859-95.715-182.984-184.715c-29.078-85.918-20.422-179.41,22.621-243.945
			c33.254-49.898,83.371-80.387,144.824-88.086c86.82-10.949,183.852,24.773,257.109,64.66v-377.039h162.41v377.039
			c73.195-39.887,170.242-75.609,257.063-64.66c61.492,7.699,111.57,38.188,144.867,88.086
			C1849.07,260.556,1857.711,354.048,1828.617,439.966"/>
		<path id="path42" fill="#FFFFFF" d="M1728.242,244.701c-14.688-22.02-34.664-33.922-62.953-37.488
			c-79.977-10.059-190.438,48.461-242.688,86.063v304.27c46.875-32.723,112.352-66.43,204.07-97.832
			c71.672-24.59,100.211-80.945,110.844-112.355C1754.82,336.263,1751.101,278.947,1728.242,244.701z M1017.523,207.213
			c-28.289,3.566-48.289,15.469-62.98,37.488c-22.82,34.246-26.547,91.563-9.258,142.656c10.633,31.41,39.16,87.766,110.883,112.355
			c91.691,31.402,157.168,65.109,204.035,97.832v-304.27C1207.969,255.673,1097.5,197.154,1017.523,207.213z M1847.156,424.451
			c-30.133,89.012-95.094,154.582-182.984,184.715c-118.945,40.742-220.922,114.211-220.922,114.211
			c-13.141,11.773-37.336,42.801-37.336,42.801c-41.504,58.961-58.176,126.703-58.176,126.703h-19.078
			c-11.832-58.191-54.004-132.098-55.691-135.398c-23.707-32.355-40.711-42.816-40.711-42.816
			c-38.734-30.352-106.047-68.672-213.613-105.5c-87.879-30.133-152.879-95.703-182.969-184.715
			c-29.102-85.934-20.422-179.402,22.598-243.938c33.273-49.91,83.355-80.398,144.824-88.105
			c86.828-10.902,183.891,24.793,257.105,64.68v-377.078h162.398v377.078c73.258-39.887,170.32-75.582,257.102-64.68
			c61.5,7.707,111.523,38.195,144.867,88.105C1867.57,245.048,1876.258,338.517,1847.156,424.451"/>
		<g id="g44">
			<g>
				<defs>
					<path id="SVGID_3_" d="M1719.297,254.259c-14.688-22.004-34.664-33.93-62.984-37.488
						c-79.953-10.043-190.414,48.445-242.664,86.047v304.273c46.875-32.715,112.352-66.43,204.07-97.859
						c71.664-24.566,100.234-80.93,110.859-112.34C1745.828,345.841,1742.156,288.502,1719.297,254.259L1719.297,254.259z
						 M1008.566,216.771c-28.289,3.559-48.289,15.484-62.977,37.488c-22.816,34.242-26.551,91.582-9.258,142.633
						c10.629,31.41,39.156,87.773,110.879,112.34c91.699,31.43,157.168,65.145,204.039,97.859V302.818
						C1199.012,265.216,1088.535,206.728,1008.566,216.771z M1838.195,433.998c-30.109,89-95.094,154.605-183,184.695
						c-118.914,40.781-220.898,114.219-220.898,114.219c-13.141,11.785-37.344,42.797-37.344,42.797
						c-41.496,59-58.164,126.719-58.164,126.719h-19.082c-11.828-58.203-54.004-132.117-55.695-135.395
						c-23.703-32.34-40.707-42.828-40.707-42.828c-38.73-30.324-106.043-68.629-213.613-105.512
						c-87.875-30.09-152.875-95.695-182.965-184.695c-29.105-85.918-20.43-179.41,22.598-243.945
						c33.273-49.898,83.352-80.387,144.816-88.109c86.832-10.918,183.891,24.797,257.109,64.684v-377.063h162.398v377.063
						c73.242-39.887,170.32-75.602,257.109-64.684c61.5,7.723,111.539,38.211,144.852,88.109
						C1858.617,254.588,1867.289,348.08,1838.195,433.998L1838.195,433.998z"/>
				</defs>
				<clipPath id="SVGID_4_">
					<use xlink:href="#SVGID_3_"  overflow="visible"/>
				</clipPath>
				<g id="g46" clip-path="url(#SVGID_4_)">
					
						<linearGradient id="path62_1_" gradientUnits="userSpaceOnUse" x1="18.9062" y1="-1378.3733" x2="20.4979" y2="-1378.3733" gradientTransform="matrix(103.4991 -61.1241 -61.1241 -103.4991 -85525.9531 -140797.7031)">
						<stop  offset="0" style="stop-color:#231F20"/>
						<stop  offset="0.2122" style="stop-color:#FFFFFF"/>
						<stop  offset="0.27" style="stop-color:#FFFFFF"/>
						<stop  offset="1" style="stop-color:#656263"/>
					</linearGradient>
					<path id="path62" fill="url(#path62_1_)" d="M1719.297,254.259c-14.688-22.004-34.664-33.93-62.984-37.488
						c-79.953-10.043-190.414,48.445-242.664,86.047v304.273c46.875-32.715,112.352-66.43,204.07-97.859
						c71.664-24.566,100.234-80.93,110.859-112.34C1745.828,345.841,1742.156,288.502,1719.297,254.259L1719.297,254.259z
						 M1008.566,216.771c-28.289,3.559-48.289,15.484-62.977,37.488c-22.816,34.242-26.551,91.582-9.258,142.633
						c10.629,31.41,39.156,87.773,110.879,112.34c91.699,31.43,157.168,65.145,204.039,97.859V302.818
						C1199.012,265.216,1088.535,206.728,1008.566,216.771z M1838.195,433.998c-30.109,89-95.094,154.605-183,184.695
						c-118.914,40.781-220.898,114.219-220.898,114.219c-13.141,11.785-37.344,42.797-37.344,42.797
						c-41.496,59-58.164,126.719-58.164,126.719h-19.082c-11.828-58.203-54.004-132.117-55.695-135.395
						c-23.703-32.34-40.707-42.828-40.707-42.828c-38.73-30.324-106.043-68.629-213.613-105.512
						c-87.875-30.09-152.875-95.695-182.965-184.695c-29.105-85.918-20.43-179.41,22.598-243.945
						c33.273-49.898,83.352-80.387,144.816-88.109c86.832-10.918,183.891,24.797,257.109,64.684v-377.063h162.398v377.063
						c73.242-39.887,170.32-75.602,257.109-64.684c61.5,7.723,111.539,38.211,144.852,88.109
						C1858.617,254.588,1867.289,348.08,1838.195,433.998"/>
				</g>
			</g>
		</g>
		<path id="path64" fill="#231F20" d="M170.879-876.608h114.043c49.887,0,73.836,39.617,73.836,80.82
			c0,39.273-23.949,78.852-73.836,78.852H170.879V-876.608z M68.516-650.678h181.57c137.883,0,188.691-56.273,188.691-145.156
			c0-90.75-50.809-147-188.691-147h-79.207v-139.641H68.516V-650.678"/>
		<path id="path66" fill="#231F20" d="M475.461-1082.475h101.305v431.797H475.461V-1082.475z"/>
		<path id="path68" fill="#231F20" d="M2097.351-1082.475h101.32v431.797h-101.32V-1082.475z"/>
		<path id="path70" fill="#231F20" d="M755.508-913.795h155.645l-75.809,196.859L755.508-913.795z M613.023-1082.475
			l170.535,431.797h152.383l166.285-431.797H969.805l-29.016,85.227H725.863l-29.637-85.227H613.023"/>
		<path id="path72" fill="#231F20" d="M1298.613-1095.803c-123.379,0-203.813,97.359-203.813,216.477
			c0,130.609,81.023,241.898,234.629,241.898c99.188,0,199.25-50.086,217.102-151.766h-103.094
			c-12.086,47.164-64.578,82.375-114.75,82.375c-70.16,0-119.383-53.953-119.383-163.422c0-109.453,65.699-161.82,116.492-161.82
			c47.793,0,98.914,39.07,110.406,86.836h-88.629v66.516h197.129C1537.07-985.826,1516.031-1095.803,1298.613-1095.803"/>
		<path id="path74" fill="#231F20" d="M1796.5-1095.803c-123.352,0-203.797,97.359-203.797,216.477
			c0,130.609,81.016,241.898,234.664,241.898c99.148,0,199.188-50.086,217.086-151.766h-103.078
			c-12.109,47.164-64.594,82.375-114.789,82.375c-70.148,0-119.344-53.953-119.344-163.422c0-109.453,65.648-161.82,116.445-161.82
			c47.797,0,98.945,39.07,110.438,86.836h-88.641v66.516h197.141C2034.969-985.826,2013.93-1095.803,1796.5-1095.803"/>
		<path id="path76" fill="#231F20" d="M2498.476-1012.342c67.148,0,110.109,50.195,110.109,145.727
			c0,95.555-42.961,145.766-110.109,145.766c-67.695,0-110.664-50.211-110.664-145.766
			C2387.812-962.147,2430.781-1012.342,2498.476-1012.342z M2498.476-1095.803c-140.906,0-246.102,77.422-246.102,229.187
			c0,151.773,105.195,229.188,246.102,229.188c140.32,0,245.523-77.414,245.523-229.188
			C2744-1018.381,2638.797-1095.803,2498.476-1095.803"/>
		<path id="path78" fill="#231F20" d="M68.516-650.678H16v-36.836c0,0,54.629,8.383,54.629-42.008"/>
	</g>
</g>
</svg>
