<?xml version="1.0" encoding="utf-8"?>
<!-- Generator: Adobe Illustrator 16.0.0, SVG Export Plug-In . SVG Version: 6.00 Build 0)  -->
<!DOCTYPE svg PUBLIC "-//W3C//DTD SVG 1.1//EN" "http://www.w3.org/Graphics/SVG/1.1/DTD/svg11.dtd">
<svg version="1.1" id="Layer_1" xmlns="http://www.w3.org/2000/svg" xmlns:xlink="http://www.w3.org/1999/xlink" x="0px" y="0px"
	 width="345px" height="345px" viewBox="0 0 345 345" enable-background="new 0 0 345 345" xml:space="preserve">
<path fill-rule="evenodd" clip-rule="evenodd" fill="#EC1C24" d="M172.37,7.678c87.814,0,159.785,73.967,159.785,164.822
	c0,90.859-71.971,164.822-159.785,164.822c-87.822,0-159.525-73.963-159.525-164.822C12.845,81.646,84.548,7.678,172.37,7.678
	L172.37,7.678z M172.37,29.012c-76.808,0-139.115,64.542-139.115,143.488c0,79.225,62.308,143.488,139.115,143.488
	c76.529,0,139.106-64.264,139.106-143.488C311.477,93.554,248.899,29.012,172.37,29.012L172.37,29.012z M172.37,54.221
	c-63.116,0-114.409,53.183-114.409,118.279c0,65.096,51.293,118.285,114.409,118.285c63.103,0,114.667-53.189,114.667-118.285
	C287.037,107.404,235.473,54.221,172.37,54.221L172.37,54.221z M146.313,265.576h23.101v-81.441h12.885
	c14.505,0,30.085-12.742,30.615-54.296c0.543-42.936-15.309-58.725-30.88-58.725h-35.721V265.576L146.313,265.576z M169.414,94.103
	v68.699h9.934c8.595,0,10.744-15.232,12.082-36.285c1.073-19.946-5.367-32.414-12.619-32.414H169.414L169.414,94.103z
	 M117.042,148.678h19.337c-0.271-16.064-2.949-22.995-8.053-31.027c-5.104-8.306-12.358-12.462-21.757-12.462
	c-10.741,0-19.066,6.646-24.71,19.387c-5.906,13.022-8.856,31.306-8.856,55.13c0,48.197,20.943,66.477,31.957,66.477
	c11.278,0,29.809-12.182,30.616-44.043h-19.879c-0.532,9.42-3.222,23.547-9.398,23.547c-9.131,0-14.501-27.977-14.501-47.643
	c0-20.227,5.37-53.188,14.771-53.188C114.091,124.855,116.775,142.581,117.042,148.678L117.042,148.678z M231.178,107.677v132.686
	h23.899V107.677H231.178L231.178,107.677z"/>
</svg>
