<?xml version="1.0" encoding="utf-8"?>
<!-- Generator: Adobe Illustrator 16.0.0, SVG Export Plug-In . SVG Version: 6.00 Build 0)  -->
<!DOCTYPE svg PUBLIC "-//W3C//DTD SVG 1.1//EN" "http://www.w3.org/Graphics/SVG/1.1/DTD/svg11.dtd">
<svg version="1.1" id="Layer_1" xmlns="http://www.w3.org/2000/svg" xmlns:xlink="http://www.w3.org/1999/xlink" x="0px" y="0px"
	 width="345px" height="345px" viewBox="0 0 345 345" enable-background="new 0 0 345 345" xml:space="preserve">
<g>
	<path d="M0,172.499c0,45.752,18.174,89.626,50.524,121.977C82.874,326.826,126.75,345,172.5,345
		c45.751,0,89.627-18.174,121.976-50.524C326.825,262.125,345,218.251,345,172.499c0-45.749-18.175-89.625-50.524-121.976
		C262.127,18.174,218.251,0,172.5,0C126.75,0,82.874,18.174,50.524,50.523C18.174,82.874,0,126.75,0,172.499"/>
	<polyline fill="#FF170E" points="172.578,315.283 255.161,173.743 170.991,27.627 90.383,173.743 171.027,315.283 172.578,315.283 
			"/>
	<g id="XMLID_1_">
		<g>
			<path fill="#FFFFFF" d="M262.037,177.32h-0.058c-0.325-0.773-0.658-1.54-1.016-2.294
				C261.335,175.787,261.692,176.547,262.037,177.32z"/>
			<path fill="#DFC001" d="M226.713,137.332c11.072,7.124,20.649,16.356,28.182,27.16c2.242,3.31,4.249,6.772,5.993,10.369
				c0.025,0.052,0.057,0.108,0.076,0.166c0.357,0.754,0.69,1.521,1.016,2.294l-7.967,0.096l-17.953,0.02l0.02,22.585
				c-2.996,2.453-6.121,4.74-9.366,6.855V137.332z"/>
			<path fill="#DFC001" d="M220.893,133.563v43.681h-5.252v0.192h-0.307l8.798,31.376c-2.734,1.553-5.546,2.965-8.421,4.223
				l-10.318-35.599h-4.012v41.541c-3.099,0.817-6.229,1.495-9.379,2.031v-97.987C201.994,125.436,211.692,128.975,220.893,133.563z"
				/>
			<path fill="#DFC001" d="M166.478,121.225c7.788-0.383,15.589,0.096,23.263,1.444l-0.032,8.734
				c-4.511-1.354-9.232-1.866-13.922-1.501l0.07,38.34h11.826v9.194h-11.826l0.103,37.899c4.6,0.191,9.219-0.032,13.781-0.658v6.689
				c-7.648,1.552-15.455,2.255-23.263,2.082V121.225z"/>
			<path fill="#DFC001" d="M140.168,217.724V126.4c3.08-1.093,6.21-2.038,9.379-2.843l0.039,88.373
				c4.676,1.488,9.52,2.408,14.419,2.728v8.453C155.917,221.979,147.943,220.184,140.168,217.724z"/>
			<path fill="#DFC001" d="M137.574,127.161v89.803c-3.188-1.214-6.319-2.581-9.379-4.108V131.25
				C131.255,129.729,134.386,128.368,137.574,127.161z"/>
			<path fill="#DFC001" d="M124.822,143.229c-11.526,7.111-21.192,16.86-28.208,28.437c4.849,8.562,11.309,16.119,19.007,22.233
				v-16.464h-8.44v-9.194l17.825,0.038v42.934c-14.547-7.936-26.623-19.742-34.884-34.092c-1.099-1.706-2.025-3.508-2.753-5.392
				c0.166-0.339,0.332-0.677,0.505-1.009l1.444-2.632c0.287-0.499,0.587-0.997,0.901-1.482
				c8.567-13.954,20.483-25.537,34.667-33.708L124.822,143.229z"/>
			<path fill="#DFC001" d="M291.573,54c31.511,31.498,49.208,74.24,49.208,118.796s-17.697,87.292-49.208,118.796
				c-31.504,31.511-74.239,49.215-118.796,49.215s-87.292-17.704-118.796-49.215c-31.51-31.504-49.208-74.239-49.208-118.796
				S22.471,85.498,53.981,54c31.504-31.51,74.24-49.208,118.796-49.208S260.069,22.49,291.573,54z M333.102,172.65
				c0-42.461-16.867-83.178-46.889-113.2c-30.021-30.021-70.738-46.895-113.199-46.895S89.835,29.429,59.814,59.45
				c-30.021,30.022-46.889,70.739-46.889,113.2c0,42.449,16.867,83.171,46.889,113.193c30.021,30.022,70.739,46.896,113.2,46.896
				s83.178-16.873,113.199-46.896C316.234,255.821,333.102,215.099,333.102,172.65z"/>
			<path fill="#FFFFFF" d="M89.318,168.088l-1.444,2.632C88.321,169.826,88.807,168.951,89.318,168.088z"/>
			<path fill="#DFC001" d="M260.964,175.026c-0.02-0.058-0.051-0.114-0.076-0.166c-1.7-3.673-3.726-7.188-6.044-10.503l0.543-1.22
				c13.679-27.096,13.136-59.207-1.47-85.816c-14.599-26.623-41.382-44.333-71.588-47.361
				c-33.971-3.814-67.302,11.302-86.801,39.388c-19.499,28.086-22.023,64.593-6.574,95.093c0.409,0.709,0.805,1.425,1.175,2.16
				l-0.811,1.489c-0.511,0.862-0.997,1.738-1.444,2.632l-0.55,1.009c0.78,1.898,1.719,3.718,2.805,5.462l-1.278,2.294
				c-13.685,27.185-13.199,59.347,1.291,86.11c14.49,26.757,41.157,44.735,71.396,48.141c33.932,3.808,67.225-11.271,86.736-39.286
				c19.506-28.021,22.093-64.477,6.747-94.978l-1.131-2.013h8.146c-0.019-0.045-0.038-0.096-0.058-0.141h0.058
				C261.692,176.547,261.335,175.787,260.964,175.026z M272.739,122.401c0,17.397-4.498,34.494-13.065,49.636
				c8.567,15.135,13.065,32.239,13.065,49.629c0,26.738-10.619,52.37-29.523,71.281c-18.905,18.898-44.544,29.523-71.282,29.523
				c-26.731,0-52.376-10.625-71.281-29.523c-18.899-18.911-29.523-44.543-29.523-71.281c0-17.391,4.504-34.494,13.065-49.629
				c-8.562-15.142-13.065-32.239-13.065-49.636c0-26.738,10.625-52.383,29.523-71.282c18.905-18.905,44.55-29.523,71.281-29.523
				c26.738,0,52.377,10.619,71.282,29.523C262.12,70.018,272.739,95.663,272.739,122.401z"/>
		</g>
		<g>
			<path fill="none" stroke="#DFC001" d="M4.773,172.797c0,44.557,17.698,87.292,49.208,118.796
				c31.504,31.511,74.24,49.215,118.796,49.215s87.292-17.704,118.796-49.215c31.511-31.504,49.208-74.239,49.208-118.796
				S323.084,85.498,291.573,54C260.069,22.49,217.334,4.793,172.777,4.793S85.485,22.49,53.981,54
				C22.471,85.498,4.773,128.24,4.773,172.797z"/>
			<path fill="none" stroke="#DFC001" d="M12.925,172.65c0-42.461,16.867-83.178,46.889-113.2
				c30.021-30.021,70.739-46.895,113.2-46.895s83.178,16.873,113.199,46.895c30.021,30.022,46.889,70.739,46.889,113.2
				c0,42.449-16.867,83.171-46.889,113.193c-30.021,30.022-70.738,46.896-113.199,46.896s-83.178-16.873-113.2-46.896
				C29.792,255.821,12.925,215.099,12.925,172.65z"/>
			<path fill="none" stroke="#DFC001" d="M84.194,172.037c-8.562,15.135-13.065,32.239-13.065,49.629
				c0,26.738,10.625,52.37,29.523,71.281c18.905,18.898,44.55,29.523,71.281,29.523c26.738,0,52.377-10.625,71.282-29.523
				c18.904-18.911,29.523-44.543,29.523-71.281c0-17.391-4.498-34.494-13.065-49.629c8.567-15.142,13.065-32.239,13.065-49.636
				c0-26.738-10.619-52.383-29.523-71.282c-18.905-18.905-44.544-29.523-71.282-29.523c-26.731,0-52.376,10.619-71.281,29.523
				c-18.899,18.898-29.523,44.544-29.523,71.282C71.129,139.798,75.633,156.895,84.194,172.037z"/>
			<path fill="none" stroke="#DFC001" d="M261.979,177.32c0.02,0.045,0.039,0.096,0.058,0.141h-8.146l1.131,2.013
				c15.346,30.501,12.759,66.956-6.747,94.978c-19.512,28.016-52.805,43.094-86.736,39.286
				c-30.239-3.405-56.907-21.384-71.396-48.141c-14.49-26.764-14.976-58.926-1.291-86.11l1.278-2.294
				c-1.086-1.744-2.025-3.564-2.805-5.462l0.55-1.009l1.444-2.632l0.811-1.489c-0.371-0.735-0.767-1.45-1.175-2.16
				c-15.449-30.5-12.925-67.007,6.574-95.093c19.499-28.085,52.83-43.202,86.801-39.388c30.206,3.028,56.989,20.738,71.588,47.361
				c14.605,26.61,15.148,58.721,1.47,85.816"/>
			<path fill="none" stroke="#DFC001" d="M255.387,163.137l-0.543,1.22c2.318,3.316,4.344,6.83,6.044,10.503"/>
			<path fill="none" stroke="#DFC001" d="M254.013,177.416l7.967-0.096h0.058c-0.345-0.773-0.702-1.533-1.073-2.294
				c-0.02-0.058-0.051-0.114-0.076-0.166c-1.744-3.597-3.751-7.06-5.993-10.369c-7.532-10.804-17.109-20.036-28.182-27.16v69.544
				c3.245-2.115,6.37-4.402,9.366-6.855l-0.02-22.585L254.013,177.416"/>
			<path fill="none" stroke="#DFC001" d="M166.478,121.225v102.223c7.808,0.173,15.614-0.53,23.263-2.082v-6.689
				c-4.563,0.626-9.182,0.85-13.781,0.658l-0.103-37.899h11.826v-9.194h-11.826l-0.07-38.34c4.689-0.364,9.411,0.147,13.922,1.501
				l0.032-8.734C182.066,121.321,174.266,120.842,166.478,121.225z"/>
			<path fill="none" stroke="#DFC001" d="M149.585,211.93l-0.039-88.373c-3.169,0.805-6.299,1.75-9.379,2.843v91.323
				c7.775,2.46,15.749,4.256,23.837,5.387v-8.453C159.105,214.338,154.262,213.418,149.585,211.93z"/>
			<path fill="none" stroke="#DFC001" d="M128.195,131.25v81.606c3.061,1.527,6.191,2.895,9.379,4.108v-89.803
				C134.386,128.368,131.255,129.729,128.195,131.25z"/>
			<path fill="none" stroke="#DFC001" d="M90.123,177.122c8.261,14.35,20.336,26.156,34.884,34.092V168.28l-17.825-0.038v9.194h8.44
				v16.464c-7.699-6.114-14.158-13.672-19.007-22.233c7.015-11.577,16.682-21.326,28.208-28.437l0.064-10.331
				c-14.184,8.171-26.099,19.754-34.667,33.708c-0.313,0.485-0.614,0.984-0.901,1.482c-0.511,0.862-0.997,1.738-1.444,2.632
				c-0.173,0.332-0.339,0.67-0.505,1.009C88.098,173.614,89.024,175.416,90.123,177.122"/>
			<path fill="none" stroke="#DFC001" d="M220.893,133.563c-9.2-4.587-18.898-8.127-28.891-10.542v97.987
				c3.149-0.536,6.28-1.214,9.379-2.031v-41.541h4.012l10.318,35.599c2.875-1.258,5.687-2.67,8.421-4.223l-8.798-31.376h0.307
				v-0.192h5.252V133.563z"/>
		</g>
	</g>
	<path fill="#FF170E" d="M211.414,138.771c-3.225-1.495-6.575-2.701-10.014-3.602l-0.023,33.067h10.134L211.414,138.771"/>
	<path fill="#FF170E" d="M236.052,154.921l-0.011,13.316l13.985-0.004C245.678,163.482,241.009,159.034,236.052,154.921"/>
</g>
</svg>
