<?xml version="1.0" encoding="utf-8"?>
<!-- Generator: Adobe Illustrator 16.0.0, SVG Export Plug-In . SVG Version: 6.00 Build 0)  -->
<!DOCTYPE svg PUBLIC "-//W3C//DTD SVG 1.1//EN" "http://www.w3.org/Graphics/SVG/1.1/DTD/svg11.dtd">
<svg version="1.1" id="Layer_1" xmlns="http://www.w3.org/2000/svg" xmlns:xlink="http://www.w3.org/1999/xlink" x="0px" y="0px"
	 width="345px" height="345px" viewBox="0 0 345 345" enable-background="new 0 0 345 345" xml:space="preserve">
<g id="layer103">
	<path fill="#202946" d="M64.245,263.01c0.182-11.332,0.091-12.61-1.646-14.712c-2.741-3.563-8.498-4.387-30.153-4.387H13.349
		l-1.462,2.741l-1.462,2.741h18.366h18.274v4.111v4.113H31.807c-16.905,0.09-21.382,0.73-24.488,3.655
		c-3.198,3.016-3.381,6.122-0.548,9.32c3.929,4.386,8.589,5.116,34.357,4.934l22.843-0.092L64.245,263.01z M142.826,275.162
		c0.823-0.183,1.097-4.937,1.097-20.286v-20.102h-8.224h-8.223v4.568v4.568l-12.062,0.091c-18.823,0.093-24.214,1.097-26.772,4.752
		c-1.736,2.467-1.919,19.556-0.184,21.748c1.554,2.009,5.118,3.838,8.772,4.386C99.972,275.345,139.446,275.527,142.826,275.162z
		 M183.214,259.902v-15.991h-8.68c-8.498,0-8.682,0-9.229,2.376c-0.733,3.017,0,27.047,0.913,28.508
		c0.457,0.732,3.38,1.098,8.863,1.098h8.132V259.902z M254.669,260.358c4.935-8.315,8.955-15.351,8.955-15.716
		c0-0.457-3.199-0.731-7.22-0.731h-7.217l-3.564,6.214c-2.01,3.38-5.391,9.137-7.494,12.793l-3.929,6.762l-7.311-11.789
		c-4.018-6.396-7.856-12.243-8.497-12.883c-0.73-0.822-3.106-1.097-7.583-0.913l-6.488,0.273l3.838,6.031
		c2.102,3.29,6.671,10.326,10.051,15.717l6.305,9.776l10.6-0.183l10.601-0.274L254.669,260.358z M337.362,274.888
		c1.554-1.279,1.646-20.194,0.183-24.488c-1.92-5.392-4.204-5.847-28.326-6.305l-21.564-0.366l-1.554,2.102
		c-0.82,1.189-1.461,2.468-1.461,2.833c0,0.458,8.224,0.73,18.274,0.73h18.274v4.021v4.021l-17.543,0.365
		c-15.809,0.272-18,0.458-20.833,2.191c-7.859,4.569-4.296,13.068,6.396,14.987C295.057,276.075,335.993,275.983,337.362,274.888z
		 M151.233,180.223c9.778-15.258,18.001-27.686,18.275-27.686s4.386,6.122,9.138,13.523c16.903,26.316,29.057,44.773,29.879,45.23
		c1.006,0.642,11.239-5.757,11.239-7.035c0-1.371-44.864-70.266-47.148-72.46c-1.371-1.279-2.833-1.736-4.112-1.462
		c-1.828,0.457-10.782,13.433-25.951,37.281l-3.472,5.391l-4.479-4.842c-13.522-14.712-16.356-35.18-7.4-53.82
		c3.289-6.762,13.615-17.179,20.468-20.559c13.888-6.945,29.057-7.036,42.762-0.367c10.784,5.209,14.348,9.504,36.644,43.952
		c11.236,17.269,20.741,31.341,21.197,31.066c1.006-0.639,4.112-10.964,5.3-17.909c1.828-10.051,1.279-24.67-1.279-34.904
		c-8.406-32.804-33.9-56.836-67.707-63.689c-7.037-1.461-23.119-1.461-30.155,0c-27.229,5.483-49.615,22.479-61.22,46.236
		c-19.098,39.108-6.579,85.436,29.514,109.192l7.037,4.66l1.826-2.102C132.593,208.733,141.455,195.392,151.233,180.223z"/>
	<path fill="#FDFEFF" d="M20.385,269.405c-2.102-1.188-2.102-4.661,0-6.578c1.37-1.281,3.837-1.554,14.163-1.554h12.518v4.568v4.569
		H34.548C27.604,270.411,21.208,269.953,20.385,269.405z"/>
	<path fill="#FFFFFF" d="M106.733,269.771c-3.381-0.641-4.843-3.745-4.843-10.051c0-9.138,2.649-10.691,17.361-10.144
		c4.294,0.183,7.675,0.549,7.584,1.006c-0.183,0.365-0.274,4.935-0.274,10.234v9.595l-8.863-0.092
		C112.765,270.226,107.83,269.953,106.733,269.771z"/>
	<path fill="#FFFFFF" d="M293.777,268.583c-1.097-1.097-1.554-2.375-1.188-3.381c1.188-3.474,3.016-3.929,15.991-3.929h12.607v4.568
		v4.569h-12.792C296.884,270.411,295.42,270.226,293.777,268.583z"/>
</g>
</svg>
