<?xml version="1.0" encoding="utf-8"?>
<!-- Generator: Adobe Illustrator 16.0.0, SVG Export Plug-In . SVG Version: 6.00 Build 0)  -->
<!DOCTYPE svg PUBLIC "-//W3C//DTD SVG 1.1//EN" "http://www.w3.org/Graphics/SVG/1.1/DTD/svg11.dtd">
<svg version="1.1" id="Layer_1" xmlns="http://www.w3.org/2000/svg" xmlns:xlink="http://www.w3.org/1999/xlink" x="0px" y="0px"
	 width="345px" height="345px" viewBox="0 0 345 345" enable-background="new 0 0 345 345" xml:space="preserve">
<path fill-rule="evenodd" clip-rule="evenodd" fill="#EE3B25" d="M91.426,183.465h18.96v18.961h-18.96V183.465z"/>
<path fill-rule="evenodd" clip-rule="evenodd" fill="#231F20" d="M317.422,202.41l-4.352-37.133l-8.396,37.133h-20.568l-7.541-33.34
	l-3.908,33.34h-18.969l8.666-59.768h25.529l6.506,25.597l6.506-25.597h26.832l8.666,59.768H317.422z M232.027,142.575h18.031v59.851
	h-18.031V142.575z M184.629,181.234c0-16.937,0-38.66,0-38.66h18.031v44.591h25.363v15.244c0,0-13.467,0.008-23.318,0.008
	C187.354,202.418,184.629,199.086,184.629,181.234z M179.51,187.166v15.244h-25.361v0.016h-18.033v-59.851h18.033v0.068h25.361
	v15.246h-25.361v5.572h22.389v15.245h-22.389v8.461H179.51z M103.965,157.888h-6.141L84.72,202.426H65.719l19.303-59.851h31.748
	l19.301,59.851h-19L103.965,157.888z M41.322,202.426c-14.551,0-32.715,0-32.715,0v-59.851c0,0,18.444,0,33.087,0
	c10.905,0,20.075,7.682,20.075,26.022c0,2.712,0,5.467,0,8.176C61.769,192.637,54.706,202.426,41.322,202.426z M43.737,170.639
	c0-12.541-3.16-12.751-6.876-12.751c-4.752,0-10.222,0-10.222,0v29.278c0,0,5.47,0,10.222,0c3.22,0,6.876-0.193,6.876-12.809
	C43.737,173.125,43.737,171.873,43.737,170.639z"/>
</svg>
