<?xml version="1.0" encoding="utf-8"?>
<!-- Generator: Adobe Illustrator 16.0.0, SVG Export Plug-In . SVG Version: 6.00 Build 0)  -->
<!DOCTYPE svg PUBLIC "-//W3C//DTD SVG 1.1//EN" "http://www.w3.org/Graphics/SVG/1.1/DTD/svg11.dtd">
<svg version="1.1" id="Layer_1" xmlns="http://www.w3.org/2000/svg" xmlns:xlink="http://www.w3.org/1999/xlink" x="0px" y="0px"
	 width="345px" height="345px" viewBox="0 0 345 345" enable-background="new 0 0 345 345" xml:space="preserve">
<g>
	<title>Layer 1</title>
	<path id="path5888" fill="#0A53A0" d="M44.147,57.734l97.872,42.35c0,0,13.378-5.909,26.404-11.49c0,0,2.464-1.313,2.464-3.939
		c0,0,0-2.955-3.168-4.268c0,0-44.007-19.041-88.014-37.754l78.861-33.814l6.689-1.313l6.336,1.313l118.291,50.885
		c0,0,11.97,5.252,11.97,12.147c0,0,0,6.894-11.97,11.818l-92.591,39.723l92.591,39.723c0,0,11.97,4.925,11.97,12.476
		c0,0,0,6.564-11.97,12.146l-118.291,50.229c0,0-2.464,1.97-6.336,1.97l-6.689-1.97L79.705,204.48l88.014-37.425l3.168-4.268
		c0,0,0-1.97-2.464-4.268l-26.404-11.162l-97.872,42.349v-47.93l42.599-18.385l-42.599-17.728V57.734"/>
	<g id="svg_1">
		<path id="path5874" fill="#0A53A0" d="M207.152,279.769v41.747c0,0,0,17.033-16.584,17.2h-26.984c0,0-3.654-0.167-5.2-3.507
			l-4.778-9.018h30.497c0,0,6.747-0.167,6.747-6.346v-40.077H207.152"/>
		<path id="path5876" fill="#0A53A0" d="M123.95,279.769l30.639,58.947h-19.115l-5.2-10.687h-28.109l4.498-9.019
			c0,0,1.687-3.506,5.2-3.506h12.368l-10.822-21.709l-21.784,44.92H72.511l30.639-58.947H123.95"/>
		<path id="path5878" fill="#0A53A0" d="M257.046,279.769l30.357,58.947H268.57l-5.341-10.687H234.98l4.638-9.019
			c0,0,1.827-3.506,5.341-3.506h12.368l-10.821-21.709l-22.066,44.92h-19.113l30.638-58.947H257.046"/>
		<path id="path5880" fill="#0A53A0" d="M339.968,279.769v41.747c0,0-0.142,17.033-16.305,17.2h-27.266c0,0-3.794-0.167-5.34-3.507
			l-4.639-9.018h30.64c0,0,6.886-0.167,6.886-6.346v-40.077H339.968"/>
		<path id="path5884" fill="#0A53A0" d="M6.033,279.767v58.948h16.303v-25.049v-21.874h28.109c5.763,0,5.764,5.008,5.764,5.008
			c0,4.678-5.764,4.678-5.764,4.678h-18.13c-3.374,0-5.201,3.173-5.201,3.173l-4.779,9.016h27.83c6.043,0,6.043,6.18,6.043,6.18
			c0,6.179-6.043,6.347-6.043,6.347H32.315c-3.373-0.167-5.201,3.338-5.201,3.338l-4.779,9.185h28.109
			c23.893-0.168,23.895-16.028,23.895-16.028c0-10.354-11.244-14.029-11.244-14.029c11.243-3.34,11.244-13.691,11.244-13.691
			c0-15.363-23.895-15.199-23.895-15.199H6.033L6.033,279.767z"/>
	</g>
</g>
</svg>
