<?xml version="1.0" encoding="utf-8"?>
<!-- Generator: Adobe Illustrator 16.0.0, SVG Export Plug-In . SVG Version: 6.00 Build 0)  -->
<!DOCTYPE svg PUBLIC "-//W3C//DTD SVG 1.1//EN" "http://www.w3.org/Graphics/SVG/1.1/DTD/svg11.dtd">
<svg version="1.1" id="Layer_1" xmlns="http://www.w3.org/2000/svg" xmlns:xlink="http://www.w3.org/1999/xlink" x="0px" y="0px"
	 width="345px" height="345px" viewBox="0 0 345 345" enable-background="new 0 0 345 345" xml:space="preserve">
<path fill-rule="evenodd" clip-rule="evenodd" fill="#231F20" d="M143.241,121.981c0,0,0.572,1.143,2.858,0
	C147.243,121.409,143.241,121.981,143.241,121.981L143.241,121.981z M144.957,123.124c0,0,3.43,2.858,7.433,1.143
	c1.144-0.572-3.431-0.572-3.431-0.572C149.531,122.551,144.957,123.124,144.957,123.124L144.957,123.124z M148.958,127.125
	c0,0,0,1.716,2.858,0.573C154.104,127.125,148.958,127.125,148.958,127.125L148.958,127.125z M149.531,128.841
	c0.572,0,2.285,1.143,5.145,1.143c1.144-0.571-2.287-0.571-2.287-0.571C154.104,128.269,149.531,128.841,149.531,128.841
	L149.531,128.841z M153.533,159.141c0.572,0,0.572-0.571,0-0.571V159.141L153.533,159.141z M155.248,154.567
	c0,0-1.143,0-0.572,0.573C155.819,155.14,155.248,154.567,155.248,154.567L155.248,154.567z M159.821,148.85
	c-0.571,0-0.571,0-0.571,0.572C160.393,149.422,160.393,148.278,159.821,148.85L159.821,148.85z M160.965,148.278L160.965,148.278
	h0.571c0,0.572-0.571,0.572-0.571,0.572S160.965,148.85,160.965,148.278L160.965,148.278z M171.255,145.42c0,0,0-0.571,0.571-0.571
	l0.572,0.571c0,0.572-0.572,0.572-0.572,0.572C171.255,145.992,171.255,145.992,171.255,145.42L171.255,145.42z M167.825,143.705
	c0,0,2.858-2.287,4.001,0.572C170.684,143.133,167.825,143.705,167.825,143.705L167.825,143.705z M166.682,145.42
	c0,0,1.715-2.287,2.858-0.571C168.969,145.42,166.682,145.992,166.682,145.42L166.682,145.42z M166.682,148.278l0.571-0.571
	c0.572,0,0.572,0.571,0.572,0.571c0,0.572,0,0.572-0.572,0.572C167.253,148.85,166.682,148.85,166.682,148.278L166.682,148.278z
	 M156.391,154.567c0,0,4.001-4.002,9.719-4.574c0.572-1.143-1.145-1.143-1.145-1.143s-4,1.143-8.575,5.146
	C155.248,155.711,156.391,154.567,156.391,154.567L156.391,154.567z M156.962,152.281c0,0,4.574-2.288,4.574-2.859
	C156.391,151.137,156.962,152.281,156.962,152.281L156.962,152.281z M168.397,157.426c0-0.571,0-0.571,0.572-0.571c0,0,0,0,0,0.571
	l0,0C168.397,157.426,168.397,157.426,168.397,157.426L168.397,157.426z M68.348,112.833c0,0,0,0,0.572,0h0.572
	c0,0.572-0.572,0.572-0.572,0.572C68.348,113.405,68.348,113.405,68.348,112.833L68.348,112.833z M23.755,107.116
	c9.719,5.146,32.587,3.43,52.024,1.715c16.009-1.715,60.029-7.433,77.753,8.575c1.143,0.572,1.143,1.715,4.001,1.144
	c3.431-1.144,9.148-1.144,11.435-0.572c1.715,0.572,2.287,0.572,2.858,0c0.572,0,1.714,0,2.859,0.572
	c0.571,0,1.715,0.572,1.144-0.572c-0.572-1.143,0-1.715,1.714-1.143c1.716,1.143,5.146,2.287,8.577,1.715
	c3.431-0.572,3.431,0.572,3.431,0.572s0.57,0,1.714-1.144c1.144-0.572,2.859-1.715,16.009-2.858
	c7.43-1.143,12.576-4.573,12.576-4.573c3.43-2.287,15.437-5.718,60.03-2.86c26.87,2.288,33.73,0.573,42.307-3.43
	c3.429-1.144,1.143,0.572,1.143,1.145c-1.143,0.57-3.43,1.715-4.002,2.858c-0.571,0.572-2.287,1.715-2.287,1.715
	s-5.717,2.287-11.434,2.858c5.717,4.002-4.573,5.717-23.439,7.432c2.286,2.859-9.72,2.859-18.866,1.716
	c5.145,4.001-8.005,2.286-8.005,2.286c0,1.144,2.859,4.002-8.003,2.858c1.143,4.575-8.577,2.288-9.72,2.288
	c2.286,4.001-3.431,4.573-5.144,4.001c3.43,1.143,1.14,6.29-4.576,4.574c0.572,3.43-3.431,3.43-5.145,2.858
	c0,0.572-1.716,4.573-6.861,1.144c1.146,4.001-5.717,2.858-6.288,1.715c0,1.144-3.43,2.858-5.716,0
	c-1.717,2.858-4.576,1.144-7.434-1.144c0.571,4.574-4.572,0.572-5.716-0.571c0.57,2.858-4.003,2.858-5.719-0.572
	c-0.571,4.001-4.001-0.572-4.001-0.572s-1.144-0.573-2.286,0c-1.716,0.572,0.57,1.144,0.57,1.144c3.43,0,6.861,9.718-4.573,10.863
	c-4.002,0-4.002,1.714-2.859,1.714c1.714,0,11.435-2.858,11.435,2.859c-0.573,0-0.573,1.144-0.573,1.144
	c0,0.571,0,2.287-2.286,3.431c0-4.574-1.144-3.431-1.144-2.859c0,1.144,0.572,3.431-1.716,3.431
	c-0.57-3.431-1.143-2.858-1.143-1.715s-1.144,1.715-2.287,1.715c-0.572-0.571,0-2.287,0-2.287c-1.143,0-1.715,0-1.715-1.715
	s-1.143-1.144-1.143,0c0.571,1.715-1.144,1.144-1.144,1.144s1.144,1.715-2.858,1.715c1.715-2.858-1.143-2.858-1.715-1.144
	c0,0,0,1.716-2.288,1.716c1.145-4.002-1.144-4.002-1.144-1.716c0,1.716-1.142,1.716-1.715,0.572
	c-0.572-0.572-0.572-0.572-1.715-0.572c-0.572,0.572-1.715,0-1.715-1.144c0.572-0.571-1.143-1.143-1.143,0.572
	c-0.572,2.287-2.287,1.144-2.287,1.144c0-0.572-1.716,0-3.43,2.287c1.713,1.714-2.86,2.285-2.287-0.572c0.57-1.715,0-2.287,0-2.287
	s-8.577,6.29-6.862,1.144c0,0-12.006,7.434-12.006,1.716c-1.144,0.57-2.287,0.57-3.43-1.144c-1.715,1.144-2.287,0.571-2.287-0.572
	c-1.144,0.572-1.715,0-1.715-0.571c-5.146,0.571-6.861,0-7.433-1.716c-6.86,0,1.144-5.717,7.433-9.147
	c1.144-0.571,2.858-1.143,3.43-2.286c2.858-2.858,4.573-4.574,6.288-5.146c2.858-1.143,2.288-3.43,2.288-3.43
	s-13.149,5.717-12.006-0.573c-6.289,1.145-8.576,0.573-5.716-2.858c-12.008,2.288-9.72-1.144-8.005-4.001
	c-2.287,0.571-15.436,3.43-9.719-1.715c-13.721,1.144-11.434-1.143-8.004-4.001c-1.143-0.572-10.29,1.715-6.86-2.858
	c-18.866,2.858-20.581-1.143-17.723-2.288c1.144-1.144-0.571-0.572-1.143-1.144c-1.143-0.571-2.287-0.571-6.86,0
	c-7.433,0.572-21.726,0-21.154-4.001c-5.145,0-10.291-4.001-10.291-4.001c-0.572,0,0-0.573-0.572-1.715
	C24.327,109.975,22.04,105.972,23.755,107.116L23.755,107.116z M178.116,118.55c0,0,4.002,1.143,6.859,1.143
	c2.859-0.571,8.576,0,7.433,3.431c-0.57-1.143-1.144-1.715-1.144-1.715l0.573,2.286c0,0,11.433-1.714,9.717,5.146
	c-1.714-2.287-4.573-0.572-4.573-0.572s-4.001-1.715-8.003,2.858c3.43-1.144,4.573-0.572,4.573-0.572
	c0.572,0.572,4.572,0.572,5.146,0c0.57-0.572-0.573,2.858-8.003,2.287c-1.716-0.572-6.862,0.572-7.433,1.715
	c0.57,0.572-1.144,1.144-2.287,1.144c-2.286,0-1.716,1.143-1.716,1.143s-1.143,0.572-2.286,1.715c-0.572,0.573-0.572,0-0.572,0
	s1.716-2.286,1.716-1.715c0.572,0,0-0.57,0-0.57s-3.431,1.142-4.003,1.715c-0.572,0.571-0.572,0-0.572,0s3.432-2.288,4.002-2.859
	c0.573-0.572-2.857,0.572-5.716,2.859c-1.715,1.144,3.43-3.431,7.432-4.574c0.572,0-4.002,0-6.289,2.287
	c-2.858,2.858-2.858,1.715-2.858,1.715s2.287-2.858,2.858-2.858c0.571,0,2.287-0.571,2.287-1.715
	c0.572-0.572-2.287,1.715-3.43,1.144c-1.715,2.288-8.003,8.004-11.434,2.858c6.861,2.288,10.291-3.43,10.291-3.43
	s-5.718,5.145-9.718,2.859c8.003,0,9.146-3.431,9.146-3.431s-2.287,2.858-8.576,2.858c2.288-1.144,4.574-0.572,4.574-2.287
	c-1.715,0.572-4.574,1.143-4.574,1.143s0-1.715-2.287-1.143c-1.715,0.572-2.287,0-2.287,0l0.572-1.144h-2.858l1.715,1.144
	c0.571,1.143,5.716,0.572,4.574,1.143c-1.145,0.572-4.574,0-4.574,0s-3.43-1.715-2.858-2.858c0-0.572,3.43,0,4.573-1.144
	c-4.573,1.144-10.29-0.572-10.863-4.573c4.573,0.572,5.718,0,5.718,0s-10.291-0.572-10.863-5.146c2.287,0,3.43-0.572,3.43-0.572
	s-5.717,0-7.432-1.143c0-0.572,1.144-1.144,1.144-1.144s-4.573,1.144-5.716,0c-0.573-1.143,1.143-1.143,1.143-1.143
	c-0.573-0.572-5.718,1.143-2.288-1.715c-5.145,0.572-9.718,0.572-5.717-1.143c-5.718,1.143-7.432,0.571-4.573-1.144
	c-3.43,1.715-6.288,1.715-5.146,0c-1.715,1.144-4.001,1.144-4.573,0.572s0-1.143,0-1.143s-2.287,2.286-4.002,1.715
	c-0.572-1.144,0.572-1.715,0.572-1.715s-4.003,2.286-5.146,1.143c0-0.572,1.144-1.143,1.144-1.143s-3.43,1.715-5.145,0.571
	l1.715-1.143c0,0-5.145,1.715-6.288,1.143c-1.143,0,0.572-1.143,0.572-1.143s-4.001,2.858-5.146,2.287
	c-0.572-0.572,1.145-1.715,1.145-1.715s-3.43,2.858-5.718,2.286c-0.572,0,1.143-1.715,1.143-1.715s-4.573,3.43-6.288,2.287
	c0.572-0.572,1.715-1.715,1.715-1.715s-4.001,2.858-5.716,2.287c0-1.144,2.287-2.287,2.287-2.287s-4.573,2.858-5.717,1.715
	c0-0.572,2.285-1.715,2.285-1.715s-4.573,2.287-5.716,1.715c-1.144-0.572,3.431-2.287,3.431-2.287s-4.575,2.287-11.435,1.715v-0.571
	c0,0-1.715,1.715-3.43,1.143c0.571-0.572,1.715-1.715,1.715-1.715s-3.431,2.287-5.718,2.287c1.145-1.144,3.43-2.858,3.43-2.858
	s-6.288,4.002-8.575,2.287c5.717-1.715,5.145-2.858,5.145-2.858s-6.86,3.43-8.575,3.43c-1.145-0.572,1.715-1.144,1.715-1.715
	c0-0.572-4.575,1.715-4.575,1.715c-0.57-0.572,1.715-2.287,2.86-2.287c0.57-0.572-5.718,2.287-6.862,1.143
	c-0.571-0.571,1.715-0.571,1.144-1.143c0,0-2.287,1.143-4.001,1.143c-0.572-0.571,1.143-1.715,1.143-1.715s-3.43,1.715-4.001,0.572
	c0-0.572,1.715-1.143,1.715-1.143s-3.43,0.571-4.001,0c-1.144,0,1.143-0.572,1.143-0.572h-4.001c0-0.573,0.571-1.144,0.571-1.144
	s-4.002,0-4.002-1.715c17.151,4.573,41.735,1.715,54.885,0.57c4.573-0.57,36.018-4.573,57.17,0.573l-0.572,0.572h1.715
	c0,0,1.144,0,0.572,1.144c-0.572,0,1.715-0.573,1.715-0.573s1.144,0,0.572,1.145c0.572-0.572,2.858-0.572,1.144,1.143
	c2.858-1.715,2.287,0,1.715,0.572c2.86-1.144,2.86,0,1.715,0.571c2.858-1.143,1.715,0.572,1.145,1.144
	c2.858-1.715,2.858,0,1.714,0.572c2.859-1.715,1.716,1.143,1.145,1.143c3.43-1.143,2.285,0.572,1.143,1.144
	c3.43-1.144,1.715,0.572,1.142,1.143c2.859-1.143,1.716,0.572,0.573,1.144c4.002-0.572,1.144,1.145,0.572,1.145
	c3.43-0.572,1.715,1.143,1.144,1.143c1.715-0.573,1.143,0.571,1.143,0.571c0.572,0.572,0,1.145,0,1.145
	c1.144,0,1.144,1.143,0.572,1.715c1.143,0,1.715,0.57,1.143,1.143c1.144,0,1.144,0.572,1.144,1.144c1.144,0,1.144,1.143,1.144,1.143
	c0.571-0.571,1.143,0.572,1.143,0.572s1.144-0.572,5.146,1.144c1.144,0-1.715-1.144-2.859-1.144
	c-0.572-0.572-2.287-1.715,0.572-1.143c0.573-1.144-2.286-1.144-2.286-1.144s-1.716-0.572,4-0.572c1.145-0.573,0-0.573,0-0.573
	s-4,0-4.573,0c-1.143,0-1.143-1.142,0.573-1.142c2.286,0,5.717,0.572,7.432,0c1.143-0.572,2.858-0.572,4.001-0.572
	c0.572,0-0.572-0.571-1.143-0.571c0-0.573-4.573,0.571-5.145,0.571c-0.572,0.572-0.572,0.572-1.145,0c-0.57,0-3.43,0.572-4-1.144
	h-1.145c0,0-0.571-1.143,3.43-0.572c3.431,0,4.574-0.571,2.859-0.571s-4.003-0.573-1.145-0.573c2.859,0,8.004,0,4.003-0.57
	c-2.287-1.145,1.715-0.572,1.715-0.572s2.857,0.572,0-0.573c-2.858-1.144,1.715-0.572,1.715-0.572s4.002,1.145,1.143-0.572
	c1.145,0,5.718,0.572,6.861,0.572C178.116,119.122,178.116,118.55,178.116,118.55L178.116,118.55z M66.633,117.406
	c1.144,0,2.287-0.571,3.43-1.143c-0.572,0-1.715-0.572-2.858-0.572L66.633,117.406L66.633,117.406z M65.489,115.691
	c-0.571,0-1.143,0-1.715,0c-0.571,0.572-1.143,2.287-1.143,2.287c0.572,0,1.143,0,1.715,0L65.489,115.691L65.489,115.691z
	 M62.631,116.263c-0.572,0-1.715,0-2.287,0l-2.858,2.287c0.57,0,1.715,0,2.286,0L62.631,116.263L62.631,116.263z M58.057,116.835
	c-1.143,0-1.715,0-2.285,0c-0.573,0.571-2.288,2.287-2.288,2.287c0.572,0,1.715,0,2.288,0L58.057,116.835L58.057,116.835z
	 M54.055,116.835c-0.572,0-1.143,0-1.715,0c-0.572,0.571-2.858,2.287-2.858,2.287c1.144,0,1.715,0,2.287,0L54.055,116.835
	L54.055,116.835z M50.054,116.835c-0.572,0-1.715,0-1.715,0c-0.572,0.571-2.287,1.715-2.287,1.715c0.57,0,1.143,0.572,1.715,0.572
	L50.054,116.835L50.054,116.835z M46.052,116.835c-0.572,0-1.145,0-2.288,0c0.573,0.571-1.715,1.143-1.715,1.143
	c1.144,0.572,1.715,0.572,2.288,0.572L46.052,116.835L46.052,116.835z M42.622,116.263c-0.573,0-1.145,0-1.716,0
	c0,0.572-1.144,1.143-1.144,1.143c0.572,0,0.572,0.572,1.144,0.572L42.622,116.263L42.622,116.263z M39.19,115.691
	c-0.571,0-0.571,0-0.571,0l-0.572,0.572c0,0.572,0.572,0.572,0.572,0.572L39.19,115.691L39.19,115.691z M67.776,121.409
	c-0.572-0.573-0.572-0.573-1.144-0.573C66.633,121.409,67.205,121.409,67.776,121.409L67.776,121.409L67.776,121.409z
	 M83.784,121.981c1.145,0,1.715-0.572,2.858-0.572c-0.572-0.573-1.144-0.573-2.287-0.573L83.784,121.981L83.784,121.981z
	 M86.643,122.551c-0.572,0-0.572,0-0.572,0c-1.142,0.573-2.287,1.715-2.287,1.715l0.572,0.573L86.643,122.551L86.643,122.551z
	 M106.651,120.265c0,0,0.573,0,1.145-0.572c0,0-0.571,0-1.145-0.571V120.265L106.651,120.265z M92.36,125.411h-0.571l-2.287,2.858
	c0,0.572,0,0.572,0.57,0.572L92.36,125.411L92.36,125.411z M108.939,124.839c0.572-0.573,1.144-0.573,1.715-1.145
	c0.572-0.571,0.572-0.571,0.572-1.144L108.939,124.839L108.939,124.839z M100.936,129.413h-0.573
	c-1.143,0.571-1.715,2.287-1.715,2.287s0,0,0.572,0L100.936,129.413L100.936,129.413z M112.37,128.841
	c1.143-0.572,2.858-1.144,4.001-2.287c0,0-0.57-0.572-1.715-0.572C114.656,126.554,112.37,128.841,112.37,128.841L112.37,128.841z
	 M111.226,130.556c-0.572,0-0.572,0.572-0.572,0.572c-2.287,1.143-2.858,4.001-2.858,4.001s0.572,0,1.144,0L111.226,130.556
	L111.226,130.556z M118.086,134.557h-0.572c-1.144,0.572-1.144,3.431-1.144,3.431l0,0L118.086,134.557L118.086,134.557z
	 M126.091,135.129c1.143-0.572,2.286-1.143,3.43-2.287c0.572,0,0-0.572-1.144-0.572L126.091,135.129L126.091,135.129z
	 M124.375,137.416c0,0-2.858,0-0.572,2.288L124.375,137.416L124.375,137.416z M135.238,136.844c0.57-0.57,1.143-0.57,1.715-1.143
	c0,0-0.572,0-1.145,0L135.238,136.844L135.238,136.844z M68.919,117.978c-1.715,0.572-2.287,1.144-2.287,1.144s0.572,0,1.144,0
	L68.919,117.978L68.919,117.978z M83.784,118.55c1.145-0.572,2.287-1.144,2.858-1.715c-0.572,0-1.144,0-1.714,0
	C84.929,116.835,83.212,117.978,83.784,118.55L83.784,118.55z M103.222,116.263c0.571,0,1.145-0.572,1.715-0.572
	c-0.57,0-0.57-0.572-1.144-0.572L103.222,116.263L103.222,116.263z M117.515,118.55c1.145,0,2.287-0.572,2.859-1.144
	C120.374,117.406,117.515,117.406,117.515,118.55L117.515,118.55z M122.089,120.265v-0.572c0-1.715,0.572-2.287,2.287-2.287
	C123.232,117.978,122.089,120.265,122.089,120.265L122.089,120.265z M136.381,120.836c0.572,0.573,1.144,1.145,1.144,1.145
	s-1.716,0.57-3.431,0.57L136.381,120.836L136.381,120.836z M76.353,116.835c-0.573,0-2.288,0.571-2.288,0.571l-4.001,2.287
	c0.571,0,1.143,0,1.716,0C75.209,118.55,76.353,117.406,76.353,116.835L76.353,116.835z M79.783,116.835c-0.572,0-1.144,0-1.715,0
	c0,0-3.43,2.287-3.43,2.858c0.571,0,1.142,0,2.287,0C76.924,119.693,79.783,117.978,79.783,116.835L79.783,116.835z M83.212,116.835
	h-1.143c-2.858,1.715-2.287,2.858-2.287,2.858c0.572,0,1.143-0.571,2.287-0.571L83.212,116.835L83.212,116.835z M71.779,120.836
	c-1.145,0-1.716,0-2.288,0l-1.144,1.145c0.572,0.57,0.572,0.57,1.144,0.57L71.779,120.836L71.779,120.836z M75.209,120.836h-1.715
	l-2.288,2.288c0.573,0,1.144,0,1.144,0L75.209,120.836L75.209,120.836z M79.211,120.836c-0.572,0-1.144,0-1.717,0l-2.856,2.858
	c0.571,0,1.715-0.571,2.287-0.571L79.211,120.836L79.211,120.836z M83.212,120.836c-0.572,0-1.143,0-1.715,0
	c-2.858,2.288-1.715,2.288-1.715,2.288c0.572,0,1.143,0,1.715-0.573L83.212,120.836L83.212,120.836z M91.217,115.691
	c-0.573,0-1.145,0.572-1.715,0.572c-5.146,1.715-3.431,3.43-3.431,3.43s1.716,0,4.573,0c0,0,6.861-4.001,6.29-4.573
	c-0.572,0-1.715,0-2.287,0c0,0-8.576,5.717-6.288,3.43C90.072,116.263,91.217,115.691,91.217,115.691L91.217,115.691z
	 M100.936,115.12c-0.573,0-1.145,0-1.716,0c-0.572,0.572-6.86,4.002-6.289,4.573c1.144,0,1.715-0.571,2.858-0.571L100.936,115.12
	L100.936,115.12z M103.222,115.12c-0.571,0-0.571,0-1.144,0l-3.43,3.43c0.572-0.572,1.715-0.572,2.858-1.144L103.222,115.12
	L103.222,115.12z M116.943,133.414c0.572-0.572,2.858-3.43,5.146-1.715L116.943,133.414L116.943,133.414z M119.801,120.265
	c0-0.572,0-0.572,0-0.572c-0.571,0-4,0.572-6.289,1.144v0.573C113.513,121.409,118.659,120.265,119.801,120.265L119.801,120.265z
	 M119.801,125.411c6.29,0.572,9.719-1.716,9.719-1.716s-1.144,0-2.858,0C127.234,124.839,117.515,124.267,119.801,125.411
	L119.801,125.411z M128.949,125.982c0-0.572,0-0.572,0-0.572s-2.858,1.144-9.147,1.144c-1.142,0.57-1.142,1.143-1.142,1.715
	L128.949,125.982L128.949,125.982z M122.661,130.556c3.43,0.572,7.432,0.572,10.863-2.287c-1.145,0-1.145,0-1.715,0
	C131.235,129.413,120.944,129.413,122.661,130.556L122.661,130.556z M134.094,123.124c-0.57,0-0.57,0-1.144,0l-0.571,0.571
	L134.094,123.124L134.094,123.124z M143.813,127.125c0.572-0.57,1.715-0.57,2.287-1.142c-0.571,0-1.143,0-1.715,0L143.813,127.125
	L143.813,127.125z M142.098,125.982h-1.144c0.572,1.142-3.43,0.572-2.858,1.715c1.144,0,2.287,0,4.002-0.573V125.982
	L142.098,125.982z M134.094,129.984c-0.57-0.571-0.57-0.571-0.57-0.571s-0.573,0.571-1.145,1.143L134.094,129.984L134.094,129.984z
	 M135.238,134.557c1.143,0,2.858,0,4.573-0.571c-0.572,0-0.572-0.572-1.144-1.144C138.668,133.414,135.238,133.414,135.238,134.557
	L135.238,134.557z M142.098,128.269c-1.144,0-1.144-0.572-1.144-0.572c-0.572,0.572-1.715,1.144-1.715,2.287
	C139.24,129.984,141.526,129.413,142.098,128.269L142.098,128.269z M140.955,132.842c1.144,0,2.858-0.572,5.145-1.143
	c-0.571-0.572-0.571-1.144-1.143-1.144C144.957,131.699,139.24,131.127,140.955,132.842L140.955,132.842z M140.955,134.557
	c-0.572,0-1.143,0-1.143,0c-1.144,0.572-1.715,1.716-1.144,2.287L140.955,134.557L140.955,134.557z M142.098,137.416
	c1.143,0,2.287-0.572,2.858-2.287h-1.144L142.098,137.416L142.098,137.416z M147.816,131.127c0,0-5.718,3.43,2.858,0.572
	C151.816,130.556,147.816,131.127,147.816,131.127L147.816,131.127z M148.387,134.557c-0.57,0-0.57-0.571-0.57-0.571
	c-1.144,0.571-1.144,1.143-1.144,1.715L148.387,134.557L148.387,134.557z M150.674,137.988c1.715,0,2.858-0.573,4.001-1.715
	c-0.571,0-1.143,0-1.715,0C152.961,136.273,150.674,137.416,150.674,137.988L150.674,137.988z M139.812,141.418
	c-4.573,1.715-6.288,2.858-6.288,2.858s1.143,0,2.858,0L139.812,141.418L139.812,141.418z M154.104,139.132
	c-0.572,0-1.144,0-1.715,0l-2.286,2.858C150.103,141.99,153.533,140.274,154.104,139.132L154.104,139.132z M156.391,141.99
	c1.143-0.572,2.287-1.716,2.287-1.716c0-0.57-0.572-0.57-0.572-0.57L156.391,141.99L156.391,141.99z M156.391,139.132
	c0,0.572-7.433,5.145-7.433,5.145s1.716,0,2.858-0.572C151.816,143.705,157.534,139.704,156.391,139.132L156.391,139.132z
	 M146.673,140.847l-5.146,2.858c0.572,0.572,0.572,0.572,1.715,0.572C142.67,143.705,146.673,140.847,146.673,140.847
	L146.673,140.847z M131.235,151.708l0.573-0.572l0.571,0.572c0,0.573-0.571,0.573-1.144,0.573
	C131.235,152.281,131.235,152.281,131.235,151.708L131.235,151.708z M133.523,151.137c0-0.572,0-0.572,0-0.572
	c0.57,0,0.57,0,0.57,0.572s0,0.572-0.57,0.572C133.523,151.708,133.523,151.708,133.523,151.137L133.523,151.137z M135.809,150.565
	L135.809,150.565c0.573,0,0.573,0,0.573,0c0,0.572,0,0.572-0.573,0.572C135.809,151.137,135.809,151.137,135.809,150.565
	L135.809,150.565z M129.521,152.281c0,0,0,0,0.572,0l0,0c0,0.572,0,0.572-0.572,0.572
	C129.521,152.853,129.521,152.853,129.521,152.281L129.521,152.281z M127.234,153.423c0-0.57,0-0.57,0.571-0.57c0,0,0,0,0,0.57l0,0
	C127.234,153.423,127.234,153.423,127.234,153.423L127.234,153.423z M128.377,145.42c0,0-3.43,5.145-8.003,5.717
	c-4.573,1.145-13.723,11.435-2.859,2.859c-8.003,9.147,1.716-0.573,1.716-0.573s-4.002,8.577,1.714-1.142
	c-2.858,8.003,1.716,0,1.716,0c-0.572,5.145,2.287-1.145,2.287-1.145c-1.144,4.575,1.144-1.144,1.144-1.144
	c0,5.146,1.714-1.715,1.714-1.715c0,6.289,2.287-0.571,2.287-0.571c-1.144,5.716,1.716-0.572,1.716-0.572
	c-1.145,5.146,1.142,0,1.142,0c3.431-1.144,2.288-2.287,1.144-1.144c1.145-1.715-1.715,0-1.715,0c-0.571-1.143-1.144,0-1.144,0
	c-0.572-1.715-1.715,0.572-1.715,0.572C130.092,143.705,128.377,145.42,128.377,145.42L128.377,145.42z M140.383,144.277
	c-0.571-0.572-9.147,3.43-4.574,3.43C138.096,145.992,142.098,145.992,140.383,144.277L140.383,144.277z M143.813,145.42
	c-3.43,0.572-16.579,9.147,4.003,0.572C131.235,151.137,143.813,145.42,143.813,145.42L143.813,145.42z M117.515,157.998
	c-1.144,0.571-1.714,1.143-1.714,1.143c0.57,0,0.57,0.572,0.57,0.572L117.515,157.998L117.515,157.998z M136.953,153.423
	c0.572,0,1.715-0.57,2.858-1.142l-2.858,0.572V153.423L136.953,153.423z M130.092,154.567c-2.287,1.145-2.858,4.002-2.858,4.002
	c0.571-0.571,0.571-1.144,1.143-1.144C128.377,157.426,129.521,155.711,130.092,154.567L130.092,154.567z M127.805,155.14
	c-2.858,2.286-2.858,3.43-2.286,4.001c0.572,0,0.572-0.571,0.572-0.571S127.234,155.711,127.805,155.14L127.805,155.14z
	 M125.519,155.711c0,0-2.858,2.858-2.858,4.001c0.572,0,1.143,0,1.715,0C123.804,159.141,125.519,155.711,125.519,155.711
	L125.519,155.711z M120.944,156.854c0,0-2.285,2.286-1.714,3.43h0.571L120.944,156.854L120.944,156.854z M125.519,160.856
	c-0.572,0-0.572,0.571-1.144,0.571c0.572,0,0.572,0,1.144,0.572V160.856L125.519,160.856z M138.668,153.423
	c0,0-3.43,4.575-2.859,5.717c0.573-0.571,1.145-0.571,1.716-1.143L138.668,153.423L138.668,153.423z M130.664,163.144
	c-0.571,0-1.143,0.57-1.143,0.57s0.572,0,1.143,0V163.144L130.664,163.144z M148.387,155.14c0.571-0.573,0.571-0.573,1.145-1.144
	c-0.573,0,0-0.573-1.145-0.573V155.14L148.387,155.14z M142.098,160.856c-0.572,0.571-0.572,0.571-0.572,0.571s0,0.572,0.572,0.572
	V160.856L142.098,160.856z M149.531,158.569c0.572-0.571,0.572-1.144,1.143-1.144c-0.571,0-0.571-0.571-0.571-0.571L149.531,158.569
	L149.531,158.569z M155.248,135.129c0,0,0,4.003,6.289,4.575c-2.287-1.145-4.002-4.575-4.002-4.575H155.248L155.248,135.129z
	 M155.819,147.707c0,0-2.287,1.143-0.572,1.715C158.106,148.85,155.819,147.707,155.819,147.707L155.819,147.707z M148.387,151.137
	c0,0,2.859,2.859,5.146-2.287C151.246,150.565,148.387,151.137,148.387,151.137L148.387,151.137z M160.965,159.141
	c0,0-1.145,0,0,1.144C162.679,159.141,160.965,159.141,160.965,159.141L160.965,159.141z M164.966,158.569c0,0-1.715,0.571,0,1.715
	C166.11,159.141,164.966,158.569,164.966,158.569L164.966,158.569z M168.969,159.141c0,0-1.144,0,0,1.144
	C170.684,159.713,168.969,159.141,168.969,159.141L168.969,159.141z M162.107,154.567c0,0,5.718,0.573,6.29,3.431
	c1.143,0,2.287,0.571,2.287,0.571C169.54,153.423,162.107,154.567,162.107,154.567L162.107,154.567z M160.393,155.14
	c0,0,3.431,0.572,2.858,2.858c0.573-0.572,1.715-0.572,2.288-0.572C164.396,154.567,160.393,155.14,160.393,155.14L160.393,155.14z
	 M159.25,158.569c0,0,1.143-1.144,2.287-0.571c1.143,1.143-1.144-2.858-3.43-1.715C159.821,156.854,159.25,158.569,159.25,158.569
	L159.25,158.569z M144.957,148.278c-2.858,0.572-3.43,2.287-3.43,2.287s0.572,0.572,1.715,0.572
	C143.241,151.137,146.1,148.85,144.957,148.278L144.957,148.278z M152.961,148.278c0,0,0.572-0.571,1.144-0.571
	c-0.572-0.572-0.572-0.572-0.572-0.572L152.961,148.278L152.961,148.278z M155.248,143.705c-0.572-0.572-0.572-0.572-0.572-0.572
	l-2.287,1.715c0,0,0,0.571,0.572,0.571L155.248,143.705L155.248,143.705z M160.965,145.42c0.571-0.571,1.714-1.715,2.286-2.858
	c-0.572,0-1.144,0.572-1.144,0.572L160.965,145.42L160.965,145.42z M182.688,141.99c-0.57-0.572-0.57-0.572,0-1.144
	C183.832,140.274,183.832,142.562,182.688,141.99L182.688,141.99z M180.402,139.704l0.572-0.572v0.572l0,0H180.402L180.402,139.704z
	 M180.975,140.274c0-0.57,0.57-0.57,0.57-0.57l0.573,0.57l-0.573,0.573L180.975,140.274L180.975,140.274z M183.262,139.132
	c0,0,0,0,0.57,0l0,0c0,0.572,0,0.572,0,0.572C183.262,139.704,183.262,139.704,183.262,139.132L183.262,139.132z M183.262,137.988
	c0-0.573,0-0.573,0.57-0.573c0,0,0,0,0,0.573l0,0C183.262,137.988,183.262,137.988,183.262,137.988L183.262,137.988z
	 M191.838,138.559c0,0,0,0,0.57-0.571c0,0,0.572-0.573,0.572,0c0,0,0,0.571-0.572,0.571
	C192.408,139.132,191.838,139.132,191.838,138.559L191.838,138.559z M220.423,132.842c0-0.572,0-1.143,0-1.143
	c0.57,0,0.57,0.571,0.57,1.143v0.572C220.423,133.414,220.423,132.842,220.423,132.842L220.423,132.842z M220.423,129.413h0.57l0,0
	c0,0.571,0,0.571,0,0.571S220.423,129.984,220.423,129.413L220.423,129.413z M193.552,120.265c0,0-2.857-0.572-1.714-1.143
	C192.98,118.55,193.552,120.265,193.552,120.265L193.552,120.265z M196.981,119.122c0,0-2.286-0.572-1.714-0.572
	C196.41,117.406,196.981,119.122,196.981,119.122L196.981,119.122z M198.124,118.55c0,0-1.714,0-1.143-1.144
	C197.554,116.263,198.124,118.55,198.124,118.55L198.124,118.55z M199.268,117.978v-0.572V117.978v0.572V117.978L199.268,117.978z
	 M201.555,118.55c0,0-1.142-0.572-1.714-1.715C200.983,116.263,201.555,118.55,201.555,118.55L201.555,118.55z M175.257,159.713
	c0,0-1.144,0.571,0,1.715C176.4,159.713,175.257,159.713,175.257,159.713L175.257,159.713z M181.545,157.998
	c0,0-1.714,1.143,0,2.286C182.688,159.141,181.545,157.998,181.545,157.998L181.545,157.998z M178.116,159.713
	c0,0-0.573,0.571,0,1.715C179.259,160.284,178.116,159.713,178.116,159.713L178.116,159.713z M180.975,156.854
	c0,0,1.144,0.571,1.714,0C181.545,155.711,180.975,156.854,180.975,156.854L180.975,156.854z M172.398,156.854
	c-0.572-2.288,6.86,2.858,1.715,1.715C174.686,159.141,172.398,156.854,172.398,156.854L172.398,156.854z M176.973,157.426
	c0,0,1.144,0,0.57,1.144c4.575-0.571,0-3.43-4.002-2.858C176.973,156.854,176.973,157.426,176.973,157.426L176.973,157.426z
	 M176.973,148.278c0,0-1.144,2.858,1.716,0.572c2.856,1.715,1.143-0.572,1.143-0.572s2.287-2.287,0.571-1.143
	c0.572-0.572,0.572-2.287-2.286,0c4.002-2.287,0.572-2.287,0.572-2.287c2.286-2.287-1.146,0-1.146,0
	c0.573-2.858-1.714-0.572-1.714-0.572c-1.716,0,0,1.715,0,1.715c-2.288,1.715,0,1.715,0,1.715
	C174.113,149.422,176.973,148.278,176.973,148.278L176.973,148.278z M164.966,153.996v-1.143l-1.142,0.57L164.966,153.996
	L164.966,153.996z M164.396,152.281h1.143c0,0,1.144-1.145,0.572-1.145c0-0.572-1.145,0-1.145,0
	C164.396,151.137,164.396,152.281,164.396,152.281L164.396,152.281z M154.104,159.713c0,0,1.715-8.576,13.721-9.72
	c1.144-1.143,1.144-1.715,1.144-1.715l1.715-0.571c0-0.572-0.572,0.571,0,1.143c0,0-1.144-0.572-1.144,0
	c-2.858,1.715-2.287,2.287-2.287,2.287s6.86-1.144,5.145-5.717c0-5.146-6.288-3.43-8.575-1.715
	c-0.573,1.144-1.716,2.287-1.716,2.287s2.858-1.143,4.003-2.287c1.143-0.572-0.572,2.287-7.433,4.573
	c-0.572,0-0.572,1.715-0.572,1.715s-1.144,0.572-0.572-1.715c-1.143,3.43-2.858,4.003-4.001,4.003c-1.144,0-2.287,2.286-1.716,2.286
	c0.573,0.573,2.288-1.144,2.288-1.144s-4.001,4.575-0.572,2.288C152.389,161.428,154.104,159.713,154.104,159.713L154.104,159.713z
	 M317.612,107.116c0,0-6.859,4.574-46.881,1.144c-40.592-2.858-49.738,3.43-52.025,4.002c-1.713,0.571-6.289,4.001-16.006,4.573
	c0,0-0.573,0.571,0,0.571c1.714,0,1.144,1.144,1.144,1.144c-1.717-0.572-4.003,2.287,0,1.143c2.856,0.572,14.292,2.288,18.865-2.287
	c-3.43-0.571-7.433-0.571-6.861-1.143c0-0.572,0.572-0.572,0.572-0.572s13.149,3.43,20.583-2.287c1.713,0,8.003,0.572,12.576-1.715
	c10.862,2.287,16.009,0,16.009,0s3.43,1.715,8.003,1.143c-1.144-0.571-2.859-1.716-2.859-1.716h0.572c0,0,2.287,1.145,2.857,1.716
	c1.146,0.572,1.716,0,1.716,0l-3.43-1.716l1.144-0.57c0,0,3.43,1.715,3.43,2.287c0.571,0,1.144-0.571,1.144-0.571
	s-3.43-1.715-2.857-1.715c0-0.572,1.144,0,1.144,0s6.287,2.858,10.86,1.715c-0.57,0-0.57-0.572-0.57-0.572h0.57l0.573,0.572h1.143
	v-0.572l0,0l1.144,1.143C311.323,112.262,317.612,107.116,317.612,107.116L317.612,107.116z M284.453,111.69
	c0-0.573,0-0.573,0-0.573c0.571,0,0.571,0,0.571,0.573C285.024,111.69,285.024,111.69,284.453,111.69L284.453,111.69L284.453,111.69
	z M295.316,111.117c0,0,0,0,0.57,0l0,0c0,0.573,0,0.573,0,0.573C295.316,111.69,295.316,111.69,295.316,111.117L295.316,111.117z
	 M277.592,109.975c0,0,0,1.142,1.716,0.572C281.023,109.975,277.592,109.975,277.592,109.975L277.592,109.975z M267.302,111.69
	c0-0.573,0-0.573,0-0.573c0.572,0,0.572,0,0.572,0.573C267.874,111.69,267.874,111.69,267.302,111.69L267.302,111.69L267.302,111.69
	z M269.588,111.117c0,0-0.57,1.145,0.573,1.145C271.875,111.69,269.588,111.117,269.588,111.117L269.588,111.117z M290.17,111.117
	c0,0,0.57,0.573,1.714,1.145C293.601,111.69,290.17,111.117,290.17,111.117L290.17,111.117z M292.457,110.546
	c0,0-0.573,1.144,1.144,1.144C295.887,111.117,292.457,110.546,292.457,110.546L292.457,110.546z M204.414,117.406l0.572,0.572
	h0.571l-0.571-0.572H204.414L204.414,117.406z M206.13,117.406l0.57,0.572l0.573-0.572H206.13L206.13,117.406z M214.703,116.835
	c0,0,1.145,1.143,1.717,1.143c0.573-0.572,0.573-0.572,0.573-0.572L214.703,116.835L214.703,116.835z M230.14,109.975h1.146
	c0.57,0,0-0.573,0-0.573L230.14,109.975L230.14,109.975z M229.569,111.117c0,0,1.144-0.57,2.86,0.573c1.713,0.572,3.43,0,3.43,0
	v-0.573c0,0-1.717,0.573-2.859,0c-0.57,0-2.86-1.142-3.431-1.142C229.569,110.546,229.569,111.117,229.569,111.117L229.569,111.117z
	 M256.438,110.546c-0.57,0-1.143,0-1.143,0s1.143,0.57,1.716,0.57L256.438,110.546L256.438,110.546z M265.015,110.546
	c0.573,0,0.573,0,0.573,0c0-0.572-4.003-2.287-4.003-2.287s0,0-0.572,0C259.869,108.832,265.015,110.546,265.015,110.546
	L265.015,110.546z M238.146,111.117c-0.572,0-1.143,0-1.143,0s0.57,1.145,2.286,1.716L238.146,111.117L238.146,111.117z
	 M249.579,109.402c-0.57-1.142-2.286-1.142-2.286-1.142l-0.573,0.572L249.579,109.402L249.579,109.402z M222.137,114.548
	c-0.57,0-1.144,0.572-1.144,0.572s1.144,0,1.716,0L222.137,114.548L222.137,114.548z M232.43,113.405c0-0.572,0.57-0.572,0.57-0.572
	c-2.287-1.143-3.431-1.143-3.431-1.143h-0.573L232.43,113.405L232.43,113.405z M210.131,117.978c-0.571,0.572-1.144,0-1.144,0
	s1.716,2.287,5.146,2.287L210.131,117.978L210.131,117.978z M217.563,119.122c0.573,0,1.144-0.572,1.717-0.572
	c-3.432,0-5.717-1.715-5.717-1.715s-0.573,0-0.573,0.571C212.989,117.978,217.563,119.122,217.563,119.122L217.563,119.122z
	 M199.841,121.981c-0.573,0-1.144,0-1.144,0c0.57,0.57,0.57,1.143,2.857,1.143C202.127,122.551,199.841,121.981,199.841,121.981
	L199.841,121.981z M206.13,122.551c0.57-0.57,0.57-0.57,1.714-0.57c1.716-0.572-1.144-1.145-4-0.572
	C203.271,121.981,206.13,122.551,206.13,122.551L206.13,122.551z M188.979,136.273c0-0.573,0-1.145,0-1.145
	s-2.287,1.715-2.287,4.003L188.979,136.273L188.979,136.273z M186.691,141.418c0,0,0,0.572,0.572,0.572c0,0,0.571-0.572,0.571-1.716
	L186.691,141.418L186.691,141.418z M193.552,141.418c0,0.572,0,1.143,0,1.143s-0.571,0-0.571-0.571L193.552,141.418L193.552,141.418
	z M192.408,140.274c0-1.142,0-1.715,1.716-2.286c0,0,0,0,0,0.571L192.408,140.274L192.408,140.274z M199.268,136.273
	c-1.714-2.288-2.857,4-2.857,4C196.981,140.274,198.124,136.273,199.268,136.273L199.268,136.273z M199.841,143.705
	c0,0.572,0.572,0.572,0.572,0.572c0.57,0.572,1.142-0.572,1.142-1.715C201.555,142.562,198.124,142.562,199.841,143.705
	L199.841,143.705z M203.844,136.273c0-0.573-0.573-1.145-0.573-1.145s-0.57,1.145-0.57,2.287L203.844,136.273L203.844,136.273z
	 M205.558,143.705c0,0,0.572,0,1.143,0.572c0-0.572,0-1.144,0-1.715C206.7,142.562,205.558,142.562,205.558,143.705L205.558,143.705
	z M206.13,132.271c-0.572,0-1.144,0-1.144,0s0.571,0.572,1.144,1.144V132.271L206.13,132.271z M212.417,143.705
	c0.572,0,1.146,0,1.146,0s0-0.572,0-1.144L212.417,143.705L212.417,143.705z M213.563,132.271c-0.573-0.571-1.146,0.572-1.146,0.572
	s0.572,0.572,1.146,1.144V132.271L213.563,132.271z M219.85,141.99c0.573,0,0.573,0,1.144-0.572c-0.57-0.572-0.57-1.145-0.57-1.145
	S219.279,140.847,219.85,141.99L219.85,141.99z M216.42,131.127c-0.572,0-0.572,0-0.572,0l0.572,0.572V131.127L216.42,131.127z
	 M224.996,139.704c0.57,0,1.144,0,1.144-0.572l-0.573-0.573L224.996,139.704L224.996,139.704z M224.423,131.127
	c0,0.572,0.573,5.146,4.003,6.288C228.426,137.416,224.996,132.842,224.423,131.127L224.423,131.127z M231.856,136.273
	c0,0,0.573,0,0.573-0.573c-0.573,0-0.573-0.572-1.144-1.144L231.856,136.273L231.856,136.273z M226.71,127.125
	c-0.57,0-1.144,0.573-1.144,0.573s0,0,0.573,0.572L226.71,127.125L226.71,127.125z M235.859,131.699
	c1.144,0,1.144-0.572,1.144-0.572c-1.144-1.715-2.287-2.287-2.86-3.43C233.569,129.413,235.859,131.699,235.859,131.699
	L235.859,131.699z M233.569,124.839c-0.569,0-1.14,0-1.14,0.571c0.57,0,0.57,0,1.713,0.572L233.569,124.839L233.569,124.839z
	 M245.578,128.841c0.571-0.572,1.142-1.144,1.142-1.716c-1.142,0-1.714-0.57-2.857-0.57
	C243.862,126.554,243.29,128.269,245.578,128.841L245.578,128.841z M238.146,122.551c-1.143,0-1.143,0.573-1.716,0.573
	c0.573,0,1.144,0.571,1.716,0.571V122.551L238.146,122.551z M252.438,126.554c0.57-0.572,1.144-0.572,1.714-0.572
	c0-1.143-1.144-1.716-2.857-2.288C251.295,123.695,250.722,124.839,252.438,126.554L252.438,126.554z M246.149,120.836
	c-1.144,0-1.715,0.573-1.144,0.573c0,0,0.572,0,1.714,0.572L246.149,120.836L246.149,120.836z M262.729,123.695c0,0,0,0,0.572,0
	c-0.572-1.144-1.716-2.286-2.859-2.286L262.729,123.695L262.729,123.695z M256.438,118.55c-1.143,0.572-1.143,0.572-1.143,0.572
	s0,0,1.143,0.571V118.55L256.438,118.55z M278.164,121.409c1.144,0,1.716-0.573,1.716-0.573c-1.716-0.572-3.43-1.144-5.146-1.144
	L278.164,121.409L278.164,121.409z M273.591,116.835c-1.144,0.571-1.144,0.571-1.144,1.143c0,0,0.57,0,1.714,0.572L273.591,116.835
	L273.591,116.835z M305.606,115.12c0,0,0,0,0.57-0.572l-1.144-0.571c0,0-0.57,0-0.57,0.571L305.606,115.12L305.606,115.12z
	 M262.157,115.691c-1.145,0.572-1.145,0.572-1.145,0.572s0.572,0,1.716,0.572L262.157,115.691L262.157,115.691z M303.32,113.405
	c0.569-0.572,1.143-0.572,1.143-0.572h-1.716L303.32,113.405L303.32,113.405z M211.274,128.841c0,0,10.292,2.287,4.002-5.146h-1.144
	l1.144,1.716c0,0-4.002-1.144-5.146-0.571c4.002,0.571,6.289,2.285,6.289,2.285s-5.717-1.714-6.86-1.142
	c-1.143,0.572,5.717,1.142,5.717,2.287C212.417,127.697,211.274,128.841,211.274,128.841L211.274,128.841z M206.7,128.841
	c0,0,1.717,1.715,2.859,0C210.131,127.697,206.7,128.841,206.7,128.841L206.7,128.841z M205.558,127.125l2.859,1.145
	c0.57-0.572,0-1.145,0-1.145H205.558L205.558,127.125z M206.7,125.982l1.144,0.572l-0.57-1.144H206.7V125.982L206.7,125.982z
	 M219.85,122.551c0,0,1.717-1.142,2.287,0.573C222.709,123.124,219.85,123.124,219.85,122.551L219.85,122.551z M219.279,125.982
	c0,0,4.573,0,5.144,0.572c0.573,1.143,1.717-3.43-6.86-3.43c-0.569,1.143,4.574,1.143,5.717,2.287
	C217.563,124.267,219.279,125.982,219.279,125.982L219.279,125.982z M227.854,124.839c4.003,0.571,7.433-3.43-2.857-4.575
	c-0.573,1.145,5.717,2.287,5.717,2.287s-1.144,0.573-8.004-1.142c-2.286,0.572,6.287,2.857,7.431,2.286
	c0,0.572-1.144,0.572-2.856,0.572L227.854,124.839L227.854,124.839z M228.426,119.693c0.57,0.572,5.144,1.716,8.577,1.144
	c0-0.572,0-0.572,0-0.572C234.716,120.836,228.426,118.55,228.426,119.693L228.426,119.693z M232.43,119.122
	c0,0,2.856,1.143,5.144,1.143c0.572,0-4.004-2.287-4.004-2.287L232.43,119.122L232.43,119.122z M235.286,117.978
	c0,0,4.573,2.287,9.72,1.144c-2.287,0-8.576-1.715-8.576-1.715L235.286,117.978L235.286,117.978z M237.573,116.835
	c0.572,0.571,5.146,1.715,9.146,1.715c0-0.572,0-0.572,0-0.572C245.006,117.978,237.573,115.691,237.573,116.835L237.573,116.835z
	 M241.576,116.263c5.717,2.287,21.152,2.287,10.862-2.858c-1.717-1.143-0.572,1.143,1.714,1.715
	c-0.57,0.572-6.859-0.572-6.859-0.572s-1.715,1.144,7.432,2.287C247.863,116.835,241.003,115.12,241.576,116.263L241.576,116.263z
	 M194.695,126.554c0,0,4.572-1.715,5.146,0c1.143,0,0.572-1.144,0.572-1.144C198.124,123.695,194.695,126.554,194.695,126.554
	L194.695,126.554z M194.695,125.982c0,0,1.143-0.572,1.143-1.143c0.572,0,0,0,0,0l-1.714,0.571L194.695,125.982L194.695,125.982z
	 M193.552,125.411l0.572-0.571h-0.572h-0.571L193.552,125.411L193.552,125.411z M190.121,123.124c-0.57,1.143,0.573,1.715,0.573,0
	c0.57-0.573-1.144-0.573-1.144-0.573L190.121,123.124L190.121,123.124z M190.694,128.841l1.144-2.287c0,0-0.573,0-0.573,0.57
	c-0.57,0-1.144,1.145-1.144,1.145C190.121,128.841,190.694,128.841,190.694,128.841L190.694,128.841z M186.12,131.699
	c0,0,2.858-2.287,3.431-3.43c0-0.572-0.572,0-0.572,0s-2.287,3.43-3.431,3.43H186.12L186.12,131.699z M187.264,129.413
	c0,0-2.859,3.43-3.432,3.43c-0.57,0.572-0.57,0.572-0.57,0c0,0,3.43-2.858,3.43-3.43
	C186.691,128.841,187.264,129.413,187.264,129.413L187.264,129.413z M184.976,130.556c0,0-1.714,2.858-4.001,2.287
	c0,0-2.858,0.572-1.144-1.143c1.144,1.143,1.714,0,1.714,0s0.573,1.143,2.859-1.144H184.976L184.976,130.556z M179.831,128.841
	v-0.572c0.571,0,0.571,0.572,0.571,0.572S180.402,128.841,179.831,128.841L179.831,128.841L179.831,128.841z M176.4,127.697h0.572
	c0.57,0,0.57,0,0.57,0c0,0.572,0,0.572-0.57,0.572C176.973,128.269,176.4,128.269,176.4,127.697L176.4,127.697z M178.688,126.554
	h0.57h0.572c0,0.57-0.572,0.57-0.572,0.57S178.688,127.125,178.688,126.554L178.688,126.554z M176.4,129.413
	c0,0,0-0.572,0.572-0.572v0.572v0.571C176.4,129.984,176.4,129.413,176.4,129.413L176.4,129.413z M164.966,129.984
	c0,0,0-0.571,0.573-0.571l0.572,0.571h-0.572C164.966,129.984,164.966,129.984,164.966,129.984L164.966,129.984z M182.118,123.124
	L182.118,123.124c0.57,0,1.144,0,1.144,0S182.688,123.124,182.118,123.124L182.118,123.124L182.118,123.124z M178.688,123.124h1.143
	c0,0,0-0.573-0.572-1.143c-0.57,0-1.143,0.57-1.143,0.57L178.688,123.124L178.688,123.124z M175.829,122.551h1.714l0.573-1.142
	l-1.716,0.572L175.829,122.551L175.829,122.551z M173.541,121.981h2.288v-0.572h-2.288V121.981L173.541,121.981z M162.107,124.839
	c0,0,1.716-0.573,3.431,0c1.144,0,0.572-0.573,0.572-0.573s-3.431-0.572-3.431,0L162.107,124.839L162.107,124.839z M167.253,124.267
	c0,0,1.144,0.573,2.858-0.572c0.572-0.571,2.287,0.572,2.287,0.572c0.572,0,0.572-0.572,0.572-0.572s-1.715-1.714-4.001,0
	c-0.572,0.572-1.715,0-1.715,0V124.267L167.253,124.267z M166.11,132.271c0,0,1.143,1.144,2.858-0.571
	C167.825,131.699,166.11,132.271,166.11,132.271L166.11,132.271z M166.11,130.556c0,0,1.715,0.572,2.858,0
	c1.715-0.572,0.571-0.572,0.571-0.572C168.397,129.984,166.11,130.556,166.11,130.556L166.11,130.556z M166.682,129.413
	c0,0,1.715-0.572,2.858,0c0.572,0,1.144-0.572,1.144-0.572c0.572-0.572-2.287,0-1.715,0
	C168.969,128.269,166.682,129.413,166.682,129.413L166.682,129.413z M166.682,127.697c0,0,1.143,0.572,2.858-0.573
	c1.144-0.57,2.287,0,2.287,0s0.572-1.142-2.858-0.57C167.825,127.697,166.682,126.554,166.682,127.697L166.682,127.697z
	 M171.255,131.699l1.715-1.715c0,0,0,0-0.572,0s-1.715,1.144-1.715,1.144L171.255,131.699L171.255,131.699z M171.827,132.271h0.572
	c0,0,1.143-1.143,2.287-1.143c0.571-0.572-0.572-0.572-0.572-0.572C172.97,130.556,171.827,132.271,171.827,132.271L171.827,132.271
	z M172.398,133.414c0,0,1.715-1.144,2.858-1.144c0-0.571,1.144-1.143,1.716-1.143c0,0.572-0.572-1.144-2.287,0.572
	C171.827,132.842,172.398,133.414,172.398,133.414L172.398,133.414z M172.398,128.269c0,0,0.572,0,1.143,0h0.572l-0.572,0.572
	C172.97,128.841,172.398,128.269,172.398,128.269L172.398,128.269z M172.398,127.697c0,0,1.715-0.573,2.858-0.573
	c1.144,0.573,1.144-1.142,1.144-1.142l0.572-0.572l0,0c0,0-1.716,0-2.287,0c0,0-1.715,0-1.715,0.572s0.571,0.572,0.571,0.572
	s1.145-0.572,2.288-0.572c0.571,0.572-1.144,0.572-1.144,0.572C172.398,126.554,172.398,127.697,172.398,127.697L172.398,127.697z
	 M186.12,127.697c0,0,2.285-1.143,2.858-2.287h0.572c0,0,1.144-1.144-0.572-2.287c-1.715,0-5.146,0.571-6.29,0.571
	c0,0.572,2.859,0.572,2.287,1.145h-0.571l0.571,0.571c0,0-0.571,0.572-1.714-0.571h-0.573c0,0,1.144,1.143,0.573,1.715
	c-1.144,1.143,1.143,0,1.143,0l0.571,0.57h0.572L186.12,127.697L186.12,127.697z M88.929,121.981h-0.571l-2.859,2.858h0.572
	L88.929,121.981L88.929,121.981z M91.789,121.409l-1.716,0.572c0,0.57-2.858,2.858-2.858,2.858c0.573,0,0.573,0,1.145,0
	L91.789,121.409L91.789,121.409z M94.075,120.836l-1.144,0.573c0,0-4.002,2.857-3.43,3.43c0.57,0,1.142,0,1.142,0L94.075,120.836
	L94.075,120.836z M96.362,120.836H95.79c0,0-4.001,2.858-3.43,4.003c0,0,0.572,0,1.144,0L96.362,120.836L96.362,120.836z
	 M99.792,120.265h-1.143c0,0-4.002,2.859-3.43,4.002c0.572,0,1.144,0,1.715,0L99.792,120.265L99.792,120.265z M103.222,119.693
	c-0.571,0-1.144,0-1.715,0c0,1.144-4.001,3.431-2.858,4.002c0.572-0.571,1.143-0.571,1.715-0.571L103.222,119.693L103.222,119.693z
	 M106.081,119.122c-0.572,0-1.145,0-1.715,0.571c0,0.572-3.43,2.288-2.288,2.858c0.573-0.57,1.715-0.57,2.858-1.142L106.081,119.122
	L106.081,119.122z M96.934,124.267l-1.715,0.573l0,0c-0.572,1.143-4.574,4.001-4.574,4.001c0,0.572,1.145,0.572,2.288,0.572
	L96.934,124.267L96.934,124.267z M100.936,123.695h-1.145c-1.143,2.859-6.86,5.146-6.288,5.718c0.572,0,1.715,0,2.858,0
	C99.792,127.125,100.936,123.695,100.936,123.695L100.936,123.695z M105.509,122.551c-0.573,0.573-1.143,0.573-1.716,0.573
	c-1.715,3.43-6.859,5.145-5.716,5.717c1.144,0,1.715,0,2.859-0.572C100.936,128.269,106.081,124.267,105.509,122.551
	L105.509,122.551z M109.511,122.551c-0.572,0-0.572,0-1.144,0l0,0c-1.143,2.288-6.861,4.573-5.717,5.146
	c1.715-0.573,2.858-1.143,4-1.715C106.651,125.982,110.083,123.124,109.511,122.551L109.511,122.551z M103.793,128.841
	c-0.571,0-1.142,0-1.715,0c0.573,0.572-2.287,2.287-1.715,2.858c0,0,0.573,0,1.715,0L103.793,128.841L103.793,128.841z
	 M106.081,128.269h-1.145c0.573,0.572-2.858,2.858-2.286,3.43c0.571,0,1.142,0,1.715,0L106.081,128.269L106.081,128.269z
	 M110.083,126.554c-0.572,0.57-1.144,0.57-2.287,1.143l-2.287,4.002c0.572-0.572,1.142-0.572,2.287-0.572L110.083,126.554
	L110.083,126.554z M114.084,125.411c-0.572,0-1.715,0-2.287,0.572c0.572,0.572-3.43,3.43-2.858,4.573
	c0.572-0.572,1.144-0.572,2.287-1.143C110.654,128.841,114.084,125.411,114.084,125.411L114.084,125.411z M110.654,115.691
	c-0.571,0-1.715,0-1.715,0c-4.573,3.43-2.288,0-2.288,0c-2.285,0-1.715,1.715-1.715,1.715s1.145,0.572,2.288,0.572L110.654,115.691
	L110.654,115.691z M120.944,121.981c0-0.572,0-0.572-0.57-0.572c-0.573,0.572-8.576,0-8.576,1.715c0.572,0,0.572,0.571,1.144,0.571
	C113.513,122.551,122.089,123.124,120.944,121.981L120.944,121.981z M124.375,123.124c-0.572,0-1.143,0-1.715-0.573
	c0,1.144-9.148,0.573-8.576,1.715c0.572,0,1.144,0.573,2.287,0.573C115.801,124.267,125.519,124.839,124.375,123.124
	L124.375,123.124z M114.656,115.691c-0.572,0-1.144,0-1.715,0c1.715,1.144-5.146,1.715-4.002,2.858c0.572,0,1.715,0,2.287,0
	C110.654,117.978,115.801,116.835,114.656,115.691L114.656,115.691z M118.086,116.263c-0.572-0.572-1.144-0.572-1.144-0.572
	c0.572,1.715-5.145,2.287-4.001,3.43c0.571,0,1.715,0,2.859,0C115.228,118.55,118.659,116.835,118.086,116.263L118.086,116.263z
	 M124.375,121.409c-0.572,0-1.143,0-1.143-0.573c-1.144-0.572,3.43-2.858,3.43-3.43c0.572,0,1.143,0,1.143,0
	C128.377,118.55,124.375,121.409,124.375,121.409L124.375,121.409z M127.805,121.409c-0.571,0-1.143,0-1.714,0
	c-1.144-0.573,4.001-2.288,4.573-2.859c0.572,0,0.572,0,0.572,0C131.235,119.122,127.805,121.409,127.805,121.409L127.805,121.409z
	 M132.95,121.981c-1.142,0-2.287,0-3.43,0c-1.144-1.145,2.288-0.572,4.003-1.716h0.57L132.95,121.981L132.95,121.981z
	 M136.953,124.267l-0.572-0.572c0,1.145-4.573,1.716-4.573,1.716c0,0.572,0.571,0.572,1.142,1.144
	C132.95,125.982,138.096,124.839,136.953,124.267L136.953,124.267z M140.383,124.839c-0.571,0-1.143,0-1.143,0
	c0,0.571-7.432,1.715-4.573,2.285c0,0,0.572,0,1.142,0C135.809,127.125,140.955,125.982,140.383,124.839L140.383,124.839z
	 M130.664,127.125l-1.143-0.57l-10.29,2.287c0,0,1.144,0.572,1.714,1.143C120.944,128.841,131.235,127.697,130.664,127.125
	L130.664,127.125z M135.809,130.556c0.573-0.572-0.57-0.572-0.57-0.572l-4.003,1.715c0,0.571,0,1.143,0.573,1.143
	C131.808,132.842,135.238,131.127,135.809,130.556L135.809,130.556z M137.525,131.699c0-0.572-0.572,0-0.572,0
	c-0.572,0.571-5.718,1.143-5.145,2.287c0.571,0,0.571,0,1.142,0L137.525,131.699L137.525,131.699z M120.944,133.986h-0.57
	c0,0-3.431,4.002-2.859,4.002s1.145,0,1.716,0C119.23,137.416,122.661,134.557,120.944,133.986L120.944,133.986z M126.091,132.842
	c-1.144,0-1.715,0-1.715,0c0,0.572-4.574,4.573-3.431,4.573c0.573,0,1.145,0,2.288-0.572
	C123.232,136.844,126.091,133.414,126.091,132.842L126.091,132.842z M118.086,129.984c-0.572,0-1.144,0-1.144,0
	c-1.715,2.858-5.145,4.573-4.001,4.573c1.143,0,1.715,0,2.859-0.571L118.086,129.984L118.086,129.984z M114.656,129.984
	c-0.572,0-1.144,0-1.144,0c0,0.572-4.001,5.145-4.001,5.145c0.572,0,1.143,0,2.287-0.572
	C111.798,134.557,115.228,130.556,114.656,129.984L114.656,129.984z M143.813,129.413h-1.143l-3.43,1.715
	c-0.572,0.572-0.572,0.572,0,1.143L143.813,129.413L143.813,129.413z M239.859,111.117h-0.57l1.144,1.716c0.57,0,1.144,0,1.144,0
	L239.859,111.117L239.859,111.117z M242.146,110.546c-0.57,0-0.57,0.57-0.57,0.57c-0.573,0.573,1.714,1.716,1.714,1.716
	c0.572,0,0.572-0.571,1.145-0.571L242.146,110.546L242.146,110.546z M243.862,109.975l-0.572,0.572
	c-0.571,0.57,2.288,1.715,2.288,1.715s0.571,0,0.571-0.572L243.862,109.975L243.862,109.975z M245.578,109.402
	c-0.572,0-0.572,0.573-0.572,0.573c-0.571,0.572,2.287,1.715,2.287,1.715l1.143-0.573L245.578,109.402L245.578,109.402z
	 M246.72,108.832c-0.57,0-1.142,0.57-1.142,0.57c0.571,0.573,4.001,1.715,4.001,1.715l0.572-0.57l0,0L246.72,108.832L246.72,108.832
	z M258.155,109.402l-0.573,0.573c-0.57,0.572,1.146,1.715,1.146,1.715c1.142,0,1.714,0,2.285,0
	C261.013,111.69,258.155,109.975,258.155,109.402L258.155,109.402z M260.441,108.832c-0.572,0-1.144,0-1.144,0
	c-0.57,1.143,2.859,2.285,2.859,2.285c0.571,0,0.571,0,1.715,0C263.872,111.117,259.869,109.402,260.441,108.832L260.441,108.832z
	 M202.7,121.409c-0.573,0-1.146,0-1.717,0l2.86,1.715c0,0,0.57,0,0.57-0.573L202.7,121.409L202.7,121.409z M223.853,113.977
	l-0.573,0.571l0,0l0.573,0.572c0,0,0.57,0,1.144,0L223.853,113.977L223.853,113.977z M225.566,113.405l-0.57,0.572l1.144,1.143
	c0.57,0,0.57,0,1.144,0L225.566,113.405L225.566,113.405z M227.283,112.833c-0.573,0-0.573,0-1.144,0.572v-0.572l2.286,1.715
	c0,0,0.57,0,1.144,0L227.283,112.833L227.283,112.833z M228.426,112.262c0,0,0,0-0.572,0H228.426l2.287,1.715
	c0,0,0.573,0,1.144-0.572L228.426,112.262L228.426,112.262z M212.417,117.406c-0.57,0-1.143,0-1.714,0
	c0,0.572,4.573,2.287,4.573,2.287c0.571,0,1.144,0,1.144,0L212.417,117.406L212.417,117.406z M275.307,116.835h-0.572l1.716,1.715
	c0.57,0,1.142,0,1.714,0L275.307,116.835L275.307,116.835z M279.308,116.263c-0.573,0-1.716,0.572-1.716,0.572l2.859,1.715
	c1.143,0,1.716,0,2.859,0L279.308,116.263L279.308,116.263z M283.881,116.263h-2.857l4.001,2.287c0.572,0,1.144,0,2.286,0
	L283.881,116.263L283.881,116.263z M287.884,116.263h-1.716l2.286,2.287c0.572,0,1.716,0,2.286,0L287.884,116.263L287.884,116.263z
	 M291.313,116.263H289.6l2.857,2.287c0.573,0,0.573,0,1.716-0.572L291.313,116.263L291.313,116.263z M294.173,115.691h-1.143
	l2.286,2.287c0.57,0,1.144,0,1.144,0L294.173,115.691L294.173,115.691z M297.604,115.691c-0.573,0-1.144,0-1.144,0l1.713,1.715
	c0.574,0,1.144,0,1.717,0L297.604,115.691L297.604,115.691z M300.46,115.12c-0.57,0-1.144,0.572-1.144,0.572l2.287,1.144h0.573
	L300.46,115.12L300.46,115.12z M303.32,114.548c-0.573,0-0.573,0-1.144,0l1.144,1.715c0.569,0,1.143-0.572,1.143-0.572
	L303.32,114.548L303.32,114.548z M301.604,112.833l-1.144,0.572v0.572c0.573,0,1.144,0,1.144,0V112.833L301.604,112.833z
	 M298.173,113.405h-1.143l0.573,1.143c0.569,0,1.144,0,1.144,0L298.173,113.405L298.173,113.405z M295.316,113.977
	c-0.573,0-1.716,0-1.716,0l0.572,0.571h1.714L295.316,113.977L295.316,113.977z M292.457,113.977c-0.573,0-1.717,0-1.717,0
	l0.573,1.143c0.57,0,1.717,0,2.287,0L292.457,113.977L292.457,113.977z M288.454,113.977c-0.57,0-1.714,0-1.714,0l0.57,1.715
	l2.289-0.572L288.454,113.977L288.454,113.977z M284.453,113.977c-0.572,0-1.716,0-1.716,0l1.716,1.715h1.144L284.453,113.977
	L284.453,113.977z M280.451,113.405c-0.571,0-0.571,0-0.571,0h-1.146l1.717,2.287h1.716L280.451,113.405L280.451,113.405z
	 M277.021,113.405l-1.144,0.572l1.715,1.715h1.716L277.021,113.405L277.021,113.405z M274.734,113.977l-1.144,0.571l1.144,1.144
	h1.143L274.734,113.977L274.734,113.977z M271.875,114.548c-0.571,0-1.144,0-1.144,0l1.144,1.715c0.572,0,0.572-0.572,0.572-0.572
	h0.57L271.875,114.548L271.875,114.548z M269.018,114.548c-0.572,0-1.144,0-1.144,0l2.287,2.287c0,0,0.57,0,1.143,0L269.018,114.548
	L269.018,114.548z M266.158,114.548h-0.57c-0.573,0-0.573,0-0.573,0l2.287,2.858c0.572,0,1.144,0,1.716,0L266.158,114.548
	L266.158,114.548z M263.872,115.12c-0.571,0-1.144,0.572-1.144,0.572l1.714,1.144c0.572,0,0.572,0,1.146,0.571L263.872,115.12
	L263.872,115.12z M248.436,120.265h-1.143l1.143,2.287c0.573,0,1.144,0,2.286,0.573L248.436,120.265L248.436,120.265z
	 M251.866,120.265c-0.571,0-1.145,0-1.145,0l1.717,2.859c1.144,0,1.714,0.571,2.286,0.571L251.866,120.265L251.866,120.265z
	 M255.296,120.265c-0.571,0-1.144,0-1.144,0l2.286,2.859c0.573,0.571,1.144,0.571,1.717,0.571L255.296,120.265L255.296,120.265z
	 M259.298,120.836c-0.57,0-1.143,0-1.143-0.572l1.714,3.43c0,0,1.144-0.571,1.144,0L259.298,120.836L259.298,120.836z
	 M273.018,119.122c-1.143-0.572-2.286-0.572-2.856-0.572l4,3.431c0.573,0,1.146,0,1.716,0L273.018,119.122L273.018,119.122z
	 M268.445,118.55c-1.144,0-1.715-0.572-1.715-0.572l2.857,3.431c0.573,0,1.716,0.572,2.287,0.572L268.445,118.55L268.445,118.55z
	 M263.872,117.978c-0.571,0-1.144,0-1.144,0l2.286,3.431c0.573,0,1.716,0,2.287,0L263.872,117.978L263.872,117.978z
	 M261.013,117.978c-0.571,0-1.715,0-1.715,0l2.287,2.858c0.572,0,1.144,0,2.287,0L261.013,117.978L261.013,117.978z
	 M258.155,117.978c-0.573,0-1.144,0.572-1.144,0.572l1.144,1.143c0.572,0.572,1.143,0.572,1.714,0.572L258.155,117.978
	L258.155,117.978z M186.691,124.267h-1.144c0,0,0,2.288,2.287,1.716C186.691,125.411,186.691,124.267,186.691,124.267
	L186.691,124.267z M152.961,151.708c0,0,2.287,0,2.858-1.144C153.533,149.993,152.961,151.708,152.961,151.708L152.961,151.708z
	 M188.405,139.132c0,0,0-0.573,0-1.144l-2.285,2.286c0.571,0,0.571,0.573,0.571,0.573L188.405,139.132L188.405,139.132z
	 M192.408,141.418v-0.572l1.716-1.715c0,0.572,0,1.142,0,1.715L192.408,141.418L192.408,141.418z M240.433,122.551
	c-0.573,0-1.144,0-1.144,0c0.57,1.144,1.144,2.288,1.144,2.288c0.57,0,1.144,0,1.714,0.571L240.433,122.551L240.433,122.551z
	 M243.29,122.551c-0.571,0-1.144,0-1.714,0l2.286,2.859c0,0.572,0.572,0.572,1.144,0.572
	C245.006,125.411,243.29,122.551,243.29,122.551L243.29,122.551z M245.578,122.551c-0.572,0-1.144,0-1.144,0
	s1.715,3.431,2.285,3.431c0.573,0.572,1.144,0.572,1.144,0.572C248.436,125.411,245.578,122.551,245.578,122.551L245.578,122.551z
	 M249.009,123.124c0,0-0.573,0-1.146,0c0,0,0,2.858,1.716,3.43c0.572,0,1.143,0,1.716,0L249.009,123.124L249.009,123.124z
	 M235.859,124.839c-0.573,0-0.573,0-1.144,0c0,0.571,1.144,2.285,1.144,2.285c0.57,0,1.144,0.573,1.714,0.573L235.859,124.839
	L235.859,124.839z M238.146,124.839c0,0-0.572,0-1.143,0c-0.573,1.143,2.856,4.001,2.856,4.001c0.573,0,1.144,0,1.717,0.572
	L238.146,124.839L238.146,124.839z M241.576,125.982c-0.573-0.572-1.144-0.572-1.144-0.572c-0.573,1.144,2.857,4.002,2.857,4.002
	c0.572,0,0.572,0,1.145,0L241.576,125.982L241.576,125.982z M228.426,126.554c0,0.57-0.572,0.57-0.572,0.57c-0.57,0,0,1.716,0,1.716
	c0,0.572,0.572,0.572,0.572,0.572V126.554L228.426,126.554z M229.569,126.554L229.569,126.554c0,0-1.144,2.287,0.57,4.001
	c1.146,1.144,1.717,1.715,1.717,2.287c0.573,0,1.144,0,1.713,0C233.569,132.842,229.569,128.269,229.569,126.554L229.569,126.554z
	 M231.856,127.125c0-0.57-0.57-0.57-0.57-0.57c0.57,4.001,3.43,6.288,3.43,6.288l0.57-0.572
	C235.286,132.271,231.286,128.841,231.856,127.125L231.856,127.125z M226.71,129.984c0,0-0.57,0-1.144,0
	c-0.57,2.287,4.003,7.432,4.003,7.432h0.57C230.14,137.416,226.71,132.842,226.71,129.984L226.71,129.984z M230.14,132.842
	c-0.57,0-0.57-0.572-1.144-1.143c-0.57,1.715,1.144,4.574,1.717,5.145c0.573,0,0.573,0,0.573-0.57
	C231.286,136.273,230.14,134.557,230.14,132.842L230.14,132.842z M218.136,130.556c-0.573,0-0.573,0-0.573,0l-0.569,1.715
	c0.569,0,0.569,0.572,1.143,0.572V130.556L218.136,130.556z M219.85,131.127l-0.57-0.572c-0.573,1.144-0.573,3.43-0.573,3.43
	c0.573,0,1.144,0.571,1.144,1.143V131.127L219.85,131.127z M222.137,132.842l-0.57-0.572l-1.144,4.003
	c0.57,1.142,1.144,1.715,1.714,2.858C222.137,139.132,221.566,133.986,222.137,132.842L222.137,132.842z M224.423,136.273
	c0-1.145-0.57-1.145-1.144-1.716c-0.57,1.144,0,5.146,0,5.146c0.573,0,0.573,0,1.144,0
	C224.423,139.704,223.853,136.273,224.423,136.273L224.423,136.273z M215.848,132.842c-0.571,0-0.571,0-0.571,0
	c-1.144,0-1.144,1.715-1.144,1.715c0,0.572,0,0.572,0.57,0.572L215.848,132.842L215.848,132.842z M217.563,134.557
	c-0.569,0-0.569-0.571-0.569-0.571c-1.717,0.571-1.717,2.858-1.717,2.858c0,1.145,0.571,3.43,0.571,3.43
	C215.848,139.704,216.42,135.129,217.563,134.557L217.563,134.557z M218.706,136.273c0,0,0-0.573-0.57-0.573
	c-1.716,2.288-1.716,5.718-1.716,5.718c0.573,0,0.573,0.572,1.143,0.572C217.563,141.99,217.563,137.988,218.706,136.273
	L218.706,136.273z M219.85,139.132v-0.573c-1.714,0.573-1.714,4.002-1.714,4.002c0.57,0,0.57,0,1.144-0.571
	C219.279,141.99,219.279,139.704,219.85,139.132L219.85,139.132z M207.273,132.842c0,0,0-0.572-0.573-0.572v1.715
	c0,0.571,0,1.143,0.573,1.143V132.842L207.273,132.842z M208.417,133.414v-0.572c0,0-1.144,2.858-0.573,3.431v0.57
	C208.417,136.273,208.417,133.414,208.417,133.414L208.417,133.414z M210.703,134.557c0-0.571-0.572-0.571-0.572-0.571
	c-1.714,1.715-2.287,5.718-1.144,8.576C208.987,136.273,210.703,134.557,210.703,134.557L210.703,134.557z M212.417,136.844
	c0-0.57-0.57-1.143-0.57-1.143l0,0c-1.716,0-1.716,7.433-1.716,7.433s0,0,0.572,0C210.703,140.274,212.417,136.844,212.417,136.844
	L212.417,136.844z M213.563,140.274v-1.142c-1.716,0-2.288,4.573-2.288,4.573s0.572,0,1.143,0
	C212.417,143.705,212.417,141.418,213.563,140.274L213.563,140.274z M205.558,138.559c0,0,0-0.571-0.571-1.144
	c0,0-1.143,1.144-1.716,2.858c0.573,0,0.573,0.573,0.573,1.145C203.844,141.418,204.986,139.132,205.558,138.559L205.558,138.559z
	 M206.13,141.418c0-0.572,0-0.572,0-1.145c-1.144-1.142-2.286,1.716-1.716,2.288c0,0,0,0,0,0.572L206.13,141.418L206.13,141.418z
	 M200.983,138.559c0,0,0-0.571-0.57-0.571c-1.716-0.573-3.432,2.858-3.432,2.858c0,0.572,0.572,0.572,1.143,0.572
	C198.124,141.418,199.841,137.988,200.983,138.559L200.983,138.559z M201.555,140.847c0-0.573-0.571-0.573-0.571-1.143
	c-0.57-0.572-2.859,2.287-2.859,2.287c0,0.571,0,0.571,0,0.571C198.697,142.562,199.841,140.847,201.555,140.847L201.555,140.847z
	 M126.662,136.844l-0.571,0.572c0,0-1.715,1.716-1.715,2.288c0.572,0,0.572,0.57,1.144,0.57L126.662,136.844L126.662,136.844z
	 M129.521,136.273l-1.144,0.57l-1.715,2.86c0,0,0.572,0,1.143,0C127.234,139.132,129.521,136.273,129.521,136.273L129.521,136.273z
	 M132.379,135.701c-0.571,0-1.715,0.573-1.715,0.573s-2.287,2.286-1.715,3.43c0.572-0.572,1.144-0.572,1.715-0.572
	C130.092,138.559,132.379,135.701,132.379,135.701L132.379,135.701z M134.667,135.701c0,0-0.573,0-1.143,0
	c0,0-2.86,2.288-1.715,2.858c0.571,0,1.142-0.571,1.715-0.571L134.667,135.701L134.667,135.701z M142.67,135.129l-0.572-0.572
	c0,0-3.43,2.287-2.858,2.858c0,0,0.572,0,1.143,0C140.383,136.844,142.67,135.129,142.67,135.129L142.67,135.129z M149.531,135.129
	L149.531,135.129c-1.145,0-2.288,1.145-2.288,1.145c0.573,0,0.573,0.57,1.144,0.57L149.531,135.129L149.531,135.129z
	 M151.816,135.701c-0.57,0-1.142,0-1.142,0s-2.288,0.573-1.716,1.715c0.573,0,0.573,0,1.145,0L151.816,135.701L151.816,135.701z
	 M146.673,139.132c0-0.573-1.716,0-1.716,0l-5.145,3.43c0.571,0,1.143,0,1.143,0L146.673,139.132L146.673,139.132z M149.531,140.274
	c-1.145,0-1.715,1.145-2.858,1.716l-1.716,2.287c0.572-0.572,1.143-1.144,2.287-0.572
	C146.673,143.133,149.531,140.274,149.531,140.274L149.531,140.274z M156.391,143.705c0,0,0,0-0.572,0c0,0-2.858,1.715-2.287,2.287
	c0,0,0.572,0.572,1.143,0.572C154.104,145.992,156.391,143.705,156.391,143.705L156.391,143.705z M158.678,143.705
	c-0.572,0-0.572,0-0.572,0l-2.858,2.858c0.572,0,1.144,0,1.144,0.572L158.678,143.705L158.678,143.705z M160.393,143.705h-0.572
	c0,0-2.287,2.858-1.715,2.858c0,0,0.572,0,1.144,0L160.393,143.705L160.393,143.705z M148.387,146.563
	c-0.57,0-0.57,0.572-0.57,0.572c0,0.572-3.432,4.573-3.432,4.573c0.572,0,0.572,0,1.144-0.572L148.387,146.563L148.387,146.563z
	 M150.674,145.992c0,0,0,0-0.571,0c0,1.144-2.86,5.145-2.86,5.145c0.573,0,1.144-0.572,1.715-0.572L150.674,145.992L150.674,145.992
	z M152.961,146.563h-0.572l-2.286,3.43c0.571,0,0.571-0.571,1.713-1.143C151.816,148.85,152.389,147.707,152.961,146.563
	L152.961,146.563z M135.238,152.853c0-0.572-1.145,0.57-1.145,0.57l-0.57,1.716c0.57-0.573,1.143-0.573,1.715-0.573V152.853
	L135.238,152.853z M132.95,153.423l-1.142,0.573c0,0.571-1.716,2.858-1.716,2.858c0.571,0,1.143-0.571,1.716-0.571L132.95,153.423
	L132.95,153.423z M123.232,156.283h-0.572c0,0-2.287,3.43-1.716,4.001c0.573,0,0.573,0,1.145,0L123.232,156.283L123.232,156.283z
	 M119.23,157.426l-0.571,0.572l-1.145,2.286c0,0,0,0,0.572,0L119.23,157.426L119.23,157.426z M127.805,159.141l-1.143,1.144
	L126.091,162c0.571,0,0.571,0,1.143,0L127.805,159.141L127.805,159.141z M131.235,157.426c-0.572,0-1.143,0.572-1.143,0.572
	L127.805,162c0,0,0.572,0,1.144,0C128.377,161.428,131.808,157.998,131.235,157.426L131.235,157.426z M133.523,155.711
	c0,0.572,0,0.572,0,0.572L129.521,162c1.143,0,1.715-0.572,2.288-0.572C131.808,161.428,134.094,156.854,133.523,155.711
	L133.523,155.711z M136.381,154.567l-0.573,0.573l-2.858,5.145c0.573,0,1.144,0,1.716-0.571
	C134.094,159.713,136.381,154.567,136.381,154.567L136.381,154.567z M142.098,152.853c-0.572,0-1.144,0-1.715,0.57
	c0,0-1.715,3.431-1.143,3.431s1.143-0.571,1.143-0.571C139.812,155.711,142.098,152.853,142.098,152.853L142.098,152.853z
	 M143.813,152.281L143.813,152.281c0,0-1.715,2.286-1.715,2.858c0.572-0.573,1.143-0.573,1.715-0.573V152.281L143.813,152.281z
	 M146.673,152.281c-0.573,0-1.145,0-1.716,0v1.142c0.572,0,1.143,0,1.716-0.57V152.281L146.673,152.281z M133.523,160.856
	c-0.573,0.571-1.145,1.144-1.715,1.144l-0.573,2.286c0.573,0,0.573,0,1.144,0L133.523,160.856L133.523,160.856z M136.381,159.713
	c-0.573,0-1.143,0.571-1.143,0.571l-2.288,4.002c0.573-0.572,1.144-0.572,1.716-0.572
	C134.094,163.714,136.953,160.284,136.381,159.713L136.381,159.713z M138.096,158.569h-0.571l-1.716,4.574
	c0.573,0,0.573,0,1.145-0.572C136.381,162,138.096,158.569,138.096,158.569L138.096,158.569z M140.383,157.426
	c-0.571,0-1.143,0-1.143,0L138.096,162c0.572,0,1.144,0,1.715-0.572C139.24,160.856,140.383,157.426,140.383,157.426
	L140.383,157.426z M142.67,155.711l-0.572,0.572c0,0-1.715,4.001-1.144,4.573c0.572-0.572,0.572-0.572,1.144-0.572
	C140.955,159.713,142.67,155.711,142.67,155.711L142.67,155.711z M144.957,154.567c0,0-0.572,0.573-1.144,0.573l-0.572,4.001
	c0.572-0.571,1.144-0.571,1.715-1.143C144.385,157.426,144.957,154.567,144.957,154.567L144.957,154.567z M147.816,153.423
	c-0.573,0.573-1.144,0.573-1.144,0.573l-0.573,2.858c0.573,0,1.144-0.571,1.717-1.143
	C146.673,155.711,147.816,153.423,147.816,153.423L147.816,153.423z M144.957,159.141c-0.572,0-1.144,0.572-1.144,0.572L142.67,162
	c0.571,0,1.143,0,1.715,0C143.813,161.428,144.957,159.141,144.957,159.141L144.957,159.141z M147.243,157.426
	c-0.57,0-1.144,0.572-1.144,0.572l-0.571,3.43c0.571,0,0.571-0.571,1.145-0.571C146.673,160.856,146.673,158.569,147.243,157.426
	L147.243,157.426z M149.531,156.854c-0.573,0-1.145,0-1.145,0l-0.57,3.43c0-0.571,0-0.571,0.57-1.144
	C148.387,159.141,148.387,157.998,149.531,156.854L149.531,156.854z"/>
<path fill-rule="evenodd" clip-rule="evenodd" d="M216.679,183.976l0.005,12.101l-2.975-1.458c0,0-9.547,0-11.345,0
	c-4.48-0.002-4.618,2.418-4.532,4.526c0.049,1.219,0,25.895,0,28.002s0.604,2.409,1.809,2.51c1.107,0.094,2.233,0.1,3.613,0.1
	c1.506,0,2.309-1.203,2.309-2.609c0-2.312-0.081-3.523-0.111-5.763c-0.893-0.062-3.201,0.04-3.201,0.04l-2.309,1.205v-13.052
	l17.727,0.029l-0.961,2.78c0,0,0,20.777,0,23.796c0,2.609-2.797,4.92-5.307,4.92c-4.117,0-8.734,0-8.734,0s-9.438,0-12.048,0
	c-2.608,0-4.632-2.008-4.632-5.02c-0.102-6.427-0.102-38.185-0.102-45.683c0-4.417,0.416-6.425,6.239-6.425
	C192.737,183.976,216.679,183.976,216.679,183.976z"/>
<polygon fill-rule="evenodd" clip-rule="evenodd" points="21.815,196.432 27.455,183.976 42.294,183.976 40.832,186.95 
	40.863,238.392 42.266,241.04 26.319,241.066 27.38,238.416 27.421,213.393 21.67,223.819 16.277,213.693 16.277,238.392 
	17.381,240.919 2.603,240.919 3.63,238.392 3.685,186.85 2.5,183.976 16.086,183.979 "/>
<path fill-rule="evenodd" clip-rule="evenodd" d="M239.683,183.976l-1.552,2.975c0,0-0.072,38.088-0.072,39.463
	c0,2.498,0.259,3.287,1.724,3.287c1.466,0,1.713,0,3.179,0c1.993,0,1.993,0,1.993-3.374c0-2.067,0.074-39.376,0.074-39.376
	l-1.208-2.975h15.771l-1.463,2.975c0,0-0.063,42.738,0.012,49.113c0.03,2.568-2.46,5.034-6.134,5.039c-5.891,0.006-18.96,0-22.837,0
	c-2.069,0-4.039-2.624-4.039-5.296c0-8.977,0.073-48.856,0.073-48.856l-1.379-2.975H239.683z"/>
<polygon fill-rule="evenodd" clip-rule="evenodd" points="118.793,183.976 116.185,194.618 108.252,194.618 108.352,238.392 
	109.657,241.103 95.301,241.103 96.505,238.392 96.406,194.618 88.143,194.618 85.231,183.976 "/>
<path fill-rule="evenodd" clip-rule="evenodd" d="M57.098,184.002c1.763-0.074,10.978,0.029,13.287,0.051
	c2.523,0.022,2.776-0.051,4.984-0.051c5.421,0,7.716,3.315,7.716,5.033c0,3.313,0.075,29.002-0.041,36.222
	c-0.062,3.854,0.041,6.245,0.041,10.463c0,3.014-2.797,5.408-5.307,5.408c-3.161,0-16.972,0-19.778,0
	c-3.413,0-7.845-0.503-7.845-5.709c0-2.259,0-42.046,0-45.678C50.154,186.629,52.35,184.203,57.098,184.002z"/>
<polygon fill-rule="evenodd" clip-rule="evenodd" points="289.069,183.976 277.521,229.7 285.019,229.7 287.186,228.234 
	287.104,240.918 261.49,241.103 273.038,194.618 264.162,194.618 261.329,196.087 261.403,183.976 "/>
<polygon fill-rule="evenodd" clip-rule="evenodd" points="321.562,183.976 310.014,229.7 317.512,229.7 319.678,228.234 
	319.657,241.066 293.984,241.103 305.531,194.618 296.655,194.618 293.822,196.087 293.897,183.976 "/>
<path fill-rule="evenodd" clip-rule="evenodd" fill="#FFFFFF" d="M71.029,228.677c0,1.619-1.313,2.932-2.932,2.932h-2.932
	c-1.619,0-2.931-1.313-2.931-2.932v-32.248c0-1.619,1.312-2.932,2.931-2.932h2.932c1.619,0,2.932,1.313,2.932,2.932V228.677z"/>
<path fill-rule="evenodd" clip-rule="evenodd" d="M128.411,184.002c1.764-0.074,10.978,0.029,13.287,0.051
	c2.522,0.022,2.776-0.051,4.984-0.051c5.422,0,7.717,3.315,7.717,5.033c0,3.313,0.075,29.002-0.042,36.222
	c-0.062,3.854,0.042,6.245,0.042,10.463c0,3.014-2.798,5.408-5.308,5.408c-3.161,0-16.972,0-19.778,0
	c-3.413,0-7.845-0.503-7.845-5.709c0-2.259,0-42.046,0-45.678C121.468,186.629,123.664,184.203,128.411,184.002z"/>
<path fill-rule="evenodd" clip-rule="evenodd" fill="#FFFFFF" d="M142.343,228.677c0,1.619-1.313,2.932-2.932,2.932h-2.933
	c-1.619,0-2.931-1.313-2.931-2.932v-32.248c0-1.619,1.312-2.932,2.931-2.932h2.933c1.619,0,2.932,1.313,2.932,2.932V228.677z"/>
<polygon fill-rule="evenodd" clip-rule="evenodd" points="327.537,186.802 326.312,183.976 342.38,183.976 340.918,186.95 
	340.948,238.392 342.5,241.04 326.372,241.103 327.465,238.416 "/>
</svg>
