<?xml version="1.0" encoding="utf-8"?>
<!-- Generator: Adobe Illustrator 16.0.0, SVG Export Plug-In . SVG Version: 6.00 Build 0)  -->
<!DOCTYPE svg PUBLIC "-//W3C//DTD SVG 1.1//EN" "http://www.w3.org/Graphics/SVG/1.1/DTD/svg11.dtd">
<svg version="1.1" id="Layer_1" xmlns="http://www.w3.org/2000/svg" xmlns:xlink="http://www.w3.org/1999/xlink" x="0px" y="0px"
	 width="345px" height="345px" viewBox="0 0 345 345" enable-background="new 0 0 345 345" xml:space="preserve">
<g>
	<path fill="#DA261D" stroke="#DA261D" d="M0,234.981v-33.322h65.446c0,0,20.617,0.479,20.857,5.753v7.911
		c0,0,0.958,5.514-19.659,5.514h-8.63l27.33,13.425H55.857l-26.61-11.746c0,0-7.192-6.713,8.391-6.713h21.096
		c0,0,4.794-2.637,0-7.671H25.891v26.85H0z"/>
	<rect x="90.378" y="201.659" fill="#DA261D" stroke="#DA261D" width="26.131" height="33.322"/>
	<path fill="#DA261D" stroke="#DA261D" d="M201.374,202.138h-47.707c0,0-31.405-0.959-31.645,7.192v19.179
		c0,0-0.239,6.473,32.604,6.473h46.507v-6.713h-46.987c0,0-6.712,1.198-6.712-6.232h53.699v-6.713h-53.221
		c0,0-3.117-6.233,9.35-6.233h43.871L201.374,202.138z"/>
	<path fill="#DA261D" stroke="#DA261D" d="M225.826,202.378h25.651v27.329c0,0,0.239,5.993-25.651,5.993h-18.219v-7.191h15.821
		c0,0,2.397,1.438,2.397-4.555V202.378z"/>
	<path fill="#DA261D" stroke="#DA261D" d="M257.71,202.617h25.412v22.056c0,0-0.479,4.315,3.596,4.315h30.206
		c0,0,2.637,0.239,2.637-4.795v-21.576h25.412v26.61c0,0,1.917,6.233-26.371,6.233h-32.843c0,0-20.138,2.877-28.527-5.514v-27.33
		H257.71z"/>
	<path fill="#DA261D" stroke="#DA261D" d="M84.625,162.343v-31.884h128.256c0,0,49.624,0.479,49.624,10.547
		c0,0,7.192,9.83-37.638,9.83h-19.658l64.248,12.466h-71.68l-60.172-10.788c0,0-21.816-6.952,2.877-6.952h63.049
		c0,0,6.712,0.479,6.712-3.356v-1.918c0,0,1.199-2.397-6.712-2.397h-78.152v24.932H85.344l-0.719,0.239V162.343z"/>
	<g>
		<g>
			<path fill="#DA261D" d="M173.145,109.063c-69.112,0-125.139,17.227-125.139,38.477c0,21.25,56.027,38.477,125.139,38.477
				c69.113,0,125.14-17.228,125.14-38.477C298.284,126.29,242.258,109.063,173.145,109.063z M173.145,179.185
				c-57.395,0-103.923-14.168-103.923-31.645s46.528-31.645,103.923-31.645c57.396,0,103.924,14.167,103.924,31.645
				S230.54,179.185,173.145,179.185z"/>
		</g>
	</g>
</g>
</svg>
