<?xml version="1.0" encoding="utf-8"?>
<!-- Generator: Adobe Illustrator 16.0.0, SVG Export Plug-In . SVG Version: 6.00 Build 0)  -->
<!DOCTYPE svg PUBLIC "-//W3C//DTD SVG 1.1//EN" "http://www.w3.org/Graphics/SVG/1.1/DTD/svg11.dtd">
<svg version="1.1" id="Layer_1" xmlns="http://www.w3.org/2000/svg" xmlns:xlink="http://www.w3.org/1999/xlink" x="0px" y="0px"
	 width="345px" height="345px" viewBox="0 0 345 345" enable-background="new 0 0 345 345" xml:space="preserve">
<g id="layer101">
	<path fill="#18161B" d="M13.148,229.554c0-0.286,0.629-2.229,1.372-4.459c0.743-2.173,2.058-6.174,2.858-8.861
		c1.887-6.46,4.917-16.35,7.717-25.439c1.258-4.059,2.458-8.175,2.687-9.147c0.343-1.657,2.573-8.632,3.373-10.69
		c0.4-0.972-0.572-1.029-15.378-1.029C6.06,169.927,0,169.699,0,169.356c0-0.286,0.514-1.83,1.143-3.43s1.372-3.887,1.658-5.031
		c0.286-1.143,1.487-5.202,2.63-8.976c1.201-3.773,2.973-9.661,4.002-13.148c5.374-18.294,6.746-22.81,7.146-23.268
		c0.572-0.743,296.472-0.572,300.417,0.172c3.945,0.686,10.005,2.458,11.892,3.43c5.202,2.744,11.891,9.833,14.063,14.921
		c1.715,4.116,2.515,11.147,1.771,16.579c-0.743,5.602-3.486,14.177-5.487,17.15c-0.744,1.2-1.372,2.287-1.372,2.458
		c0,0.229-0.858,1.372-1.83,2.687c-1.829,2.229-1.887,2.458-1.943,8.118c-0.058,5.545-1.601,14.92-2.572,16.007
		c-0.286,0.343-0.515,1.028-0.515,1.543c0,0.972-2.115,5.774-3.888,8.804c-2.572,4.459-8.633,10.862-13.263,14.007
		c-5.717,3.887-10.119,5.602-20.581,7.946c-3.658,0.857-157.44,0.857-163.042,0.057c-16.807-2.516-28.184-13.092-29.441-27.269
		c-0.171-2.001-0.515-3.602-0.686-3.602c-0.229,0-0.972,2.001-1.658,4.459c-2.744,9.204-4.288,14.177-4.745,15.092
		c-0.286,0.572-0.514,1.43-0.514,1.943c0,0.516-0.687,2.974-1.487,5.432l-1.486,4.517H51.68
		C30.47,229.954,13.148,229.782,13.148,229.554z M84.437,215.662c0.686-2.344,2.172-7.375,3.315-11.148
		c1.201-3.772,2.344-7.603,2.573-8.575c0.8-3.029,5.888-19.779,9.947-32.871l0.8-2.573l9.204-0.171
		c5.774-0.057,9.204,0.057,9.204,0.4c0,0.343-0.343,1.715-0.8,3.03c-0.458,1.372-1.372,4.402-2.058,6.746
		c-1.658,5.603-2,6.746-3.944,12.92c-2.058,6.403-3.144,13.206-2.63,16.407c1.372,8.746,6.346,15.321,13.435,17.894
		c7.146,2.572,5.66,2.516,87.41,2.516c48.878,0,78.892-0.229,81.235-0.572c4.459-0.686,7.718-1.771,12.291-4.173
		c9.375-4.802,14.234-10.861,18.122-22.41c1.429-4.173,1.715-6.174,1.771-10.576c0.058-3.144-0.228-6.345-0.686-7.603l-0.743-2.116
		l3.087-3.315c5.717-6.174,9.604-16.521,9.262-24.525c-0.286-7.146-4.174-13.206-10.634-16.693
		c-6.745-3.602-3.602-3.487-91.068-3.487c-53.28,0-80.206,0.229-81.75,0.629c-1.258,0.343-3.201,0.8-4.345,1.029
		c-1.086,0.229-2.858,0.857-3.83,1.372c-1.029,0.458-1.83,0.858-1.83,0.801s0.229-0.972,0.515-1.944l0.572-1.887l-59.512-0.114
		c-39.274-0.114-59.512,0-59.626,0.4c-0.115,0.343-0.8,2.63-1.601,5.145c-0.801,2.515-1.83,6.117-2.401,8.003
		c-0.515,1.887-1.144,4.059-1.429,4.859s-1.143,3.773-1.944,6.574c-0.857,2.858-1.886,6.231-2.287,7.546
		c-0.458,1.315-0.686,2.515-0.514,2.687c0.229,0.172,7.146,0.343,15.492,0.343h15.092l-0.343,1.601
		c-0.229,0.857-0.629,2.458-0.857,3.544c-0.286,1.086-1.144,4.002-2.001,6.517c-0.8,2.458-1.486,4.859-1.486,5.26
		c0,0.457-0.229,1.258-0.515,1.829c-0.286,0.515-0.743,1.887-1.029,2.973c-0.343,1.087-1.429,4.688-2.458,8.004
		c-0.972,3.315-2.172,7.146-2.573,8.575c-0.743,2.4-4.288,14.177-5.488,18.064c-1.201,4.002-3.602,3.659,27.669,3.545l28.127-0.172
		L84.437,215.662z"/>
</g>
<g id="layer102">
	<path fill="#E00118" d="M39.617,209.259c0.114-0.743,2.344-8.118,4.859-16.464c2.516-8.347,4.859-16.064,5.146-17.15
		c0.343-1.087,2.172-7.146,4.059-13.377c1.944-6.289,3.487-11.491,3.487-11.605c0-0.114-6.917-0.171-15.435-0.171
		c-11.491,0-15.436-0.171-15.436-0.686c0-0.343,0.915-3.659,2.058-7.26c1.086-3.659,2.172-7.088,2.287-7.604
		c0.286-0.972,3.145-1.029,50.079-1.029c39.503,0,49.679,0.171,49.45,0.743c-0.171,0.343-1.258,4.116-2.458,8.232l-2.229,7.603
		h-15.607h-15.55l-0.572,1.486c-0.343,0.801-2.401,7.604-4.63,15.035c-2.229,7.433-4.859,16.351-5.945,19.78
		c-1.086,3.487-2.858,9.376-4.002,13.148c-1.144,3.773-2.344,7.718-2.63,8.747l-0.629,1.829H57.625H39.331L39.617,209.259z"/>
	<path fill="#E00118" d="M129.485,209.716c-7.432-2.344-10.519-6.745-9.833-14.063c0.172-1.716,2.116-9.204,4.288-16.579
		c9.147-30.642,9.547-31.5,14.521-36.587c3.43-3.487,6.631-5.374,11.719-7.031c3.773-1.201,4.745-1.201,42.933-1.429l39.046-0.172
		l-0.343,1.315c-0.171,0.743-1.314,4.402-2.516,8.175l-2.172,6.86l-25.383,0.286c-27.783,0.286-27.841,0.286-31.557,3.888
		c-2.744,2.572-3.03,3.315-8.061,20.237c-3.259,10.977-3.716,13.605-2.573,16.121c1.315,2.802,3.888,3.487,14.292,3.659l9.49,0.229
		l2.001-6.803l1.943-6.746l-4.173-0.171c-2.287-0.115-4.173-0.286-4.173-0.458c0-0.343,1.314-4.916,3.83-13.206l0.914-3.029h19.608
		c10.806,0,19.666,0.057,19.666,0.171c0,0.286-8.403,28.298-12.119,40.304l-1.772,5.831l-38.646-0.057
		C140.918,210.46,131.257,210.288,129.485,209.716z"/>
	<path fill="#E00118" d="M216.666,210.06c0-0.286,1.658-6.061,3.659-12.748c5.202-17.322,12.862-42.762,13.548-44.935l0.63-1.887
		h14.806c8.633,0,14.807-0.229,14.807-0.514c0-0.286-3.544-2.744-7.832-5.431c-4.345-2.687-9.833-6.117-12.177-7.604l-4.287-2.744
		l34.301-0.171c40.703-0.229,43.962,0.114,48.535,4.344c3.431,3.202,4.059,7.546,2.001,14.178
		c-2.802,9.204-7.946,14.635-15.836,16.75c-2.687,0.744-2.743,1.487-0.114,2.058c0.915,0.171,2.572,1.373,3.659,2.573
		c2.515,2.801,3.087,6.06,2.058,12.005c-1.887,11.548-8.289,19.608-18.294,23.038c-3.658,1.258-4.173,1.258-41.561,1.43
		C231.93,210.517,216.666,210.346,216.666,210.06z M271.89,192.509c6.574-3.201,9.09-12.862,4.06-15.55
		c-1.201-0.629-3.659-1.029-6.975-1.2l-5.202-0.229l-2.687,8.804c-1.487,4.859-2.688,9.146-2.688,9.604
		C258.398,195.311,268.231,194.281,271.89,192.509z M280.352,163.582c3.486-1.258,5.145-2.973,6.002-6.06
		c1.258-4.573-1.486-6.574-9.661-6.917l-5.431-0.229l-1.887,6.46c-1.087,3.544-2.059,6.746-2.229,7.203
		C266.631,165.354,276.521,165.011,280.352,163.582z"/>
</g>
</svg>
