<?xml version="1.0" encoding="utf-8"?>
<!-- Generator: Adobe Illustrator 16.0.0, SVG Export Plug-In . SVG Version: 6.00 Build 0)  -->
<!DOCTYPE svg PUBLIC "-//W3C//DTD SVG 1.1//EN" "http://www.w3.org/Graphics/SVG/1.1/DTD/svg11.dtd">
<svg version="1.1" id="Layer_1" xmlns="http://www.w3.org/2000/svg" xmlns:xlink="http://www.w3.org/1999/xlink" x="0px" y="0px"
	 width="345px" height="345px" viewBox="0 0 345 345" enable-background="new 0 0 345 345" xml:space="preserve">
<g>
	<g>
		<path d="M105.911,79.795c0,0,18.529-10.712,25.477-14.186l4.922,6.659c0,0,15.056-5.501,24.03-6.37l0.581-7.238
			c0,0,16.5-2.025,35.899,0.58l0.578,7.238c0,0,14.187,1.738,23.451,5.791l4.055-5.501c0,0,18.816,7.239,26.344,14.187
			l-18.816,33.293c0,0-24.03-16.792-50.375-17.082c0,0-31.558-0.868-56.456,16.793L105.911,79.795z"/>
		<path fill="#F6C131" d="M126.178,110.774l-17.082-30.11c0,0,13.317-8.685,22.003-11.58l4.343,5.211c0,0,19.687-6.079,26.635-6.369
			l0.579-6.371c0,0,15.346-2.896,31.848-0.289l1.157,6.948c0,0,16.502,2.317,26.056,6.659l4.344-4.921
			c0,0,11.871,4.054,22.292,11.291l-17.082,30.11C231.271,111.354,182.923,75.743,126.178,110.774z"/>
		<path d="M97.417,153.004c2.698-6.059,6.055-11.761,9.978-17.019l11.873,5.227c3.36-4.143,7.146-7.926,11.286-11.288l-4.278-12.649
			c5.107-3.74,10.625-6.948,16.476-9.545l8.416,10.227c5.045-1.955,10.345-3.391,15.838-4.244l2.308-13.098
			c3.141-0.335,6.328-0.507,9.559-0.507c3.412,0,6.781,0.191,10.095,0.564l2.042,13.084c2.846,0.451,5.64,1.06,8.373,1.817
			l6.7-3.062v5.5l9.015-10.233c5.792,2.581,11.258,5.759,16.317,9.46l-4.632,12.359c0.884,0.707,1.75,1.433,2.603,2.177
			l17.81-34.898l24.609-10.134l-25.188,51.245l4.346-1.168c3.835,5.267,7.108,10.971,9.729,17.021l-10.022,8.467l91.198,0.58
			l-74.188,18.803c0.209,2.488,0.314,5.006,0.314,7.547c0,3.233-0.312,7.155-0.647,10.302l-12.71,2.13
			c-0.884,5.556-2.364,10.912-4.372,16.003l10.012,7.899c-2.628,5.876-5.87,11.415-9.647,16.535l-12.263-4.135
			c-3.468,4.253-7.383,8.126-11.672,11.55l4.645,11.771c-5.21,3.801-10.847,7.05-16.825,9.663l-7.932-9.861
			c-4.873,1.889-9.987,3.295-15.281,4.157l-3.194,12.643c-3.037,0.313-6.117,0.472-9.235,0.472c-3.13,0-6.838-0.342-9.888-0.657
			l-1.944-12.361c-5.42-0.84-10.652-2.247-15.636-4.156l-8.872,9.452c-5.864-2.619-11.394-5.856-16.505-9.627l4.661-11.781
			c-3.333-2.691-6.434-5.657-9.271-8.861l-11.162,37.164l-21.713,9.554l15.067-50.095c-2.381-3.744-4.491-7.677-6.301-11.772
			l10.032-7.899c-2.078-5.342-3.527-10.2-4.364-16.049l-12.629-1.624c-0.397-3.417-0.603-6.892-0.603-10.414
			c0-2.145,0.076-4.271,0.225-6.379L3.134,161.438l103.356-0.288L97.417,153.004z"/>
		<g>
			<path fill="#00379C" d="M189.66,128.837c-3.505-0.62-7.109-0.943-10.791-0.943c-20.413,0-38.506,9.924-49.72,25.209l4.266,8.625
				l17.372,7.817l26.345-40.822l4.055,45.453l11-6.947L189.66,128.837z"/>
			<path fill="#00379C" d="M126.328,221.745c9.109,14.822,24.314,25.493,42.124,28.525l-2.031-26.295l-19.108-14.187l-4.054,6.658
				l-10.132-17.659L126.328,221.745z"/>
			<path fill="#00379C" d="M170.476,250.584c2.744,0.372,5.545,0.566,8.394,0.566c34.036,0,61.629-27.593,61.629-61.628
				c0-0.681-0.014-1.357-0.036-2.033l-20.191,4.929l-22.583,47.19l-1.736-19.397l-11.87-9.845l3.184,32.716L170.476,250.584z"/>
			<path fill="#00379C" d="M223.03,146.534c-4.551-4.672-9.836-8.625-15.67-11.673l1.907,27.156l5.212,0.289L223.03,146.534z"/>
		</g>
		<g>
			<polygon fill="#FFFFFF" points="107.938,274.929 93.173,281.588 128.783,159.123 143.837,186.049 175.106,136.541 
				184.081,240.766 170.763,247.137 165.262,175.625 143.258,210.656 132.835,192.418 			"/>
			<polygon fill="#FFFFFF" points="199.135,229.188 191.607,121.486 203.767,116.854 208.979,179.679 249.222,99.194 
				265.145,92.824 			"/>
		</g>
		<g>
			<polygon fill="#83BDEB" points="192.187,169.836 181.764,177.362 184.081,206.313 195.372,216.158 			"/>
			<polygon fill="#83BDEB" points="210.138,164.334 213.611,164.623 211.295,169.836 210.138,169.836 			"/>
			<polygon fill="#83BDEB" points="162.945,184.311 166.131,220.501 148.76,206.892 			"/>
			<polygon fill="#83BDEB" points="149.917,171.861 143.837,181.127 136.31,167.518 135.442,165.202 			"/>
			<polygon fill="#83BDEB" points="233.877,164.623 221.717,189.813 322.758,164.913 			"/>
			<polygon fill="#83BDEB" points="124.729,164.044 22.242,163.756 118.36,186.628 			"/>
		</g>
		<g>
			<path fill="#F6C131" d="M125.705,225.37c11.522,17.056,31.035,28.269,53.166,28.269c35.41,0,64.117-28.707,64.117-64.115
				c0-0.877-0.017-1.747-0.053-2.613l21.739-4.625c0.185,2.294,0.277,4.61,0.277,6.951c0,2.929-0.14,4.843-0.426,7.697
				l-12.612,2.735c-0.882,6.411-2.773,13.419-5.193,19.195l9.677,7.83c-2.109,4.356-4.573,8.511-7.357,12.418l-11.917-4.374
				c-3.951,5.085-8.552,9.639-13.679,13.535l4.464,11.725c-4.048,2.81-8.351,5.284-12.863,7.377l-7.781-9.778
				c-5.932,2.479-12.253,4.201-18.852,5.052l-2.606,12.399c-2.287,0.182-4.6,0.274-6.933,0.274c-2.539,0-5.053-0.11-7.535-0.325
				l-2.015-12.349c-6.557-0.847-12.842-2.556-18.741-5.009l-8.473,9.458c-4.317-2.042-12.587-7.317-12.718-7.41l4.201-11.511
				c0,0-8.862-8.86-11.178-11.753L125.705,225.37z"/>
			<path fill="#F6C131" d="M223.771,143.754c-4.811-4.72-10.36-8.688-16.46-11.713l-0.36-9.976l8.446-10.803
				c4.548,2.134,8.876,4.654,12.945,7.517l-4.763,12.104c1.751,1.337,3.44,2.751,5.061,4.237L223.771,143.754z"/>
			<path fill="#F6C131" d="M188.989,126.199c-3.295-0.523-6.676-0.795-10.119-0.795c-25.38,0-47.317,14.747-57.707,36.141
				l-10.619,0.186l0.29-0.869l-9.598-8.859c2.016-4.191,4.359-8.196,7.001-11.979l12.271,4.43
				c3.894-5.034,8.426-9.552,13.474-13.432l-4.657-12.188c4.022-2.838,8.298-5.338,12.787-7.462l8.366,10.081
				c5.835-2.437,12.052-4.147,18.534-5.013l2.332-12.963c2.483-0.214,4.992-0.325,7.529-0.325c2.242,0,4.465,0.086,6.664,0.255
				l2.872,12.99c2.652,0.343,5.26,0.827,7.815,1.443l-6.932,2.489L188.989,126.199z"/>
			<path fill="#F6C131" d="M93.11,196.735c-0.213-2.472-0.321-4.973-0.321-7.499c0-1.942,0.064-3.868,0.19-5.775l21.618,5.482v8.395
				l-4.718,18.27c-1.984-5.244-3.772-11.413-4.516-17.155L93.11,196.735z"/>
			<path fill="#F6C131" d="M104.313,232.289c-1.185-2.049-2.287-4.147-3.303-6.298l7.177-6.694l0.868,1.158L104.313,232.289z"/>
			<path fill="#F6C131" d="M235.902,160.861l0.579,1.445l10.135-0.289l10.61-8.472c-2.046-4.483-4.464-8.762-7.218-12.794
				l-5.131,1.29L235.902,160.861z"/>
		</g>
		<path fill="#00379C" d="M112.281,81.533c0,0,5.501-5.211,18.239-9.842l4.343,5.79c0,0,8.396-5.212,29.531-7.238v-7.237
			c0,0,15.344-2.026,28.083-0.289l0.289,7.238c0,0,17.372,1.738,30.109,7.528l4.343-5.502c0,0,8.396,2.606,18.529,9.554
			l-15.055,26.346c0,0-51.824-34.163-103.937,0L112.281,81.533z"/>
		<g>
			<polygon fill="#F6C131" points="208.689,93.114 206.373,92.535 209.269,80.375 205.215,79.217 205.795,76.321 217.374,79.795 
				216.506,82.691 212.162,80.955 			"/>
			<polygon fill="#F6C131" points="217.954,96.588 215.058,95.43 225.481,82.981 231.562,86.166 229.246,102.378 226.64,101.221 
				226.64,98.904 219.401,95.141 			"/>
			<polygon fill="#F6C131" points="142.68,94.851 140.364,96.298 138.338,94.271 131.388,98.326 131.678,100.352 129.073,101.509 
				126.178,85.875 131.678,82.981 			"/>
			<path fill="#F6C131" d="M164.971,73.716l2.896-0.289l0.579,11.002c0,0,0.579,1.737,1.738,1.737l4.342-0.291
				c0,0,0.868-0.289,0.868-2.315l-0.868-9.845l2.895-0.289l0.869,11.292c0,0,0,4.053-2.896,4.053l-5.789,0.579
				c0,0-3.765-0.58-4.054-3.475L164.971,73.716z"/>
			<path fill="#F6C131" d="M152.812,86.166v-2.896l4.343-0.87l1.159,5.212c0,0,0,3.764-2.896,4.342l-5.212,0.58
				c0,0-2.606,0.29-3.764-2.316l-2.316-7.818c0,0-1.156-3.763,2.027-4.631l5.5-1.448c0,0,4.343-1.158,4.922,3.475l-2.896,1.159
				c0,0-0.868-2.026-2.315-1.737l-3.474,1.157c0,0-1.159,0.58-0.58,2.317l1.449,5.79c0,0,0.579,1.159,1.736,1.159l4.053-0.869
				c0,0,1.158-0.29,0.868-1.447l-0.577-1.448L152.812,86.166z"/>
			<path fill="#F6C131" d="M188.135,83.85l-2.896-0.289c0,0,0.288,4.921,2.896,5.5l6.079,0.58c0,0,3.185,0,3.764-2.317
				c0,0-0.292-3.474-1.449-4.343l-6.657-5.211c0,0-1.159-1.158,0.867-1.158l4.053,0.289c0,0,1.16,0.001,1.16,1.448l2.896,0.29
				c0,0-0.29-3.764-3.475-4.343l-5.501-0.58c0,0-2.025-0.291-3.185,1.737c0,0-1.159,2.607,1.448,4.633l5.212,4.342
				c0,0,3.184,2.315,0,2.315l-3.475-0.289C189.871,86.455,188.423,86.166,188.135,83.85z"/>
		</g>
		<polygon fill="#00379C" points="136.31,92.535 130.52,95.141 129.362,87.613 131.388,86.744 		"/>
		<polygon fill="#00379C" points="227.218,95.43 221.717,92.535 226.64,86.744 228.377,87.903 		"/>
	</g>
</g>
</svg>
