<?xml version="1.0" encoding="utf-8"?>
<!-- Generator: Adobe Illustrator 16.0.0, SVG Export Plug-In . SVG Version: 6.00 Build 0)  -->
<!DOCTYPE svg PUBLIC "-//W3C//DTD SVG 1.1//EN" "http://www.w3.org/Graphics/SVG/1.1/DTD/svg11.dtd">
<svg version="1.1" id="Layer_1" xmlns="http://www.w3.org/2000/svg" xmlns:xlink="http://www.w3.org/1999/xlink" x="0px" y="0px"
	 width="345px" height="345px" viewBox="0 0 345 345" enable-background="new 0 0 345 345" xml:space="preserve">
<g>
	<rect fill-rule="evenodd" clip-rule="evenodd" fill="#F7323F" width="345" height="345"/>
</g>
<g>
	<path fill-rule="evenodd" clip-rule="evenodd" fill="#FFFFFF" d="M51.302,77.932c0,0,12.021,10.204,39.421,18.591
		c27.539,8.248,64.582,22.506,64.582,22.506l-49.625,61.506l35.786,15.518l-12.441,6.57L83.594,185.29l49.625-57.874
		c0,0-36.485-12.58-46.689-15.515c-10.065-3.075-29.216-16.076-31.592-21.388C52.56,85.061,51.302,77.932,51.302,77.932z"/>
</g>
<g>
	<path fill-rule="evenodd" clip-rule="evenodd" fill="#FFFFFF" d="M63.883,104.212c0,0,10.764,7.688,18.452,10.624
		c7.829,2.936,44.314,14.398,44.314,14.398l-4.893,7.129l-33.969-10.204c0,0-7.828-1.818-12.581-4.194
		c-4.752-2.375-9.505-7.129-11.323-10.764C62.066,107.846,63.883,104.212,63.883,104.212z"/>
</g>
<g>
	<path fill-rule="evenodd" clip-rule="evenodd" fill="#FFFFFF" d="M71.012,124.341c0,0,6.571,4.194,12.022,5.453
		c5.312,1.119,35.227,10.205,35.227,10.205l-5.452,7.129c0,0-22.087-4.752-26.84-6.57c-4.752-1.818-8.387-3.634-11.323-7.829
		C71.571,128.535,71.012,124.341,71.012,124.341z"/>
</g>
<g>
	<polygon fill-rule="evenodd" clip-rule="evenodd" fill="#FFFFFF" points="118.262,170.892 110.433,179.28 148.037,195.495 
		160.618,188.784 	"/>
</g>
<g>
	<polygon fill-rule="evenodd" clip-rule="evenodd" fill="#FFFFFF" points="116.444,214.646 216.254,172.151 223.943,179.421 
		124.832,221.774 	"/>
</g>
<g>
	<path fill-rule="evenodd" clip-rule="evenodd" fill="#FFFFFF" d="M130.143,224.151l10.206,6.01l109.873-46.549l-49.484-56.754
		l35.786-12.022c0,0,17.194-6.01,23.765-9.365c6.569-3.635,17.333-9.646,20.827-20.969c3.637-11.323,1.259-6.569,1.259-6.569
		s-6.01,4.752-14.398,8.387c-8.247,3.635-16.074,7.129-26.699,10.764c-10.764,3.496-60.948,22.507-60.948,22.507l50.185,60.388
		L130.143,224.151z"/>
</g>
<g>
	<polygon fill-rule="evenodd" clip-rule="evenodd" fill="#FFFFFF" points="173.758,221.774 191.092,229.604 204.791,223.593 
		186.34,215.763 	"/>
</g>
<g>
	<polygon fill-rule="evenodd" clip-rule="evenodd" fill="#FFFFFF" points="194.027,212.827 210.802,219.956 222.824,214.646 
		205.49,207.515 	"/>
</g>
<g>
	<path fill-rule="evenodd" clip-rule="evenodd" fill="#FFFFFF" d="M209.684,129.793c0,0,23.205-8.945,27.958-10.204
		c4.894-1.119,15.517-5.872,19.709-7.688c4.056-1.817,14.26-7.688,14.26-7.688s-2.937,10.064-8.388,13.56
		c-5.311,3.634-14.817,7.269-21.946,9.644c-7.129,2.377-26.28,7.69-26.28,7.69L209.684,129.793z"/>
</g>
<g>
	<path fill-rule="evenodd" clip-rule="evenodd" fill="#FFFFFF" d="M218.63,139.3c0,0,13.701-3.496,19.012-5.313
		c5.451-1.816,8.386-3.076,12.58-4.753c4.054-1.818,11.884-4.894,11.884-4.894s0.558,7.269-9.646,12.022
		c-9.924,4.753-18.312,7.27-18.312,7.27l-10.764,2.235L218.63,139.3z"/>
</g>
<g>
	<polygon fill-rule="evenodd" clip-rule="evenodd" fill="#FFFFFF" points="18.871,240.368 50.463,240.368 49.346,243.302 
		21.108,263.851 42.076,263.851 41.098,266.788 9.505,266.788 10.624,263.851 38.861,243.302 17.893,243.302 	"/>
</g>
<g>
	<path fill-rule="evenodd" clip-rule="evenodd" fill="#FFFFFF" d="M71.012,240.368h10.625c2.795,0,5.033,0.699,6.43,1.818
		c1.538,1.115,1.817,2.514,1.119,4.053l-7.409,14.678c-0.839,1.537-2.517,2.934-5.172,4.053c-2.237,0.979-4.613,1.537-6.99,1.678
		v-4.193c0.839-0.422,1.397-0.979,1.677-1.537l7.269-14.678c0.419-0.699,0.28-1.398-0.419-1.959
		c-0.839-0.699-1.817-0.979-3.355-0.979c-1.398,0-2.795,0.279-4.054,0.979c-0.42,0.141-0.7,0.279-1.119,0.42v-4.195
		C70.174,240.505,70.593,240.368,71.012,240.368z M69.615,266.647c-0.419,0.141-0.839,0.141-1.398,0.141H57.732
		c-2.795,0-5.032-0.561-6.57-1.68c-1.398-1.258-1.817-2.654-0.978-4.191l7.409-14.678c0.838-1.539,2.516-2.938,5.172-4.053
		c2.236-0.98,4.473-1.541,6.849-1.682v4.195c-0.699,0.561-1.258,0.979-1.538,1.539l-7.409,14.678c-0.42,0.838-0.14,1.537,0.56,2.096
		c0.698,0.561,1.817,0.838,3.214,0.838c1.538,0,2.936-0.277,4.194-0.838c0.419-0.139,0.698-0.418,0.978-0.559V266.647z"/>
</g>
<g>
	<path fill-rule="evenodd" clip-rule="evenodd" fill="#FFFFFF" d="M152.091,252.11h15.796l-3.076,8.807
		c-0.699,1.957-2.376,3.354-4.893,4.332c-2.656,0.979-5.171,1.539-7.688,1.539h-17.752c-4.893,0.418-7.13-0.699-3.635-5.871
		l8.806-15.938c0.559-1.537,3.635-4.611,6.571-4.611h15.376c6.57,0,11.323,0,11.323,0l-0.419,3.074c0,0-8.947-0.141-12.022-0.141
		h-5.172c-1.538,0-2.795,0.279-4.054,0.979c-1.258,0.561-1.957,1.26-2.236,1.959l-5.312,14.678c-0.28,0.838,0,1.537,0.838,2.096
		c0.839,0.561,1.958,0.838,3.496,0.838c3.355-0.137,5.452-1.115,6.29-2.934l2.097-5.873h-5.312L152.091,252.11z"/>
</g>
<g>
	<path fill-rule="evenodd" clip-rule="evenodd" fill="#FFFFFF" d="M207.447,240.368v3.074c-5.313,0-6.989-0.141-9.926-0.141
		c-1.816,0-3.215,0.279-4.333,0.84c-1.118,0.418-1.817,1.119-2.236,2.098c-0.279,0.838,0,1.535,0.838,2.098l8.668,6.988
		c1.538,1.258,2.097,2.654,1.538,4.053l-0.421,1.539c-0.558,1.537-2.096,2.934-4.612,4.053c-2.376,1.258-5.173,1.818-7.969,1.818
		h-5.311c-3.495,0-3.355,0.418-7.829,0.279c-2.935,0.139-6.57,0.139-6.57,0.139v-3.215c0,0,2.936,0.279,8.387,0
		c2.097,0.279,5.731-0.141,7.13-0.141c1.817,0,3.214-0.277,4.192-0.838c0.98-0.418,1.679-1.117,2.098-2.096
		c0.279-0.84,0-1.398-0.84-2.098l-8.666-6.99c-1.678-1.258-2.236-2.654-1.678-4.055l0.559-1.535c0.56-1.539,2.098-2.938,4.475-4.053
		c2.516-1.119,5.172-1.818,8.107-1.818h5.313C204.931,240.368,207.447,240.368,207.447,240.368z"/>
</g>
<g>
	<polygon fill-rule="evenodd" clip-rule="evenodd" fill="#FFFFFF" points="209.684,266.788 221.706,240.368 232.19,240.368 
		226.878,252.11 237.363,252.11 242.674,240.368 253.019,240.368 241.136,266.788 230.651,266.788 235.964,255.044 225.479,255.044 
		220.168,266.788 	"/>
</g>
<g>
	<polygon fill-rule="evenodd" clip-rule="evenodd" fill="#FFFFFF" points="251.621,266.788 264.481,240.368 290.763,240.368 
		289.223,243.302 273.429,243.302 269.095,252.11 279.718,252.11 278.181,255.044 267.695,255.044 263.363,263.851 279.159,263.851 
		277.621,266.788 	"/>
</g>
<g>
	<polygon fill-rule="evenodd" clip-rule="evenodd" fill="#FFFFFF" points="288.665,266.788 298.031,240.368 300.407,240.368 
		324.311,255.044 329.482,240.368 334.795,240.368 325.429,266.788 323.054,266.788 299.15,252.11 293.838,266.788 	"/>
</g>
<g>
	<polygon fill-rule="evenodd" clip-rule="evenodd" fill="#FFFFFF" points="84.852,266.788 96.035,240.368 98.412,240.368 
		121.337,255.044 127.488,240.368 132.8,240.368 121.617,266.788 119.1,266.788 96.314,252.11 90.023,266.788 	"/>
</g>
</svg>
