<?xml version="1.0" encoding="utf-8"?>
<!-- Generator: Adobe Illustrator 16.0.0, SVG Export Plug-In . SVG Version: 6.00 Build 0)  -->
<!DOCTYPE svg PUBLIC "-//W3C//DTD SVG 1.1//EN" "http://www.w3.org/Graphics/SVG/1.1/DTD/svg11.dtd">
<svg version="1.1" id="Layer_1" xmlns="http://www.w3.org/2000/svg" xmlns:xlink="http://www.w3.org/1999/xlink" x="0px" y="0px"
	 width="345px" height="345px" viewBox="0 0 345 345" enable-background="new 0 0 345 345" xml:space="preserve">
<path fill="#FF0000" d="M182.812,213.612c41.431-6.003,90.521-18.487,128.16-32.629c10.312-3.903,14.03-5.929,18.266-10.017
	c5.819-5.635,11.344-14.031,14.842-22.612l0.921-2.284l-1.363-0.7c-7.07-3.535-29.462-7.771-54.578-10.349
	c-35.759-3.646-73.581-5.008-129.081-4.677c-33.365,0.221-40.436,0.368-63.343,1.547c-44.156,2.283-82.273,7.623-94.721,13.294
	L0,146.034l1.399,3.277c5.451,12.706,14.105,23.091,23.091,27.657c6.629,3.352,24.895,9.833,43.419,15.468
	c29.278,8.839,63.38,16.572,92.068,20.808C172.721,215.122,172.205,215.122,182.812,213.612z"/>
<path fill="#F7F7F7" d="M167.16,209.562c-20.034-2.726-48.134-8.323-71.077-14.179c-24.896-6.371-55.683-16.314-68.278-22.022
	c-7.771-3.499-14.768-11.159-20.292-22.134l-1.289-2.578l0.958-0.368c4.272-1.621,18.414-4.567,30.162-6.224
	c34.139-4.898,75.975-7.145,133.315-7.107c66.731,0,117.185,3.13,150.625,9.317c5.155,0.958,17.051,3.793,17.419,4.161
	c0.295,0.295-2.909,6.482-4.972,9.612c-4.861,7.402-9.575,11.969-15.025,14.657c-4.824,2.394-20.107,7.954-32.776,11.969
	c-24.97,7.918-47.471,13.736-73.066,18.855c-15.799,3.167-37.785,6.703-40.841,6.592
	C171.469,210.077,169.296,209.856,167.16,209.562z M184.026,205.142c31.893-4.529,67.026-12.521,97.482-22.096
	c3.646-1.142,7.476-2.32,8.471-2.615c3.646-1.104,18.487-6.481,21.912-7.954c1.915-0.811,4.751-2.247,6.261-3.167
	c3.683-2.283,9.022-7.439,11.526-11.195c2.321-3.462,4.052-6.776,3.794-7.218c-0.81-1.252-19.703-5.045-35.022-6.998
	c-23.938-3.057-69.862-5.929-94.721-5.929h-6.371l-12.227,5.156c-6.74,2.835-12.448,5.156-12.669,5.156s-5.893-2.32-12.595-5.156
	l-12.19-5.156h-6.408c-9.428,0-34.103,0.921-49.054,1.841c-29.904,1.842-54.321,4.714-71.077,8.323
	c-4.677,1.031-9.023,2.247-9.501,2.688c-0.405,0.405,2.025,5.045,4.162,7.955c4.972,6.887,10.422,11.048,18.487,14.179
	c36.938,14.437,92.032,28.025,135.083,33.292C171.689,206.542,177.361,206.1,184.026,205.142z"/>
<path fill="#F7F7F7" d="M168.817,203.669c-0.589-0.11-4.088-0.589-7.734-1.104c-9.538-1.326-22.539-3.572-33.145-5.709
	c-9.943-1.988-23.127-4.972-24.27-5.413c-0.663-0.295,1.473-2.063,11.196-9.317l2.762-2.063l0.221,5.009
	c0.111,2.762,0.258,5.045,0.295,5.045c0.957,0.921,11.601,3.204,25.558,5.562l6.224,1.03l0.884-1.03l0.884-1.031v-13.663
	c0-10.753,0.11-13.589,0.479-13.442c16.425,6.703,19.997,8.028,20.845,7.881c0.516-0.074,5.267-1.915,10.532-4.051
	c5.229-2.136,9.649-3.83,9.759-3.72c0.111,0.11,0.222,6.114,0.259,13.332c0.073,7.218,0.109,13.442,0.109,13.773
	c0,0.368,0.405,0.921,0.921,1.252c0.848,0.552,1.326,0.516,7.809-0.589c8.396-1.399,21.212-3.904,22.869-4.456
	c0.626-0.222,1.362-0.7,1.547-1.068c0.221-0.368,0.368-2.688,0.368-5.119c0-2.468,0.11-4.456,0.295-4.456
	c0.221,0,4.493,3.167,12.337,9.17c1.142,0.884,2.1,1.657,2.1,1.73c0,0.553-24.896,5.855-40.475,8.618
	C185.684,202.638,172.39,204.222,168.817,203.669z"/>
<path fill="#F7F7F7" d="M145.063,191.111c-7.66-1.363-15.688-2.837-18.671-3.462l-3.793-0.811v-18.893
	c0-10.385,0.11-18.966,0.294-19.04c0.147-0.111,5.266-0.295,11.38-0.442l11.122-0.294l13.479,5.598
	c11.859,4.935,13.589,5.561,14.51,5.266c0.589-0.221,6.702-2.725,13.626-5.598l12.595-5.266l11.307,0.331l11.306,0.332l0.11,18.745
	c0.037,10.349-0.036,18.893-0.221,19.077c-0.553,0.552-23.164,4.824-23.717,4.492c-0.185-0.11-0.295-6.519-0.295-14.289
	c0-13.184-0.037-14.142-0.662-14.694c-0.369-0.368-1.032-0.626-1.437-0.626c-0.442,0-5.745,1.989-11.785,4.456
	c-6.04,2.431-11.232,4.456-11.527,4.493c-0.294,0-5.561-1.988-11.674-4.456c-6.114-2.468-11.527-4.493-12.006-4.493
	c-0.479,0-1.142,0.294-1.473,0.663c-0.552,0.626-0.626,2.173-0.626,14.915c0,11.196-0.111,14.252-0.442,14.216
	C146.205,191.295,145.579,191.185,145.063,191.111z"/>
<path fill="#F7F7F7" d="M91.479,188.422c-4.456-1.178-8.838-2.394-9.722-2.651l-1.621-0.479l1.068-0.736
	c2.504-1.657,11.895-6.739,18.376-9.943c7.881-3.867,17.419-8.286,17.898-8.286c0.184,0,0.332,2.357,0.332,5.266v5.266l-5.414,4.051
	c-2.983,2.21-6.997,5.304-8.912,6.888c-1.952,1.546-3.609,2.835-3.719,2.798C99.655,190.595,95.936,189.602,91.479,188.422z"/>
<path fill="#F7F7F7" d="M241.92,188.018c-1.731-1.4-5.745-4.493-8.913-6.887l-5.818-4.31v-5.413v-5.414l5.635,2.615
	c3.057,1.399,7.328,3.388,9.465,4.419c4.824,2.283,16.94,8.729,20.292,10.79l2.504,1.548l-6.334,1.693
	c-3.499,0.958-7.734,2.063-9.465,2.468c-1.731,0.442-3.389,0.847-3.683,0.92C245.308,190.521,243.65,189.417,241.92,188.018z"/>
<path fill="#F7F7F7" d="M72.697,183.229c-7.844-2.32-23.386-7.477-23.386-7.733c0-0.553,17.677-6.077,30.935-9.649
	c11.564-3.13,36.018-9.096,37.27-9.096c0.184,0,0.258,1.51,0.221,3.314l-0.11,3.351l-5.524,2.504
	c-13.368,6.077-23.569,11.306-31.451,16.131c-2.099,1.289-3.904,2.319-4.051,2.283C76.49,184.335,74.723,183.818,72.697,183.229z"/>
<path fill="#F7F7F7" d="M265.084,182.42c-6.261-4.015-19.076-10.57-31.524-16.241l-6.371-2.909v-3.241
	c0-1.915,0.147-3.277,0.368-3.277c1.657,0,33.402,7.918,44.93,11.195c8.654,2.504,23.127,7.145,23.349,7.55
	c0.221,0.331-26.185,8.875-27.474,8.875C268.288,184.371,266.814,183.487,265.084,182.42z"/>
<path fill="#F7F7F7" d="M40.878,172.771c-6.998-2.614-10.202-4.014-12.559-5.45c-2.467-1.547-4.051-2.799-4.051-3.204
	c0-0.147,1.215-0.626,2.688-1.031c11.195-3.314,33.402-6.85,57.708-9.281c8.802-0.884,29.757-2.578,31.782-2.578
	c1.326,0,1.363,0.037,1.363,1.399v1.4l-6.887,1.583c-22.98,5.229-44.229,11.085-58.85,16.13c-3.241,1.141-6.297,2.099-6.813,2.172
	C44.745,173.986,42.793,173.471,40.878,172.771z"/>
<path fill="#F7F7F7" d="M295.356,172.513c-11.27-4.235-39.369-12.005-61.981-17.087l-6.187-1.399v-1.4c0-1.694-0.7-1.62,9.76-0.847
	c26.516,1.989,47.544,4.456,64.596,7.586c9.537,1.731,19.187,4.125,19.187,4.788c0,0.516-2.873,2.541-5.967,4.198
	c-3.608,1.915-13.552,5.745-14.768,5.672C299.555,173.986,297.455,173.323,295.356,172.513z"/>
<path fill="#F7F7F7" d="M19.703,159.918c-0.921-1.104-2.431-3.204-3.352-4.677c-1.363-2.21-1.547-2.762-1.105-3.02
	c1.952-1.105,18.414-4.125,31.488-5.745c25.484-3.241,49.828-4.824,94.278-6.077l5.303-0.147l3.535,1.399
	c1.915,0.773,7.808,3.241,13.037,5.45c7.181,3.057,9.759,3.978,10.312,3.756c0.441-0.147,6.261-2.615,12.963-5.45l12.19-5.156
	l11.932,0.331c42.353,1.105,75.976,3.683,100.724,7.697c6.961,1.142,14.031,2.578,17.383,3.535l1.952,0.553l-0.994,1.804
	c-0.553,0.995-2.063,3.167-3.389,4.788c-1.915,2.394-2.541,2.983-3.167,2.836c-0.442-0.111-2.91-0.773-5.562-1.51
	c-13.957-3.904-37.232-7.366-67.21-9.98c-7.255-0.626-20.733-1.657-21.986-1.657c-0.736,0-0.847-0.184-0.847-1.399
	c0-0.995-0.258-1.657-0.847-2.209c-0.848-0.811-1.252-0.847-14.289-1.216l-13.405-0.405l-12.854,5.376
	c-7.034,2.946-13,5.377-13.258,5.377c-0.221,0-6.223-2.431-13.294-5.377l-12.89-5.376l-13.442,0.405l-13.442,0.369l-0.811,0.958
	c-0.515,0.589-0.847,1.436-0.847,2.173v1.252l-3.793,0.258c-38.448,2.578-74.023,7.476-89.38,12.3
	c-1.326,0.442-2.578,0.773-2.799,0.773S20.66,161.023,19.703,159.918z"/>
</svg>
