<?xml version="1.0" encoding="utf-8"?>
<!-- Generator: Adobe Illustrator 16.0.0, SVG Export Plug-In . SVG Version: 6.00 Build 0)  -->
<!DOCTYPE svg PUBLIC "-//W3C//DTD SVG 1.1//EN" "http://www.w3.org/Graphics/SVG/1.1/DTD/svg11.dtd">
<svg version="1.1" id="Layer_1" xmlns="http://www.w3.org/2000/svg" xmlns:xlink="http://www.w3.org/1999/xlink" x="0px" y="0px"
	 width="345px" height="345px" viewBox="0 0 345 345" enable-background="new 0 0 345 345" xml:space="preserve">
<path stroke="#373435" stroke-width="3" d="M47.14,231.64c8.727,0,20.745-5.043,21.138-13.376H0v-91.526h72.534
	c0.357-7.975-7.083-14.771-14.092-14.771V78.167c23.033,0,92.421-14.271,114.167-38.02c21.529,23.749,80.794,38.02,113.95,38.02
	v33.799c-7.011,0-14.45,6.831-14.094,14.771H345v91.526h-68.278c0.394,8.333,12.411,13.376,21.137,13.376
	c-49.285,45.065-87.482,73.213-125.322,73.213c-37.84,0.036-76.04-28.147-125.325-73.213H47.14z"/>
<g>
	<path fill="#F97C06" stroke="#373435" stroke-width="3" d="M8.404,135.214v74.645h328.083v-74.645H8.404z M328.047,201.382H16.846
		v-57.727h311.201V201.382z"/>
	<path fill="#F97C06" stroke="#373435" stroke-width="3" d="M172.465,60.57c15.486,16.202,76.038,31.689,97.854,31.689v11.267
		c-7.475,4.506-14.448,11.695-14.092,23.248h7.762v-0.357c-0.252-7.761,6.044-16.488,13.377-19.028V86.25
		c-32.405,0-88.021-17.239-104.901-35.551C155.582,69.011,95.138,86.25,67.562,86.25v21.138c7.332,2.54,13.626,11.267,13.377,18.992
		v0.357H88.7c0.358-11.553-6.617-18.742-14.092-23.249V92.224c21.818,0,82.371-15.487,97.857-31.689V60.57z M259.054,218.264
		c0.215,6.975,2.826,14.091,8.726,18.991c-22.818,19.708-68.563,51.396-95.314,51.396c-26.754,0-72.534-31.688-95.317-51.396
		c5.901-4.936,8.513-12.053,8.727-18.991h-7.761c-0.394,7.117-6.009,15.308-13.377,16.56
		c31.117,27.611,69.494,61.946,107.729,61.946c38.232,0,76.611-34.37,107.726-61.946c-7.331-1.252-12.981-9.442-13.375-16.56
		H259.054z"/>
	<path fill="#F97C06" stroke="#373435" stroke-width="3" d="M148.93,80.206l-14.986,6.617c-4.327,1.896-5.507,3.005-5.507,9.621
		v24.143c0,3.398,2.789,6.187,6.188,6.187h0.036h14.735c3.398,0,6.188-2.789,6.188-6.187V86.501
		C155.582,83.103,152.041,78.811,148.93,80.206z M147.82,116.258c0,0.68-0.572,1.252-1.251,1.252h-8.512
		c-0.68,0-1.252-0.572-1.252-1.252V96.944c0-2.826,1.109-2.646,5.043-4.72c3.004-1.574,5.972-2.898,5.972-1.789V116.258z"/>
	<path fill="#F97C06" stroke="#373435" stroke-width="3" d="M210.948,86.823l-14.985-6.617c-3.113-1.396-6.653,2.897-6.653,6.295
		v34.085c0,3.398,2.789,6.187,6.188,6.187h14.737h0.035c3.397,0,6.188-2.789,6.188-6.187V96.444
		C216.457,89.828,215.274,88.719,210.948,86.823z M208.087,116.258c0,0.68-0.572,1.252-1.252,1.252h-8.514
		c-0.679,0-1.251-0.572-1.251-1.252V90.436c0-1.109,2.97,0.214,5.974,1.789c3.935,2.074,5.043,1.895,5.043,4.72V116.258z"/>
	<path fill="#F97C06" stroke="#373435" stroke-width="3" d="M222.607,126.738h8.263l-0.071-9.335h10.837v9.335h9.084v-6.688
		c0-2.79-1.681-5.15-3.647-5.938c1.896-0.787,3.647-2.611,3.647-4.864v-6.296c0-3.361-3.005-5.83-5.83-6.509l-22.282-5.473V126.738z
		 M230.762,109.177l-0.034-8.871l8.511,1.824c1.432,0.322,2.47,1.717,2.47,3.613v3.434h-10.909H230.762z"/>
	<path fill="#F97C06" stroke="#373435" stroke-width="3" d="M187.235,77.595v8.871l-10.123-5.043v45.315h-9.299V81.422
		l-10.121,5.043v-8.871c6.367-3.183,11.554-6.509,14.772-9.907C175.683,71.05,180.869,74.412,187.235,77.595z"/>
	<path fill="#F97C06" stroke="#373435" stroke-width="3" d="M95.424,126.738h9.335v-10.264l5.937,9.942l5.831-11.302v11.624h8.763
		V90.686h-3.04c-1.968,0.572-3.935,1.109-5.901,1.609l-6.295,15.451l-5.83-12.518c-3.004,0.643-5.937,1.251-8.763,1.752v29.757
		H95.424z"/>
	<path fill="#F97C06" stroke="#373435" stroke-width="3" d="M99.787,218.264h14.7l0.072,8.048H103.4l0.036,8.155
		c0,2.146,1.001,3.575,2.683,4.648l11.73,7.653v11.302l-20.923-14.842c-1.68-1.216-3.04-3.256-3.04-5.257v-13.914
		c0-3.577,2.324-5.83,5.9-5.83V218.264z"/>
	<path fill="#F97C06" stroke="#373435" stroke-width="3" d="M117.492,218.264h9.872l4.327,13.34l5.722-13.34h10.05l-12.124,24.679
		v25.893c-3.112-1.608-6.224-3.61-9.335-5.398v-22.068l-8.477-23.104H117.492z"/>
	<path fill="#F97C06" stroke="#373435" stroke-width="3" d="M153.759,218.264h17.346v7.333H160.09c-1.61,0-2.791,2.074-2.791,4.004
		v36.661c0,1.645,1.146,3.576,2.683,4.185l11.088,4.185v8.262c-5.83-0.357-12.412-3.435-19.492-6.402
		c-3.255-1.359-3.899-2.718-3.899-7.297v-43.955c0-3.578,2.611-7.011,6.01-7.011L153.759,218.264z"/>
	<path fill="#F97C06" stroke="#373435" stroke-width="3" d="M174.609,218.264h9.765v53.863l12.482-4.221v8.834
		c-8.083,3.184-15.701,5.795-22.247,6.046v-64.488V218.264z"/>
	<path fill="#F97C06" stroke="#373435" stroke-width="3" d="M203.761,218.264h16.415v7.476h-9.657c-1.503,0-3.112,1.717-3.112,3.218
		l0.037,8.406h9.586l-0.036,7.761h-9.479v12.123c0,2.075,1.36,3.399,3.47,2.075l9.156-5.793v9.978
		c-5.474,3.399-11.482,6.904-16.989,9.55c-2.254,1.073-5.509-0.214-5.509-4.829v-44.134
		C197.643,221.267,200.933,218.264,203.761,218.264z"/>
	<path fill="#F97C06" stroke="#373435" stroke-width="3" d="M228.975,218.264h20.709v7.726h-13.343
		c-1.358,0-2.503,0.322-2.432,1.896c0.037,1.573,1.109,2.003,2.218,2.003h8.549c2.896,0,5.008,2.467,5.008,5.794v4.398
		c0,3.899-0.395,5.044-3.436,7.262c-7.01,5.113-14.699,10.157-22.46,14.771v-10.694l13.056-8.37
		c1.751-1.106,2.431-2.323,2.431-4.004h-10.551c-2.324,0-4.936-2.468-4.936-4.901v-10.907c0-3.292,2.433-4.972,5.151-4.972H228.975z
		"/>
</g>
<g>
	<polygon fill="#FFFFFF" stroke="#373435" stroke-width="3" points="23.891,149.986 31.653,149.986 31.653,166.796 37.268,166.796 
		37.268,149.986 45.03,149.986 45.03,195.051 37.268,195.051 37.268,175.702 31.653,175.702 31.653,195.051 23.891,195.051 	"/>
	<path fill="#FFFFFF" stroke="#373435" stroke-width="3" d="M51.825,149.986h10.909l5.507,45.064h-6.867l-1.323-10.623h-5.079
		l-1.002,10.623h-8.262l6.08-45.064H51.825z M58.942,175.38l-1.752-14.164l-1.324,14.164h3.112H58.942z"/>
	<path fill="#FFFFFF" stroke="#373435" stroke-width="3" d="M70.352,149.986h11.123c5.401,0,8.584,1.717,8.584,8.513v4.255
		c0,3.075-1.001,7.295-3.577,8.548c2.432,1.433,3.577,4.9,3.577,8.548v7.832c0,2.47,0.179,5.188,0.787,7.334h-7.547
		c-0.178-0.859-0.286-1.754-0.286-2.647v-11.157c0-2.435-2.038-4.186-4.113-4.186h-1.502v17.954h-7.045v-45.064V149.986z
		 M77.397,168.87h0.537c3.005,0,5.115-2.253,5.115-5.044v-3.682c0-2.505-2.289-4.757-4.936-4.757h-0.716V168.87z"/>
	<polygon fill="#FFFFFF" stroke="#373435" stroke-width="3" points="93.028,149.986 100.574,149.986 100.574,188.219 
		107.119,188.219 107.119,195.051 93.028,195.051 	"/>
	<polygon fill="#FFFFFF" stroke="#373435" stroke-width="3" points="109.086,149.986 124.573,149.986 124.573,155.709 
		116.812,155.709 116.812,167.332 124.573,167.332 124.573,174.379 116.812,174.379 116.812,188.792 124.573,188.792 
		124.573,195.051 109.086,195.051 	"/>
	<polygon fill="#FFFFFF" stroke="#373435" stroke-width="3" points="125.289,149.986 133.014,149.986 135.411,163.005 
		138.664,149.986 146.391,149.986 138.628,173.949 138.986,195.051 131.69,195.051 131.619,173.771 	"/>
	<rect x="144.888" y="168.584" fill="#FFFFFF" stroke="#373435" stroke-width="3" width="13.198" height="6.51"/>
	<path fill="#FFFFFF" stroke="#373435" stroke-width="3" d="M172.32,149.986h-11.48v45.064h11.48c4.686,0,7.512-4.184,7.512-8.048
		v-30.759C179.832,152.739,176.256,149.986,172.32,149.986z M172.822,183.07c0,2.896-1.431,4.434-4.221,4.434h-0.537v-32.439h0.645
		c2.574,0,4.113,1.538,4.113,4.113V183.07z"/>
	<path fill="#FFFFFF" stroke="#373435" stroke-width="3" d="M186.556,149.986h10.909l5.506,45.064h-6.864l-1.324-10.623h-5.08
		l-1.001,10.623h-8.262l6.081-45.064H186.556z M193.674,175.38l-1.752-14.164l-1.325,14.164h3.112H193.674z"/>
	<polygon fill="#FFFFFF" stroke="#373435" stroke-width="3" points="201.327,149.986 208.553,149.986 211.091,173.913 
		213.81,149.986 221.034,149.986 215.169,195.051 207.443,195.051 	"/>
	<polygon fill="#FFFFFF" stroke="#373435" stroke-width="3" points="222.786,149.986 230.548,149.986 230.548,195.051 
		222.786,195.051 	"/>
	<path fill="#FFFFFF" stroke="#373435" stroke-width="3" d="M244.818,149.986h-11.479v45.064h11.479
		c4.686,0,7.511-4.184,7.511-8.048v-30.759C252.329,152.739,248.753,149.986,244.818,149.986z M245.319,183.07
		c0,2.896-1.432,4.434-4.221,4.434h-0.536v-32.439h0.644c2.575,0,4.113,1.538,4.113,4.113V183.07z"/>
	<path fill="#FFFFFF" stroke="#373435" stroke-width="3" d="M286.485,149.986c-5.044,0-9.156,4.505-9.156,10.05v24.929
		c0,5.508,4.112,10.051,9.156,10.051s9.156-4.508,9.156-10.051v-24.929C295.642,154.528,291.529,149.986,286.485,149.986z
		 M289.598,186.932c0,1.36-1.252,2.432-2.825,2.432c-1.538,0-2.825-1.107-2.825-2.432v-28.898c0-1.358,1.251-2.433,2.825-2.433
		c1.538,0,2.825,1.108,2.825,2.433V186.932z"/>
	<path fill="#FFFFFF" stroke="#373435" stroke-width="3" d="M265.385,155.601L265.385,155.601c1.323,0,2.36,1.108,2.36,2.433v6.295
		h6.866V160c0-5.543-4.292-10.05-9.514-10.05l0,0c-5.222,0-9.514,4.541-9.514,10.05v6.188c0,2.075,2.11,4.222,3.756,5.4l5.437,3.862
		c1.18,0.859,2.969,2.147,2.969,4.686v6.796c0,1.36-1.073,2.432-2.36,2.432l0,0c-1.324,0-2.361-1.107-2.361-2.432v-9.441h-7.402
		v7.439c0,5.543,4.291,10.05,9.513,10.05l0,0c5.223,0,9.513-4.543,9.513-10.05v-8.299c0-1.931-2.287-4.147-4.184-5.472l-4.543-3.147
		c-1.287-0.894-2.896-2.146-2.896-3.755v-6.224C263.023,156.675,264.097,155.601,265.385,155.601z"/>
	<polygon fill="#FFFFFF" stroke="#373435" stroke-width="3" points="299.183,149.986 308.59,149.986 313.24,169.871 313.24,149.986 
		319.999,149.986 319.999,195.051 310.985,195.051 306.407,169.943 306.336,195.051 299.183,195.051 	"/>
</g>
</svg>
