<?xml version="1.0" encoding="utf-8"?>
<!-- Generator: Adobe Illustrator 16.0.0, SVG Export Plug-In . SVG Version: 6.00 Build 0)  -->
<!DOCTYPE svg PUBLIC "-//W3C//DTD SVG 1.1//EN" "http://www.w3.org/Graphics/SVG/1.1/DTD/svg11.dtd">
<svg version="1.1" id="Layer_1" xmlns="http://www.w3.org/2000/svg" xmlns:xlink="http://www.w3.org/1999/xlink" x="0px" y="0px"
	 width="345px" height="345px" viewBox="0 0 345 345" enable-background="new 0 0 345 345" xml:space="preserve">
<g id="layer105">
	<path fill="#EB7129" d="M-340.442,177.039c0-4.993,1.362-5.811,5.266-3.087c3.904,2.724,1.725,7.626-3.359,7.626
		C-340.17,181.578-340.442,181.034-340.442,177.039z"/>
</g>
<g id="layer101">
	<path fill="#E42D13" d="M-1,172.5V0h173.5H346v172.5V345H172.5H-1V172.5z"/>
</g>
<g id="layer102">
	<path fill="#E74E14" d="M-1,172.5V0h173.5H346v172.5V345H172.5H-1V172.5z M157.869,222.173c5.96-1.987,11.741-3.612,12.734-3.612
		c1.084,0,1.896-0.362,1.896-0.903c0-1.807-4.967-1.987-13.005-0.542c-8.76,1.535-14.721,1.807-19.417,0.903
		c-2.8-0.542-2.8-0.632-2.8-6.503v-5.87l5.419,0.541c5.238,0.452,5.419,0.362,5.419-1.715c0-2.078-0.271-2.168-5.419-2.168h-5.419
		v-5.87v-5.871h6.683c6.593,0,6.593,0,6.142-2.258l-0.361-2.258h-11.47h-11.379l0.271,18.785l0.271,18.876l3.342,0.903
		C138.271,226.688,146.218,225.966,157.869,222.173z M320.796,223.979c15.173-6.684,16.889-28.359,2.8-35.313
		c-3.613-1.807-6.052-2.258-14.45-2.439l-10.206-0.361v11.289v11.29l2.8,0.993c6.231,2.167,6.231,2.167,6.231-9.393V189.66
		l2.98-0.091c4.968-0.181,6.413,0.181,8.671,2.167c4.786,4.426,5.96,12.645,2.709,19.328c-3.793,7.767-8.851,8.851-24.294,5.147
		l-10.838-2.619v-13.728v-13.818h-4.697h-4.786l0.271,15.715l0.271,15.625l5.6,0.541c4.696,0.451,22.488,5.961,23.933,7.406
		C308.964,226.418,317.184,225.604,320.796,223.979z M73.245,223.438c16.167-4.787,29.623-18.786,33.236-34.681
		c1.445-6.142,1.174-17.973-0.452-23.572c-1.716-5.961-3.071-7.586-3.071-3.793c0,1.535-0.903,3.884-1.987,5.238
		c-1.355,1.807-2.167,4.425-2.619,8.309c-0.361,3.342-1.174,6.412-2.077,7.406c-0.813,0.813-1.445,2.98-1.445,4.695
		c0,4.878-1.625,9.304-4.245,11.832c-4.245,3.973-27.546,16.979-30.526,16.979c-2.98,0-24.836-12.012-29.894-16.438
		c-3.161-2.799-4.877-7.134-4.877-12.282c0-1.716-0.813-4.063-1.807-5.329c-1.264-1.625-1.806-3.702-1.806-7.044
		c0-3.521-0.542-5.419-1.987-7.225c-1.083-1.445-2.258-4.245-2.529-6.231l-0.542-3.703l-1.625,4.516
		c-2.348,6.593-2.89,19.327-1.084,27.094c3.793,15.805,15.173,28.088,31.249,33.597C52.473,225.334,65.749,225.604,73.245,223.438z
		 M189.208,201.853v-15.806h-3.161h-3.16l0.27,9.483c0.271,7.405,0,9.482-0.902,9.482c-0.633-0.09-4.605-4.335-8.761-9.482
		c-7.586-9.483-7.676-9.483-11.65-9.483c-3.251,0-3.884,0.271-3.432,1.445c0.271,0.813,0.542,6.051,0.542,11.65v10.296l2.709-0.181
		c2.619-0.181,2.709-0.271,2.709-4.877c0-3.251,0.361-4.787,1.174-4.787c0.542,0,4.697,4.064,9.032,9.032
		c7.405,8.398,8.22,9.031,11.289,9.031h3.342V201.853z M208.807,211.335l-0.361-6.322h4.605c4.336,0,4.606-0.181,4.606-2.258
		s-0.271-2.258-4.516-2.258h-4.517v-5.419v-5.418h5.42c4.786,0,5.418-0.182,5.418-1.807c0-1.717-0.632-1.807-9.663-1.807h-9.754
		v15.806v15.805h4.516h4.605L208.807,211.335z M237.707,201.853l0.271-15.806h-4.696h-4.786v15.806v15.805h4.516h4.426
		L237.707,201.853z M269.136,215.58c0-1.987-0.271-2.077-4.967-1.717c-6.052,0.452-7.677-0.632-7.677-5.147
		c0-4.968,0.993-5.871,5.329-5.147c3.521,0.542,3.702,0.451,3.702-1.807c0-2.168-0.271-2.258-3.702-2.077
		c-4.064,0.361-5.329-0.813-5.329-4.787c0-4.696,0.723-5.237,6.412-5.237c4.696,0,5.329-0.182,5.329-1.807
		c0-1.717-0.633-1.807-10.116-1.807h-10.205l0.271,15.806l0.271,15.805h10.296C269.046,217.657,269.136,217.657,269.136,215.58z
		 M41.093,193.092l0.542-5.238h-4.877c-2.8,0-5.69-0.271-6.502-0.542c-1.174-0.451-1.355-0.181-0.903,1.986
		c0.542,2.349,2.348,7.587,2.619,7.587c0,0,1.716,0.633,3.703,1.265c1.987,0.723,3.883,0.993,4.154,0.723
		C40.19,198.511,40.732,195.892,41.093,193.092z M55.995,192.64c0-3.612,0.361-6.593,0.723-6.593c0.451,0,2.8,2.438,5.238,5.509
		c2.438,2.981,5.058,5.871,5.961,6.322c0.813,0.451,5.147,0.813,9.573,0.813c8.761,0,10.657-0.993,12.734-6.593
		c1.806-4.606,1.626-4.697-7.405-4.426c-7.315,0.271-8.67,0.091-10.567-1.445l-2.258-1.806l1.896-2.168
		c3.071-3.342,3.974-5.689,3.974-10.657c0-6.051-1.896-9.482-6.593-11.921c-3.612-1.896-5.058-2.077-26.101-2.349l-22.397-0.361
		v2.891c0,6.593,2.98,8.398,14.902,9.031l9.031,0.451l-0.09,14.902v14.901h5.69h5.689V192.64z M41.544,178.37v-5.87H34.41
		c-3.974,0-7.767-0.181-8.489-0.451c-0.994-0.452-1.174,0.181-0.632,3.342c0.271,2.167,0.903,4.516,1.264,5.147
		c1.264,1.896,6.142,3.612,10.748,3.703h4.245V178.37z M89.863,182.977c3.522-1.535,4.967-3.793,4.967-7.948v-2.979l-7.226,0.271
		l-7.225,0.361l-0.903,3.342c-0.452,1.807-1.445,4.064-2.167,5.058c-0.813,0.993-1.445,2.077-1.445,2.528
		C75.864,184.782,86.611,184.331,89.863,182.977z M201.672,173.765c6.231-2.078,11.831-7.947,13.275-13.728
		c3.433-14.45-7.044-24.385-22.217-21.044c-8.58,1.987-13.998,11.019-10.566,17.973c2.258,4.606,7.044,7.677,11.018,7.045
		c3.975-0.633,5.871-2.349,2.71-2.349c-1.265,0-3.252-0.993-4.516-2.348c-1.716-1.807-2.078-3.161-1.987-6.864
		c0.09-5.147,2.077-8.58,6.142-10.566c2.168-1.084,2.89-0.993,5.509,0.271c4.516,2.078,6.684,6.231,6.684,12.554
		c0,9.483-5.871,15.896-15.083,16.708c-7.947,0.633-19.146-5.87-23.391-13.817l-1.716-3.252l2.619-1.896
		c3.071-2.258,5.057-6.683,5.057-11.108c0-2.349-0.813-4.064-3.07-6.593l-3.07-3.342l-12.103-0.271l-12.012-0.361l0.181,19.778
		c0.09,10.838,0.452,19.779,0.723,19.959c0.271,0.091,2.258,0.182,4.516,0.182h4.064v-7.226c0-6.322,0.181-7.225,1.625-7.225
		c0.813,0,3.342,2.258,5.509,4.967c6.322,7.947,13.819,12.463,23.573,14.36C188.847,176.202,197.065,175.391,201.672,173.765z
		 M309.597,168.526c0.271-2.167,0.091-2.258-5.87-2.529l-6.142-0.271l-0.271-13.276l-0.271-13.366h-4.245h-4.245v16.076v15.985
		l10.386-0.181C309.326,170.784,309.326,170.784,309.597,168.526z M237.526,163.92c0-6.321,0.271-7.405,4.516-15.805l4.516-9.031
		h-2.438c-2.258,0-2.8,0.633-5.148,6.322c-3.792,9.302-4.154,9.302-8.308,0.903l-3.523-7.226h-4.335
		c-3.432,0-4.244,0.271-3.612,1.174c0.542,0.542,2.98,4.968,5.509,9.664c4.335,8.219,4.516,8.851,4.245,14.721l-0.271,6.052h4.425
		h4.426V163.92z M254.324,167.533l0.542-3.161h7.135h7.045l0.632,3.161c0.542,3.07,0.632,3.161,4.967,3.161
		c2.439,0,4.426-0.271,4.426-0.542c0-0.361-1.444-4.335-3.251-8.851c-1.806-4.516-3.884-10.206-4.606-12.734
		c-2.528-8.31-3.432-9.483-7.767-9.483h-3.883l-4.878,14.721c-2.709,8.039-5.057,15.174-5.237,15.806
		c-0.182,0.632,0.632,1.084,1.986,1.084C253.331,170.694,253.783,170.152,254.324,167.533z M94.83,167.533
		c3.161-1.626,4.516-3.884,4.516-7.587v-2.8H86.16H72.974l2.8,3.252c1.626,1.806,3.071,4.425,3.432,5.87
		c0.452,2.619,0.542,2.619,6.773,2.619C89.772,168.888,93.205,168.346,94.83,167.533z M98.533,149.651
		c-9.122-13.276-27.907-21.314-44.254-18.967c-3.793,0.632-9.303,1.896-12.102,2.98c-6.684,2.528-15.354,9.031-19.779,14.902
		l-3.432,4.516l7.677,0.271l7.767,0.271l11.29-6.594c7.857-4.425,12.283-6.502,14.36-6.502c2.077,0,6.322,1.986,13.728,6.231
		c10.657,6.322,10.657,6.322,18.785,6.773c4.516,0.271,8.309,0.361,8.399,0.271C101.152,153.715,100.068,151.818,98.533,149.651z"/>
	<path fill="#E74E14" d="M56.627,177.286c-0.361-0.271-0.632-2.528-0.632-4.967c0-4.335,0-4.335,2.98-4.335
		c3.793,0,6.502,2.619,5.69,5.689C63.942,176.564,58.343,179.093,56.627,177.286z"/>
	<path fill="#E74E14" d="M154.437,143.6v-8.128h4.425c3.793,0,4.787,0.361,6.322,2.348c4.425,5.69,0.09,13.818-7.315,13.908h-3.432
		V143.6z"/>
	<path fill="#E74E14" d="M257.215,159.404c-0.542-0.632,2.619-10.477,3.793-11.65c0.542-0.542,1.717,0.994,3.161,4.064
		c3.342,7.226,3.161,8.038-2.077,8.038C259.653,159.856,257.485,159.676,257.215,159.404z"/>
</g>
<g id="layer103">
	<path fill="#E84E25" d="M-1,172.5V0h173.5H346v172.5V345H172.5H-1V172.5z M76.225,222.714c24.385-8.76,37.209-34.68,29.442-59.245
		l-2.167-6.773l-0.542,3.883c-0.361,2.078-1.445,4.968-2.528,6.503c-1.445,1.897-1.987,3.974-1.987,7.044
		c0,3.252-0.632,5.329-2.258,7.768s-2.258,4.517-2.258,7.677c0,6.954-2.258,9.212-17.34,17.883
		c-10.025,5.779-13.999,7.677-16.527,7.677c-2.529,0-6.593-1.897-16.527-7.587c-15.173-8.67-17.341-11.019-17.341-18.063
		c0-3.069-0.542-5.147-1.987-7.044c-1.264-1.717-2.077-4.426-2.348-7.857c-0.271-3.251-1.083-6.141-2.258-7.677
		c-0.993-1.354-2.077-4.244-2.438-6.322l-0.542-3.883l-2.077,6.322c-2.619,8.037-2.89,20.14-0.632,27.997
		c4.877,16.527,18.786,29.532,35.765,33.416C57.801,226.237,68.368,225.604,76.225,222.714z M152.631,224.431
		c0.722-0.451,1.896-0.903,2.529-0.993c0.632-0.181,3.793-1.265,7.044-2.529c3.161-1.264,7.135-2.348,8.67-2.348
		c2.619,0,2.799-0.09,1.535-1.445c-1.535-1.535-5.961-1.896-10.296-0.903c-1.445,0.361-4.335,0.993-6.322,1.445
		c-4.245,0.993-11.65,1.174-15.715,0.361c-2.709-0.542-2.8-0.632-2.8-5.87c0-4.878,0.181-5.329,2.258-5.871
		c1.265-0.271,3.703-0.271,5.419,0c2.98,0.542,3.161,0.452,3.161-1.716s-0.181-2.258-5.419-2.258h-5.419v-5.87v-5.871h6.864
		c5.87,0,6.773-0.181,6.322-1.444c-0.271-0.813-0.542-1.807-0.542-2.258s-5.148-0.813-11.47-0.813h-11.56v18.966v19.057l2.258,0.451
		c1.264,0.271,2.709,0.633,3.161,0.903C134.117,226.056,151.276,225.244,152.631,224.431z M321.066,224.069
		c7.406-3.522,11.199-8.94,11.922-17.431c0.903-9.573-3.522-16.617-12.192-19.327c-2.438-0.723-8.128-1.265-13.276-1.265h-9.031
		l0.271,11.019c0.181,6.142,0.633,11.38,0.903,11.741c0.361,0.36,2.349,0.903,4.516,1.264l3.793,0.633v-10.567V189.66h4.426
		c9.032,0,13.818,8.489,10.928,19.056c-2.348,8.399-9.753,11.38-20.591,8.399c-3.342-0.903-6.322-1.716-6.684-1.806
		c-0.452-0.091-0.813-0.272-0.903-0.362c-0.181-0.09-1.444-0.361-2.891-0.541c-5.146-0.543-5.057-0.181-5.057-14.813v-13.547h-4.697
		h-4.786v16.076v15.985l5.87,0.09c5.329,0.091,10.297,1.536,20.321,5.781c3.432,1.444,4.516,1.625,9.031,1.716
		C315.558,225.695,318.989,225.063,321.066,224.069z M189.66,202.123v-16.076h-3.432h-3.432l0.359,9.483
		c0.362,8.038,0.182,9.482-0.992,9.482c-0.723,0-1.535-0.361-1.717-0.813c-0.09-0.452-3.521-4.696-7.406-9.483
		c-7.134-8.58-7.224-8.67-11.198-8.67c-3.251,0-3.884,0.271-3.432,1.445c0.271,0.813,0.542,6.051,0.542,11.74v10.387l2.89-0.271
		c2.89-0.271,2.89-0.36,2.709-4.425c-0.181-2.349,0.09-4.516,0.542-4.787c0.723-0.36,13.186,12.192,15.535,15.625
		c0.902,1.354,3.521,2.348,6.231,2.348h2.8V202.123z M209.529,211.245v-6.232h4.063c3.703,0,4.064-0.181,4.064-2.258
		s-0.361-2.258-4.064-2.258h-4.063v-5.419v-5.418h4.967c4.335,0,4.967-0.182,4.967-1.807c0-1.717-0.541-1.807-10.566-1.717
		c-5.871,0-10.205,0.182-9.754,0.452c0.541,0.181,0.813,6.142,0.723,15.625l-0.182,15.354l4.246,0.271
		c2.348,0.181,4.516,0.181,4.967,0C209.258,217.657,209.529,214.767,209.529,211.245z M237.797,201.942l0.181-15.896h-4.967h-4.968
		v15.534v15.624l4.516,0.452c2.529,0.271,4.606,0.361,4.787,0.361C237.526,217.928,237.707,210.703,237.797,201.942z
		 M268.955,215.489c0.271-2.167,0.091-2.258-5.87-2.528c-6.052-0.271-6.142-0.361-6.412-2.891c-0.181-1.354-0.091-3.612,0.271-4.786
		c0.542-2.167,0.813-2.258,4.606-1.716c3.884,0.451,3.974,0.451,3.974-1.987c0-2.349-0.181-2.438-3.702-2.168
		c-4.245,0.452-5.329-0.541-5.329-4.786c0-4.426,0.993-5.148,6.412-4.877c4.426,0.271,4.877,0.091,5.147-1.716
		c0.271-1.987,0.091-1.987-9.935-1.987h-10.205v16.076v15.985l10.387-0.181C268.685,217.747,268.685,217.747,268.955,215.489z
		 M41.002,196.252c0.271-1.896,0.542-4.516,0.542-5.87c0-2.348-0.271-2.528-3.522-2.528c-1.897,0-4.787-0.271-6.322-0.542
		c-2.438-0.542-2.8-0.361-2.8,1.355c0,3.883,2.529,8.218,5.6,9.572C39.287,200.316,40.371,199.956,41.002,196.252z M56.446,193.002
		c0-3.433,0.361-6.052,0.903-5.962c0.542,0,2.89,2.438,5.238,5.419c2.439,2.981,5.419,5.78,6.593,6.322
		c3.432,1.265,12.644,0.994,16.166-0.452c3.251-1.354,5.871-5.327,5.871-9.031v-2.258l-8.128,0.543
		c-7.677,0.541-8.309,0.451-10.386-1.536l-2.167-2.077l2.619-2.979c6.864-7.857,3.161-20.05-6.773-22.85
		c-2.167-0.542-12.283-0.994-25.198-0.994H19.598l0.542,3.432c0.362,2.168,1.536,4.245,3.342,5.871
		c2.619,2.348,3.161,2.438,11.832,2.438h9.031l-0.271,15.354l-0.271,15.443l6.322-0.271l6.322-0.271V193.002z M41.544,178.37v-5.87
		h-6.503c-3.612,0-7.586-0.271-8.76-0.633c-2.078-0.541-2.167-0.451-1.626,3.433c0.813,6.051,4.516,8.941,11.47,8.941h5.419V178.37z
		 M92.121,181.802c1.896-1.806,2.89-3.702,3.251-6.502c0.632-3.884,0.542-3.974-1.535-3.433c-1.174,0.362-4.877,0.633-8.128,0.633
		h-5.961l-0.632,3.432c-0.271,1.987-1.354,4.606-2.438,5.87l-1.807,2.439h7.226C88.779,184.241,89.592,184.06,92.121,181.802z
		 M198.781,174.577c7.406-1.807,12.283-5.509,15.173-11.56c5.871-12.464-1.987-24.837-15.714-24.837
		c-5.961,0-10.206,1.536-13.367,4.968c-2.709,2.979-4.426,9.031-3.522,12.282c2.077,7.135,10.296,11.289,15.173,7.587
		c1.626-1.265,1.626-1.265-0.723-1.355c-5.961,0-8.58-11.379-3.883-16.979c2.619-3.161,5.6-3.974,9.302-2.438
		c6.321,2.709,8.671,14.359,4.245,21.043c-3.432,5.238-7.135,7.587-12.825,8.038c-4.153,0.36-5.689,0-10.837-2.619
		c-5.689-2.89-11.109-7.947-13.186-12.373c-0.903-1.807-0.723-2.349,1.535-3.974c4.425-3.251,6.323-10.386,3.973-15.443
		c-1.986-4.606-4.696-5.51-17.43-5.78l-11.741-0.361v20.41v20.411h4.787h4.696v-7.677c0-6.683,0.181-7.676,1.625-7.676
		c0.813,0,3.432,2.438,5.781,5.328C171.506,173.674,184.15,178.1,198.781,174.577z M237.616,170.513c0-0.632,0-3.883-0.09-7.135
		c-0.09-5.599,0.271-6.683,4.426-14.901c2.528-4.877,4.605-8.941,4.605-9.122c0-0.18-1.084-0.271-2.438-0.271
		c-2.258,0.091-2.8,0.723-5.148,6.142c-4.154,9.393-4.244,9.393-8.218,1.084l-3.613-7.226h-4.335c-3.432,0-4.244,0.271-3.612,1.174
		c0.542,0.542,2.8,4.606,5.148,8.941c3.974,7.496,4.154,8.219,4.154,15.082v7.315h4.516
		C235.99,171.597,237.526,171.236,237.616,170.513z M254.686,167.984v-3.612h6.773c7.136,0,8.58,0.903,8.58,5.328
		c0,1.716,0.542,1.896,4.968,1.896h4.967l-1.987-4.696c-0.993-2.619-3.432-9.121-5.237-14.359
		c-4.787-13.548-4.787-13.457-9.394-13.457h-3.883l-3.794,11.56c-4.605,13.909-4.335,13.096-4.516,13.909
		c-0.09,0.361-0.722,2.077-1.534,3.884l-1.265,3.16h3.16C254.596,171.597,254.686,171.507,254.686,167.984z M309.777,168.888
		c0-2.619,0-2.619-6.051-2.891l-6.142-0.271V152.36v-13.276h-5.329c-4.244,0-5.146,0.271-4.335,1.084
		c1.355,1.354,1.536,28.358,0.182,29.171c-2.71,1.626,0.09,2.258,10.386,2.258h11.289V168.888z M96.636,166.449
		c1.806-1.626,2.98-3.703,3.342-5.871l0.542-3.432H86.25H71.98l2.348,1.807c1.265,0.993,2.981,3.612,3.884,5.87l1.716,4.064h6.954
		C93.294,168.888,94.107,168.707,96.636,166.449z M41.815,149.561c11.741-6.864,15.625-8.67,18.244-8.67
		c2.619,0,6.502,1.806,18.244,8.67c8.128,4.786,8.309,4.877,15.534,4.877c4.064,0,7.315-0.361,7.315-0.723
		c0-1.535-5.148-7.947-9.664-11.922c-17.34-15.624-45.519-15.624-62.858,0c-4.516,3.975-9.664,10.387-9.664,11.922
		c0,0.361,3.251,0.723,7.316,0.723C33.507,154.438,33.687,154.347,41.815,149.561z"/>
	<path fill="#E84E25" d="M56.808,176.654c-0.181-0.271-0.271-2.258-0.09-4.516c0.361-3.702,0.632-4.154,2.529-4.154
		c2.077,0,5.78,2.8,5.78,4.335c0,1.987-3.071,4.696-5.329,4.696C58.343,177.016,56.988,176.835,56.808,176.654z"/>
	<path fill="#E84E25" d="M154.437,143.6v-8.128h4.425c3.884,0,4.697,0.361,6.322,2.619c4.335,6.142-0.09,13.637-8.038,13.637h-2.709
		V143.6z"/>
	<path fill="#E84E25" d="M257.215,159.404c-0.723-0.813,3.252-11.289,4.335-11.289c1.175,0,5.058,9.754,4.335,10.929
		C265.434,159.856,258.027,160.218,257.215,159.404z"/>
</g>
<g id="layer104">
	<path fill="#EA7110" d="M-1,172.5V0h173.5H346v172.5V345H172.5H-1V172.5z M76.225,222.714c24.385-8.76,37.209-34.68,29.442-59.245
		l-2.167-6.773l-0.542,3.883c-0.361,2.078-1.445,4.968-2.528,6.503c-1.445,1.897-1.987,3.974-1.987,7.044
		c0,3.252-0.632,5.329-2.258,7.768s-2.258,4.517-2.258,7.677c0,6.954-2.258,9.212-17.34,17.883
		c-10.025,5.779-13.999,7.677-16.527,7.677c-2.529,0-6.593-1.897-16.527-7.587c-15.173-8.67-17.341-11.019-17.341-18.063
		c0-3.069-0.542-5.147-1.987-7.044c-1.264-1.717-2.077-4.426-2.348-7.857c-0.271-3.251-1.083-6.141-2.258-7.677
		c-0.993-1.354-2.077-4.244-2.438-6.322l-0.542-3.883l-2.077,6.322c-2.619,8.037-2.89,20.14-0.632,27.997
		c4.877,16.527,18.786,29.532,35.765,33.416C57.801,226.237,68.368,225.604,76.225,222.714z M158.862,222.263
		c5.78-1.986,11.47-3.702,12.734-3.884l2.258-0.271l-2.528-1.716c-2.529-1.716-2.8-1.716-9.212-0.181
		c-8.761,2.077-15.624,2.71-20.682,1.986l-4.155-0.631v-5.419v-5.329h5.419c5.148,0,5.419-0.09,5.419-2.258
		s-0.271-2.258-5.419-2.258h-5.419v-5.96v-5.962l6.774,0.361c3.703,0.182,6.773,0.091,6.773-0.181c0-0.271-0.271-1.354-0.542-2.438
		c-0.542-1.987-0.903-2.077-12.012-2.077h-11.379v18.966v19.057l2.258,0.451c1.264,0.271,2.709,0.633,3.161,0.813
		c0.542,0.181,4.335,0.361,8.49,0.361C147.393,225.785,149.741,225.334,158.862,222.263z M323.866,222.534
		c10.657-6.594,12.734-22.127,4.155-31.339c-3.342-3.522-9.754-5.148-20.412-5.148h-9.121l0.271,11.019
		c0.181,6.142,0.633,11.38,0.903,11.741c0.361,0.36,2.349,0.993,4.516,1.444l3.793,0.903v-10.747V189.66h4.335
		c4.968,0,7.677,1.535,9.845,5.689c2.077,4.063,1.987,12.283-0.271,15.985c-4.064,6.954-10.115,8.58-20.411,5.419
		c-3.613-1.174-8.219-2.348-10.206-2.619l-3.612-0.542l-0.271-13.728l-0.271-13.818h-4.697h-4.696v16.257v16.257h5.689
		c5.419,0,7.587,0.541,20.05,5.328C310.591,226.599,318.087,226.146,323.866,222.534z M189.66,202.304v-16.257h-3.432h-3.432
		l0.359,9.483c0.271,6.231,0.092,9.482-0.541,9.482c-0.543,0-4.516-4.244-8.851-9.482c-7.857-9.483-7.857-9.483-11.921-9.483
		c-3.703,0-3.974,0.181-3.432,2.077c0.271,1.084,0.542,6.413,0.542,11.741v9.754l2.89-0.271c2.89-0.271,2.89-0.36,2.709-4.425
		c-0.181-2.349,0.09-4.516,0.542-4.787c0.542-0.271,4.245,3.252,8.399,7.948c8.128,9.031,9.755,10.295,13.728,10.387l2.439,0.09
		V202.304z M209.348,211.516l0.271-6.684l3.974,0.362c3.884,0.271,4.064,0.181,4.064-2.168s-0.271-2.529-4.064-2.529h-4.063v-5.509
		v-5.6l5.509,0.542c4.606,0.361,5.418,0.271,4.967-0.903c-0.271-0.723-0.542-1.716-0.542-2.167s-4.605-0.813-10.115-0.813h-10.205
		l0.271,16.257l0.27,16.347l4.697-0.271l4.696-0.271L209.348,211.516z M237.797,202.033l0.181-15.986h-4.967h-4.968l0.181,15.986
		c0.182,8.851,0.271,16.165,0.271,16.346c0,0.182,2.077,0.182,4.605,0l4.516-0.271L237.797,202.033z M268.955,215.67l0.271-2.528
		h-5.961h-5.96l0.271-4.696l0.271-4.787l3.884,0.271c3.612,0.271,3.793,0.182,3.793-2.258c0-2.438-0.09-2.528-4.064-2.258
		l-4.063,0.362v-5.148v-5.148l5.419,0.362c5.147,0.36,5.419,0.271,5.419-1.717c0-2.077-0.182-2.077-10.116-2.077h-10.205v16.257
		v16.347l10.387-0.271l10.386-0.271L268.955,215.67z M41.002,196.252c0.271-1.896,0.542-4.516,0.542-5.87
		c0-2.348-0.271-2.528-3.522-2.528c-1.897,0-4.787-0.271-6.322-0.542c-2.438-0.542-2.8-0.361-2.8,1.355
		c0,3.883,2.529,8.218,5.6,9.572C39.287,200.316,40.371,199.956,41.002,196.252z M56.446,193.002c0-3.433,0.361-6.052,0.903-5.962
		c0.542,0,2.89,2.438,5.238,5.419c2.439,2.981,5.419,5.78,6.593,6.322c3.432,1.265,12.644,0.994,16.166-0.452
		c3.251-1.354,5.871-5.327,5.871-9.031v-2.258l-8.128,0.543c-7.677,0.541-8.309,0.451-10.386-1.536l-2.167-2.077l2.619-2.979
		c6.864-7.857,3.161-20.05-6.773-22.85c-2.167-0.542-12.283-0.994-25.198-0.994H19.598l0.542,3.432
		c0.362,2.168,1.536,4.245,3.342,5.871c2.619,2.348,3.161,2.438,11.832,2.438h9.031l-0.271,15.354l-0.271,15.443l6.322-0.271
		l6.322-0.271V193.002z M41.544,178.37v-5.87h-6.503c-3.612,0-7.586-0.271-8.76-0.633c-2.078-0.541-2.167-0.451-1.626,3.433
		c0.813,6.051,4.516,8.941,11.47,8.941h5.419V178.37z M92.121,181.802c1.896-1.806,2.89-3.702,3.251-6.502
		c0.632-3.884,0.542-3.974-1.535-3.433c-1.174,0.362-4.877,0.633-8.128,0.633h-5.961l-0.632,3.432
		c-0.271,1.987-1.354,4.606-2.438,5.87l-1.807,2.439h7.226C88.779,184.241,89.592,184.06,92.121,181.802z M201.672,174.217
		c4.605-1.536,10.477-6.684,12.463-11.109c1.896-4.154,2.168-10.838,0.723-14.722c-1.265-3.432-5.148-7.495-8.67-8.94
		c-4.426-1.896-12.554-1.626-17.069,0.632c-6.594,3.161-9.935,11.019-7.226,17.341c2.348,5.78,10.387,8.851,14.631,5.6
		c1.717-1.265,1.717-1.265-0.18-1.355c-1.084,0-2.981-0.993-4.336-2.258c-1.986-1.806-2.348-2.89-2.348-7.225
		c0-4.426,0.361-5.419,2.619-7.768c8.94-8.851,19.598,5.329,13.547,17.883c-2.801,5.87-7.135,8.399-14.18,8.399
		c-8.038,0-14.992-3.703-20.862-11.199c-3.342-4.245-3.432-5.328-0.632-6.773c4.516-2.438,6.413-11.109,3.613-16.438
		c-2.168-4.244-5.961-5.328-18.153-5.328h-10.657v20.32v20.41l4.877-0.271l4.877-0.271l-0.181-7.496
		c-0.181-6.954-0.09-7.496,1.535-7.225c0.903,0.18,3.523,2.438,5.69,5.147c8.218,10.114,18.334,14.902,30.165,14.089
		C195.439,175.48,199.775,174.758,201.672,174.217z M237.707,164.733c-0.271-6.142-0.181-6.773,4.245-15.624
		c2.528-5.148,4.605-9.483,4.605-9.664s-1.354-0.361-2.98-0.361c-2.168,0-3.07,0.451-3.07,1.354c0,1.896-4.968,12.192-5.871,12.192
		c-0.36,0-2.258-2.979-4.063-6.683l-3.342-6.684l-4.335-0.361c-2.349-0.09-4.335-0.181-4.335-0.09c0,0.09,2.258,4.244,4.967,9.393
		c4.787,8.94,4.968,9.482,4.968,16.347v7.134l4.696-0.271l4.786-0.271L237.707,164.733z M254.866,168.255l0.271-3.432h6.773h6.773
		l0.813,3.432l0.902,3.342h4.877c4.335,0,4.786-0.181,4.245-1.535c-0.362-0.903-2.258-5.87-4.245-11.108
		c-1.896-5.238-4.425-11.831-5.419-14.631l-1.987-5.058l-4.425-0.361c-2.528-0.181-4.516,0.09-4.696,0.632
		c-0.09,0.813-9.483,29.172-10.205,31.249c-0.181,0.452,1.084,0.813,2.89,0.813C254.415,171.597,254.596,171.416,254.866,168.255z
		 M309.777,168.617c0-2.891,0-2.891-4.064-2.62c-2.258,0.182-5.147,0.091-6.411-0.18l-2.258-0.633l0.18-13.186l0.181-13.186h-4.696
		h-4.696l-0.181,16.437l-0.181,16.347h11.108h11.019V168.617z M96.636,166.449c1.806-1.626,2.98-3.703,3.342-5.871l0.542-3.432
		H86.25H71.98l2.348,1.807c1.265,0.993,2.981,3.612,3.884,5.87l1.716,4.064h6.954C93.294,168.888,94.107,168.707,96.636,166.449z
		 M41.815,149.561c11.741-6.864,15.625-8.67,18.244-8.67c2.619,0,6.502,1.806,18.244,8.67c8.128,4.786,8.309,4.877,15.534,4.877
		c4.064,0,7.315-0.361,7.315-0.723c0-1.535-5.148-7.947-9.664-11.922c-17.34-15.624-45.519-15.624-62.858,0
		c-4.516,3.975-9.664,10.387-9.664,11.922c0,0.361,3.251,0.723,7.316,0.723C33.507,154.438,33.687,154.347,41.815,149.561z"/>
	<path fill="#EA7110" d="M56.808,176.654c-0.181-0.271-0.271-2.258-0.09-4.516c0.361-3.702,0.632-4.154,2.529-4.154
		c2.077,0,5.78,2.8,5.78,4.335c0,1.987-3.071,4.696-5.329,4.696C58.343,177.016,56.988,176.835,56.808,176.654z"/>
	<path fill="#EA7110" d="M155.16,151.186c-0.452-0.36-0.723-4.063-0.723-8.218v-7.496h3.522c4.787,0,6.231,0.722,7.767,3.703
		c1.987,3.702,1.716,5.87-1.084,8.94C162.114,150.825,156.514,152.631,155.16,151.186z"/>
	<path fill="#EA7110" d="M257.396,158.772c0-2.438,3.161-10.657,4.063-10.657c1.266,0,5.148,9.845,4.426,11.019
		S257.396,160.037,257.396,158.772z"/>
</g>
<g id="layer105_1_">
	<path fill="#EB7129" d="M-1,172.5V0h173.5H346v172.5V345H172.5H-1V172.5z M71.709,224.431c17.34-4.516,31.249-18.695,35.313-35.854
		c1.806-7.768,1.716-14.451-0.452-22.939c-1.987-7.768-3.613-10.477-3.613-6.232c0,1.536-0.994,4.335-2.167,6.413
		c-1.084,1.986-2.258,5.96-2.619,8.76c-0.271,2.98-1.265,6.231-2.349,7.768c-1.084,1.444-1.896,4.064-1.896,5.87
		c0,5.599-2.438,10.114-7.044,13.096c-10.477,6.593-24.205,13.637-26.823,13.637c-2.619,0-16.347-7.044-26.733-13.637
		c-4.606-2.891-7.135-7.316-7.135-12.373c0-1.807-0.993-5.329-2.258-7.768c-1.264-2.438-2.258-6.051-2.258-7.947
		s-0.722-4.516-1.536-5.78c-0.813-1.264-1.986-4.244-2.619-6.502l-1.083-4.245l-1.084,2.709
		c-10.657,27.185,4.425,57.35,32.604,64.937C54.459,226.056,65.207,226.146,71.709,224.431z M159.224,222.263
		c3.884-1.625,8.49-3.07,10.296-3.341c4.334-0.543,4.515-0.813,1.716-2.71c-2.078-1.354-2.981-1.354-7.586-0.361
		c-2.8,0.542-6.773,1.445-8.761,1.896c-4.877,0.994-12.463,0.994-15.263-0.09c-2.167-0.813-2.349-1.354-2.349-5.961v-5.058
		l5.419,0.361c5.329,0.271,5.419,0.271,5.419-2.168c0-2.348-0.181-2.438-5.148-2.709l-5.238-0.271v-5.419v-5.419l6.593,0.09
		c3.522,0.091,6.503-0.09,6.503-0.452c0-0.271-0.271-1.444-0.542-2.528c-0.542-1.987-0.903-2.077-12.012-2.077h-11.379v18.966
		v19.057l2.258,0.451c1.264,0.271,2.709,0.724,3.161,0.903c0.542,0.181,5.148,0.181,10.386,0
		C150.825,225.153,153.173,224.701,159.224,222.263z M324.498,222.354c10.025-6.954,11.922-23.211,3.613-31.068
		c-2.529-2.438-6.503-4.425-9.754-4.967c-1.896-0.271-19.779-0.271-19.869,0c0,0.091,0.09,5.328,0.271,11.65l0.362,11.47
		l2.799,0.632c6.413,1.445,6.051,2.078,6.051-9.754V189.66h4.426c7.135,0,11.199,4.967,11.199,13.637
		c0,12.734-8.94,17.883-22.85,13.187c-3.702-1.265-8.31-2.529-10.115-2.891l-3.432-0.541v-13.458v-13.547h-4.878h-4.876
		l-0.091,16.257v16.257l4.696,0.09c7.587,0.181,9.574,0.542,16.799,3.433c3.793,1.444,7.496,2.889,8.219,3.161
		c0.722,0.271,4.063,0.36,7.314,0.18C319.351,225.153,321.066,224.611,324.498,222.354z M189.66,202.304v-16.257h-3.432h-3.432
		l0.359,9.483c0.271,6.141,0.092,9.482-0.541,9.482c-0.543,0-2.98-2.528-5.6-5.6c-11.379-13.817-10.837-13.366-15.172-13.366
		c-3.703,0-3.974,0.181-3.432,2.077c0.271,1.084,0.542,6.503,0.542,11.922v10.024l3.161-0.36c3.161-0.362,3.161-0.452,3.161-4.787
		c0-2.438,0.361-4.426,0.722-4.426c0.452,0,4.155,3.794,8.31,8.399c7.947,8.761,8.941,9.482,12.914,9.574l2.439,0.09V202.304z
		 M209.348,211.516l0.271-6.684l3.974,0.362c3.884,0.271,4.064,0.181,4.064-2.168s-0.271-2.529-4.064-2.529h-4.063v-5.419v-5.418
		h3.25c1.717,0,2.981,0.361,2.71,0.722c-0.271,0.452,0.813,0.543,2.258,0.361c1.897-0.271,2.619-0.813,2.258-1.716
		c-0.271-0.723-0.542-1.716-0.542-2.167s-4.605-0.813-10.115-0.813h-10.205v16.257v16.347l4.967-0.271l4.968-0.271L209.348,211.516z
		 M237.888,202.033l0.09-15.986h-4.967h-4.968v16.257v16.347l4.878-0.271l4.786-0.271L237.888,202.033z M268.955,215.67l0.271-2.528
		h-5.961h-5.96l0.271-4.696l0.271-4.787l3.884,0.271c3.612,0.271,3.793,0.182,3.793-2.258c0-2.438-0.09-2.528-4.064-2.258
		l-4.063,0.362v-5.059v-5.057h3.702c1.987,0,3.433,0.361,3.161,0.813c-0.271,0.361,0.542,0.542,1.717,0.271
		c1.625-0.271,2.258-0.993,2.258-2.528c0-2.168-0.091-2.168-10.116-2.168h-10.205v16.257v16.347l10.387-0.271l10.386-0.271
		L268.955,215.67z M41.002,197.607c0.271-1.174,0.542-3.974,0.542-6.322v-4.335h-6.412H28.63l0.542,3.702
		c0.723,5.329,4.245,8.761,9.303,8.852C39.738,199.594,40.642,198.872,41.002,197.607z M57.079,193.092l0.271-6.412l4.335,5.328
		c2.438,2.89,5.329,5.78,6.322,6.412c1.084,0.633,5.329,1.084,9.573,1.174c7.316,0,7.586-0.09,10.567-3.07
		c2.8-2.8,3.883-6.502,2.89-9.212c-0.181-0.361-4.154-0.542-8.941-0.451c-6.774,0.18-8.851-0.091-9.754-1.175
		c-0.994-1.174-0.813-1.896,1.174-4.154c2.619-3.161,3.703-7.587,2.98-12.824c-0.632-4.516-5.058-9.393-9.664-10.657
		c-1.716-0.451-13.005-0.903-25.017-0.903H19.869v2.258c0,3.794,2.619,7.677,5.871,9.122c1.896,0.723,6.231,1.265,10.928,1.265
		h7.767l-0.271,14.901l-0.361,14.901h6.503h6.502L57.079,193.092z M41.364,177.829l-0.271-5.78l-8.309-0.271l-8.399-0.271v2.8
		c0,3.612,1.987,7.495,4.697,8.851c2.258,1.174,10.657,1.896,11.831,0.993C41.274,183.879,41.544,180.99,41.364,177.829z
		 M90.585,183.157c2.98-1.174,5.148-4.877,5.148-8.851v-2.8l-7.767,0.271l-7.857,0.271l-1.084,3.883
		c-0.632,2.077-1.806,4.877-2.619,6.052c-0.813,1.174-1.445,2.348-1.445,2.438C74.961,185.144,88.327,184.06,90.585,183.157z
		 M195.981,175.661c7.948-1.174,15.354-6.322,18.153-12.554c1.896-4.154,2.168-10.838,0.723-14.722
		c-1.265-3.432-5.148-7.495-8.67-8.94c-4.426-1.896-12.554-1.626-17.069,0.632c-11.651,5.6-10.478,22.669,1.626,24.024
		c3.07,0.36,4.334,0.09,6.141-1.445c1.355-1.175,1.717-1.896,0.903-1.716c-0.723,0.09-2.528-0.091-3.884-0.452
		c-2.98-0.813-4.244-3.612-4.244-9.212c0-7.406,7.676-12.102,13.365-8.128c1.174,0.903,2.529,3.521,3.433,6.412
		c3.161,11.108-3.433,21.134-13.999,21.134c-8.76,0-18.063-5.329-23.21-13.187c-1.625-2.348-1.625-2.438,0.723-4.425
		c7.225-6.231,6.864-17.702-0.632-20.863c-2.077-0.813-6.593-1.264-13.728-1.264h-10.657v20.32v20.41l4.967-0.271l4.967-0.271
		l-0.361-7.406c-0.271-7.044-0.181-7.495,1.535-7.495c1.084,0,2.62,1.174,3.703,3.07c4.064,6.503,15.264,14.992,19.869,14.992
		c0.994,0,2.078,0.451,2.348,0.902c0.362,0.542,0.904,0.723,1.266,0.542c0.36-0.271,1.896-0.09,3.341,0.361
		c1.445,0.452,3.884,0.633,5.329,0.271C193.453,176.112,195.26,175.842,195.981,175.661z M237.978,165.727
		c-0.722-6.503-0.541-7.315,5.148-18.875c1.896-3.884,3.432-7.226,3.432-7.406s-1.354-0.361-2.98-0.361
		c-2.168,0-3.07,0.451-3.07,1.354c0,1.987-4.968,12.192-5.871,12.192c-0.451,0-2.167-2.979-3.973-6.683l-3.161-6.684l-4.426-0.361
		c-2.529-0.09-4.516-0.181-4.516-0.09c0,0.09,2.258,4.335,5.057,9.482c4.968,9.303,4.968,9.303,4.697,16.347l-0.271,6.954h5.238
		h5.329L237.978,165.727z M254.866,168.255l0.271-3.432h6.773h6.773l0.813,3.432l0.902,3.342h4.877c4.335,0,4.786-0.181,4.245-1.535
		c-0.452-0.903-1.807-4.696-3.161-8.399c-1.354-3.702-3.612-9.573-4.877-13.095c-1.355-3.433-2.71-6.955-2.98-7.857
		c-0.271-0.993-1.716-1.535-4.968-1.807c-5.057-0.271-4.967-0.361-5.689,3.793c-0.271,1.626-2.258,7.677-4.426,13.457
		c-2.077,5.78-4.154,11.561-4.516,13.005c-0.541,2.349-0.451,2.438,2.529,2.438S254.596,171.416,254.866,168.255z M310.139,170.152
		c1.265-3.252-0.091-4.426-4.426-4.155c-2.258,0.182-5.147,0.091-6.411-0.18l-2.258-0.633l0.18-13.096l0.181-13.186l-4.876-0.09
		l-4.878-0.181v16.527v16.437h10.928C307.971,171.597,309.688,171.416,310.139,170.152z M94.469,168.346
		c3.432-1.626,5.78-5.238,5.78-8.941v-2.258H86.069H71.89l2.89,2.98c1.626,1.717,3.342,4.516,3.884,6.322l0.903,3.342h5.871
		C89.05,169.791,92.572,169.249,94.469,168.346z M45.248,147.935c14.63-8.58,14.812-8.58,29.713,0l11.379,6.503h7.857
		c4.335,0,7.858-0.181,7.858-0.452c0-1.535-8.038-10.747-12.012-13.817c-9.393-7.135-18.515-10.296-29.984-10.296
		c-11.47,0-20.592,3.161-29.985,10.296c-3.974,3.07-12.011,12.282-12.011,13.817c0,0.271,3.612,0.452,8.038,0.452h8.038
		L45.248,147.935z"/>
	<path fill="#EB7129" d="M56.898,172.5c0-4.967,1.354-5.78,5.238-3.07c3.884,2.709,1.716,7.586-3.341,7.586
		C57.168,177.016,56.898,176.475,56.898,172.5z"/>
	<path fill="#EB7129" d="M156.876,151.006l-2.529-0.271l0.271-7.405l0.271-7.406l2.619-0.271c4.154-0.542,6.773,0.541,8.219,3.432
		c1.896,3.703,1.716,5.78-0.903,8.851C162.385,150.825,160.759,151.457,156.876,151.006z"/>
	<path fill="#EB7129" d="M257.396,157.779c0-0.723,0.271-1.535,0.722-1.896c0.362-0.361,0.723-1.084,0.723-1.536
		c0.091-0.451,0.271-0.993,0.361-1.264c0.362-0.723,0.633-2.168,0.813-3.613c0.18-2.8,2.71-1.264,3.974,2.529
		c0.722,2.077,1.625,4.516,1.987,5.419c0.541,1.354,0.09,1.535-3.975,1.535C258.75,158.953,257.396,158.592,257.396,157.779z"/>
</g>
<g id="layer106">
	<path fill="#ED9118" d="M-1,172.5V0h173.5H346v172.5V345H172.5H-1V172.5z M71.709,224.431c17.34-4.516,31.249-18.695,35.313-35.854
		c1.806-7.768,1.716-14.451-0.452-22.939c-1.987-7.768-3.613-10.477-3.613-6.232c0,1.536-0.994,4.335-2.167,6.413
		c-1.084,1.986-2.258,5.96-2.619,8.76c-0.271,2.98-1.265,6.231-2.349,7.768c-1.084,1.444-1.896,4.064-1.896,5.87
		c0,5.599-2.438,10.114-7.044,13.096c-10.477,6.593-24.205,13.637-26.823,13.637c-2.619,0-16.347-7.044-26.733-13.637
		c-4.606-2.891-7.135-7.316-7.135-12.373c0-1.807-0.993-5.329-2.258-7.768c-1.264-2.438-2.258-6.051-2.258-7.947
		s-0.722-4.516-1.536-5.78c-0.813-1.264-1.986-4.244-2.619-6.502l-1.083-4.245l-1.084,2.709
		c-10.657,27.185,4.425,57.35,32.604,64.937C54.459,226.056,65.207,226.146,71.709,224.431z M159.404,222.443
		c3.974-1.535,8.851-3.07,10.748-3.432l3.522-0.541l-1.896-1.987c-1.807-1.807-2.258-1.807-7.587-0.813
		c-14.54,2.801-18.604,3.161-22.488,2.349l-3.974-0.813v-4.967v-4.968h5.419c5.329,0,5.419-0.09,5.419-2.619
		c0-2.618-0.09-2.618-5.419-2.709l-5.419-0.09l-0.271-4.878c-0.181-3.251,0.09-5.147,0.903-5.689
		c0.632-0.451,3.703-0.542,6.864-0.271l5.6,0.632v-3.252v-3.251h-11.922h-12.011v19.418v19.508l2.709,0.813
		c1.536,0.452,7.225,0.723,12.644,0.542C150.825,225.244,153.173,224.792,159.404,222.443z M320.886,224.611
		c6.773-2.891,10.929-8.128,12.283-15.805c1.716-8.941-1.716-16.438-9.393-20.683c-3.884-2.077-5.78-2.438-14.27-2.799
		c-5.419-0.271-10.115-0.091-10.478,0.36c-0.36,0.451-0.451,5.961-0.271,12.192l0.362,11.38l4.425,1.354l4.425,1.445v-11.198V189.66
		h4.064c3.342,0,4.696,0.541,7.406,3.07c2.98,2.71,3.342,3.521,3.702,8.399c0.452,6.954-0.993,11.47-4.696,14.27
		c-4.425,3.432-8.851,3.702-17.25,0.993c-3.974-1.174-8.761-2.529-10.656-2.89l-3.432-0.542l0.18-13.729l0.091-13.637l-5.059-0.271
		l-5.057-0.271v16.617v16.618l7.135,0.542c5.147,0.451,9.212,1.445,14.722,3.703C307.43,225.966,315.647,226.778,320.886,224.611z
		 M189.66,201.762v-16.708l-3.342,0.271l-3.432,0.271l-0.452,9.754l-0.452,9.845l-4.516-5.601
		c-10.476-13.005-12.102-14.45-15.895-14.45c-4.064,0-3.703-1.354-3.522,13.909c0.09,5.509,0.271,10.205,0.452,10.476
		c0.181,0.271,1.806,0.362,3.522,0.182c3.251-0.362,3.251-0.362,3.251-4.787c0-2.438,0.361-4.426,0.722-4.426
		c0.452,0,3.793,3.522,7.406,7.767c7.857,9.123,9.394,10.297,13.276,10.297h2.98V201.762z M209.529,211.696v-6.954l4.063,0.452
		c3.975,0.451,4.064,0.451,4.064-2.077c0-2.53-0.181-2.62-4.064-2.62h-4.063v-5.419c0-5.147,0.09-5.418,1.806-4.516
		c0.993,0.542,3.342,0.633,5.419,0.362c3.342-0.543,3.702-0.813,3.432-2.981l-0.271-2.348h-10.206h-10.205l-0.181,16.527
		l-0.181,16.438h5.238h5.148V211.696z M237.888,202.123l-0.181-16.527h-4.696h-4.605l-0.182,16.527l-0.181,16.438h4.968h4.967
		L237.888,202.123z M269.136,215.851v-2.709h-5.87h-5.87v-4.516v-4.516h4.605c4.426,0,4.516-0.091,4.245-2.439
		c-0.271-2.348-0.542-2.528-4.335-2.528h-4.064l-0.271-4.154l-0.271-4.245l6.411,0.182c5.961,0.09,7.587-0.362,5.419-1.717
		c-0.451-0.271-0.902-1.354-0.902-2.348c0-1.626-0.723-1.717-10.116-1.717h-10.205v16.709v16.708h10.657h10.566V215.851z
		 M41.002,197.607c0.271-1.174,0.542-3.974,0.542-6.322v-4.335h-6.412H28.63l0.542,3.702c0.723,5.329,4.245,8.761,9.303,8.852
		C39.738,199.594,40.642,198.872,41.002,197.607z M57.079,193.092l0.271-6.412l4.335,5.328c2.438,2.89,5.329,5.78,6.322,6.412
		c1.084,0.633,5.329,1.084,9.573,1.174c7.316,0,7.586-0.09,10.567-3.07c2.8-2.8,3.883-6.502,2.89-9.212
		c-0.181-0.361-4.154-0.542-8.941-0.451c-6.774,0.18-8.851-0.091-9.754-1.175c-0.994-1.174-0.813-1.896,1.174-4.154
		c2.619-3.161,3.703-7.587,2.98-12.824c-0.632-4.516-5.058-9.393-9.664-10.657c-1.716-0.451-13.005-0.903-25.017-0.903H19.869v2.258
		c0,3.794,2.619,7.677,5.871,9.122c1.896,0.723,6.231,1.265,10.928,1.265h7.767l-0.271,14.901l-0.361,14.901h6.503h6.502
		L57.079,193.092z M41.364,177.829l-0.271-5.78l-8.309-0.271l-8.399-0.271v2.8c0,3.612,1.987,7.495,4.697,8.851
		c2.258,1.174,10.657,1.896,11.831,0.993C41.274,183.879,41.544,180.99,41.364,177.829z M90.585,183.157
		c2.98-1.174,5.148-4.877,5.148-8.851v-2.8l-7.767,0.271l-7.857,0.271l-1.084,3.883c-0.632,2.077-1.806,4.877-2.619,6.052
		c-0.813,1.174-1.445,2.348-1.445,2.438C74.961,185.144,88.327,184.06,90.585,183.157z M201.13,174.487
		c5.419-1.626,10.837-6.322,13.366-11.561c1.987-4.244,2.077-11.741,0.181-15.354c-0.813-1.445-1.716-3.251-1.987-3.974
		c-0.632-1.535-7.766-5.058-11.83-5.87c-3.885-0.723-11.109,1.084-14.451,3.612c-3.703,2.8-6.231,9.122-5.418,13.547
		c1.354,6.955,8.67,11.199,14.991,8.58c3.342-1.354,3.522-2.438,0.271-2.438c-3.432,0-6.592-4.244-6.592-8.851
		c0-8.761,8.398-13.547,13.817-7.857c6.322,6.593,4.245,19.869-3.884,24.475c-8.67,4.877-22.217-0.09-29.894-10.928l-1.987-2.8
		l2.709-2.348c3.702-3.07,4.968-5.78,4.968-10.477c0.181-8.67-4.426-11.47-19.779-12.012l-11.109-0.361v20.862v20.862h5.419h5.329
		l-0.542-7.135c-0.361-4.786-0.181-7.225,0.542-7.676c0.542-0.361,3.612,2.167,7.406,6.141
		C174.577,175.571,186.229,179.093,201.13,174.487z M237.888,165.275c-0.632-6.231-0.632-6.231,4.244-15.986
		c2.709-5.328,4.968-10.024,5.148-10.386c0.181-0.452-1.536-0.723-3.884-0.723c-3.883,0-4.245,0.181-3.793,1.896
		c0.361,1.265-0.542,4.064-2.258,7.406l-2.71,5.509l-3.793-7.225l-3.703-7.135l-4.244-0.271c-2.439-0.181-4.335,0-4.335,0.271
		c0,0.36,2.258,4.877,5.057,10.115c5.059,9.393,5.059,9.393,4.697,16.166l-0.271,6.683h5.238h5.238L237.888,165.275z
		 M254.866,168.255l0.271-3.432l6.231-0.271c6.773-0.271,7.767,0.271,7.767,4.605c0,2.349,0.091,2.438,5.509,2.438
		c4.878,0,5.419-0.181,4.878-1.535c-0.271-0.903-2.348-6.502-4.516-12.554c-2.258-5.961-4.787-12.824-5.78-15.082
		c-1.807-4.245-1.807-4.245-6.322-4.245h-4.425l-0.633,3.884c-0.361,2.077-2.619,9.212-5.057,15.805
		c-2.439,6.684-4.426,12.464-4.426,12.915c0,0.452,1.354,0.813,3.07,0.813C254.415,171.597,254.596,171.416,254.866,168.255z
		 M310.139,170.152c0.271-0.813,0.542-2.168,0.542-3.161c0-1.445-0.451-1.626-3.975-1.174c-2.258,0.361-5.057,0.361-6.321,0
		l-2.348-0.542v-13.548v-13.547h-5.148h-5.238v16.708v16.708h10.928C307.79,171.597,309.688,171.326,310.139,170.152z
		 M94.469,168.346c3.432-1.626,5.78-5.238,5.78-8.941v-2.258H86.069H71.89l2.89,2.98c1.626,1.717,3.342,4.516,3.884,6.322
		l0.903,3.342h5.871C89.05,169.791,92.572,169.249,94.469,168.346z M45.248,147.935c14.63-8.58,14.812-8.58,29.713,0l11.379,6.503
		h7.857c4.335,0,7.858-0.181,7.858-0.452c0-1.535-8.038-10.747-12.012-13.817c-9.393-7.135-18.515-10.296-29.984-10.296
		c-11.47,0-20.592,3.161-29.985,10.296c-3.974,3.07-12.011,12.282-12.011,13.817c0,0.271,3.612,0.452,8.038,0.452h8.038
		L45.248,147.935z"/>
	<path fill="#ED9118" d="M56.898,172.5c0-4.967,1.354-5.78,5.238-3.07c3.884,2.709,1.716,7.586-3.341,7.586
		C57.168,177.016,56.898,176.475,56.898,172.5z"/>
	<path fill="#ED9118" d="M154.618,143.419l0.271-7.496l3.522-0.271c4.787-0.452,7.767,2.438,7.767,7.225
		c0,4.877-3.161,7.948-8.128,7.948h-3.703L154.618,143.419z"/>
	<path fill="#ED9118" d="M257.396,158.772c0.271-1.807,3.702-10.205,4.245-10.387c0.36-0.18,1.625,2.168,2.709,5.148l1.987,5.419
		h-4.516C259.383,158.953,257.396,158.862,257.396,158.772z"/>
</g>
<g id="layer107">
	<path fill="#F1CA0F" d="M-1,172.5V0h173.5H346v172.5V345H172.5H-1V172.5z M81.012,221.27c12.825-6.322,21.946-17.069,25.92-30.526
		c1.807-6.141,1.897-19.146,0.271-25.017c-2.98-10.296-5.148-12.554-5.148-5.509c0,2.89-0.633,4.696-2.167,6.593
		c-1.536,1.896-2.167,3.974-2.529,8.128c-0.18,3.342-0.993,6.322-1.806,7.226s-1.716,4.245-2.077,7.405
		c-0.813,7.496-2.438,9.122-17.611,17.883c-15.624,9.031-15.986,9.031-29.352,1.264c-18.333-10.566-19.237-11.47-19.869-19.959
		c-0.181-2.8-0.994-5.329-2.167-6.864c-1.445-1.806-1.896-3.703-1.896-7.315c0-3.974-0.452-5.509-2.258-7.677
		c-2.077-2.438-2.709-5.057-2.258-9.212c0.271-3.07-2.077-0.993-3.883,3.522c-2.8,7.135-3.251,21.946-0.723,29.984
		c5.239,17.068,18.786,29.894,35.765,34.049c0.994,0.271,6.773,0.36,12.825,0.18C72.974,225.244,72.974,225.244,81.012,221.27z
		 M157.328,223.438c4.154-1.354,8.128-2.438,8.851-2.438c0.722,0,1.806-0.361,2.348-0.813c0.542-0.36,1.716-0.541,2.438-0.181
		c2.529,0.903,3.432-0.451,1.897-2.89c-1.174-1.716-2.258-2.168-5.329-2.168c-2.167,0-5.058,0.452-6.322,0.903
		c-1.355,0.542-4.967,1.174-7.948,1.536c-5.87,0.541-6.322,0.541-11.47,0.09l-3.161-0.361v-4.877c0-5.419-0.361-5.238,7.225-4.335
		c2.528,0.271,2.709,0.09,2.98-3.071l0.271-3.432h-5.239h-5.328v-4.786v-4.787l6.142,0.181l6.141,0.181v-3.521v-3.523h-11.922
		h-12.011v19.869v19.779l2.258,0.361c1.264,0.181,6.412,0.451,11.47,0.542C148.296,225.785,151.005,225.424,157.328,223.438z
		 M322.873,223.889c12.463-5.87,15.354-24.927,5.058-33.597c-4.968-4.155-9.483-5.238-20.411-4.967l-9.935,0.271v11.74v11.651
		l4.968,1.534l4.967,1.446l0.181-9.123c0.361-12.011,0.633-13.185,3.522-13.185c2.8,0,7.676,1.986,9.122,3.702
		c0.632,0.723,1.625,3.252,2.258,5.6c1.535,5.87,0,11.832-4.245,15.805c-3.975,3.704-7.496,3.794-20.502,0.452l-9.753-2.529v-13.728
		v-13.818h-5.601h-5.689v16.709v16.708h4.335c2.349,0,4.245,0.451,4.245,0.902c0,0.542,0.903,0.723,2.077,0.452
		c1.084-0.181,5.87,0.993,10.567,2.709C308.693,226.418,316.641,226.778,322.873,223.889z M190.111,201.853v-16.709h-4.154h-4.154
		l0.451,9.483c0.271,5.238,0.181,9.483,0,9.483c-0.271,0-4.064-4.245-8.489-9.483l-8.038-9.483h-4.155
		c-4.425,0-6.322,1.717-4.425,4.064c0.632,0.723,0.903,5.058,0.813,11.019c-0.09,8.489,0.09,9.754,1.354,9.664
		c6.322-0.271,5.961,0,5.961-5.059v-4.786l8.67,9.302c8.309,8.851,8.76,9.213,12.373,9.213h3.793V201.853z M209.529,211.787v-6.774
		l4.063,0.633l4.064,0.541v-3.342v-3.251h-4.064h-4.063v-4.334v-4.426l5.509,0.091c2.98,0.09,5.69-0.182,5.87-0.543
		c0.271-0.36,0.181-1.715-0.18-2.98l-0.543-2.258h-10.746h-10.748v16.709v16.708h5.418h5.42V211.787z M238.43,201.853v-16.709
		h-5.419h-5.419v16.709v16.708h5.419h5.419V201.853z M269.858,215.67l0.271-2.528h-5.87h-5.96v-4.605v-4.607l3.883,0.362
		c3.703,0.271,3.794,0.181,4.064-2.71c0.271-2.89,0.271-2.89-3.794-2.89h-4.153v-3.884v-3.974l5.87,0.091
		c4.516,0.09,5.78-0.182,5.419-1.084c-0.271-0.723-0.452-1.987-0.452-2.98c0-1.717-0.632-1.717-11.019-1.535l-11.018,0.271
		l-0.361,11.56c-0.181,6.413-0.091,13.818,0.271,16.527l0.633,4.968l10.928-0.271l11.019-0.271L269.858,215.67z M41.183,198.329
		c0.271-1.174,0.542-4.063,0.632-6.502l0.181-4.426l-6.322-0.541c-3.432-0.361-6.593-0.361-6.864,0
		c-0.361,0.271-0.361,2.077-0.18,3.974c0.542,3.793,4.425,8.398,7.767,9.031C40.19,200.587,40.642,200.497,41.183,198.329z
		 M56.898,194.176c0-3.433,0.271-6.322,0.722-6.232c0.362,0,2.62,2.438,4.967,5.419c5.058,6.231,6.864,7.135,13.999,7.045
		c9.754-0.091,14.089-3.252,14.812-10.747l0.271-3.161l-8.58,0.271c-6.502,0.181-9.031-0.09-10.295-1.084
		c-1.626-1.264-1.536-1.444,1.174-4.786c2.438-2.98,2.8-4.064,2.8-8.851c0-6.593-2.077-10.477-6.955-12.915
		c-2.98-1.535-6.412-1.807-26.643-2.348l-23.301-0.542v3.702c0,2.98,0.542,4.245,3.071,6.773l3.07,3.071h9.122h9.122v10.656
		c-0.09,5.78-0.452,12.373-0.903,14.631c-0.361,2.258-0.542,4.335-0.361,4.697c0.271,0.451,3.522,0.722,7.225,0.722h6.683V194.176z
		 M42.267,178.551c0.181-4.334-0.09-6.141-0.903-6.502c-0.632-0.182-4.696-0.452-9.122-0.633l-7.857-0.271v3.702
		c0,4.064,2.438,8.038,5.78,9.394c0.993,0.451,4.154,0.722,6.864,0.632l4.967-0.181L42.267,178.551z M93.114,181.712
		c1.987-2.258,2.619-3.793,2.619-6.773v-3.793l-7.406,0.271c-4.154,0.181-7.948,0.451-8.49,0.633
		c-0.542,0.181-1.264,1.986-1.535,4.063c-0.271,2.077-1.355,4.696-2.349,5.78c-1.084,1.084-1.896,2.349-1.896,2.71
		c0,0.36,3.703,0.541,8.219,0.36C90.224,184.692,90.585,184.603,93.114,181.712z M203.117,174.217
		c5.689-2.439,11.469-8.58,12.823-13.818c1.355-4.968,0.452-11.831-2.077-15.534c-3.07-4.516-9.392-7.587-15.443-7.587
		c-2.8,0-6.141,0.452-7.586,0.994c-3.07,1.174-7.226,4.967-8.941,8.219c-2.8,5.328-0.542,14.359,4.154,16.708
		c4.154,2.077,12.645,0.993,12.645-1.536c0-0.542-0.813-0.902-1.896-0.902c-6.503,0-9.213-9.483-4.426-15.625
		c1.354-1.625,2.529-2.077,5.961-1.986c6.142,0,8.037,2.8,8.037,11.74c0,5.329-0.361,7.135-1.896,9.213
		c-3.161,4.244-7.406,6.141-13.457,6.051c-7.677-0.091-14.992-4.245-20.05-11.38l-2.348-3.432l3.251-3.522
		c1.716-1.987,3.341-3.342,3.613-3.161c0.181,0.181,0.451-1.987,0.542-4.787c0.091-3.883-0.361-6.051-1.716-8.218
		c-2.8-4.516-6.413-5.6-19.147-5.6h-11.108v20.772v20.771h5.689h5.6v-7.225c0-8.219,0.994-9.122,4.425-3.974
		c4.335,6.321,14.992,13.818,22.307,15.714C187.492,177.467,197.788,176.564,203.117,174.217z M238.43,164.372
		c0-6.864,0.181-7.677,4.516-16.166c2.528-4.877,4.516-9.213,4.516-9.483c0-1.084-8.129-0.542-8.219,0.632
		c-0.361,3.703-0.813,5.148-2.619,9.122l-1.987,4.335l-3.702-7.496l-3.794-7.405l-4.696-0.091c-2.618-0.09-4.786,0-4.786,0.271
		c0,0.181,2.258,4.516,4.967,9.573c4.878,9.122,4.968,9.482,4.968,16.617v7.315h5.419h5.419V164.372z M254.686,169.521
		c0-4.064,1.807-5.239,7.677-4.968l5.419,0.271l0.813,3.432l0.903,3.342h5.779c4.245,0,5.689-0.271,5.329-1.084
		c-3.884-9.302-10.206-25.739-11.019-28.72c-1.084-3.612-1.896-4.063-6.503-3.793l-4.516,0.361l-2.258,7.767
		c-2.077,6.955-6.503,19.418-8.399,23.934c-0.541,1.354-0.09,1.535,3.071,1.535C254.234,171.597,254.686,171.326,254.686,169.521z
		 M310.951,170.875c0.271-0.362,0.271-1.717,0-3.161c-0.451-2.349-0.632-2.438-6.683-2.438h-6.231v-13.548v-13.547h-5.148h-5.238
		v16.708v16.708h11.471C305.442,171.597,310.771,171.326,310.951,170.875z M97.178,166.72c2.528-2.528,3.07-3.793,3.07-6.863v-3.703
		l-13.999,0.361c-7.767,0.271-14.27,0.632-14.541,0.903c-0.271,0.271,0.361,0.993,1.445,1.535c2.439,1.265,5.419,6.142,5.419,8.851
		c0,1.896,0.271,1.987,7.767,1.987C93.927,169.791,94.197,169.7,97.178,166.72z M45.518,148.115c14.541-8.219,14.812-8.219,29.082,0
		l11.018,6.322h8.219c4.516,0,8.219-0.361,8.219-0.813c0-0.452-1.536-2.8-3.522-5.239c-17.882-22.668-49.673-25.648-70.806-6.593
		c-4.516,3.975-9.664,10.387-9.664,11.922c0,0.361,3.612,0.723,8.128,0.723h8.128L45.518,148.115z"/>
	<path fill="#F1CA0F" d="M56.898,172.5c0-3.612,0.09-3.703,2.8-3.432c5.78,0.542,5.78,6.322,0,6.863
		C56.988,176.202,56.898,176.112,56.898,172.5z"/>
	<path fill="#F1CA0F" d="M155.34,143.148c0-7.587,0-7.677,2.258-7.677c3.793,0,7.496,2.438,8.128,5.238
		c1.084,5.147-2.8,10.115-7.857,10.115h-2.529V143.148z"/>
	<path fill="#F1CA0F" d="M258.299,158.32c0-1.444,3.07-10.205,3.612-10.205c0.361,0,1.265,2.438,1.987,5.419l1.354,5.419h-3.522
		C259.834,158.953,258.299,158.683,258.299,158.32z"/>
</g>
<g id="layer108">
	<path fill="#F3E300" d="M-1,172.5V0h173.5H346v172.5V345H172.5H-1V172.5z M72.251,226.237c8.941-2.349,16.256-6.684,23.03-13.458
		c7.406-7.495,10.657-13.095,13.096-22.758c3.974-15.444,0.813-30.256-9.212-43.441c-10.024-13.186-29.262-20.953-45.337-18.334
		c-8.941,1.445-15.534,3.974-22.398,8.671c-13.276,9.031-21.495,24.927-21.495,41.272c0,21.767,15.896,42.087,37.571,48.048
		C53.466,227.862,66.11,227.862,72.251,226.237z M152.721,226.237c3.613-0.813,7.044-1.807,7.586-2.258
		c1.536-1.266,11.199-3.613,14.812-3.613h3.161l-3.522-3.612c-4.154-4.245-5.78-4.426-15.805-1.807
		c-8.128,2.168-17.341,2.349-18.876,0.542c-0.632-0.723-0.993-2.438-0.813-3.884c0.271-2.528,0.361-2.528,5.96-2.348l5.6,0.271
		v-4.877v-4.876l-5.6,0.09l-5.69,0.181l-0.271-3.432c-0.362-4.245,0.993-4.878,8.128-3.704l5.238,0.903v-3.161
		c0-7.585,0.452-7.314-14.36-7.314h-13.186v21.224v21.134l4.516,0.813C136.645,227.862,145.586,227.682,152.721,226.237z
		 M320.164,226.599c14.991-4.155,20.591-26.191,9.302-36.668c-1.174-1.084-4.154-2.891-6.593-4.064
		c-3.884-1.716-6.051-1.987-15.805-2.077c-9.664,0-11.199,0.181-10.838,1.354c0.181,0.723,0.541,6.684,0.723,13.276l0.361,11.922
		l4.154,1.264c8.579,2.62,8.309,2.891,8.309-9.392v-10.748h2.8c5.87,0,8.941,4.064,8.941,11.741c0,5.6-1.807,9.393-5.689,11.74
		c-3.794,2.349-6.052,2.258-15.173-0.541c-4.155-1.265-8.58-2.078-9.845-1.987c-2.077,0.36-2.258,0.09-2.077-3.342
		c0.09-1.987,0.36-8.58,0.542-14.721l0.271-11.108l-7.045,0.271l-7.134,0.271l-0.181,18.334l-0.181,18.243h5.87
		c6.051,0,13.276,1.536,17.16,3.613C304.178,227.23,313.752,228.405,320.164,226.599z M191.918,201.853v-18.604l-5.871,0.271
		l-5.78,0.271l0.271,7.947c0.091,4.335,0.091,7.857-0.181,7.857c-0.181,0-3.522-3.612-7.316-8.128l-6.863-8.128h-5.509h-5.509
		l0.632,2.528c0.361,1.354,0.542,7.947,0.452,14.721l-0.091,12.283l3.613-0.902c1.987-0.543,3.342-1.355,3.161-1.717
		c-0.271-0.451,0.542-0.541,1.806-0.181c2.167,0.542,2.348,0.361,2.348-2.258c0-1.535,0.271-2.8,0.542-2.8s3.703,3.433,7.768,7.677
		l7.225,7.677h4.697h4.605V201.853z M211.605,217.928c-0.36-1.444-0.723-4.335-0.723-6.593v-4.064l4.336,0.182l4.244,0.09v-4.787
		v-4.786l-4.244,0.09c-4.245,0.181-4.245,0.181-4.787-3.07c-0.541-2.98-0.361-3.161,1.987-3.342
		c1.354-0.091,4.064,0.181,6.142,0.633l3.612,0.813v-3.432c0-6.412,0.181-6.322-13.006-6.322h-11.831v18.515v18.514h7.496h7.406
		L211.605,217.928z M240.235,218.561c0-0.993-0.271-1.807-0.632-1.807c-0.452,0-0.723-6.684-0.723-14.812
		c0-8.129,0.271-14.631,0.723-14.359c0.361,0.181,0.632-0.723,0.632-1.987v-2.348l-7.225,0.271l-7.315,0.271l-0.181,18.334
		l-0.181,18.243h7.496C239.604,220.366,240.235,220.186,240.235,218.561z M270.942,217.928c0-1.444,0.271-3.432,0.542-4.516
		c0.542-1.807,0.271-2.077-2.258-2.077c-1.716,0-2.71,0.361-2.349,0.903c0.362,0.541-0.993,0.903-3.342,0.903h-3.973l-0.181-3.613
		l-0.271-3.612h4.605h4.606l-0.271-4.245l-0.271-4.335l-4.335-0.271c-4.154-0.271-4.335-0.361-4.063-2.709
		c0.271-2.168,0.632-2.438,3.432-2.438c1.716,0,4.244,0.361,5.509,0.722c2.258,0.543,2.349,0.452,2.168-3.251
		c-0.091-2.077-0.182-4.335-0.271-4.967c-0.181-0.903-3.07-1.084-12.554-0.903l-12.463,0.271l0.451,2.71
		c0.271,1.535,0.452,9.753,0.452,18.333v15.534h12.373h12.463V217.928z M203.658,175.3c9.483-4.245,13.999-10.928,13.999-20.772
		c0-5.689-0.271-6.683-2.98-10.205c-4.155-5.509-11.38-9.122-17.521-8.58c-9.213,0.633-16.527,6.412-17.701,13.909
		c-1.626,9.935,5.327,17.791,14.269,16.166c4.245-0.813,8.038-3.974,6.684-5.6c-0.632-0.723-1.897-0.994-3.071-0.723
		c-5.328,1.354-8.128-8.761-3.612-13.547c6.142-6.594,13.096,0.993,11.2,12.282c-0.633,3.613-3.975,9.303-5.691,9.664
		c-5.057,0.902-11.379,0.993-14.178,0.181c-3.434-1.084-11.832-7.948-13.548-11.109c-0.813-1.535-0.542-2.348,1.716-4.696
		c3.522-3.612,5.058-9.302,3.793-13.908c-1.986-7.586-8.038-10.115-23.843-10.115h-10.928v22.579v22.578h7.496h7.496l-0.632-6.773
		c-0.361-3.703-0.361-6.773,0-6.773c0.361,0,2.709,2.258,5.239,4.967c8.309,9.121,17.25,13.006,29.533,12.734
		C197.156,177.377,200.316,176.835,203.658,175.3z M240.416,172.861c0.723-0.632-0.271-4.064-0.993-3.612
		c-0.361,0.271-0.542-2.438-0.542-5.871c0-3.432,0.271-6.231,0.633-6.231c0.993,0,10.656-19.598,10.024-20.229
		c-0.723-0.724-10.657-0.724-11.38,0.09c-0.361,0.271-0.181,1.084,0.271,1.716c0.722,0.723,0.361,2.258-1.084,5.238
		c-1.084,2.258-2.258,4.154-2.529,4.154c-0.361,0-1.896-2.619-3.612-5.87l-3.071-5.87h-6.593c-6.321,0-7.495,0.451-5.779,2.258
		c0.452,0.542,2.89,4.786,5.509,9.482c4.968,9.303,5.961,13.457,4.696,20.05c-0.451,2.348-0.632,4.516-0.361,4.786
		C226.237,173.584,239.784,173.584,240.416,172.861z M256.402,171.416c-0.452-5.057-0.271-5.237,5.509-5.237h5.419v3.612v3.612
		h7.677c8.128,0,8.851-0.452,6.503-4.064c-0.633-0.993-1.897-4.154-2.801-6.954c-0.993-2.89-2.077-4.967-2.618-4.605
		c-0.543,0.271-0.633,0.09-0.362-0.361c0.362-0.542-0.993-5.329-2.89-10.748l-3.521-9.844l-6.865-0.271l-6.953-0.271l0.632,2.258
		c0.542,2.349-3.793,17.069-8.309,27.817c-1.175,2.89-2.168,5.599-2.168,6.141s2.348,0.903,5.419,0.903
		C256.222,173.403,256.582,173.313,256.402,171.416z M311.584,171.867c0-0.902,0.271-3.16,0.541-5.057l0.633-3.433l-6.231,0.271
		l-6.231,0.271l-0.182-13.547l-0.09-13.547l-7.315-0.271c-6.142-0.181-7.315,0-7.315,1.174c0,0.722,0.271,1.354,0.723,1.354
		c0.361,0,0.632,7.135,0.632,15.805c0,8.671-0.271,15.806-0.632,15.806c-0.452,0-0.723,0.632-0.723,1.354
		c0,1.174,2.077,1.354,13.096,1.354C310.319,173.403,311.584,173.223,311.584,171.867z"/>
	<path fill="#F3E300" d="M85.798,200.136c0-0.18,0.632-0.632,1.445-0.903c0.722-0.271,1.083-0.18,0.813,0.361
		C87.514,200.497,85.798,200.859,85.798,200.136z"/>
	<path fill="#F3E300" d="M41.544,198.691c0-0.633,0.271-0.903,0.632-0.633c0.271,0.361,0.271,0.903,0,1.265
		C41.815,199.594,41.544,199.323,41.544,198.691z"/>
	<path fill="#F3E300" d="M27.998,194.176c0-0.633,0.271-0.903,0.632-0.633c0.271,0.361,0.271,0.903,0,1.265
		C28.268,195.078,27.998,194.808,27.998,194.176z"/>
	<path fill="#F3E300" d="M42.357,194.627c-0.271-0.542-0.181-2.528,0.09-4.516c0.452-2.8,0.722-3.251,1.264-1.987
		C44.525,189.841,43.17,196.162,42.357,194.627z"/>
	<path fill="#F3E300" d="M26.733,190.021c-0.361-1.354-0.271-2.801,0.181-3.252c0.542-0.542,1.084,0.091,1.445,1.625
		c0.361,1.355,0.271,2.801-0.18,3.252C27.636,192.188,27.094,191.556,26.733,190.021z"/>
	<path fill="#F3E300" d="M91.759,190.834c-0.813-2.529,0.813-6.052,1.716-3.794c0.271,0.724,0.181,2.349-0.271,3.522l-0.813,2.258
		L91.759,190.834z"/>
	<path fill="#F3E300" d="M57.801,189.66c0-0.633,0.271-0.903,0.632-0.633c0.271,0.361,0.271,0.903,0,1.265
		C58.072,190.563,57.801,190.292,57.801,189.66z"/>
	<path fill="#F3E300" d="M31.068,185.866c-0.271-0.36,2.078-0.632,5.239-0.632c5.96,0.091,5.599,0.542-0.903,0.993
		C33.235,186.409,31.249,186.228,31.068,185.866z"/>
	<path fill="#F3E300" d="M80.831,186.047l-6.322-0.541l7.496-0.181c4.787-0.091,7.316,0.181,6.955,0.722
		c-0.271,0.542-0.813,0.813-1.174,0.723C87.424,186.68,84.354,186.409,80.831,186.047z"/>
	<path fill="#F3E300" d="M42.448,177.919c0-4.696,0.361-7.135,0.903-6.773c0.542,0.271,0.903,3.342,0.903,6.773
		s-0.361,6.503-0.903,6.773C42.809,185.054,42.448,182.615,42.448,177.919z"/>
	<path fill="#F3E300" d="M74.509,181.531c0.271-0.451,0.722-0.903,0.994-0.903c0.271,0,0.18,0.452-0.091,0.903
		c-0.271,0.542-0.722,0.903-0.993,0.903S74.238,182.073,74.509,181.531z"/>
	<path fill="#F3E300" d="M94.378,181.531c0.271-0.451,0.722-0.903,0.993-0.903s0.181,0.452-0.09,0.903
		c-0.271,0.542-0.722,0.903-0.993,0.903S94.107,182.073,94.378,181.531z"/>
	<path fill="#F3E300" d="M95.733,178.822c0-0.633,0.271-0.903,0.632-0.633c0.271,0.361,0.271,0.903,0,1.265
		C96.004,179.726,95.733,179.454,95.733,178.822z"/>
	<path fill="#F3E300" d="M62.317,174.307c0-0.633,0.271-0.903,0.632-0.633c0.271,0.361,0.271,0.903,0,1.265
		C62.587,175.209,62.317,174.938,62.317,174.307z"/>
	<path fill="#F3E300" d="M77.67,174.307c0-0.633,0.271-0.903,0.633-0.633c0.271,0.361,0.271,0.903,0,1.265
		C77.941,175.209,77.67,174.938,77.67,174.307z"/>
	<path fill="#F3E300" d="M61.775,170.513c-0.361-0.632-0.271-0.722,0.361-0.36c0.633,0.36,1.084,0.813,1.084,1.084
		C63.22,171.958,62.407,171.597,61.775,170.513z"/>
	<path fill="#F3E300" d="M26.462,170.062c0.361-0.271,0.903-0.271,1.265,0c0.271,0.361,0,0.633-0.632,0.633
		S26.191,170.423,26.462,170.062z"/>
	<path fill="#F3E300" d="M57.35,169.791c-0.271-0.452-0.09-0.903,0.361-0.903c0.542,0,0.994,0.451,0.994,0.903
		c0,0.542-0.181,0.903-0.361,0.903C58.072,170.694,57.62,170.333,57.35,169.791z"/>
	<path fill="#F3E300" d="M92.391,170.062c0.362-0.271,0.903-0.271,1.265,0c0.271,0.361,0,0.633-0.632,0.633
		S92.121,170.423,92.391,170.062z"/>
	<path fill="#F3E300" d="M19.869,165.185c-0.632-0.993-0.903-2.077-0.632-2.258c0.181-0.181,0.813,0.633,1.354,1.896
		C21.856,167.533,21.224,167.804,19.869,165.185z"/>
	<path fill="#F3E300" d="M74.419,161.481l-1.716-2.077l2.077,1.716c1.897,1.626,2.439,2.349,1.716,2.349
		C76.315,163.469,75.412,162.565,74.419,161.481z"/>
	<path fill="#F3E300" d="M100.7,160.669c-0.361-1.083-0.181-2.349,0.361-2.89c0.723-0.723,0.994-0.181,0.994,1.896
		C102.055,163.018,101.513,163.378,100.7,160.669z"/>
	<path fill="#F3E300" d="M17.792,160.398c-0.271-0.723-0.181-1.626,0.271-1.896c1.174-0.723,2.167,1.354,1.084,2.438
		C18.605,161.481,18.153,161.302,17.792,160.398z"/>
	<path fill="#F3E300" d="M19.417,155.341c0.271-0.452,3.522-0.903,7.225-0.903c3.703,0,6.955,0.451,7.225,0.903
		c0.361,0.542-2.258,0.903-7.225,0.903S19.056,155.883,19.417,155.341z"/>
	<path fill="#F3E300" d="M86.25,155.341c0.271-0.452,3.522-0.903,7.225-0.903s6.955,0.451,7.225,0.903
		c0.361,0.542-2.258,0.903-7.225,0.903S85.889,155.883,86.25,155.341z"/>
	<path fill="#F3E300" d="M156.786,149.199c-0.271-0.271-0.542-3.071-0.542-6.231v-5.69h2.619c1.445,0,3.342,0.633,4.064,1.445
		c1.896,1.896,1.806,6.954-0.09,8.671C161.03,148.928,157.508,150.012,156.786,149.199z"/>
	<path fill="#F3E300" d="M259.201,157.688c0-0.09,0.452-1.626,0.993-3.161c1.084-3.16,2.078-2.89,2.981,1.084
		c0.541,2.168,0.36,2.438-1.717,2.438C260.194,158.05,259.201,157.869,259.201,157.688z"/>
</g>
<g id="layer109">
	<path fill="#F4D44F" d="M-1,172.5V0h173.5H346v172.5V345H172.5H-1V172.5z M72.251,226.237c8.941-2.349,16.256-6.684,23.03-13.458
		c7.406-7.495,10.657-13.095,13.096-22.758c3.974-15.444,0.813-30.256-9.212-43.441c-10.024-13.186-29.262-20.953-45.337-18.334
		c-8.941,1.445-15.534,3.974-22.398,8.671c-13.276,9.031-21.495,24.927-21.495,41.272c0,21.767,15.896,42.087,37.571,48.048
		C53.466,227.862,66.11,227.862,72.251,226.237z M152.721,226.237c3.613-0.813,7.044-1.807,7.586-2.258
		c1.536-1.266,11.199-3.613,14.812-3.613h3.161l-3.522-3.612c-4.154-4.245-5.78-4.426-15.805-1.807
		c-8.128,2.168-17.341,2.349-18.876,0.542c-0.632-0.723-0.993-2.438-0.813-3.884c0.271-2.528,0.361-2.528,5.96-2.348l5.6,0.271
		v-4.877v-4.876l-5.6,0.09l-5.69,0.181l-0.271-3.432c-0.362-4.245,0.993-4.878,8.128-3.704l5.238,0.903v-3.161
		c0-7.585,0.452-7.314-14.36-7.314h-13.186v21.224v21.134l4.516,0.813C136.645,227.862,145.586,227.682,152.721,226.237z
		 M320.164,226.599c14.991-4.155,20.591-26.191,9.302-36.668c-1.174-1.084-4.154-2.891-6.593-4.064
		c-3.884-1.716-6.051-1.987-15.805-2.077c-9.664,0-11.199,0.181-10.838,1.354c0.181,0.723,0.541,6.684,0.723,13.276l0.361,11.922
		l4.154,1.264c8.579,2.62,8.309,2.891,8.309-9.392v-10.748h2.8c5.87,0,8.941,4.064,8.941,11.741c0,5.6-1.807,9.393-5.689,11.74
		c-3.794,2.349-5.962,2.258-15.083-0.451c-4.154-1.265-8.49-2.258-9.754-2.258h-2.168l0.271-14.45l0.362-14.54l-7.045,0.271
		l-7.044,0.271l-0.181,18.334l-0.181,18.243h5.87c6.051,0,13.276,1.536,17.16,3.613C304.178,227.23,313.752,228.405,320.164,226.599
		z M191.918,201.853v-18.604l-5.871,0.271l-5.78,0.271l0.271,7.947c0.091,4.335,0.091,7.857-0.181,7.857
		c-0.181,0-3.522-3.612-7.316-8.128l-6.863-8.128h-5.509h-5.509l0.632,2.528c0.361,1.354,0.542,7.947,0.452,14.721l-0.091,12.283
		l5.509-1.445c4.967-1.264,5.419-1.625,5.419-3.883c0-1.445,0.271-2.529,0.542-2.529s3.703,3.433,7.768,7.677l7.225,7.677h4.697
		h4.605V201.853z M211.605,217.928c-0.36-1.444-0.723-4.335-0.723-6.593v-4.064l4.336,0.182l4.244,0.09v-4.787v-4.786l-4.244,0.09
		c-4.245,0.181-4.336,0.091-4.605-2.799c-0.362-3.704,1.084-4.335,7.044-3.161l4.516,0.903v-3.433c0-6.321,0.181-6.231-13.006-6.231
		h-11.831v18.515v18.514h7.496h7.406L211.605,217.928z M239.784,201.853v-18.604l-7.045,0.271l-7.044,0.271l-0.181,18.334
		l-0.181,18.243h7.225h7.226V201.853z M270.942,217.928c0-1.444,0.271-3.432,0.542-4.605c0.542-1.987,0.451-2.077-5.6-1.807
		l-6.231,0.271l-0.271-2.891l-0.271-2.98h4.605h4.606l-0.271-4.245l-0.271-4.335l-4.335-0.271c-4.154-0.271-4.335-0.361-4.063-2.709
		c0.271-2.168,0.632-2.438,3.432-2.438c1.716,0,4.244,0.361,5.509,0.722c2.258,0.543,2.349,0.452,2.168-3.251
		c-0.091-2.077-0.182-4.335-0.271-4.967c-0.181-0.903-3.07-1.084-12.554-0.903l-12.463,0.271l0.451,2.71
		c0.271,1.535,0.452,9.753,0.452,18.333v15.534h12.373h12.463V217.928z M201.941,176.022c10.387-3.884,15.716-11.199,15.716-21.495
		c0-5.689-0.271-6.683-2.98-10.205c-4.155-5.509-11.38-9.122-17.521-8.58c-9.213,0.633-16.527,6.412-17.701,13.909
		c-1.626,9.935,5.327,17.791,14.269,16.166c4.245-0.813,8.038-3.974,6.684-5.6c-0.632-0.723-1.897-0.994-3.071-0.723
		c-5.328,1.354-8.128-8.761-3.612-13.547c2.8-3.071,6.232-3.071,9.032,0c2.168,2.348,2.709,5.058,2.258,11.65
		c-0.452,6.954-5.6,11.289-13.367,11.289c-6.051,0-9.844-1.626-15.082-6.412c-6.232-5.78-6.593-6.773-3.342-10.206
		c3.522-3.612,5.058-9.302,3.793-13.908c-1.986-7.586-8.038-10.115-23.843-10.115h-10.928v22.579v22.578h7.496h7.496l-0.632-6.773
		c-0.361-3.703-0.361-6.773,0-6.773c0.361,0,2.709,2.258,5.239,4.967C172.5,176.564,188.576,180.99,201.941,176.022z
		 M240.325,171.597c-0.18-0.722-0.541-3.883-0.812-6.954c-0.362-5.509-0.182-5.96,5.057-16.437
		c3.071-5.871,5.238-10.929,4.968-11.289c-0.723-0.724-10.657-0.724-11.38,0.09c-0.361,0.271-0.181,1.084,0.271,1.716
		c0.722,0.723,0.361,2.258-1.084,5.238c-1.084,2.258-2.258,4.154-2.529,4.154c-0.361,0-1.896-2.619-3.612-5.87l-3.071-5.87h-6.593
		c-6.321,0-7.495,0.451-5.779,2.258c0.452,0.542,2.89,4.786,5.509,9.482c4.968,9.303,5.961,13.457,4.696,20.05
		c-0.451,2.348-0.632,4.516-0.361,4.786c0.361,0.271,3.793,0.362,7.857,0.271C239.332,173.042,240.598,172.681,240.325,171.597z
		 M256.402,171.416c-0.452-5.057-0.271-5.237,5.509-5.237h5.419v3.612v3.612h7.677c8.218,0,8.579-0.271,6.412-4.335
		c-0.993-1.896-9.754-25.107-11.831-31.52c-0.271-0.813-2.529-1.174-7.226-1.174c-6.773,0-6.773,0-6.231,2.258
		s-3.884,17.069-8.309,27.727c-1.175,2.89-2.168,5.599-2.168,6.141s2.348,0.903,5.419,0.903
		C256.222,173.403,256.582,173.313,256.402,171.416z M311.584,171.867c0-0.902,0.271-3.16,0.541-5.057l0.633-3.433l-6.231,0.271
		l-6.231,0.271l-0.182-13.547l-0.09-13.547l-7.135-0.271l-7.045-0.271v18.604v18.515h12.915
		C310.41,173.403,311.584,173.223,311.584,171.867z"/>
	<path fill="#F4D44F" d="M156.786,149.199c-0.271-0.271-0.542-3.071-0.542-6.231v-5.69h2.619c1.445,0,3.342,0.633,4.064,1.445
		c1.896,1.896,1.806,6.954-0.09,8.671C161.03,148.928,157.508,150.012,156.786,149.199z"/>
	<path fill="#F4D44F" d="M259.201,157.688c0-0.09,0.452-1.626,0.993-3.161c1.084-3.16,2.078-2.89,2.981,1.084
		c0.541,2.168,0.36,2.438-1.717,2.438C260.194,158.05,259.201,157.869,259.201,157.688z"/>
</g>
<g id="layer110">
	<path fill="#F6DD72" d="M-1,172.5V0h173.5H346v172.5V345H172.5H-1V172.5z M72.612,226.237c22.037-5.781,37.571-25.83,37.571-48.499
		c0-31.339-29.262-55.543-59.607-49.131c-18.604,3.884-32.784,16.527-38.383,34.229c-8.58,27.004,7.315,55.904,34.952,63.31
		C53.556,227.862,66.11,227.953,72.612,226.237z M162.114,223.617c4.967-1.806,10.657-3.251,12.644-3.251h3.522l-3.522-3.612
		c-2.98-3.071-4.064-3.612-7.315-3.612c-2.167,0-4.967,0.451-6.322,0.903c-3.974,1.535-14.992,2.709-18.424,1.986
		c-2.709-0.632-3.161-1.084-3.432-3.612l-0.271-2.891h5.871h5.961v-5.057v-5.059l-5.6,0.271l-5.69,0.361l-0.271-3.522l-0.271-3.432
		l6.864,0.361l6.864,0.271l-0.271-4.967l-0.271-4.968h-13.999c-12.012,0-13.908,0.181-13.638,1.354
		c0.903,3.433,1.084,33.235,0.271,36.307c-0.632,2.438-0.632,3.613,0.09,4.064c2.348,1.444,8.038,1.987,17.792,1.625
		C151.818,226.869,154.167,226.418,162.114,223.617z M320.977,226.508c5.328-1.626,11.47-8.129,13.456-14.18
		c3.704-11.469,0-20.862-10.205-26.01c-4.516-2.259-5.96-2.529-17.069-2.8l-12.102-0.361l0.722,2.077
		c0.362,1.175,0.903,7.315,1.084,13.638l0.452,11.47l4.154,1.264c8.489,2.62,8.219,2.891,8.489-9.121l0.271-10.566l2.438-0.271
		c1.625-0.181,3.342,0.542,5.328,2.348c2.438,2.168,2.98,3.342,3.342,7.496c0.451,5.871-1.355,10.838-4.697,13.006
		c-2.889,1.896-9.211,1.896-14.811,0.09c-2.438-0.813-6.142-1.807-8.399-2.167l-3.974-0.723v-12.103
		c0-6.684,0.181-13.005,0.451-13.998c0.452-1.717-0.09-1.807-7.225-2.077l-7.677-0.271v18.604v18.514h5.419
		c5.87,0,10.656,1.174,20.771,4.878C308.152,227.772,315.016,228.224,320.977,226.508z M191.918,201.853v-18.515h-5.961h-5.961
		l0.451,8.128c0.182,4.516,0.182,8.128,0,8.128c-0.271,0-3.521-3.612-7.135-8.128l-6.683-8.128h-5.78h-5.69l0.542,2.528
		c0.271,1.354,0.542,7.947,0.542,14.721l-0.091,12.283l5.509-1.354c5.148-1.265,5.419-1.445,5.419-4.154
		c0-2.71,0.181-2.619,7.677,5.147l7.677,7.857h4.696h4.787V201.853z M211.877,217.928c-2.077-10.657-1.896-11.198,4.063-10.476
		l3.522,0.541v-5.058v-4.967l-4.244,0.09c-4.245,0.181-4.336,0.091-4.336-2.528v-2.71h5.871l5.87-0.09l-0.361-3.974
		c-0.09-2.258-0.541-4.426-0.903-4.787c-0.36-0.361-6.141-0.542-12.824-0.451l-12.102,0.271l0.451,2.71
		c0.271,1.535,0.451,9.753,0.451,18.333l-0.09,15.534h7.586h7.587L211.877,217.928z M240.507,218.379
		c-0.813-2.258-0.993-29.803-0.271-32.783c0.452-1.717-0.09-1.807-7.225-2.077l-7.677-0.271v18.604v18.514h7.947
		C241.139,220.366,241.229,220.366,240.507,218.379z M271.304,217.024c0.993-6.412,1.174-6.23-5.78-5.87l-6.322,0.361v-2.89
		c0-2.891,0-2.891,4.335-2.529l4.245,0.271l0.271-4.697l0.271-4.786h-4.516c-4.335,0-4.606-0.09-4.606-2.348
		c0-2.438,0-2.438,5.69-1.987l5.78,0.452l0.09-2.801c0.181-7.134,0.632-6.953-12.915-6.683l-12.192,0.271l-0.271,18.334
		l-0.181,18.243h12.733h12.735L271.304,217.024z M205.375,174.848c15.263-7.495,17.43-28.268,3.702-36.306
		c-11.289-6.593-26.462-1.625-29.442,9.573c-1.445,5.6-0.451,10.296,3.162,14.27c2.889,3.071,3.432,3.252,8.488,3.342
		c4.516,0,5.871-0.361,7.768-2.167c1.807-1.716,2.077-2.439,1.264-3.433c-0.541-0.632-1.715-0.993-2.618-0.723
		c-2.438,0.813-6.232-3.342-6.232-6.773c0-3.342,2.077-7.677,4.064-8.489c2.71-0.993,4.153-0.542,6.863,2.077
		c2.349,2.349,2.62,3.251,2.62,8.309c0,4.426-0.452,6.322-1.988,8.671c-6.321,9.212-21.313,6.863-30.074-4.606l-2.348-3.07
		l2.709-2.619c3.162-3.161,4.968-9.212,4.154-13.638c-0.722-4.154-5.418-8.761-9.934-10.024c-1.987-0.542-8.489-0.994-14.45-0.994
		h-10.838v22.579v22.668l7.677-0.271c5.78-0.181,7.586-0.542,7.406-1.445c-0.091-0.632-0.452-3.612-0.813-6.593
		c-0.542-5.599,0.542-7.135,2.439-3.522c1.174,2.258,8.218,8.851,12.011,11.289c5.871,3.703,11.47,5.058,20.501,4.697
		C198.781,177.467,200.949,177.016,205.375,174.848z M240.688,171.867c-0.362-0.902-0.813-4.063-1.084-7.044
		c-0.452-5.237-0.271-5.87,5.058-16.527c2.98-6.051,5.509-11.199,5.509-11.47s-2.799-0.451-6.321-0.451
		c-6.142,0-7.315,0.451-5.419,2.348c0.813,0.813-2.439,9.393-3.613,9.393c-0.271,0-1.806-2.619-3.432-5.87l-2.89-5.87h-6.773
		c-5.329,0-6.774,0.271-6.774,1.264c0,0.723,0.362,1.536,0.813,1.896c0.542,0.271,2.98,4.335,5.509,9.122l4.696,8.58l-0.361,8.128
		l-0.271,8.038h8.038C240.598,173.403,241.229,173.223,240.688,171.867z M256.673,170.062l0.271-3.432h4.968h4.967l0.271,3.432
		l0.271,3.342h7.497c4.063,0,7.677-0.271,8.037-0.542c0.271-0.361,0-1.445-0.723-2.528c-0.722-0.994-3.522-8.219-6.321-15.896
		c-2.8-7.677-5.419-14.902-5.871-15.986c-0.813-1.896-1.444-2.076-7.677-2.076c-6.684,0-6.773,0.09-6.321,2.076
		c0.361,1.175-0.452,5.059-1.717,8.761c-5.87,17.25-6.683,19.599-8.037,22.218c-0.813,1.535-1.174,3.07-0.903,3.432
		c0.36,0.271,2.89,0.542,5.779,0.542h5.239L256.673,170.062z M311.945,171.416c0.271-1.174,0.542-3.521,0.542-5.237v-3.252
		l-6.412,0.361l-6.413,0.361l0.361-13.638l0.271-13.637h-7.226h-7.226v18.514v18.515h12.734
		C311.042,173.403,311.403,173.313,311.945,171.416z"/>
	<path fill="#F6DD72" d="M156.604,147.754c-0.271-0.632-0.361-3.161-0.18-5.6c0.271-3.883,0.542-4.425,2.348-4.695
		c4.877-0.724,7.497,6.051,3.793,9.753C160.488,149.289,157.328,149.561,156.604,147.754z"/>
	<path fill="#F6DD72" d="M260.104,156.515c0-1.807,1.536-4.516,2.077-3.884c0.181,0.271,0.633,1.536,0.994,2.98
		c0.451,2.077,0.271,2.438-1.265,2.438C260.827,158.05,260.104,157.418,260.104,156.515z"/>
</g>
<g id="layer111">
	<path fill="#F7E08F" d="M-1,172.5V0h173.5H346v172.5V345H172.5H-1V172.5z M73.606,226.237c21.314-5.6,36.577-25.65,36.577-48.229
		c0-14.631-4.425-25.378-14.902-35.764c-19.778-19.779-50.576-19.779-70.445,0C14.45,152.541,9.935,163.378,9.935,177.919
		c0.09,9.664,1.084,14.089,5.238,22.488c5.871,12.102,19.599,23.21,32.243,26.191C53.285,227.953,67.736,227.772,73.606,226.237z
		 M159.856,224.521c3.251-1.354,8.58-2.98,11.922-3.521l6.051-1.084l-3.252-3.522c-2.98-3.251-3.703-3.522-7.315-3.341
		c-2.258,0.09-6.322,0.812-9.122,1.534c-2.709,0.633-7.948,1.265-11.561,1.265h-6.593v-3.161v-3.161h5.419h5.419v-4.967v-4.877
		l-5.6-0.271c-5.599-0.271-5.599-0.271-5.599-2.979v-2.71l6.954,0.09l6.864,0.091l-0.452-4.154
		c-0.271-2.258-0.632-4.696-0.903-5.238c-0.18-0.903-3.883-1.174-14.089-1.174h-13.818v21.224c0,20.592,0.09,21.313,1.806,21.676
		c0.994,0.181,2.619,0.541,3.612,0.813c0.994,0.271,6.864,0.361,13.096,0.181C152.631,227.05,154.708,226.688,159.856,224.521z
		 M322.963,225.875c12.192-5.509,16.708-22.307,9.122-33.596c-1.084-1.717-4.245-4.245-6.954-5.78
		c-4.696-2.529-5.689-2.71-17.521-2.98l-12.553-0.361l0.632,2.89c0.271,1.626,0.542,7.767,0.542,13.638v10.657l4.786,1.264
		c2.529,0.723,5.78,1.355,7.226,1.446l2.438,0.09v-10.838c0-9.754,0.181-10.838,1.625-10.838c2.529,0,7.406,3.432,8.31,5.961
		c1.354,3.342,1.084,9.212-0.451,12.464c-2.891,5.96-9.303,7.405-19.418,4.154c-3.071-0.993-6.503-1.807-7.587-1.807
		c-4.154,0-4.425-0.813-3.973-13.637c0.271-6.684,0.722-12.825,1.174-13.639c0.541-1.444-0.091-1.625-7.315-1.625h-8.038v18.424
		v18.334l7.225,0.451c4.696,0.361,9.303,1.265,13.096,2.8c9.845,3.793,11.108,4.064,17.611,4.155
		C317.273,227.502,320.435,227.05,322.963,225.875z M192.73,218.831c-0.994-2.077-1.084-30.797-0.091-33.416
		c0.723-2.077,0.633-2.077-5.96-2.077h-6.684l0.361,8.398c0.451,9.483,1.445,9.754-8.219-1.986l-5.238-6.412h-5.78
		c-5.418,0-5.78,0.09-5.78,2.077c0,1.174,0.271,2.349,0.542,2.709c0.271,0.271,0.452,5.961,0.452,12.645l-0.181,12.102l5.239-1.083
		c5.057-0.993,5.238-1.175,5.509-4.064l0.361-2.98l7.315,7.767l7.405,7.857h5.781C192.91,220.366,193.362,220.186,192.73,218.831z
		 M211.516,214.045l-0.451-6.322h4.245h4.153v-5.058v-5.058l-4.063,0.542l-4.064,0.632v-3.341v-3.342l5.961,0.632l6.051,0.632
		l-0.633-2.89c-0.271-1.535-0.541-3.793-0.541-4.967v-2.168h-12.825h-12.914v18.515v18.514h7.766h7.768L211.516,214.045z
		 M240.416,217.477c-0.813-3.794-0.813-26.281,0-30.707l0.633-3.432h-7.857h-7.857v18.515v18.514h7.857h7.947L240.416,217.477z
		 M271.304,217.567c1.265-6.684,1.174-6.864-5.51-6.773c-5.96,0.09-6.141,0-6.141-2.168c0-2.077,0.271-2.258,4.335-2.077
		l4.245,0.271v-4.967v-4.968h-4.606c-4.244,0-4.516-0.181-4.244-1.987c0.271-1.896,0.722-2.077,5.779-1.896l5.51,0.09l-0.091-4.606
		l-0.09-4.696l-12.645-0.271l-12.644-0.271v18.604v18.514h12.733h12.825L271.304,217.567z M200.498,176.926
		c11.469-2.981,19.056-13.548,17.7-24.746c-1.715-14.992-22.036-22.127-33.687-11.922c-5.689,5.058-7.406,13.187-4.064,19.599
		c3.161,5.961,12.012,8.128,18.063,4.516c4.064-2.528,3.613-4.786-1.174-5.419c-2.799-0.361-3.883-0.993-4.786-2.98
		c-1.716-3.522-0.722-8.219,2.258-10.566c2.98-2.349,4.154-2.258,7.134,0.271c1.988,1.717,2.53,3.071,2.891,7.226
		c0.994,12.012-7.134,18.152-19.326,14.631c-3.975-1.174-6.232-2.529-10.115-6.413l-4.968-4.967l2.348-2.438
		c7.316-7.677,6.502-18.876-1.716-23.12c-2.98-1.626-5.509-1.987-16.166-2.168l-12.644-0.271v22.578v22.669h7.767h7.767
		l-0.361-6.954c-0.452-6.954-0.452-7.045,1.174-4.787c3.07,4.517,9.663,10.024,14.901,12.645
		C181.713,178.551,190.924,179.363,200.498,176.926z M240.777,171.416c-0.361-1.174-0.813-4.335-1.174-7.044
		c-0.452-4.696-0.181-5.51,5.058-15.896c2.98-6.051,5.509-11.199,5.509-11.56c0-0.271-2.799-0.542-6.321-0.542
		c-4.878,0-6.322,0.271-6.322,1.264c0,0.723,0.361,1.536,0.813,1.896c0.451,0.271-0.182,2.349-1.446,4.697l-2.348,4.153
		l-3.071-6.051l-2.979-5.96h-6.773c-5.329,0-6.774,0.271-6.774,1.264c0,0.723,0.362,1.536,0.813,1.807
		c0.452,0.361,2.98,4.516,5.509,9.303l4.696,8.851l-0.361,7.857l-0.36,7.947h8.037C241.229,173.403,241.319,173.403,240.777,171.416
		z M256.673,170.062c0.271-3.432,0.271-3.432,4.696-3.702c5.058-0.362,6.231,0.722,5.419,4.605l-0.542,2.438h8.671
		c4.786,0,8.669-0.271,8.669-0.723c0-0.361-0.541-1.444-1.174-2.438c-0.632-0.993-2.349-4.877-3.703-8.58
		c-3.612-9.935-7.044-19.056-8.309-22.308l-1.174-2.979h-6.954c-6.773,0-6.864,0-6.322,2.076c0.542,2.168-6.773,25.469-9.754,31.249
		c-0.813,1.445-1.445,2.89-1.445,3.251c0,0.271,2.62,0.452,5.781,0.452h5.87L256.673,170.062z M311.945,172.681
		c0.18-0.361,0.542-2.709,0.632-5.147l0.271-4.516l-6.594,0.36l-6.593,0.271l0.271-13.638l0.362-13.637h-7.226h-7.226v18.514v18.515
		h12.825C305.713,173.403,311.674,173.133,311.945,172.681z"/>
	<path fill="#F7E08F" d="M157.146,143.148c0-6.413,1.084-7.406,5.238-4.426c3.884,2.71,1.354,10.296-3.432,10.296
		C157.328,149.019,157.146,148.386,157.146,143.148z"/>
	<path fill="#F7E08F" d="M260.104,156.515c0-0.903,0.362-2.258,0.903-2.98c0.633-0.993,0.993-0.813,1.717,1.174
		c1.264,3.342,1.264,3.342-0.813,3.342C260.827,158.05,260.104,157.418,260.104,156.515z"/>
</g>
<g id="layer112">
	<path fill="#FAEBB1" d="M-1,172.5V0h173.5H346v172.5V345H172.5H-1V172.5z M69.994,227.14c18.424-3.883,33.506-17.701,38.745-35.584
		c2.167-7.314,1.896-20.952-0.452-28.629c-5.058-16.527-19.688-30.346-36.125-34.229c-17.792-4.155-34.771,0.722-47.776,13.908
		C13.999,153.083,9.573,163.92,9.573,178.37c0.09,18.515,11.018,35.945,27.636,44.254C48.499,228.133,58.614,229.488,69.994,227.14z
		 M160.127,224.521c5.058-1.716,11.289-3.432,13.818-3.792l4.695-0.543l-3.883-4.154l-3.883-4.063l-8.038,1.625
		c-4.335,0.993-11.199,1.807-15.173,1.807h-7.225l-0.271-3.071l-0.271-3.07l5.419,0.452l5.509,0.36v-5.238v-5.238h-5.419h-5.419
		v-3.25v-3.342l6.864,0.632l6.954,0.542l-0.632-3.433c-0.271-1.806-0.542-4.244-0.542-5.328c0-2.077-0.09-2.077-14.18-2.077h-14.269
		v21.224c0,24.023-0.813,21.676,8.128,23.12C140.619,228.946,150.192,227.862,160.127,224.521z M320.525,226.959
		c9.482-3.07,14.901-11.019,14.991-21.946c0-8.218-1.986-12.644-7.586-16.889c-5.147-3.974-8.67-4.786-21.676-4.786h-11.108
		l0.542,2.799c0.271,1.536,0.542,7.677,0.542,13.457v10.657l4.335,1.354c2.349,0.813,5.6,1.355,7.225,1.355l2.891,0.091v-10.297
		c0-5.689,0.271-10.476,0.723-10.656c0.361-0.271,2.077,0,3.793,0.632c7.315,2.348,8.49,14.992,1.987,20.772
		c-2.891,2.528-9.031,2.89-15.624,0.723c-3.161-0.994-7.136-2.168-8.761-2.438l-3.071-0.633l0.361-13.908l0.271-13.908h-7.677
		h-7.677v18.515v18.514h4.245c5.418,0,12.553,1.536,17.882,3.794C307.249,228.495,313.48,229.308,320.525,226.959z M192.64,217.928
		c-0.903-3.251-0.903-28.9,0-32.151l0.723-2.528l-7.044,0.271c-5.78,0.181-6.955,0.541-6.684,1.625
		c0.813,2.98,1.174,13.548,0.452,13.458c-0.452,0-3.612-3.433-6.954-7.677l-6.142-7.587h-6.413c-5.689,0-6.231,0.181-5.599,1.625
		c0.361,0.813,0.903,7.587,1.083,14.902c0.271,12.012,0.542,13.366,1.807,12.824c0.903-0.361,3.251-0.902,5.418-1.084
		c3.613-0.451,3.793-0.632,3.793-3.702v-3.161l7.315,7.857l7.316,7.767h5.779h5.78L192.64,217.928z M211.605,213.954l-0.541-6.502
		l4.154,0.451l4.244,0.542v-4.426c0-2.438,0.091-4.696,0.271-5.058c0.091-0.451-1.716-0.813-4.064-0.993
		c-4.154-0.271-4.335-0.361-4.335-3.071v-2.799l5.87,0.632c6.503,0.632,6.412,0.813,5.329-5.961l-0.632-3.432h-12.735h-12.733
		v18.515v18.514h7.857h7.857L211.605,213.954z M240.688,201.853v-18.515h-7.677h-7.677v18.515v18.514h7.677h7.677V201.853z
		 M271.304,218.922c0.271-0.813,0.542-2.981,0.542-4.877v-3.433l-5.87,0.542l-5.871,0.451v-2.89v-2.89l4.154,0.632l4.064,0.542
		l-0.271-5.238l-0.271-5.328l-3.793,0.271c-3.703,0.361-3.884,0.181-3.884-2.077v-2.438l5.871,0.632
		c5.418,0.542,6.954,0.09,5.237-1.625c-0.36-0.361-0.632-2.168-0.632-4.064l-0.09-3.342l-12.645-0.271l-12.644-0.271v18.604v18.514
		h12.733C268.774,220.366,270.853,220.186,271.304,218.922z M204.02,175.932c9.031-4.335,14.541-12.372,14.541-21.043
		c-0.09-15.172-16.257-24.204-30.526-17.069c-6.142,3.071-9.212,7.948-9.212,14.722c0,8.761,4.696,13.638,13.096,13.638
		c3.432,0,5.147-0.542,7.225-2.168c2.258-1.896,2.529-2.529,1.717-3.884c-0.724-1.174-1.897-1.535-3.885-1.354
		c-2.528,0.271-2.98,0-4.244-3.07c-1.174-2.891-1.265-3.793-0.181-6.593c3.702-9.664,13.005-4.336,12.192,6.953
		c-0.543,8.129-5.328,12.374-13.728,12.192c-6.232-0.09-10.748-2.258-15.985-7.677l-4.426-4.605l2.709-2.8
		c7.316-7.586,5.871-19.146-2.89-23.12c-3.161-1.445-5.961-1.807-15.986-1.807h-12.192v22.579v22.578h7.857h7.857l-0.542-6.503
		l-0.452-6.593l4.516,4.968c5.509,6.051,13.187,10.837,19.96,12.373C188.305,179.184,198.962,178.37,204.02,175.932z
		 M240.416,165.817l-0.361-7.677l5.059-9.845c2.799-5.509,5.057-10.386,5.057-10.928c0-0.633-2.438-0.993-6.412-0.993
		c-6.142,0-6.412,0.09-5.961,1.896c0.633,2.167-1.807,8.94-3.161,8.94c-0.451,0-1.896-2.438-3.161-5.419l-2.348-5.418h-6.954
		c-3.793,0-7.135,0.271-7.406,0.542c-0.36,0.271,0.452,1.986,1.717,3.793c1.264,1.806,3.883,6.593,5.87,10.566
		c3.521,6.954,3.612,7.315,3.251,14.631l-0.36,7.496h7.767h7.767L240.416,165.817z M257.033,170.513
		c-0.09-2.979-0.09-2.979,4.697-3.251l4.696-0.271v3.161v3.251h8.67c6.594,0,8.58-0.271,8.219-1.084
		c-1.535-3.341-7.044-17.701-10.205-26.191l-3.522-9.753h-7.136c-6.863,0-7.044,0.09-6.593,1.986
		c0.543,1.987-8.488,30.075-10.205,31.791c-2.348,2.348-0.813,3.251,5.329,3.251h6.231L257.033,170.513z M312.668,169.791
		c0.09-1.987,0.181-4.335,0.181-5.148c0.09-1.444-0.724-1.625-6.594-1.265l-6.593,0.271l0.271-13.638l0.362-13.728l-7.677,0.271
		c-6.322,0.18-7.587,0.541-7.315,1.625c0.903,3.07,1.083,26.914,0.271,30.437c-0.451,2.077-0.632,3.973-0.361,4.334
		c0.271,0.271,6.503,0.452,13.909,0.452h13.366L312.668,169.791z"/>
	<path fill="#FAEBB1" d="M157.146,143.78c0-2.89,0.271-5.509,0.542-5.78c0.271-0.271,1.535-0.271,2.89,0.091
		c3.613,0.993,4.697,4.786,2.258,8.037c-0.993,1.355-2.709,2.529-3.793,2.71C157.328,149.109,157.146,148.748,157.146,143.78z"/>
	<path fill="#FAEBB1" d="M260.194,156.966c0-0.632,0.362-1.986,0.813-2.98c0.633-1.716,0.813-1.625,1.717,0.723
		c1.264,3.342,1.264,3.342-0.813,3.342C260.918,158.05,260.104,157.508,260.194,156.966z"/>
</g>
<g id="layer113">
	<path fill="#FCF2CE" d="M-1,172.5V0h173.5H346v172.5V345H172.5H-1V172.5z M70.896,227.14c22.398-4.696,40.19-26.462,40.19-49.221
		c0-22.397-16.527-43.441-38.474-49.221c-20.32-5.238-42.718,3.251-54.459,20.862c-13.908,20.772-11.47,45.88,6.231,63.671
		C37.119,226.056,53.104,230.843,70.896,227.14z M160.94,224.521c5.329-1.807,11.289-3.251,13.277-3.251
		c1.986,0,3.792-0.361,4.063-0.723c0.271-0.451-1.354-2.528-3.522-4.696c-3.793-3.793-3.974-3.793-8.309-3.161
		c-2.348,0.362-6.683,1.174-9.483,1.896c-2.89,0.724-7.767,1.265-10.838,1.084l-5.689-0.271l-0.271-3.071l-0.271-3.07l5.419,0.542
		l5.509,0.451v-5.689v-5.689l-5.419,0.451l-5.419,0.542v-3.432v-3.432l6.864,0.632l6.864,0.632l-0.632-5.238
		c-0.361-2.891-0.722-5.328-0.813-5.419c-0.09-0.09-6.412-0.271-13.999-0.36l-13.818-0.091v21.585v21.495l4.787,1.084
		C137.819,229.308,149.921,228.224,160.94,224.521z M320.705,227.14c9.122-3.251,14.36-10.296,15.083-20.23
		c0.542-7.496-0.813-11.831-4.877-16.347c-5.058-5.6-9.845-7.135-23.481-7.314l-11.651-0.091l0.362,13.366
		c0.18,7.405,0.451,13.728,0.631,13.998c0.543,0.994,11.29,3.704,12.645,3.161c0.994-0.36,1.265-2.709,1.265-10.928v-10.386h2.528
		c1.355,0,3.342,0.633,4.426,1.354c2.529,1.807,3.884,8.31,2.8,13.457c-1.807,8.309-8.038,10.387-20.14,6.502
		c-3.975-1.264-7.948-2.348-8.851-2.348c-1.626,0-1.717-0.903-1.355-13.908l0.271-13.999l-7.587-0.271
		c-4.064-0.181-7.856-0.09-8.219,0.181c-0.451,0.271-0.451,2.077,0,4.063c1.174,4.787,1.174,25.378,0,29.353
		c-1.084,3.884-0.271,4.516,6.773,4.516c5.419,0,12.734,1.717,22.127,5.329C309.416,228.766,315.377,229.036,320.705,227.14z
		 M192.64,202.033l0.181-18.695h-7.135c-6.322,0-6.953,0.181-6.412,1.625c0.723,1.807,1.807,13.729,1.174,13.729
		c-0.181,0-3.342-3.432-6.954-7.677l-6.593-7.677h-6.051h-5.961l0.271,14.631c0.181,8.128,0.452,14.811,0.542,14.901
		s2.709-0.271,5.78-0.813c5.329-0.993,5.6-1.174,5.6-3.612c0-1.355,0.181-2.529,0.361-2.529s3.793,3.522,7.948,7.767l7.676,7.677
		l4.697-0.271l4.786-0.271L192.64,202.033z M212.419,219.012c-0.181-0.993-0.542-3.975-0.813-6.684l-0.541-4.786l4.425,0.271
		l4.426,0.361l0.271-5.147l0.271-5.238h-4.605c-4.426,0-4.516,0-4.516-2.8v-2.89l4.335,0.541c2.349,0.271,4.877,0.633,5.6,0.813
		c1.626,0.36,2.348-5.059,1.084-8.399l-0.903-2.168l-12.463,0.271l-12.554,0.271l0.181,18.695
		c0.09,10.296,0.181,18.785,0.271,18.966c0,0.091,3.522,0.091,7.947,0C212.148,220.818,212.689,220.729,212.419,219.012z
		 M240.507,202.033l0.181-18.695h-7.677h-7.677l0.181,18.695c0.09,10.386,0.181,18.875,0.181,19.056c0.09,0.181,3.341,0.181,7.405,0
		l7.315-0.271L240.507,202.033z M271.394,217.928c0.271-1.896,0.723-4.335,0.993-5.509c0.452-2.077,0.362-2.077-5.96-1.445
		l-6.322,0.632v-2.709c0-2.71,0.09-2.71,4.064-2.258l4.064,0.451v-5.6v-5.509l-4.064,0.633c-3.975,0.541-4.064,0.451-4.064-1.987
		s0.09-2.528,4.335-1.987c2.349,0.271,4.878,0.633,5.6,0.813c1.084,0.181,1.265-0.723,0.993-4.696
		c-0.09-2.71-0.36-5.058-0.451-5.148c-0.09-0.09-5.78-0.271-12.645-0.36l-12.553-0.091l0.09,18.785
		c0.091,10.386,0.091,18.966,0.181,19.146c0,0.091,5.689,0.181,12.645,0.181h12.554L271.394,217.928z M203.748,176.202
		c22.218-9.843,18.154-40.73-5.328-40.73c-11.018,0-17.521,4.786-19.688,14.45c-2.35,10.205,8.128,19.869,17.34,15.985
		c6.412-2.619,6.953-7.405,0.902-7.405c-3.432,0-4.605-1.536-4.605-6.322c0-4.516,2.077-7.677,5.057-7.677
		c3.704,0,5.691,1.625,6.773,5.6c1.807,6.954-0.541,13.908-5.598,16.617c-3.342,1.626-10.838,1.626-15.083-0.09
		c-3.522-1.535-11.922-9.122-11.922-10.928c0-0.542,0.813-1.717,1.896-2.71c3.433-3.07,4.606-6.593,4.245-12.282
		c-0.271-4.154-0.903-5.78-2.891-7.857c-3.521-3.703-7.767-4.606-21.584-4.606H140.98l0.632,3.432
		c0.903,4.606,0.813,36.126-0.09,39.287l-0.632,2.438h8.58h8.58l-0.632-6.503l-0.542-6.593l4.516,4.968
		c5.147,5.6,12.825,10.566,19.056,12.373C186.589,179.363,198.24,178.642,203.748,176.202z M283.586,172.049
		c0-0.723-0.361-1.445-0.722-1.716c-0.452-0.271-3.522-7.948-6.954-17.16l-6.232-16.798h-7.044h-6.955v2.979
		c0.091,1.536-2.167,9.213-4.967,16.89c-2.89,7.676-5.419,14.721-5.689,15.623c-0.452,1.355,0.271,1.536,5.961,1.536h6.412
		l-0.181-2.891l-0.271-2.979l4.787-0.271l4.696-0.271v3.07c0,1.625,0.181,3.252,0.361,3.432c0.18,0.181,4.064,0.271,8.58,0.091
		C281.6,173.313,283.586,172.951,283.586,172.049z M240.507,165.907l-0.542-7.405l5.148-10.116
		c2.799-5.599,5.057-10.566,5.057-11.108c0-0.632-2.348-0.902-6.503-0.722c-5.96,0.271-6.593,0.451-6.321,2.077
		c0.361,1.896-1.626,8.579-2.529,8.579c-0.271,0-1.716-2.438-3.16-5.419l-2.62-5.418h-7.496c-4.153,0-7.495,0.271-7.495,0.542
		c0,0.271,0.722,1.625,1.625,2.89c0.903,1.354,3.612,6.051,5.961,10.566l4.335,8.038l-0.361,7.496l-0.36,7.496h7.856h7.857
		L240.507,165.907z M312.487,171.416c0-1.174,0.271-3.612,0.541-5.419l0.633-3.432l-7.045,0.633l-7.044,0.541l0.451-13.637
		l0.361-13.728h-7.677h-7.767v18.514v18.515h13.817C312.396,173.403,312.487,173.403,312.487,171.416z"/>
	<path fill="#FCF2CE" d="M157.146,143.6c0-5.419,0-5.419,2.709-5.419c4.516,0,5.689,6.052,1.806,9.213
		C158.05,150.283,157.146,149.561,157.146,143.6z"/>
	<path fill="#FCF2CE" d="M260.737,155.341c0.271-0.994,0.632-1.807,0.813-1.807s0.723,0.813,1.265,1.807
		c0.813,1.535,0.722,1.806-0.813,1.806C260.737,157.146,260.375,156.695,260.737,155.341z"/>
</g>
<g id="layer114">
	<path fill="#FFFFFF" d="M-1,172.5V0h173.5H346v172.5V345H172.5H-1V172.5z M72.612,227.05c8.49-2.168,17.25-7.225,23.572-13.638
		c19.959-20.14,19.959-51.027,0-71.167c-10.386-10.477-21.043-14.902-36.125-14.902c-14.721,0-25.559,4.426-35.674,14.45
		c-7.496,7.496-11.199,13.909-13.638,23.482c-4.064,15.895-0.271,32.151,10.386,45.428c3.251,4.154,12.283,11.108,16.799,13.095
		C48.589,228.495,62.136,229.76,72.612,227.05z M159.043,225.244c5.509-1.807,12.192-3.433,14.902-3.704
		c2.709-0.271,4.877-0.812,4.877-1.084c0-0.36-1.807-2.438-4.064-4.605l-4.064-3.974l-6.503,1.175
		c-9.302,1.806-17.882,2.618-21.224,2.077c-2.619-0.362-2.98-0.723-2.98-3.161v-2.71l5.419,0.542
		c5.148,0.542,5.419,0.451,5.961-1.536c0.271-1.083,0.361-3.612,0.18-5.599l-0.271-3.522h-5.69h-5.6v-3.071v-3.069l5.238,0.722
		c9.393,1.265,8.761,1.445,8.49-3.612c-0.542-8.219,0.542-7.677-15.354-7.677h-14.179l0.09,21.856l0.18,21.946l3.884,1.084
		c2.167,0.541,7.767,1.084,12.373,1.084C147.935,228.495,150.373,228.043,159.043,225.244z M322.873,226.327
		c5.689-2.619,10.838-8.309,12.192-13.366c0.633-2.077,0.903-6.684,0.723-10.296c-0.361-7.587-2.619-11.65-8.67-15.715
		c-5.238-3.432-11.38-4.605-22.85-4.335c-8.852,0.271-9.393,0.361-9.031,2.077c0.18,0.993,0.451,7.315,0.723,14.089l0.451,12.283
		l4.696,1.444c2.619,0.903,5.871,1.536,7.135,1.536h2.438v-10.838v-10.838h2.168c5.509,0,8.851,6.863,7.405,14.901
		c-1.083,5.509-3.974,7.677-10.296,7.677c-2.979,0-7.677-0.813-10.566-1.806c-2.891-0.993-6.232-1.807-7.496-1.807h-2.168
		l0.361-14.45l0.361-14.54l-8.038,0.271l-8.038,0.271v18.967v18.966l7.587,0.541c5.238,0.361,10.205,1.536,16.527,3.794
		C309.777,229.127,316.28,229.488,322.873,226.327z M192.82,201.853v-19.418h-7.135h-7.045l0.543,2.98
		c0.361,1.535,0.813,5.328,1.083,8.309l0.452,5.419l-2.348-2.709c-1.355-1.445-4.426-5.238-6.955-8.31l-4.516-5.689h-6.051h-6.051
		l0.361,14.721c0.181,8.039,0.452,15.083,0.632,15.715c0.271,0.813,1.084,0.903,2.89,0.271c1.354-0.362,4.064-0.993,6.051-1.354
		c3.161-0.542,3.432-0.723,3.071-3.251c-0.361-2.35,0.361-1.807,7.044,5.057l7.406,7.677h5.328h5.238V201.853z M212.6,218.561
		c-0.091-1.265-0.271-4.064-0.451-6.322l-0.271-4.064l4.244,0.271l4.245,0.271v-5.419v-5.509h-3.974
		c-3.521,0-3.974-0.271-4.335-2.258c-0.271-1.265-0.271-2.438,0.091-2.62c0.271-0.18,2.709,0,5.419,0.452
		c2.709,0.361,5.237,0.542,5.599,0.271c0.632-0.361,0.361-4.155-0.632-9.122c-0.361-2.077-0.632-2.077-13.276-2.077h-12.824v19.418
		v19.507l8.128-0.271C212.6,220.818,212.689,220.818,212.6,218.561z M241.139,218.108c-0.271-1.444-0.451-8.761-0.451-16.256
		c0-7.406,0.181-14.722,0.451-16.257l0.451-2.71l-8.038-0.271c-8.76-0.271-10.024,0.361-8.579,4.064
		c1.083,2.799,1.083,29.261,0,30.888c-1.896,3.07-0.181,3.792,8.399,3.521l8.218-0.271L241.139,218.108z M271.484,220.005
		c0.271-0.723,0.542-3.251,0.632-5.689l0.181-4.335l-6.051,0.361c-5.779,0.271-6.142,0.18-6.142-1.716
		c0-1.807,0.362-1.896,4.335-1.626l4.245,0.271v-5.418v-5.419l-4.335,0.271c-4.155,0.271-4.335,0.181-4.064-1.807
		c0.271-2.258,1.174-2.438,7.857-1.264l3.974,0.632l-0.541-5.147c-0.271-2.8-0.903-5.51-1.355-5.961
		c-0.451-0.452-6.412-0.633-13.187-0.542l-12.463,0.271l0.091,18.785c0,10.297,0,18.876,0.09,19.147
		c0,0.271,5.871,0.451,13.096,0.451C268.414,221.27,271.123,220.999,271.484,220.005z M201.22,177.467
		c2.528-0.813,6.593-2.979,9.031-4.877c11.199-8.851,11.289-26.19,0.271-33.957c-3.432-2.349-4.695-2.71-11.198-2.98
		c-9.122-0.361-13.999,1.807-18.243,7.767c-2.258,3.342-2.709,4.787-2.709,9.212c0,3.974,0.451,5.961,1.896,7.857
		c5.329,7.135,13.276,8.58,19.689,3.522c2.528-1.987,1.264-6.322-1.626-5.6c-3.162,0.813-5.961-1.716-5.961-5.328
		c0-9.754,9.213-11.471,11.74-2.258c1.355,5.058,0.271,9.663-3.16,13.366c-2.529,2.89-3.523,3.251-8.31,3.612
		c-6.593,0.451-12.553-2.167-17.792-7.947l-3.341-3.703l2.71-3.07c2.618-3.071,4.605-8.129,4.605-11.741
		c-0.09-4.064-3.432-9.393-7.135-11.199c-3.161-1.626-5.329-1.896-16.979-1.896h-13.366l0.181,22.76l0.18,22.849h8.399
		c7.857,0,8.399-0.09,8.218-1.806c-0.18-0.994-0.451-4.064-0.813-6.773l-0.632-4.968l3.07,3.794
		c3.071,3.793,9.212,8.85,13.457,11.107C180.357,178.912,192.82,179.906,201.22,177.467z M241.319,172.049
		c-1.716-11.922-1.625-12.012,4.335-23.843c3.342-6.773,5.238-11.471,4.696-12.013c-0.451-0.451-3.612-0.722-7.044-0.541
		l-6.232,0.271l-0.09,3.612c0,1.987-0.542,4.606-1.265,5.78c-1.174,2.258-1.174,2.168-3.974-3.612l-2.8-5.78l-7.044-0.271
		c-8.49-0.271-9.213,0.632-5.238,6.231c1.534,2.077,2.799,4.064,2.799,4.516c0,0.361,1.445,3.161,3.161,6.231
		c2.71,4.696,3.161,6.413,3.161,11.108c0,3.071-0.361,6.142-0.813,6.864c-1.896,3.07-0.181,3.793,8.399,3.521
		C240.958,173.854,241.59,173.765,241.319,172.049z M257.396,170.694v-3.613h4.516h4.516v3.613v3.612h8.67
		c8.58,0,8.671,0,8.219-1.987c-0.722-2.98-10.296-28.449-12.373-32.965l-1.807-3.883h-6.773c-3.702,0-6.773,0.271-6.863,0.722
		c0,0.362-0.181,2.258-0.271,4.245c-0.361,3.974-6.593,22.579-9.573,28.449c-0.993,2.077-1.625,4.063-1.354,4.516
		c0.271,0.541,3.342,0.903,6.863,0.903h6.232V170.694z M312.938,168.797c0.361-2.979,0.361-5.689,0-6.051
		c-0.271-0.361-3.432-0.451-6.954-0.271l-6.322,0.271l0.451-11.65c0.271-6.322,0.633-12.373,0.813-13.366
		c0.271-1.716-0.271-1.807-7.677-1.807h-8.038l-0.09,19.237l-0.181,19.146h13.728h13.637L312.938,168.797z"/>
	<path fill="#FFFFFF" d="M157.146,143.148c0-4.606,0.181-4.968,2.077-4.968c2.8,0,4.245,1.626,4.245,4.606
		c0,2.89-2.077,5.328-4.606,5.328C157.417,148.115,157.146,147.483,157.146,143.148z"/>
	<path fill="#FFFFFF" d="M261.008,155.25c0-0.993,0.451-1.535,0.903-1.265c0.541,0.271,0.903,1.175,0.903,1.897
		c0,0.722-0.362,1.264-0.903,1.264C261.459,157.146,261.008,156.334,261.008,155.25z"/>
</g>
</svg>
