<?xml version="1.0" encoding="utf-8"?>
<!-- Generator: Adobe Illustrator 16.0.0, SVG Export Plug-In . SVG Version: 6.00 Build 0)  -->
<!DOCTYPE svg PUBLIC "-//W3C//DTD SVG 1.1//EN" "http://www.w3.org/Graphics/SVG/1.1/DTD/svg11.dtd">
<svg version="1.1" id="Layer_1" xmlns="http://www.w3.org/2000/svg" xmlns:xlink="http://www.w3.org/1999/xlink" x="0px" y="0px"
	 width="345px" height="345px" viewBox="0 0 345 345" enable-background="new 0 0 345 345" xml:space="preserve">
<g>
	<path fill="#FFFFFF" stroke="#4D4545" stroke-miterlimit="10" d="M172.501,326.492c2.668,0,5.214-0.343,7.556-1.048
		c2.438-0.726,4.755-1.854,6.878-3.344c2.043-1.438,3.922-3.182,5.739-5.359c1.663-1.988,3.226-4.293,4.797-7.021
		c0,0,141.469-246.623,142.65-248.801c1.203-2.168,2.188-4.418,2.958-6.688c0.776-2.278,1.325-4.574,1.627-6.814
		c0.316-2.322,0.379-4.609,0.181-6.786c-0.108-1.167-0.6-4.736-2.114-7.962c-1.492-3.163-3.166-5.151-5.297-7.148
		c-2.142-2.007-5.991-4.203-9.217-5.251c-1.809-0.586-3.878-1.084-6.047-1.365c-2.015-0.271-4.237-0.397-6.787-0.397H29.572
		c-2.549,0-4.764,0.126-6.787,0.397c-2.151,0.281-4.237,0.778-6.036,1.365c-3.235,1.049-7.086,3.245-9.218,5.251
		c-2.143,1.997-3.814,3.985-5.305,7.148c-1.52,3.226-1.998,6.795-2.105,7.962c-0.208,2.179-0.146,4.464,0.171,6.786
		c0.307,2.241,0.85,4.537,1.626,6.814c0.769,2.269,1.764,4.519,2.955,6.688c1.193,2.178,142.66,248.801,142.66,248.801
		c1.564,2.727,3.126,5.033,4.789,7.021c1.817,2.178,3.695,3.922,5.747,5.359c2.123,1.49,4.436,2.618,6.867,3.344
		C167.277,326.149,169.836,326.492,172.501,326.492"/>
	<path fill="#231F20" stroke="#4D4545" stroke-miterlimit="10" d="M29.579,25.213c-4.445,0-7.753,0.435-10.663,1.411
		c-5.514,1.861-9.209,5.188-11.035,9.878c-2.269,5.856-1.193,13.771,2.873,21.192l142.604,248.692
		c5.368,9.399,11.089,13.411,19.142,13.411c8.061,0,13.78-4.012,19.147-13.411L334.246,57.694
		c4.065-7.419,5.151-15.336,2.875-21.192c-1.818-4.69-5.522-8.017-11.035-9.878c-2.904-0.977-6.208-1.411-10.667-1.411H29.579z"/>
	<polygon fill="#FFFFFF" stroke="#4D4545" stroke-miterlimit="10" points="301.687,96.516 290.452,116.108 227.548,116.108 
		275.95,141.404 268.575,154.263 227.548,131.653 227.548,225.818 207.938,259.997 207.938,96.516 	"/>
	<polygon fill="#FFFFFF" stroke="#4D4545" stroke-miterlimit="10" points="43.317,96.516 54.55,116.108 117.456,116.108 
		69.07,141.404 76.438,154.263 117.456,131.653 117.456,225.818 137.068,259.997 137.068,96.516 	"/>
	<path fill="#FFFFFF" stroke="#4D4545" stroke-miterlimit="10" d="M203.074,70.209V44.671h-4.526c-1.69,0-2.277,0.831-3.363,2.35
		l-7.006,9.877l-7.743-12.227h-4.879c-1.608,0-1.861,1.464-1.861,2.331v23.207h5.585V53.381l7.554,11.325h2.378l7.916-11.252v16.756
		H203.074z"/>
	<path fill="#FFFFFF" stroke="#4D4545" stroke-miterlimit="10" d="M215.382,62.33c0.896,0,4.07-0.099,7.031-1.411
		c3.823-1.681,5.757-4.609,5.757-8.739c0-2.259-0.902-7.519-9.328-7.519h-8.771c-1.62,0-1.854,1.474-1.854,2.341v23.207h6.784v-7.88
		h0.181H215.382 M215.003,58.081v-9.182h2.313c4.277,0,4.918,2.521,4.918,4.03c0,4.916-5.712,5.161-6.861,5.161
		c-0.126,0-0.198,0-0.198,0L215.003,58.081z"/>
	<path fill="#FFFFFF" stroke="#4D4545" stroke-miterlimit="10" d="M168.553,44.662h-4.934c-1.618,0-1.854,1.474-1.854,2.341v13.764
		c0,4.609-2.494,5.567-4.572,5.567c-2.096,0-4.583-0.958-4.583-5.567V44.662h-4.935c-1.618,0-1.861,1.474-1.861,2.341v14.278
		c0,4.5,1.97,9.858,11.379,9.858c9.391,0,11.359-5.359,11.359-9.858V44.662L168.553,44.662z"/>
	<path fill="#FFFFFF" stroke="#4D4545" stroke-miterlimit="10" d="M133.877,70.209h6.796V44.662h-4.935
		c-1.618,0-1.861,1.474-1.861,2.341V70.209L133.877,70.209z"/>
	<path fill="#FFFFFF" stroke="#4D4545" stroke-miterlimit="10" d="M256.178,70.209V44.671h-4.927c-1.627,0-1.862,1.473-1.862,2.34
		v4.266l-0.144,0.028c-3.138,0.598-6.299,1.808-9.679,3.695l-0.253,0.136V44.673h-4.936c-1.618,0-1.861,1.473-1.861,2.34v12.652
		l-0.072,0.053c-1.047,0.788-2.023,1.565-2.891,2.25l-0.208,0.162c-17.595,13.81-35.12,20.036-56.853,20.179
		c-0.217,0-0.452,0-0.67,0c-10.012,0.009-19.608-1.653-27.771-4.799c-9.508-3.667-16.683-9.126-21.336-16.247l-0.107-0.182
		l0.189-0.072c3.94-1.662,5.937-4.637,5.937-8.821c0-2.268-0.904-7.518-9.326-7.518h-8.765c-1.619,0-1.862,1.473-1.862,2.34v23.198
		h6.868v-7.88l0.171,0.009c0,0,0.154,0,0.397,0h0.09l0.056,0.054c8.947,10.727,25.945,23.496,56.129,23.496
		c22.61,0,41.026-6.317,59.743-20.469l0.28-0.208v4.997h6.797v-9.942l0.072-0.054c3.626-2.341,6.74-3.65,9.796-4.121l0.207-0.028
		v14.144H256.178L256.178,70.209z M116.011,58.099c-0.127,0-0.208,0-0.208,0l-0.154-0.009v-9.181h2.241
		c4.267,0,4.897,2.512,4.897,4.021C122.787,57.847,117.149,58.099,116.011,58.099"/>
	<path fill="#FFFFFF" stroke="#4D4545" stroke-miterlimit="10" d="M105.681,44.662H84.443c-1.507,0-1.834,1.283-1.834,2.341v3.742
		h8.117v19.457h6.823V50.745h6.262c1.637,0,1.871-1.474,1.871-2.342v-3.741H105.681z"/>
</g>
</svg>
