<?xml version="1.0" encoding="utf-8"?>
<!-- Generator: Adobe Illustrator 16.0.0, SVG Export Plug-In . SVG Version: 6.00 Build 0)  -->
<!DOCTYPE svg PUBLIC "-//W3C//DTD SVG 1.1//EN" "http://www.w3.org/Graphics/SVG/1.1/DTD/svg11.dtd">
<svg version="1.1" id="Layer_1" xmlns="http://www.w3.org/2000/svg" xmlns:xlink="http://www.w3.org/1999/xlink" x="0px" y="0px"
	 width="345px" height="345px" viewBox="0 0 345 345" enable-background="new 0 0 345 345" xml:space="preserve">
<g>
	<g>
		
			<linearGradient id="SVGID_1_" gradientUnits="userSpaceOnUse" x1="208.9277" y1="210.8008" x2="386.2745" y2="33.454" gradientTransform="matrix(1 0 0 1 -125.1001 19.5996)">
			<stop  offset="0" style="stop-color:#696A6C"/>
			<stop  offset="0.5" style="stop-color:#E1E2E3"/>
			<stop  offset="1" style="stop-color:#696A6C"/>
		</linearGradient>
		<path fill="url(#SVGID_1_)" d="M297.904,141.726c0,69.254-56.15,125.409-125.404,125.409
			c-69.256,0-125.404-56.155-125.404-125.409c0-69.261,56.149-125.403,125.402-125.403
			C241.754,16.323,297.904,72.466,297.904,141.726z"/>
		<circle cx="172.498" cy="141.725" r="118.129"/>
		
			<radialGradient id="SVGID_2_" cx="259.293" cy="81.041" r="79.2475" gradientTransform="matrix(1 0 0 1 -125.1001 19.5996)" gradientUnits="userSpaceOnUse">
			<stop  offset="0.0056" style="stop-color:#FFFFFF"/>
			<stop  offset="1" style="stop-color:#000000"/>
		</radialGradient>
		<path fill="url(#SVGID_2_)" d="M260.967,141.73c0,48.85-39.607,88.462-88.469,88.462c-48.86,0-88.468-39.612-88.468-88.462
			c0-48.862,39.606-88.47,88.468-88.47S260.967,92.869,260.967,141.73z"/>
		
			<linearGradient id="SVGID_3_" gradientUnits="userSpaceOnUse" x1="235.042" y1="59.5674" x2="339.9424" y2="164.4678" gradientTransform="matrix(1 0 0 1 -125.1001 19.5996)">
			<stop  offset="0.0056" style="stop-color:#000000"/>
			<stop  offset="1" style="stop-color:#A6A8AA"/>
		</linearGradient>
		<path fill="url(#SVGID_3_)" d="M234.211,138.026c-1.91-32.417-28.809-58.125-61.713-58.125c-34.149,0-61.818,27.683-61.818,61.83
			c0,21.096,10.575,39.738,26.712,50.888l-11.222,24.483c-25.285-15.572-42.141-43.509-42.141-75.374
			c0-48.863,39.606-88.471,88.468-88.471c47.623,0,86.453,37.628,88.388,84.767L234.211,138.026L234.211,138.026z"/>
		
			<linearGradient id="SVGID_4_" gradientUnits="userSpaceOnUse" x1="206.8184" y1="188.0977" x2="363.5975" y2="31.3185" gradientTransform="matrix(1 0 0 1 -125.1001 19.5996)">
			<stop  offset="0.0056" style="stop-color:#A6A8AA"/>
			<stop  offset="0.1573" style="stop-color:#D0D1D3"/>
			<stop  offset="0.3483" style="stop-color:#FFFFFF"/>
			<stop  offset="0.8034" style="stop-color:#FFFFFF"/>
			<stop  offset="1" style="stop-color:#A6A8AA"/>
		</linearGradient>
		<path fill="url(#SVGID_4_)" d="M116.768,237.561c-32.954-19.21-55.104-54.934-55.104-95.829
			c0-61.229,49.633-110.864,110.867-110.864c59.983,0,108.848,47.65,110.799,107.16h-39.971
			c-1.92-37.446-32.902-67.223-70.829-67.223c-39.177,0-70.929,31.754-70.929,70.927c0,24.783,12.715,46.589,31.97,59.279
			L116.768,237.561z"/>
		<g>
			<g>
				
					<linearGradient id="SVGID_5_" gradientUnits="userSpaceOnUse" x1="297.5938" y1="43.3799" x2="297.5938" y2="11.2646" gradientTransform="matrix(1 0 0 1 -125.1001 19.5996)">
					<stop  offset="0" style="stop-color:#E1E2E3"/>
					<stop  offset="1" style="stop-color:#696A6C"/>
				</linearGradient>
				<path fill="url(#SVGID_5_)" d="M187.533,31.911c-4.99-0.688-10.094-1.047-15.285-1.047c-5.016,0-9.951,0.333-14.793,0.978
					C157.456,31.842,171.272,101.856,187.533,31.911z"/>
				<path d="M187.533,31.911c-4.99-0.688-10.094-1.047-15.285-1.047c-5.016,0-9.951,0.333-14.793,0.978
					C157.456,31.842,171.272,85.612,187.533,31.911z"/>
			</g>
			<g>
				
					<linearGradient id="SVGID_6_" gradientUnits="userSpaceOnUse" x1="180.0352" y1="215.3496" x2="180.0352" y2="183.2363" gradientTransform="matrix(0.7989 -0.6015 0.6015 0.7989 -148.2314 15.0758)">
					<stop  offset="0" style="stop-color:#E1E2E3"/>
					<stop  offset="1" style="stop-color:#696A6C"/>
				</linearGradient>
				<path fill="url(#SVGID_6_)" d="M118.46,44.96c-4.405,2.453-8.701,5.238-12.839,8.359c-4.008,3.012-7.755,6.249-11.233,9.678
					C94.388,62.997,147.543,110.619,118.46,44.96z"/>
				<path d="M118.46,44.96c-4.405,2.453-8.701,5.238-12.839,8.359c-4.008,3.012-7.755,6.249-11.233,9.678
					C94.388,62.997,137.771,97.64,118.46,44.96z"/>
			</g>
			<g>
				
					<linearGradient id="SVGID_7_" gradientUnits="userSpaceOnUse" x1="-18.9766" y1="282.6963" x2="-18.9766" y2="250.5801" gradientTransform="matrix(0.2727 -0.9621 0.9621 0.2727 -170.07 24.9336)">
					<stop  offset="0" style="stop-color:#E1E2E3"/>
					<stop  offset="1" style="stop-color:#696A6C"/>
				</linearGradient>
				<path fill="url(#SVGID_7_)" d="M70.95,97.343c-2.029,4.613-3.766,9.425-5.178,14.415c-1.37,4.823-2.39,9.665-3.094,14.501
					C62.678,126.258,133.806,132.059,70.95,97.343z"/>
				<path d="M70.95,97.343c-2.029,4.613-3.766,9.425-5.178,14.415c-1.37,4.823-2.39,9.665-3.094,14.501
					C62.678,126.258,118.173,127.627,70.95,97.343z"/>
			</g>
			<g>
				
					<linearGradient id="SVGID_8_" gradientUnits="userSpaceOnUse" x1="-317.7808" y1="-159.4629" x2="-317.7808" y2="-191.5767" gradientTransform="matrix(-0.7989 -0.6015 -0.6015 0.7989 -129.9288 15.0758)">
					<stop  offset="0" style="stop-color:#E1E2E3"/>
					<stop  offset="1" style="stop-color:#696A6C"/>
				</linearGradient>
				<path fill="url(#SVGID_8_)" d="M226.539,44.96c4.404,2.453,8.691,5.238,12.838,8.359c4.008,3.012,7.75,6.249,11.229,9.678
					C250.605,62.997,197.455,110.619,226.539,44.96z"/>
				<path d="M226.539,44.96c4.404,2.453,8.691,5.238,12.838,8.359c4.008,3.012,7.75,6.249,11.229,9.678
					C250.605,62.997,207.227,97.64,226.539,44.96z"/>
			</g>
			<g>
				
					<linearGradient id="SVGID_9_" gradientUnits="userSpaceOnUse" x1="-188.9121" y1="-316.8369" x2="-188.9121" y2="-348.9526" gradientTransform="matrix(-0.2727 -0.9621 -0.9621 0.2727 -108.0882 24.9336)">
					<stop  offset="0" style="stop-color:#E1E2E3"/>
					<stop  offset="1" style="stop-color:#696A6C"/>
				</linearGradient>
				<path fill="url(#SVGID_9_)" d="M274.049,97.343c2.029,4.613,3.76,9.425,5.172,14.415c1.377,4.823,2.395,9.665,3.1,14.501
					C282.32,126.258,211.182,132.059,274.049,97.343z"/>
				<path d="M274.049,97.343c2.029,4.613,3.76,9.425,5.172,14.415c1.377,4.823,2.395,9.665,3.1,14.501
					C282.32,126.258,226.818,127.627,274.049,97.343z"/>
			</g>
			<circle fill="none" stroke="#000000" stroke-width="1.6364" cx="172.498" cy="141.725" r="110.861"/>
		</g>
	</g>
	<g>
		<path fill="none" stroke="#000000" stroke-width="1.6364" d="M162.784,149.969h23.294c1.898,0.024,5.359,0.773,6.672,2.08
			c1.908,1.911,2.439,3.687,2.109,6.386c-0.561,4.504-2.123,7.381-7.461,8.464c4.629-0.939,3.777,5.408,3.59,6.024
			c-1.385,4.438-3.59,7.219-5.014,8.651c-2.197,2.19-6.467,3.795-11.141,3.795h-25.779L162.784,149.969z M164.482,178.2
			c0.46,0,8.795,0,9.256,0c1.773,0,2.408-0.035,4.904-0.759c1.07-0.31,2.209-0.94,2.656-3.366c0.791-4.306-5.488-3.766-13.922-3.766
			h-3.983l-3.05,7.891H164.482L164.482,178.2z M165.578,164.722h13.004c4.271,0,6.213-2.155,6.811-5.39
			c0.311-1.699-1.852-2.303-5.252-2.303h-11.6L165.578,164.722z"/>
		<path fill="none" stroke="#000000" stroke-width="1.6364" d="M193.029,185.368l13.725-35.399h9.035c0.307,0,10.979,0,11.279,0
			c5.898,0,9.477,1.631,10.199,3.387c1.096,2.675,1.234,6.424,0.15,8.907c-2.174,4.999-4.906,7.921-11.98,8.867l5.357,14.238
			h-11.182l-4.676-13.547h-8.109l-5.295,13.547H193.029L193.029,185.368z M220.129,164.607c1.848,0,7.475,0.025,9.115-4.683
			c0.777-2.234-1.211-2.988-3.172-2.988H212.58l-3.02,7.686L220.129,164.607z"/>
		<path fill="none" stroke="#000000" stroke-width="1.6364" d="M235.773,185.368l13.715-35.399h21.846c0.299,0,0.529,0,0.84,0
			c2.365,0,5.818,0.163,7.791,2.13c2.338,2.339,2.102,6.958,1.412,10.001c-0.422,1.86-1.572,4.02-4.268,6.348
			c-2.943,2.54-7.07,3.597-10.705,3.597c-0.766,0-1.605,0-2.453,0h-13.242l-5.146,13.326h-9.789V185.368z M266.461,164.77
			c1.674,0.007,5.309-0.386,5.943-3.973c0.547-3.092-2.594-2.963-3.98-2.963h-12.236l-2.682,6.934h12.955V164.77z"/>
	</g>
	<g>
		<path fill="#FFFFFF" d="M162.784,149.969h23.294c1.898,0.024,5.359,0.773,6.672,2.08c1.908,1.911,2.439,3.687,2.109,6.386
			c-0.561,4.504-2.123,7.381-7.461,8.464c4.629-0.939,3.777,5.408,3.59,6.024c-1.385,4.438-3.59,7.219-5.014,8.651
			c-2.197,2.19-6.467,3.795-11.141,3.795h-25.779L162.784,149.969z M164.482,178.2c0.46,0,8.795,0,9.256,0
			c1.773,0,2.408-0.035,4.904-0.759c1.07-0.31,2.209-0.94,2.656-3.366c0.791-4.306-5.488-3.766-13.922-3.766h-3.983l-3.05,7.891
			H164.482L164.482,178.2z M165.578,164.722h13.004c4.271,0,6.213-2.155,6.811-5.39c0.311-1.699-1.852-2.303-5.252-2.303h-11.6
			L165.578,164.722z"/>
		<path fill="#FFFFFF" d="M193.029,185.368l13.725-35.399h9.035c0.307,0,10.979,0,11.279,0c5.898,0,9.477,1.631,10.199,3.387
			c1.096,2.675,1.234,6.424,0.15,8.907c-2.174,4.999-4.906,7.921-11.98,8.867l5.357,14.238h-11.182l-4.676-13.547h-8.109
			l-5.295,13.547H193.029L193.029,185.368z M220.129,164.607c1.848,0,7.475,0.025,9.115-4.683c0.777-2.234-1.211-2.988-3.172-2.988
			H212.58l-3.02,7.686L220.129,164.607z"/>
		<path fill="#FFFFFF" d="M235.773,185.368l13.715-35.399h21.846c0.299,0,0.529,0,0.84,0c2.365,0,5.818,0.163,7.791,2.13
			c2.338,2.339,2.102,6.958,1.412,10.001c-0.422,1.86-1.572,4.02-4.268,6.348c-2.943,2.54-7.07,3.597-10.705,3.597
			c-0.766,0-1.605,0-2.453,0h-13.242l-5.146,13.326h-9.789V185.368z M266.461,164.77c1.674,0.007,5.309-0.386,5.943-3.973
			c0.547-3.092-2.594-2.963-3.98-2.963h-12.236l-2.682,6.934h12.955V164.77z"/>
	</g>
</g>
<path d="M20.384,283.793c-3.871,7.846-9.131,18.857-10.357,23.177c-0.205,0.708-0.275,1.37-0.214,1.964
	c0.065,0.664,0.3,1.278,0.703,1.838c1.384,1.896,4.417,2.525,4.764,2.589l0.47,0.048l0.453,0.033
	c0.138,0.014,0.356,0.033,0.758,0.054c15.119-0.04,25.014-0.027,28.644,0.035c5.204,0.075,8.142-2.104,9.427-3.412
	c0.021-0.023,0.439-0.506,0.632-0.812c0.256-0.395,0.68-1.167,0.68-1.167l5.467-11.411l-18.969-0.019l-0.193,0.418
	c-1.715,3.892-3.662,8.208-3.935,8.707l-0.169,0.376c-0.148,0.354-0.329,0.797-0.882,1.197c-0.808,0.566-1.302,0.713-3.977,0.709
	c-1.742-0.008-3.697-0.016-4.327-0.809c-0.593-0.735-0.507-2.014,0.24-3.601l9.282-19.915H20.384L20.384,283.793z M48.754,283.793
	l-0.434,0.977h19.692l0.192-0.427c0.067-0.147,0.144-0.333,0.229-0.547L48.754,283.793z M73.859,283.793l-0.348,0.861l17.186-0.028
	l0.388-0.833H73.859L73.859,283.793z M101.591,283.793l-1.258,2.941l-25.5,1.539c-5.275,0.115-6.718,4.131-6.736,4.174
	c-0.047,0.092-5.644,13.045-5.915,13.97l-0.136,0.495l-0.099,0.57l-0.028,0.323l-0.022,0.46c0.284,5.033,4.825,5.229,6.32,5.292
	l0.389,0.012l1.5-0.006c-0.012,0,24.513,0.042,27.154-0.008c2.506-0.046,5.964-0.675,8.05-1.969
	c2.394-1.489,3.344-3.531,3.583-4.129c0.367-0.832,6.96-15.974,10.272-23.657L101.591,283.793z M124.992,283.793l-13.118,29.755
	h18.202l13.516-29.755H124.992z M153.985,283.793l-13.213,29.763l18.394-0.007l12.868-29.755L153.985,283.793L153.985,283.793z
	 M205.565,283.793l-0.346,0.861l17.188-0.028l0.386-0.833H205.565L205.565,283.793z M233.302,283.793l-1.258,2.941l-25.5,1.539
	c-5.275,0.115-6.723,4.131-6.738,4.174c-0.044,0.092-5.642,13.045-5.918,13.97l-0.132,0.495l-0.106,0.57l-0.019,0.323l-0.024,0.46
	c0.281,5.033,4.828,5.229,6.319,5.292l0.388,0.012l1.508-0.006c-0.01,0,24.515,0.042,27.154-0.008
	c2.5-0.046,5.957-0.675,8.039-1.969c2.4-1.489,3.358-3.531,3.59-4.129c0.363-0.832,6.962-15.974,10.275-23.657L233.302,283.793z
	 M256.836,283.793l-13.119,29.755h18.203l13.521-29.755H256.836z M285.838,283.793c-1.729,3.884-13.219,29.763-13.219,29.763
	l18.39-0.007c0,0,9.842-22.681,12.969-29.753L285.838,283.793z M314.397,283.793l-13.196,29.798l18.382-0.012l12.911-29.786H314.397
	z M97.189,292.326l0.319-0.027l-0.713,1.528c0.004-0.015-5.19,11.758-6.149,12.647c-1.125,1.06-1.476,1.056-4.234,1.026
	l-1.802-0.017c-1.023,0-1.772-0.251-2.22-0.741c-0.449-0.502-0.495-1.129-0.495-1.373c0,0,0.036-0.336,0.075-0.558
	c0.041-0.232,0.32-1.123,0.329-1.174c0.101-0.234,0.585-1.371,3.083-7.356l0.142-0.278c1.441-2.9,3.98-3.165,4.271-3.186
	L97.189,292.326z M228.899,292.326l0.322-0.027l-0.719,1.528c0.004-0.015-5.195,11.758-6.15,12.647
	c-1.123,1.06-1.475,1.056-4.236,1.026l-1.797-0.017c-1.024,0-1.773-0.251-2.215-0.741c-0.449-0.502-0.502-1.129-0.502-1.373
	l0.072-0.558c0.042-0.232,0.324-1.123,0.338-1.174l3.082-7.356l0.143-0.278c1.434-2.9,3.975-3.165,4.257-3.186L228.899,292.326z
	 M174.806,290.759l-3.262,7.619h20.174l3.174-7.619H174.806z M324.313,313.637h-0.823l1.229-3.339h-1.182l0.246-0.667h3.161
	l-0.245,0.667h-1.164L324.313,313.637z M328.305,313.637h-0.782l0.386-3.349l-1.166,3.349h-0.743l1.461-4.007h1.192l-0.32,2.749
	l1.706-2.749h1.175l-1.361,4.007h-0.747l1.224-3.317L328.305,313.637"/>
<path d="M38.629,284.168l1.714-3.674l0.305-0.703c0.116-0.297,0.722-1.754,2.022-2.402c0.775-0.385,1.968-0.422,3.642-0.354
	c2.78,0.122,3.149,0.21,3.866,1.097c0.154,0.179,0.28,0.705,0.28,0.919c-0.004,0.034,0.038,0.309-0.282,1.276
	c-0.081,0.229-0.233,0.555-0.233,0.555s-0.42,1.028-1.427,3.257l-0.012,0.028h19.679c0.558-1.416,1.409-4.05,1.688-4.918
	l0.113-0.504l0.133-0.658l0.063-0.744c-0.436-4.071-3.523-5.108-5.808-5.536l-0.917-0.07l-1.667,0.015l-29.412,0.019
	c-6.249,0.229-8.25,4.396-8.33,4.569c-0.669,1.325-2.146,4.246-3.913,7.828L38.629,284.168L38.629,284.168z M90.835,284.168
	l1.68-3.6l0.632-1.17c0.068-0.137,0.294-0.523,0.369-0.652c0.408-0.705,0.901-1.325,2.068-1.653c0.01,0.003,0.52-0.104,1.153-0.106
	l2.076-0.006c2.387,0,3.462,0.151,3.961,1.07c0.243,0.436,0.358,0.835,0.358,1.227c0,0-0.021,0.402-0.168,0.972
	c-0.143,0.551-0.279,0.78-0.279,0.78l-1.344,3.14h17.577c1.09-2.524,1.825-4.25,1.863-4.386c0.133-0.387,0.229-0.697,0.254-0.869
	c0.024-0.178-0.014,0.049,0.067-0.604l0.02-0.41l-0.053-0.998c-0.349-3.463-3.766-4.903-5.978-5.035l-1.946-0.09l-0.992-0.024
	H87.401c-2.75,0-5.622,1.083-8.309,3.144c-3.166,2.648-3.951,5.597-5.484,9.272L90.835,284.168L90.835,284.168z M143.342,284.168
	l1.132-2.484c0.066-0.137,0.237-0.457,0.604-1.015c0.438-0.687,1.265-1.383,4.025-1.358l0.853-0.006
	c1.558-0.016,3.317-0.044,4.051,0.836c0.369,0.441,0.522,0.725,0.479,1.606c-0.021,0.409-0.234,1.198-0.534,1.938l-0.216,0.481
	h18.048l1.233-2.856c0.307-0.685,1.014-2.453,0.842-4.113c-0.19-1.836-1.129-3.271-2.801-4.266
	c-4.568-2.721-10.658-1.17-11.334-0.979l-0.513,0.122l-2.094,0.49c-5.489,1.119-7.276,1.312-8.119,1.353
	c-0.183,0.006-0.218-0.028-0.315-0.136l-0.105-0.389l-0.008-1.604l-18.36-0.019l-5.467,12.396h18.6V284.168z M222.543,284.168
	l1.671-3.6l0.631-1.17l0.381-0.652c0.407-0.705,0.898-1.325,2.067-1.653c0.006,0.003,0.522-0.104,1.153-0.106l2.082-0.006
	c2.38,0,3.457,0.151,3.959,1.07c0.238,0.436,0.352,0.835,0.352,1.227c0,0-0.02,0.402-0.162,0.972
	c-0.143,0.551-0.281,0.78-0.281,0.78l-1.345,3.14h17.577c1.09-2.524,1.825-4.25,1.864-4.386c0.134-0.387,0.223-0.697,0.25-0.869
	l0.064-0.604l0.023-0.41l-0.051-0.998c-0.357-3.463-3.769-4.903-5.979-5.035l-1.952-0.09l-0.989-0.024h-24.754
	c-2.75,0-5.617,1.083-8.307,3.144c-3.134,2.629-3.977,5.621-5.484,9.272L222.543,284.168L222.543,284.168z M275.188,284.168
	l1.131-2.484l0.595-1.017c0.438-0.685,1.276-1.381,4.034-1.356l0.854-0.006c1.552-0.016,3.313-0.043,4.051,0.836
	c0.367,0.441,0.521,0.725,0.479,1.606c-0.012,0.409-0.235,1.206-0.525,1.938c0,0-0.078,0.168-0.218,0.484l18.14-0.002
	c0.413-0.934,0.71-1.594,0.852-1.896l0.484-1.002c0.763-1.352,2.185-1.998,4.348-1.971l0.836,0.004
	c1.56-0.004,3.365-0.072,4.232,0.776c0.456,0.444,0.499,0.72,0.467,1.286c-0.028,0.531-0.049,0.738-0.438,1.908l-0.339,0.846
	l-0.023,0.048h18.099l1.296-2.992c0.389-0.87,0.742-2.319,0.66-3.694c-0.06-1.121-0.32-3.195-2.445-4.461
	c-4.662-2.771-11.199-1.279-11.479-1.213l-13.419,3.117c-0.377,0.125-1.137,0.332-1.647,0.314c-0.066-0.106-0.18-0.26-0.396-0.522
	l-0.242-0.349c-0.462-0.575-1.021-1.053-1.659-1.436c-4.546-2.703-10.654-1.17-11.338-0.984l-2.245,0.557
	c-5.149,1.046-7.36,1.336-8.313,1.4c-0.286,0.019-0.411,0.027-0.508-0.073c-0.104-0.104-0.104-0.427-0.104-0.427l-0.031-1.629
	l-18.322-0.006l-5.466,12.396h18.602"/>
</svg>
