<?xml version="1.0" encoding="utf-8"?>
<!-- Generator: Adobe Illustrator 16.0.0, SVG Export Plug-In . SVG Version: 6.00 Build 0)  -->
<!DOCTYPE svg PUBLIC "-//W3C//DTD SVG 1.1//EN" "http://www.w3.org/Graphics/SVG/1.1/DTD/svg11.dtd">
<svg version="1.1" id="Layer_1" xmlns="http://www.w3.org/2000/svg" xmlns:xlink="http://www.w3.org/1999/xlink" x="0px" y="0px"
	 width="345px" height="345px" viewBox="0 0 345 345" enable-background="new 0 0 345 345" xml:space="preserve">
<g>
	<polygon fill-rule="evenodd" clip-rule="evenodd" fill="#FFFFFF" points="-0.122,-0.122 344.878,-0.122 344.878,344.878 
		-0.122,344.878 -0.122,-0.122 	"/>
	<path fill-rule="evenodd" clip-rule="evenodd" fill="#FFFFFF" d="M127.442,189.229v-33h9.379v9.659l13.374-9.659h13.985
		l-0.007-0.009l1.384,0.009h0.583l-0.005,0.003l9.965,0.063l7.745,10.105l7.743-10.105l11.922-0.075l-14.684,19.28v13.729h-9.912
		v-13.771l-14.037-18.317l-13.077,9.444l12.898,22.645h-12.533l-9.245-16.231l-6.101,4.407v11.824H127.442L127.442,189.229z
		 M203.752,189.229v-33h13.632l6.8,19.76l6.799-19.76h14.21v33h-9.895v-18.997l-6.537,18.997h-9.155l-5.957-17.315v17.315H203.752
		L203.752,189.229z M309.218,155.417l2.074,0.092l2.018,0.267l1.947,0.436l1.872,0.592l1.782,0.743l1.684,0.884l1.573,1.017
		l1.454,1.141l1.323,1.258l1.184,1.363l1.031,1.464l0.87,1.552l0.693,1.635l0.513,1.705l0.313,1.768l0.108,1.818l-0.108,1.819
		l-0.313,1.77l-0.513,1.706l-0.693,1.634l-0.87,1.554l-1.031,1.461l-1.184,1.365l-1.323,1.257l-1.454,1.144l-1.573,1.016
		l-1.684,0.884l-1.782,0.743l-1.872,0.593l-1.947,0.435l-2.018,0.268l-2.074,0.09l-2.076-0.09l-2.018-0.268l-1.949-0.435
		l-1.87-0.593l-1.784-0.743l-1.684-0.884l-1.573-1.016l-1.452-1.144l-1.326-1.257l-1.182-1.365l-1.031-1.461l-0.869-1.554
		l-0.695-1.634l-0.511-1.706l-0.314-1.77l-0.104-1.819l0.104-1.818l0.314-1.768l0.511-1.705l0.695-1.635l0.869-1.552l1.031-1.464
		l1.182-1.363l1.326-1.258l1.452-1.141l1.573-1.017l1.684-0.884l1.784-0.743l1.87-0.592l1.949-0.436l2.018-0.267L309.218,155.417
		L309.218,155.417z M309.218,164.667l-1.036,0.044l-1.006,0.132l-0.972,0.215l-0.928,0.291l-0.885,0.364l-0.832,0.433l-0.775,0.495
		l-0.714,0.553l-0.648,0.607l-0.575,0.654l-0.498,0.699l-0.417,0.738l-0.334,0.772l-0.243,0.802l-0.148,0.83l-0.051,0.854
		l0.051,0.856l0.148,0.83l0.243,0.803l0.334,0.772l0.417,0.739l0.498,0.699l0.575,0.653l0.648,0.606l0.714,0.557l0.775,0.492
		l0.832,0.434l0.885,0.363l0.928,0.291l0.972,0.215l1.006,0.131l1.036,0.044l1.034-0.044l1.006-0.131l0.97-0.215l0.93-0.291
		l0.885-0.363l0.832-0.434l0.774-0.492l0.715-0.557l0.646-0.604l0.575-0.655l0.5-0.699l0.417-0.739l0.333-0.772l0.244-0.803
		l0.148-0.83l0.051-0.856l-0.051-0.854l-0.148-0.829l-0.244-0.803l-0.333-0.772l-0.417-0.737l-0.5-0.7l-0.575-0.654l-0.646-0.607
		l-0.715-0.552l-0.774-0.496l-0.834-0.433l-0.883-0.364l-0.93-0.291l-0.97-0.215l-1.006-0.132L309.218,164.667L309.218,164.667z
		 M267.987,155.417l1.746,0.064l1.704,0.189l1.658,0.31l1.608,0.423l1.549,0.533l1.485,0.637l1.416,0.736l1.341,0.829l1.257,0.92
		l1.169,1.004l1.075,1.083l0.974,1.156l0.868,1.226l0.754,1.289l0.633,1.349l0.822,2.27h-10.992l-0.552-0.79l-0.371-0.462
		l-0.407-0.441l-0.44-0.419l-0.472-0.393l-0.504-0.368l-0.531-0.341l-0.558-0.31l-0.583-0.279l-0.607-0.248l-0.629-0.212
		l-0.648-0.179l-0.668-0.141l-0.685-0.103l-0.699-0.063l-0.706-0.021l-1.042,0.044l-1.005,0.132l-0.97,0.215l-0.931,0.291
		l-0.884,0.364l-0.832,0.433l-0.776,0.495l-0.711,0.553l-0.65,0.607l-0.575,0.654l-0.498,0.699l-0.418,0.738l-0.334,0.772
		l-0.243,0.802l-0.148,0.83l-0.049,0.854l0.049,0.856l0.148,0.83l0.243,0.803l0.334,0.772l0.418,0.739l0.498,0.699l0.575,0.653
		l0.65,0.606l0.711,0.557l0.776,0.492l0.832,0.434l0.884,0.363l0.931,0.291l0.97,0.215l1.005,0.131l1.04,0.044l0.736-0.021
		l0.723-0.068l0.708-0.108l0.692-0.151l0.668-0.19l0.648-0.231l0.624-0.264l0.6-0.301l0.569-0.332l0.54-0.363l0.509-0.392
		l0.478-0.421l0.438-0.446l0.405-0.47l0.365-0.493l0.539-0.844h10.886l-0.771,2.289l-0.616,1.381l-0.741,1.321l-0.858,1.257
		l-0.972,1.187l-1.075,1.112l-1.175,1.029l-1.264,0.944l-1.351,0.854l-1.432,0.755l-1.502,0.655l-1.567,0.547l-1.629,0.438
		l-1.682,0.316l-1.729,0.195l-1.771,0.065l-2.075-0.09l-2.017-0.268l-1.949-0.435l-1.87-0.593l-1.785-0.743l-1.681-0.884
		l-1.575-1.016l-1.452-1.144l-1.325-1.257l-1.184-1.365l-1.031-1.461l-0.868-1.554l-0.696-1.634l-0.51-1.706l-0.313-1.77
		l-0.106-1.819l0.106-1.818l0.313-1.768l0.51-1.705l0.696-1.635l0.868-1.552l1.031-1.464l1.184-1.363l1.325-1.258l1.452-1.141
		l1.575-1.017l1.681-0.884l1.785-0.743l1.87-0.592l1.949-0.436l2.017-0.267L267.987,155.417L267.987,155.417z M64.207,145.506
		l2.505,0.036l2.473,0.101l2.438,0.17l2.399,0.232l2.36,0.296l2.314,0.357l2.267,0.417l2.217,0.474l2.165,0.531l2.107,0.585
		l2.05,0.639l1.986,0.689l1.921,0.74l1.852,0.788l1.782,0.835l1.705,0.879l1.631,0.925l1.549,0.967l1.466,1.008l1.378,1.047
		l1.289,1.087l1.196,1.121l1.1,1.159l0.999,1.192l0.896,1.226l0.789,1.258l0.68,1.289l0.563,1.315l0.445,1.344l0.323,1.367
		l0.197,1.39l0.065,1.406l-0.065,1.409l-0.197,1.389l-0.323,1.369l-0.445,1.341l-0.563,1.317l-0.68,1.288l-0.789,1.259l-0.896,1.224
		l-0.999,1.195l-1.1,1.157l-1.196,1.124l-1.289,1.084l-1.378,1.048l-1.466,1.009l-1.549,0.967l-1.631,0.923l-1.705,0.881
		l-1.782,0.836l-1.852,0.788l-1.921,0.739l-1.986,0.69l-2.05,0.638l-2.107,0.586l-2.165,0.529l-2.217,0.476l-2.267,0.416
		l-2.315,0.358l-2.36,0.294l-2.398,0.233l-2.438,0.168l-2.474,0.104l-2.504,0.033l-2.504-0.033l-2.473-0.104l-2.438-0.168
		l-2.4-0.233l-2.358-0.296l-2.315-0.356l-2.268-0.416l-2.218-0.476l-2.163-0.529l-2.108-0.586l-2.049-0.638l-1.986-0.69
		l-1.921-0.739l-1.852-0.788l-1.782-0.836l-1.708-0.881l-1.629-0.923l-1.548-0.967l-1.466-1.009l-1.379-1.048l-1.289-1.086
		l-1.196-1.122l-1.099-1.157l-1-1.195l-0.895-1.224l-0.79-1.259l-0.679-1.288l-0.565-1.317l-0.445-1.341l-0.324-1.369l-0.196-1.389
		l-0.066-1.409l0.066-1.407l0.196-1.389l0.324-1.367l0.445-1.344l0.565-1.315l0.679-1.289l0.79-1.258l0.895-1.226l1-1.192
		l1.099-1.159l1.196-1.121l1.289-1.087l1.379-1.047l1.466-1.008l1.548-0.967l1.629-0.925l1.708-0.879l1.782-0.835l1.852-0.788
		l1.921-0.74l1.986-0.689l2.049-0.639l2.108-0.585l2.163-0.531l2.218-0.474l2.268-0.417l2.313-0.357l2.359-0.296l2.401-0.232
		l2.438-0.17l2.473-0.101L64.207,145.506L64.207,145.506z M82.551,154.807l0.876,0.11l0.869,0.125l0.861,0.143l0.849,0.157
		l0.839,0.171l0.828,0.188l0.818,0.203l0.804,0.217l0.794,0.229l0.781,0.244l0.77,0.259l0.755,0.272l0.742,0.287l0.728,0.297
		l0.715,0.311l0.699,0.324l0.683,0.336l0.668,0.347l0.654,0.361l0.637,0.372l0.62,0.384l0.602,0.394l0.585,0.406l0.567,0.416
		l0.55,0.427l2.03,1.673l-0.14-0.156l-0.93-0.922l-1.017-0.897l-1.101-0.873l-1.183-0.845l-1.262-0.816l-1.338-0.786l-1.413-0.755
		l-1.481-0.718l-1.55-0.684l-1.615-0.646l-1.679-0.608l-1.735-0.568l-1.795-0.525l-1.847-0.482l-1.899-0.438l-1.946-0.391
		l-1.992-0.345l-2.034-0.295l-2.075-0.245l-2.11-0.191l-2.146-0.141l-2.177-0.083l-2.205-0.03l-2.204,0.03l-2.176,0.083
		l-2.145,0.141l-2.111,0.191l-2.073,0.245l-2.035,0.295l-1.991,0.345l-1.947,0.391l-1.898,0.438l-1.847,0.482l-1.794,0.525
		l-1.737,0.568l-1.677,0.608l-1.615,0.646l-1.551,0.684l-1.483,0.718l-1.41,0.754l-1.34,0.787l-1.261,0.816l-1.182,0.845
		l-1.101,0.873l-1.018,0.897l-0.929,0.922l-0.842,0.941l-0.747,0.964l-0.656,0.98l-0.558,0.997l-0.461,1.011l-0.36,1.027
		l-0.262,1.038l-0.159,1.052l-0.053,1.064l0.051,1.033l0.15,1.023l0.247,1.011l0.342,1l0.437,0.985l0.53,0.972l0.62,0.956
		l0.709,0.94l0.797,0.923l0.882,0.9l0.966,0.881l1.044,0.856l1.125,0.832l1.199,0.803l1.272,0.777l0.357,0.197v-26.108l1.132-0.641
		l0.827-0.44l0.853-0.428l0.88-0.417l0.907-0.402l0.932-0.391l0.957-0.375l0.979-0.363l1.005-0.346l1.025-0.334l1.049-0.319
		l1.069-0.303l1.092-0.289l1.11-0.272l1.129-0.257l1.951-0.411v11.901l0.431-0.626l0.543-0.704l0.584-0.689l0.627-0.668l0.666-0.652
		l0.706-0.632l0.741-0.612l0.78-0.591l0.814-0.572l0.849-0.547l0.882-0.528l0.913-0.503l0.944-0.481l0.977-0.456l1.002-0.432
		l1.031-0.405l1.056-0.381l1.084-0.353l1.107-0.327l1.13-0.298l1.153-0.271l1.173-0.239l1.193-0.211l1.213-0.18l1.23-0.15
		l1.247-0.116l1.262-0.085l1.279-0.051l1.288-0.019l0.927,0.01l0.917,0.027l0.911,0.043l0.902,0.06l0.896,0.078L82.551,154.807
		L82.551,154.807z M104.667,165.723l-4.845-2.87l-0.799-0.431l-0.83-0.406l-0.863-0.385l-0.892-0.356l-0.919-0.331l-0.945-0.304
		l-0.972-0.276l-0.995-0.246l-1.018-0.217l-1.04-0.186l-1.059-0.155l-1.077-0.121l-1.094-0.088l-1.109-0.053l-1.125-0.019
		l-1.152,0.02l-1.137,0.056l-1.121,0.092l-1.103,0.126l-1.083,0.164l-1.063,0.195l-1.04,0.228l-1.016,0.258l-0.99,0.29l-0.963,0.319
		l-0.935,0.348l-0.907,0.374l-0.874,0.402l-0.842,0.426l-0.807,0.45l-0.771,0.473l-0.734,0.497l-0.696,0.517l-0.654,0.538
		l-0.615,0.555l-0.57,0.573l-0.528,0.59l-0.482,0.604l-0.436,0.618l-0.387,0.633l-0.34,0.645l-0.29,0.656l-0.24,0.665l-0.188,0.677
		l-0.136,0.685l-0.082,0.696l-0.028,0.701l0.028,0.704l0.082,0.693l0.136,0.688l0.188,0.676l0.24,0.666l0.29,0.656l0.34,0.645
		l0.387,0.631l0.437,0.621l0.481,0.604l0.527,0.589l0.57,0.573l0.615,0.556l0.654,0.537l0.696,0.518l0.732,0.494l0.773,0.474
		l0.806,0.451l0.842,0.427l0.874,0.399l0.907,0.374l0.935,0.349l0.963,0.317l0.99,0.289l1.016,0.26l1.04,0.228l1.063,0.196
		l1.083,0.16l1.103,0.13l1.12,0.091l1.139,0.054l1.152,0.02l1.154-0.02l1.138-0.054l1.123-0.093l1.102-0.128l1.085-0.162
		l1.062-0.196l1.039-0.229l1.018-0.261l0.992-0.288l0.962-0.32l0.937-0.348l0.906-0.376l0.875-0.401l0.841-0.427l0.807-0.451
		l0.735-0.454l0.673-0.584l0.662-0.624l0.623-0.635l0.579-0.645l0.538-0.655l0.493-0.664l0.449-0.672l0.405-0.68l0.36-0.687
		l0.311-0.692l0.267-0.699l0.218-0.708l0.173-0.711l0.123-0.719l0.074-0.724l0.024-0.727l-0.052-1.069l-0.159-1.051l-0.26-1.038
		l-0.362-1.027l-0.461-1.011l-0.558-0.998L104.667,165.723L104.667,165.723z M74.546,192.859l-1.263-0.084l-1.247-0.117l-1.23-0.148
		l-1.214-0.182l-1.193-0.211l-1.173-0.24l-1.153-0.271l-1.13-0.297l-1.108-0.327l-1.083-0.354l-1.056-0.38l-1.031-0.407
		l-1.003-0.432l-0.976-0.458l-0.944-0.479l-0.913-0.504l-0.882-0.527l-0.849-0.549l-0.814-0.57l-0.78-0.591l-0.742-0.611
		l-0.707-0.633l-0.664-0.652l-0.627-0.667l-0.584-0.69l-0.543-0.706l-0.431-0.624v11.209l0.37,0.071l0.918,0.164l0.928,0.154
		l0.935,0.144l0.947,0.134l0.954,0.121l0.961,0.111l0.97,0.101l0.978,0.089l0.986,0.077l0.993,0.064l1,0.054l1.006,0.044
		l1.012,0.029l1.02,0.018l1.023,0.007l0.738-0.003l0.733-0.009l0.732-0.016l0.728-0.022l0.724-0.028l0.721-0.033l0.718-0.042
		l0.713-0.047l0.713-0.051l0.706-0.058l0.703-0.065l0.699-0.071l0.694-0.075l0.69-0.08l0.686-0.088l0.682-0.094l0.308-0.044
		l-0.072-0.002L74.546,192.859L74.546,192.859z"/>
	<path fill-rule="evenodd" clip-rule="evenodd" fill="#0071BB" d="M128.113,188.558V156.9h8.037v10.3l14.262-10.3h13.654
		l-13.144,9.493l12.625,22.165h-10.989l-9.423-16.542l-6.985,5.044v11.497H128.113L128.113,188.558z M179.584,188.558V175.23
		l-14.045-18.33l10.23,0.064l8.077,10.539l8.077-10.539l10.229-0.064l-13.995,18.376v13.281H179.584L179.584,188.558z
		 M204.424,188.558V156.9h12.481l7.278,21.149l7.278-21.149h13.06v31.657h-8.552v-22.336l-7.688,22.336h-8.197l-7.107-20.654v20.654
		H204.424L204.424,188.558z M309.218,156.088c10.888,0,19.767,7.665,19.767,17.063c0,9.4-8.879,17.064-19.767,17.064
		s-19.769-7.664-19.769-17.064C289.449,163.753,298.33,156.088,309.218,156.088L309.218,156.088z M309.218,163.994
		c5.906,0,10.733,4.111,10.733,9.156c0,5.046-4.827,9.157-10.733,9.157c-5.908,0-10.733-4.111-10.733-9.157
		C298.484,168.105,303.31,163.994,309.218,163.994L309.218,163.994z M267.988,156.088c9.133,0,16.85,5.392,19.103,12.676h-9.687
		c-1.828-2.839-5.366-4.77-9.416-4.77c-5.905,0-10.733,4.111-10.733,9.156c0,5.046,4.828,9.157,10.733,9.157
		c4.202,0,7.854-2.082,9.615-5.097h9.584c-2.12,7.449-9.932,13.004-19.199,13.004c-10.887,0-19.767-7.664-19.767-17.064
		C248.222,163.753,257.102,156.088,267.988,156.088L267.988,156.088z"/>
	<path fill-rule="evenodd" clip-rule="evenodd" fill="#EC1C24" d="M64.207,146.177c26.678,0,48.437,11.77,48.437,26.201
		s-21.759,26.201-48.437,26.201c-26.679,0-48.438-11.771-48.438-26.201S37.528,146.177,64.207,146.177L64.207,146.177z
		 M77.114,155.167c9.754,0,18.43,2.984,23.826,7.569c-4.119-2.555-9.708-4.128-15.855-4.128c-12.607,0-22.882,6.622-22.882,14.739
		c0,8.117,10.275,14.739,22.882,14.739c6.307,0,12.028-1.662,16.172-4.336c3.959-3.323,6.244-7.216,6.244-11.372
		c0-12.135-19.449-22.031-43.295-22.031c-23.847,0-43.296,9.896-43.296,22.031c0,5.9,4.602,11.272,12.071,15.232v-26.857
		c4.102-2.403,9.438-4.325,15.554-5.552v13.7C51.931,161.005,63.467,155.167,77.114,155.167L77.114,155.167z M86.007,191.396
		c-2.81,0.558-5.797,0.86-8.893,0.86c-13.647,0-25.184-5.844-28.578-13.738v14.392c4.864,0.967,10.148,1.5,15.671,1.5
		C72.147,194.41,79.598,193.309,86.007,191.396L86.007,191.396z"/>
</g>
</svg>
