<?xml version="1.0" encoding="utf-8"?>
<!-- Generator: Adobe Illustrator 16.0.0, SVG Export Plug-In . SVG Version: 6.00 Build 0)  -->
<!DOCTYPE svg PUBLIC "-//W3C//DTD SVG 1.1//EN" "http://www.w3.org/Graphics/SVG/1.1/DTD/svg11.dtd">
<svg version="1.1" id="Layer_1" xmlns="http://www.w3.org/2000/svg" xmlns:xlink="http://www.w3.org/1999/xlink" x="0px" y="0px"
	 width="345px" height="345px" viewBox="0 0 345 345" enable-background="new 0 0 345 345" xml:space="preserve">
<g>
	<path fill="#FFFFFF" d="M69.075,172.496c0,18.786-14.903,34.017-33.288,34.017c-18.383,0-33.287-15.23-33.287-34.017
		c0-18.782,14.904-34.009,33.287-34.009C54.171,138.487,69.075,153.714,69.075,172.496z"/>
	<path fill="#EC1C24" d="M58.763,173.039c0,13.388-10.692,24.245-23.88,24.245c-13.188,0-23.88-10.857-23.88-24.245
		c0-13.387,10.692-24.241,23.88-24.241C48.071,148.798,58.763,159.652,58.763,173.039z"/>
	<g>
		<path fill="#FFFFFF" d="M48.271,159.475l-25.329,15.014c0,0-3.075,2.714-2.894,4.343c0,0,0.001,1.631-0.904,2.171
			c-0.906,0.54-2.533-0.905-3.618-0.543c-1.086,0.363-7.056,7.779-7.056,7.779s0.541,0.544,3.255,0.18
			c2.714-0.362,5.608-1.266,5.608-1.266s0.723,0.184,1.448-0.541c0.724-0.728,1.087-2.532,2.353-2.716
			c1.266-0.183,2.894,0.543,3.979,0.36c1.085-0.177,27.862-16.099,27.862-16.099s1.808-0.363,1.265-2.171
			c0,0-0.543-1.266-2.171-0.542c-1.628,0.723-25.87,15.196-25.87,15.196s-1.265,0.903-3.075-0.902c0,0-0.182-2.354,2.533-3.983
			c2.714-1.627,24.243-13.387,24.243-13.387s1.989-1.085,1.084-2.714C50.983,159.652,49.717,158.569,48.271,159.475z"/>
		<path fill="#FFFFFF" d="M20.412,159.112l25.329,15.014c0,0,3.075,2.713,2.894,4.342c0,0-0.002,1.632,0.904,2.171
			c0.906,0.543,2.533-0.902,3.618-0.542c1.086,0.362,7.056,7.778,7.056,7.778s-0.542,0.543-3.255,0.181
			c-2.714-0.359-5.608-1.263-5.608-1.263s-0.723,0.18-1.447-0.543c-0.724-0.726-1.087-2.534-2.353-2.714
			c-1.266-0.183-2.895,0.54-3.98,0.359c-1.085-0.18-27.862-16.102-27.862-16.102s-1.808-0.36-1.266-2.171
			c0,0,0.543-1.266,2.171-0.543c1.628,0.726,25.871,15.2,25.871,15.2s1.266,0.902,3.076-0.906c0,0,0.182-2.351-2.533-3.979
			c-2.714-1.628-24.243-13.388-24.243-13.388s-1.989-1.085-1.085-2.714C17.699,159.292,18.965,158.206,20.412,159.112z"/>
		<path fill="#FFFFFF" d="M38.751,192.813l0.415-28.655c0,0-0.689-3.934-2.133-4.611c0,0-1.354-0.83-1.344-1.854
			c0.013-1.031,2.041-1.641,2.292-2.727c0.252-1.085-2.87-9.814-2.87-9.814s-0.726,0.174-1.807,2.611
			c-1.079,2.433-1.801,5.294-1.801,5.294s-0.519,0.509-0.285,1.475c0.233,0.971,1.549,2.193,1.057,3.337
			c-0.493,1.14-1.921,2.123-2.324,3.117c-0.404,0.994-0.804,31.307-0.804,31.307s-0.618,1.684,1.16,2.152
			c0,0,1.328,0.196,1.554-1.524c0.229-1.717,0.541-29.194,0.541-29.194s-0.106-1.509,2.315-2.088c0,0,2.043,1.042,2.016,4.126
			c-0.027,3.081-1.213,26.925-1.213,26.925s-0.11,2.202,1.701,2.281C37.222,194.973,38.767,194.473,38.751,192.813z"/>
	</g>
	<path fill="none" stroke="#EC1C24" stroke-width="3.4534" d="M65.275,172.856c0,16.988-13.568,30.758-30.302,30.758
		c-16.735,0-30.303-13.771-30.303-30.758c0-16.979,13.567-30.752,30.303-30.752C51.707,142.104,65.275,155.876,65.275,172.856z"/>
	<g>
		<polygon fill="#EC1C24" stroke="#FFFFFF" stroke-width="3.8064" points="79.726,142.177 92.607,142.177 99.438,166.769 
			106.075,141.982 119.346,141.982 105.879,182.578 105.879,203.463 92.412,203.463 92.217,183.358 		"/>
		<path fill="#EC1C24" stroke="#FFFFFF" stroke-width="3.8064" d="M145.695,141.787H129.3l-12.296,62.067H129.3l3.123-14.444h10.149
			l3.904,14.248h11.515L145.695,141.787z M134.961,176.918l2.342-16.199l3.123,16.199H134.961z"/>
		<path fill="#EC1C24" stroke="#FFFFFF" stroke-width="3.8064" d="M241.981,141.787h-16.395l-12.297,62.067h12.297l3.123-14.444
			h10.148l3.903,14.248h11.516L241.981,141.787z M231.246,176.918l2.342-16.199l3.123,16.199H231.246z"/>
		<path fill="#EC1C24" stroke="#FFFFFF" stroke-width="3.8064" d="M330.203,141.787H313.81l-12.297,62.067h12.297l3.123-14.444
			h10.148l3.902,14.248H342.5L330.203,141.787z M319.47,176.918l2.342-16.199l3.123,16.199H319.47z"/>
		<polygon fill="#EC1C24" stroke="#FFFFFF" stroke-width="3.8064" points="174.972,203.657 163.261,203.657 163.261,142.177 
			181.022,142.177 185.121,168.135 190.977,142.373 207.371,142.373 207.371,203.072 196.245,203.072 196.245,171.257 
			190.391,203.463 181.022,203.463 174.972,172.039 		"/>
		<polygon fill="#EC1C24" stroke="#FFFFFF" stroke-width="3.8064" points="260.068,142.177 272.949,142.177 272.949,166.769 
			283.686,166.769 283.686,142.373 296.371,142.373 296.371,203.268 283.49,203.268 283.49,178.675 272.949,178.675 
			272.949,203.268 259.873,203.268 		"/>
	</g>
	<g>
		<polygon fill="#EC1C24" points="79.726,142.567 92.607,142.567 99.438,167.16 106.075,142.373 119.346,142.373 105.879,182.969 
			105.879,203.854 92.412,203.854 92.217,183.75 		"/>
		<path fill="#EC1C24" d="M145.695,142.177H129.3l-12.296,62.066H129.3l3.123-14.443h10.149l3.904,14.248h11.515L145.695,142.177z
			 M134.961,177.31l2.342-16.201l3.123,16.201H134.961z"/>
		<path fill="#EC1C24" d="M241.981,142.177h-16.395l-12.297,62.066h12.297l3.123-14.443h10.148l3.903,14.248h11.516L241.981,142.177
			z M231.246,177.31l2.342-16.201l3.123,16.201H231.246z"/>
		<path fill="#EC1C24" d="M330.203,142.177H313.81l-12.297,62.066h12.297l3.123-14.443h10.148l3.902,14.248H342.5L330.203,142.177z
			 M319.47,177.31l2.342-16.201l3.123,16.201H319.47z"/>
		<polygon fill="#EC1C24" points="174.972,204.048 163.261,204.048 163.261,142.567 181.022,142.567 185.121,168.526 
			190.977,142.763 207.371,142.763 207.371,203.463 196.245,203.463 196.245,171.649 190.391,203.854 181.022,203.854 
			174.972,172.429 		"/>
		<polygon fill="#EC1C24" points="260.068,142.567 272.949,142.567 272.949,167.16 283.686,167.16 283.686,142.763 296.371,142.763 
			296.371,203.657 283.49,203.657 283.49,179.065 272.949,179.065 272.949,203.657 259.873,203.657 		"/>
	</g>
</g>
</svg>
