<?xml version="1.0" encoding="utf-8"?>
<!-- Generator: Adobe Illustrator 16.0.0, SVG Export Plug-In . SVG Version: 6.00 Build 0)  -->
<!DOCTYPE svg PUBLIC "-//W3C//DTD SVG 1.1//EN" "http://www.w3.org/Graphics/SVG/1.1/DTD/svg11.dtd">
<svg version="1.1" id="Layer_1" xmlns="http://www.w3.org/2000/svg" xmlns:xlink="http://www.w3.org/1999/xlink" x="0px" y="0px"
	 width="345px" height="345px" viewBox="0 0 345 345" enable-background="new 0 0 345 345" xml:space="preserve">
<path fill="#FF0000" d="M2.5,188.564c1.178-5.604,3.567-10.524,7.913-14.407c4.354-3.888,9.431-6.496,14.786-8.674
	c74.167-30.156,148.462-60.006,222.425-90.651c28.272-11.715,55.79-25.255,83.646-37.974c0.42-0.191,0.774-0.523,1.16-0.79
	c0.32,0,0.639,0,0.958,0c-0.02,0.762,0.176,1.613-0.094,2.275c-3.794,9.296-7.25,18.758-11.599,27.789
	c-4.461,9.265-12.003,15.737-21.691,19.268c-28.771,10.486-57.563,20.922-86.427,31.152C152.917,138.053,92.2,159.4,31.526,180.863
	c-2.683,0.95-5.364,2.154-7.718,3.729c-5.85,3.916-7.125,10.151-3.315,16.053c1.409,2.183,3.274,4.131,5.183,5.919
	c19.064,17.864,38.18,35.673,57.289,53.487c0.514,0.479,1.115,0.864,2.183,1.68c-1.107,0.142-1.459,0.227-1.811,0.227
	c-8.149,0.009-16.299-0.025-24.447,0.036c-1.41,0.012-2.122-0.4-2.594-1.772c-1.454-4.231-4.04-7.737-7.199-10.885
	c-10.527-10.489-20.898-21.139-31.546-31.502c-6.893-6.708-13.291-13.589-15.049-23.516C2.5,192.4,2.5,190.482,2.5,188.564z"/>
<path fill="#FF0000" d="M105.603,308.932c-4.566-0.649-9.186-1.051-13.676-2.041c-2.746-0.606-5.481-1.807-7.896-3.274
	c-11.58-7.046-11.494-23.569,0.052-30.662c4.377-2.689,9.227-3.97,14.259-4.464c8.867-0.872,17.708-0.889,26.258,2.147
	c10.681,3.79,15.822,13.337,12.55,23.439c-2.423,7.485-8.349,11.092-15.477,12.812c-4.462,1.075-9.109,1.388-13.673,2.043
	C107.201,308.932,106.402,308.932,105.603,308.932z M106.838,275.07c-1.217,0.086-2.658,0.11-4.079,0.298
	c-5.136,0.684-8.392,3.364-9.229,8.285c-0.976,5.739-1.435,11.568,4.007,15.721c0.919,0.703,2.114,1.296,3.241,1.426
	c2.985,0.348,6.026,0.739,9.002,0.523c6.543-0.471,9.856-3.727,10.576-10.175c0.245-2.189,0.151-4.483-0.209-6.659
	c-0.943-5.7-4.237-8.617-9.987-9.181C109.129,275.208,108.093,275.159,106.838,275.07z"/>
<path fill="#FF0000" d="M342.5,307.493c-10.933,0-21.866,0-33.014,0c0-1.756,0-3.303,0-5.056c1.171-0.15,2.417-0.29,3.655-0.477
	c1.353-0.201,3.27-0.452,2.848-2.104c-0.392-1.534-1.921-3.892-3.044-3.946c-7.254-0.358-14.542-0.361-21.796-0.001
	c-1.138,0.057-2.652,2.412-3.093,3.959c-0.486,1.713,1.416,1.946,2.766,2.145c1.092,0.159,2.19,0.261,3.397,0.402
	c0,1.655,0,3.213,0,4.882c-8.083,0-16.025,0-24.085,0c0-1.688,0-3.241,0-4.667c0.205-0.179,0.267-0.277,0.321-0.272
	c5.039,0.368,7.686-2.504,9.92-6.629c2.995-5.539,6.532-10.784,9.818-16.17c1.93-3.164,1.258-4.379-2.503-4.704
	c-1.58-0.138-3.152-0.356-4.841-0.551c0-1.69,0-3.242,0-5.068c2.188,0,4.243,0,6.298,0c7.032,0,14.066,0.103,21.094-0.051
	c2.723-0.059,4.473,0.901,5.923,3.161c5.26,8.199,10.898,16.168,15.881,24.529c2.559,4.293,5.878,5.698,10.454,5.345
	C342.5,303.976,342.5,305.735,342.5,307.493z M294.435,288.844c5.169,0,9.883,0,14.961,0c-2.641-4.032-5.064-7.738-7.715-11.787
	C299.174,281.133,296.896,284.84,294.435,288.844z"/>
<path fill="#FF0000" d="M95.065,189.298c-11.285,2.956-22.388,5.869-33.495,8.771c-8.951,2.34-17.914,4.641-26.851,7.028
	c-1.466,0.39-2.571,0.3-3.649-0.865c-1.246-1.348-2.721-2.479-3.976-3.815c-3.674-3.92-2.993-9.072,1.646-11.717
	c1.853-1.057,3.906-1.818,5.941-2.487c80.154-26.373,160.33-52.678,240.462-79.115c10.748-3.545,21.281-7.741,31.916-11.631
	c0.771-0.283,1.554-0.535,2.417-0.832c0.135,0.566,0.294,0.829,0.224,0.993c-4.356,10.078-9.587,19.67-16.44,28.275
	c-5.029,6.313-11.635,10.326-19.441,12.421c-43.908,11.786-87.807,23.6-131.71,35.398c-15.019,4.038-30.045,8.049-45.064,12.088
	C93.816,184.679,93.225,186.155,95.065,189.298z"/>
<path fill="#FF0000" d="M282.163,146.335c-0.304,0.619-0.53,1.292-0.922,1.85c-4.768,6.789-9.369,13.706-14.396,20.297
	c-5.27,6.908-12.815,9.843-21.177,11.437c-39.185,7.46-78.337,15.086-117.501,22.655c-0.313,0.061-0.617,0.165-0.929,0.234
	c-3.23,0.725-3.806,2.341-1.605,5.375c-4.063,0.799-7.982,1.589-11.909,2.339c-20.061,3.83-40.126,7.632-60.179,11.501
	c-1.868,0.36-3.23,0.142-4.68-1.285c-3.977-3.912-8.152-7.623-12.638-11.772c82.099-21.151,163.794-42.2,245.489-63.247
	C281.865,145.924,282.015,146.13,282.163,146.335z"/>
<path fill="#FF0000" d="M160.708,230.053c-6.832,0.866-13.619,1.728-20.404,2.588c-15.92,2.016-31.84,4.031-47.759,6.048
	c-6.574,0.834-13.144,1.702-19.725,2.469c-0.776,0.09-1.842-0.106-2.388-0.599c-5.164-4.652-10.246-9.396-15.342-14.126
	c-0.154-0.141-0.209-0.389-0.397-0.761c65.471-12.279,130.828-24.535,196.778-36.904c-0.644,1.08-0.872,1.66-1.265,2.096
	c-5.121,5.705-10.081,11.569-15.453,17.028c-6.277,6.377-14.413,8.735-23.089,9.919c-16.055,2.188-32.074,4.626-48.102,7.005
	C159.782,225.378,159.248,226.41,160.708,230.053z"/>
<path fill="#FF0000" d="M212.591,261.967c-1.451,0-2.246,0-3.04,0c-37.854,0-75.707-0.012-113.56,0.033
	c-1.799,0.002-3.129-0.468-4.445-1.723c-5.248-5.004-10.603-9.896-16.332-15.214c3.377-0.427,6.251-0.816,9.13-1.151
	c17.119-1.986,34.24-3.953,51.357-5.943c10.224-1.188,20.44-2.427,30.667-3.575c0.955-0.106,2.138-0.002,2.923,0.482
	c14.064,8.661,28.083,17.395,42.109,26.119C211.648,261.148,211.858,261.365,212.591,261.967z"/>
<path fill="#FF0000" d="M4.439,274.299c0-1.758,0-3.25,0-4.903c10.061,0,20.002,0,30.138,0c0,1.604,0,3.147,0,4.889
	c-1.436,0.188-2.837,0.429-4.248,0.543c-2.01,0.162-3.091,1.214-3.156,3.199c-0.066,2.061-0.016,4.123-0.016,6.343
	c7.965,0,15.738,0,23.758,0c0-2.215,0.08-4.352-0.024-6.479c-0.091-1.853-1.17-2.878-3.059-3.048
	c-1.426-0.129-2.845-0.339-4.402-0.529c0-1.635,0-3.196,0-4.918c10.06,0,20.079,0,30.248,0c0,1.626,0,3.181,0,4.898
	c-1.39,0.181-2.716,0.438-4.053,0.509c-2.342,0.127-3.482,1.246-3.471,3.627c0.03,6.633,0.021,13.265,0.006,19.897
	c-0.005,2.246,1.054,3.38,3.309,3.519c1.351,0.083,2.689,0.341,4.194,0.541c0,1.572,0,3.13,0,4.869c-10.009,0-20.025,0-30.212,0
	c0-1.537,0-3.091,0-4.871c1.426-0.19,2.899-0.444,4.385-0.567c2.053-0.169,3.011-1.337,3.081-3.274
	c0.07-1.991,0.015-3.987,0.015-6.205c-7.874,0-15.649,0-23.609,0c0,2.384-0.212,4.852,0.116,7.244
	c0.114,0.826,1.467,1.782,2.447,2.119c1.4,0.48,2.977,0.446,4.676,0.657c0,1.586,0,3.138,0,4.885c-9.969,0-19.972,0-30.099,0
	c0-1.631,0-3.185,0-4.851c1.531-0.205,2.937-0.456,4.354-0.567c1.912-0.151,3.037-1.162,3.057-3.02
	c0.071-6.948,0.074-13.899,0.015-20.847c-0.017-1.981-1.218-3.002-3.22-3.14C7.324,274.729,5.99,274.496,4.439,274.299z"/>
<path fill="#FF0000" d="M164.026,302.386c0,1.707,0,3.259,0,4.929c-8.034,0-15.922,0-24.017,0c0-1.601,0-3.211,0-4.932
	c1.541-0.199,3.032-0.417,4.529-0.578c1.905-0.205,2.894-1.253,2.898-3.149c0.018-6.872,0.015-13.746,0.003-20.618
	c-0.004-2.046-1.137-3.025-3.117-3.205c-1.425-0.13-2.843-0.347-4.384-0.54c0-1.657,0-3.214,0-5.058c1.063,0,1.996,0,2.928,0
	c7.512,0,15.026,0.053,22.538-0.028c2.292-0.026,3.895,0.765,5.274,2.613c5.827,7.813,11.754,15.552,17.649,23.313
	c0.474,0.624,0.969,1.233,1.776,2.261c0.134-1.011,0.269-1.565,0.271-2.12c0.015-5.195,0.023-10.391,0.004-15.584
	c-0.015-3.913-0.562-4.488-4.45-4.952c-0.949-0.111-1.892-0.289-3.023-0.465c0-1.56,0-3.114,0-4.854c7.942,0,15.882,0,24,0
	c0,1.576,0,3.128,0,4.865c-1.277,0.177-2.522,0.379-3.776,0.514c-3.02,0.326-3.721,0.996-3.737,4.1
	c-0.043,8.471-0.019,16.943-0.021,25.414c0,0.944,0,1.889,0,3.045c-6.771,0-13.294,0.121-19.807-0.112
	c-1.142-0.04-2.479-1.371-3.302-2.434c-5.82-7.519-11.53-15.12-17.276-22.696c-0.619-0.814-1.246-1.625-2.208-2.88
	c-0.136,1.046-0.268,1.597-0.269,2.146c-0.018,5.035-0.014,10.07-0.01,15.105c0.005,4.546,0.28,4.868,4.66,5.494
	C162.031,302.104,162.902,302.227,164.026,302.386z"/>
<path fill="#FF0000" d="M209.741,307.294c0-1.707,0-3.207,0-4.889c1.453-0.2,2.849-0.484,4.255-0.567
	c2.157-0.126,3.266-1.287,3.282-3.335c0.058-6.864,0.049-13.731,0.009-20.595c-0.012-1.851-0.97-2.957-2.928-3.105
	c-1.337-0.1-2.663-0.328-4.093-0.512c0-1.688,0-3.24,0-4.927c0.826-0.048,1.525-0.124,2.225-0.124
	c11.896-0.007,23.795-0.216,35.681,0.104c4.47,0.121,9.087,0.94,13.316,2.382c7.45,2.539,11.355,8.744,11.372,16.573
	c0.017,7.842-3.864,13.967-11.302,16.636c-3.766,1.351-7.888,2.27-11.873,2.362c-12.927,0.298-25.863,0.123-38.797,0.125
	C210.582,307.423,210.275,307.355,209.741,307.294z M232.297,299.928c5.485,0,10.669,0.192,15.832-0.064
	c3.581-0.18,6.092-2.486,6.526-5.98c0.455-3.667,0.391-7.463-0.004-11.144c-0.317-2.974-2.371-5.377-5.405-5.688
	c-5.589-0.574-11.236-0.594-16.949-0.85C232.297,284.508,232.297,292.223,232.297,299.928z"/>
</svg>
