<?xml version="1.0" encoding="utf-8"?>
<!-- Generator: Adobe Illustrator 16.0.0, SVG Export Plug-In . SVG Version: 6.00 Build 0)  -->
<!DOCTYPE svg PUBLIC "-//W3C//DTD SVG 1.1//EN" "http://www.w3.org/Graphics/SVG/1.1/DTD/svg11.dtd">
<svg version="1.1" id="Layer_1" xmlns="http://www.w3.org/2000/svg" xmlns:xlink="http://www.w3.org/1999/xlink" x="0px" y="0px"
	 width="345px" height="345px" viewBox="0 0 345 345" enable-background="new 0 0 345 345" xml:space="preserve">
<g id="layer101">
	<path fill="#F90000" d="M127.354,221.666c-1.062-0.118-2.626-0.177-3.482-0.089c-1.888,0.236-8.35-0.147-8.173-0.442
		c0.088-0.147,0.708-0.324,1.387-0.442c1.15-0.207,1.711-0.413,2.892-1.092c0.236-0.118,0.737-0.354,1.121-0.531
		c0.354-0.147,0.649-0.442,0.649-0.649c0-0.235,0.856-1.298,1.918-2.36c1.062-1.092,1.918-2.124,1.918-2.271
		c0-0.148,0.413-0.561,0.885-0.915c0.501-0.354,0.885-0.797,0.885-0.974c0-0.207,0.915-1.357,2.065-2.567
		c1.121-1.209,2.419-2.655,2.862-3.187c0.442-0.561,1.269-1.445,1.8-1.977c0.501-0.561,0.944-1.092,0.944-1.239
		c0-0.236,0.354-0.62,2.774-3.069c0.59-0.561,1.062-1.15,1.062-1.298s0.443-0.679,0.974-1.21c0.502-0.531,1.328-1.446,1.8-2.036
		c0.855-1.063,0.855-1.092,0.383-1.918c-0.266-0.442-0.501-1.062-0.501-1.387c0-0.295-0.207-0.797-0.442-1.092
		c-0.236-0.324-0.443-0.826-0.443-1.121s-0.177-0.855-0.413-1.21c-0.207-0.354-0.708-1.563-1.062-2.715
		c-0.384-1.121-0.856-2.419-1.063-2.862c-0.236-0.412-0.413-1.003-0.413-1.327c0-0.295-0.207-0.797-0.442-1.092
		c-0.236-0.324-0.443-0.855-0.443-1.181c0-0.354-0.207-0.885-0.442-1.18c-0.236-0.325-0.443-0.826-0.443-1.121
		c0-0.296-0.177-0.855-0.413-1.21c-0.206-0.354-0.708-1.563-1.062-2.715c-0.384-1.122-0.856-2.42-1.062-2.862
		c-0.236-0.413-0.414-1.003-0.414-1.328c0-0.295-0.207-0.797-0.442-1.092c-0.236-0.325-0.442-0.797-0.442-1.063
		s-0.266-1.003-0.59-1.623l-0.59-1.18l6.816-0.089c3.777-0.029,6.905-0.029,6.964,0.059c0.059,0.059,0.177,0.531,0.236,1.063
		c0.059,0.531,0.266,1.121,0.443,1.298c0.147,0.207,0.354,0.885,0.442,1.476c0.059,0.62,0.266,1.269,0.413,1.475
		c0.295,0.354,1.505,4.603,1.682,5.902c0.059,0.442,0.236,1.003,0.414,1.181c0.147,0.206,0.354,0.826,0.413,1.386
		c0.088,0.562,0.324,1.388,0.59,1.859c0.236,0.473,0.531,1.416,0.619,2.065c0.177,1.181,0.915,3.128,1.18,3.128
		c0.089,0,0.325-0.354,0.561-0.797c0.236-0.472,1.033-1.445,1.771-2.242c0.737-0.768,1.357-1.505,1.357-1.623
		s0.354-0.59,0.826-1.033c1.977-1.947,2.419-2.448,2.419-2.773c0-0.177,0.325-0.531,0.738-0.797
		c0.413-0.265,0.738-0.648,0.738-0.855c0-0.206,0.354-0.737,0.826-1.15c0.885-0.886,1.623-1.741,4.219-4.958
		c0.974-1.21,2.036-2.36,2.36-2.597c0.295-0.207,0.561-0.561,0.561-0.767c0-0.974,0.767-1.062,7.997-1.003l7.17,0.088l-1.534,1.623
		c-0.826,0.885-2.036,2.213-2.686,2.951c-0.648,0.738-1.771,2.006-2.508,2.803c-2.655,2.98-3.895,4.338-5.105,5.577
		c-0.708,0.708-1.269,1.416-1.269,1.563s-0.62,0.915-1.387,1.652c-0.797,0.768-1.948,1.978-2.597,2.715
		c-2.508,2.833-3.895,4.338-5.075,5.577c-0.708,0.708-1.269,1.387-1.269,1.534s-0.531,0.797-1.181,1.445
		c-2.773,2.774-4.131,4.249-4.131,4.485c0,0.118-1.062,1.357-2.331,2.744c-1.298,1.387-2.921,3.157-3.629,3.954
		c-0.708,0.767-1.888,2.036-2.655,2.803c-0.797,0.768-1.417,1.505-1.417,1.682c0,0.147-1.121,1.476-2.479,2.922
		c-1.387,1.476-3.068,3.305-3.777,4.071c-0.708,0.797-1.888,2.096-2.655,2.922c-0.797,0.826-1.417,1.593-1.417,1.682
		s-0.649,0.797-1.446,1.593C130.541,222.108,130.541,222.108,127.354,221.666z"/>
	<path fill="#F90000" d="M123.046,191.717c-0.442-0.944-1.033-2.242-1.328-2.892c-1.357-3.099-1.889-4.278-2.803-6.196
		c-0.531-1.121-1.741-3.63-2.626-5.548l-1.652-3.481l-2.302,2.302c-5.045,5.045-9.088,8.94-9.294,8.94
		c-0.118,0-1.564,1.357-3.216,3.01c-5.104,5.104-3.718,4.485-10.504,4.603l-5.901,0.118l2.065-4.102
		c1.151-2.242,2.42-4.721,2.833-5.547c0.442-0.797,1.298-2.537,1.947-3.836c0.649-1.299,1.357-2.567,1.564-2.832
		c0.236-0.236,0.413-0.62,0.413-0.797c0-0.178,0.324-0.826,0.738-1.417c0.413-0.59,0.737-1.298,0.737-1.564
		c0-0.295,0.118-0.62,0.295-0.796c0.147-0.147,0.944-1.593,1.77-3.216c0.826-1.623,1.977-3.865,2.567-5.016
		c0.59-1.121,1.8-3.511,2.685-5.311c0.885-1.771,1.771-3.453,1.977-3.688s1.298-2.36,2.449-4.721c1.151-2.36,2.243-4.514,2.42-4.78
		c0.678-1.181,0.885-1.594,1.062-2.006c0.472-1.122,3.482-6.993,3.806-7.377c0.177-0.236,0.708-1.239,1.181-2.213
		c1.623-3.482,4.101-8.262,4.691-9.059l0.59-0.826h5.37h5.371l-0.531,1.505c-0.325,0.826-0.738,1.741-0.974,2.006
		c-0.207,0.266-0.62,1.003-0.915,1.652c-0.324,0.649-0.679,1.387-0.796,1.623c-0.147,0.236-0.531,1.033-0.885,1.771
		c-0.325,0.737-0.738,1.534-0.885,1.77c-0.147,0.236-0.354,0.649-0.442,0.885c-0.089,0.236-0.266,0.649-0.413,0.885
		c-0.118,0.236-1.977,3.895-4.131,8.114c-3.777,7.436-5.459,10.741-5.931,11.655c-1.062,1.947-4.426,8.911-4.337,9
		c0.118,0.118,2.125-1.859,4.574-4.544c0.944-1.033,2.449-2.656,3.334-3.57c0.885-0.944,2.479-2.685,3.541-3.866
		c4.869-5.37,8.498-9.294,10.209-11.006c0.856-0.826,1.564-1.652,1.623-1.859c0.059-0.177,1.652-1.977,3.511-3.954
		c1.859-2.006,4.131-4.426,5.016-5.37c0.885-0.974,2.301-2.449,3.098-3.275c0.826-0.826,1.711-1.859,2.006-2.302l0.502-0.826h8.055
		l8.026,0.03l-1.83,0.796c-1.918,0.856-4.219,2.921-8.646,7.76c-3.216,3.512-5.842,6.314-8.38,8.882
		c-1.239,1.269-2.242,2.39-2.242,2.508c0,0.207-2.361,2.685-6.197,6.521c-0.885,0.885-1.829,1.918-2.065,2.302
		c-0.413,0.59-7.141,7.819-9.206,9.855c-0.679,0.679-0.767,0.915-0.531,1.8c0.324,1.21,1.151,3.452,2.006,5.37
		c0.354,0.797,0.649,1.623,0.649,1.83c0,0.236,0.325,1.033,0.738,1.8c0.413,0.768,0.738,1.564,0.738,1.8
		c0,0.207,0.118,0.62,0.266,0.915c0.649,1.181,1.505,3.216,1.505,3.541c0,0.206,0.118,0.59,0.266,0.885
		c0.649,1.181,1.504,3.217,1.504,3.541c0,0.354,0.029,0.473,1.151,2.597c0.325,0.679,0.62,1.387,0.62,1.593
		c0,0.207,0.413,1.21,0.915,2.272c0.502,1.033,0.827,1.978,0.738,2.065c-0.088,0.089-1.534,0.236-3.187,0.295
		c-5.371,0.207-6.551,0.295-7.377,0.502C123.872,193.458,123.784,193.369,123.046,191.717z"/>
	<path fill="#F90000" d="M19.921,192.956c-0.089-0.06-1.623-0.177-3.452-0.266c-1.83-0.089-3.482-0.236-3.629-0.354
		c-0.148-0.089-0.797-0.236-1.387-0.296c-2.184-0.266-2.597-0.324-3.6-0.561c-0.561-0.118-1.18-0.354-1.387-0.502
		c-0.207-0.147-0.472-0.206-0.62-0.117c-0.118,0.059-0.767,0-1.417-0.147c-1.534-0.384-2.449-0.591-3.452-0.679
		c-1.328-0.148-1.298-0.473,0.059-1.623c1.18-0.974,4.691-4.515,6.609-6.64c0.442-0.501,2.803-2.95,5.223-5.399
		c3.157-3.245,4.603-4.515,5.075-4.515c0.383,0,1.209,0.325,1.859,0.738c0.649,0.384,1.505,0.856,1.918,1.062
		c0.413,0.178,0.944,0.443,1.18,0.591s0.767,0.413,1.18,0.59s1.417,0.62,2.213,1.003c0.826,0.384,1.8,0.768,2.213,0.886
		s1.18,0.472,1.711,0.797c0.531,0.324,1.063,0.53,1.151,0.413c0.088-0.089,0.531,0.029,0.944,0.235
		c0.413,0.236,2.036,0.768,3.57,1.21c1.534,0.442,2.921,0.944,3.098,1.063c0.147,0.147,0.62,0.266,1.033,0.266
		s1.534,0.266,2.449,0.59c0.944,0.324,1.829,0.531,1.947,0.472c0.147-0.088,0.679-0.029,1.239,0.147
		c1.298,0.414,2.184,0.591,3.806,0.709c0.738,0.059,1.8,0.206,2.361,0.324c2.567,0.531,11.419,0.855,16.229,0.59
		c1.977-0.088,3.718-0.648,4.337-1.387c0.649-0.796,0.679-2.065,0.088-2.95c-0.324-0.442-0.59-0.885-0.59-1.003
		c0-0.236-2.626-2.774-4.515-4.367c-0.62-0.502-1.593-1.387-2.125-1.889c-0.561-0.531-1.121-0.974-1.298-0.974
		c-0.177,0-0.531-0.324-0.796-0.737c-0.266-0.384-0.708-0.797-0.974-0.885c-0.265-0.088-1.269-0.885-2.213-1.771
		c-0.915-0.885-1.8-1.623-1.888-1.623c-0.118,0-0.915-0.649-1.771-1.475c-0.856-0.797-1.623-1.476-1.741-1.476
		c-0.089,0-0.472-0.295-0.856-0.649c-0.384-0.384-1.18-1.062-1.77-1.564c-4.456-3.777-9.62-8.527-12.157-11.242
		c-1.357-1.446-2.833-3.039-3.334-3.511c-0.472-0.502-0.855-1.033-0.855-1.24c0-0.206-0.266-0.501-0.59-0.678
		c-0.325-0.177-0.59-0.502-0.59-0.768c0-0.236-0.207-0.501-0.442-0.59c-0.236-0.118-0.442-0.384-0.442-0.59
		c0-0.236-0.207-0.501-0.443-0.59s-0.501-0.472-0.62-0.797c-0.088-0.354-0.354-0.855-0.531-1.092
		c-0.708-0.885-1.121-2.744-0.796-3.6c0.177-0.472,0.442-0.826,0.62-0.826c0.177,0,0.708-0.354,1.15-0.797
		c1.033-1.003,4.928-3.157,8.586-4.721c0.561-0.266,1.505-0.708,2.095-1.003c0.59-0.325,1.357-0.561,1.652-0.561
		c0.325,0,1.003-0.207,1.505-0.472c0.531-0.236,1.063-0.384,1.239-0.266c0.147,0.088,0.472,0.088,0.649-0.029
		c0.207-0.147,0.649-0.266,0.974-0.325c0.826-0.118,1.357-0.236,2.213-0.501c0.413-0.118,1.328-0.266,2.065-0.325
		c1.475-0.118,2.419-0.266,3.541-0.561c0.414-0.089,1.594-0.266,2.656-0.325c1.062-0.088,2.331-0.207,2.803-0.266
		c0.501-0.059,1.888-0.236,3.098-0.413c1.209-0.147,2.538-0.295,2.951-0.295c0.855,0,2.567-0.177,6.491-0.62
		c1.535-0.177,3.187-0.325,3.688-0.325c0.472,0.03,1.947-0.059,3.246-0.177c2.803-0.266,15.993-0.295,18.737-0.03
		c1.062,0.089,3.098,0.236,4.544,0.325c1.446,0.118,2.744,0.266,2.892,0.354c0.295,0.177,1.888,0.413,3.393,0.501
		c0.502,0.03,1.003,0.147,1.122,0.236c0.088,0.118-0.561,0.855-1.446,1.623c-0.915,0.797-1.652,1.594-1.652,1.8
		s-0.472,0.708-1.033,1.15c-0.561,0.413-1.033,0.944-1.033,1.181c0,0.206-0.325,0.62-0.738,0.885
		c-0.413,0.266-0.738,0.649-0.738,0.856s-0.354,0.59-0.767,0.885c-0.413,0.266-0.679,0.561-0.59,0.649
		c0.177,0.177-1.24,2.184-1.8,2.538c-0.207,0.118-0.383,0.413-0.383,0.62c0,0.561-6.668,7.259-7.2,7.259
		c-0.236,0-0.501-0.118-0.62-0.266c-0.177-0.325-2.567-1.476-4.544-2.213c-0.708-0.266-1.888-0.826-2.655-1.21
		c-0.738-0.413-1.564-0.738-1.859-0.738c-0.266,0-0.59-0.147-0.679-0.324c-0.118-0.177-0.383-0.236-0.59-0.148
		c-0.207,0.059-0.649-0.059-1.003-0.295c-0.325-0.236-1.063-0.501-1.652-0.561c-0.561-0.088-1.269-0.266-1.564-0.413
		c-0.62-0.325-4.219-1.18-5.783-1.387c-0.649-0.088-1.417-0.295-1.711-0.443c-0.295-0.177-0.679-0.207-0.855-0.118
		c-0.147,0.118-0.443,0.059-0.649-0.089c-0.207-0.177-0.678-0.324-1.092-0.324c-1.623-0.059-2.301-0.118-4.573-0.384
		c-2.98-0.384-12.924-0.531-14.311-0.207c-0.561,0.118-2.036,0.325-3.246,0.413c-2.331,0.147-3.422,0.295-4.869,0.59
		c-0.472,0.088-1.151,0.207-1.475,0.207c-0.325,0.029-1.003,0.354-1.535,0.738c-1.062,0.767-1.033,1.239,0.118,2.419
		c0.384,0.383,0.679,0.826,0.679,0.974c0,0.295,2.833,3.334,4.869,5.223c0.826,0.737,2.36,2.213,3.452,3.275
		c1.092,1.063,2.744,2.597,3.659,3.394c2.626,2.331,4.81,4.337,6.196,5.695c0.708,0.679,1.387,1.239,1.505,1.239
		c0.118,0,1.239,0.915,2.449,2.036c3.394,3.128,4.072,3.718,6.787,5.96c1.387,1.151,2.774,2.39,3.098,2.803
		c0.354,0.383,0.738,0.708,0.856,0.708c0.295,0,0.885,0.531,3.363,3.01c2.508,2.537,3.305,3.393,3.305,3.57
		c0,0.118,0.324,0.679,0.737,1.298c0.649,0.944,0.738,1.328,0.62,2.715c-0.088,0.915-0.147,1.682-0.147,1.74
		c-0.059,0.296-3.009,3.01-3.246,3.01c-0.177,0-0.767,0.325-1.357,0.709c-0.59,0.413-1.682,0.943-2.449,1.239
		c-0.768,0.266-1.8,0.648-2.302,0.885c-1.918,0.826-8.055,2.213-9.973,2.213c-0.325,0-0.796,0.118-1.063,0.266
		c-0.295,0.147-1.563,0.354-2.833,0.472c-1.298,0.089-2.714,0.236-3.216,0.266c-0.472,0.06-2.213,0.236-3.835,0.414
		C48.837,192.809,20.157,193.222,19.921,192.956z"/>
	<path fill="#F90000" d="M169.667,190.005c0.236-0.678,2.508-3.953,3.157-4.603c0.325-0.324,0.562-0.737,0.562-0.944
		c0-0.236,0.266-0.649,0.59-0.944s0.59-0.679,0.59-0.855c0.029-0.177,0.413-0.797,0.886-1.357c0.501-0.561,0.885-1.15,0.885-1.328
		c0.029-0.147,0.413-0.767,0.885-1.327c0.502-0.561,0.886-1.151,0.886-1.357c0-0.177,0.354-0.708,0.767-1.15
		c0.414-0.443,0.886-1.122,1.004-1.505c0.147-0.384,1.239-2.125,2.419-3.836c1.181-1.741,2.391-3.57,2.686-4.072
		c0.324-0.502,0.797-1.18,1.121-1.535c0.295-0.325,0.561-0.737,0.561-0.915c0-0.147,0.266-0.531,0.59-0.826
		c0.325-0.295,0.591-0.649,0.591-0.797s0.383-0.767,0.855-1.357c0.472-0.59,0.944-1.387,1.063-1.741l0.177-0.679h-9.767h-9.767
		l0.354-0.649c0.531-0.974,2.627-3.6,3.099-3.865c0.236-0.118,0.413-0.413,0.413-0.649c0-0.236,0.266-0.561,0.59-0.737
		c0.325-0.177,0.591-0.472,0.591-0.679s0.501-0.885,1.092-1.535c0.619-0.649,1.239-1.446,1.416-1.77
		c0.295-0.561,0.737-0.561,22.514-0.59c12.186,0,22.188,0.029,22.188,0.059c0,0.295-1.563,3.039-1.918,3.334
		c-0.236,0.207-0.442,0.502-0.442,0.679c0,0.177-0.266,0.59-0.561,0.915c-0.325,0.354-0.944,1.357-1.417,2.243
		c-1.475,2.744-1.918,2.862-9.943,2.921c-3.718,0.029-6.993,0.177-7.259,0.324c-0.295,0.148-0.767,0.768-1.062,1.357
		c-1.033,2.006-1.446,2.656-2.243,3.718c-0.472,0.561-0.826,1.151-0.826,1.328c0,0.177-0.472,0.885-1.032,1.593
		s-1.033,1.446-1.033,1.652c0,0.177-0.324,0.738-0.737,1.209c-0.413,0.502-0.737,1.033-0.737,1.18c0,0.177-0.296,0.679-0.679,1.151
		c-0.384,0.443-0.768,1.033-0.856,1.298c-0.088,0.236-0.679,1.239-1.327,2.184c-0.62,0.915-1.299,2.036-1.535,2.479
		c-0.206,0.413-0.914,1.446-1.533,2.272c-0.649,0.826-1.151,1.593-1.151,1.711s-0.324,0.649-0.737,1.181s-0.738,1.063-0.738,1.181
		c0,0.117-0.324,0.648-0.737,1.18s-0.737,1.063-0.737,1.181c0,0.147-0.473,1.032-1.063,1.977l-1.092,1.741h-5.872
		C170.227,190.448,169.519,190.389,169.667,190.005z"/>
	<path fill="#F90000" d="M198.583,189.739c-0.089-0.206,0.177-0.767,0.59-1.209c0.413-0.443,0.768-0.974,0.768-1.151
		c0-0.177,0.472-0.855,1.032-1.476c0.561-0.648,1.033-1.298,1.033-1.416c0-0.295,1.239-2.006,2.301-3.127
		c0.354-0.414,0.649-0.856,0.649-1.033c0-0.324,1.859-2.892,2.862-3.983c0.384-0.413,0.679-0.915,0.679-1.092
		c0-0.206,0.324-0.679,0.737-1.063c0.384-0.384,0.738-0.796,0.738-0.914s0.324-0.561,0.737-1.004
		c0.413-0.442,0.737-0.915,0.737-1.062c0-0.384,2.686-4.161,3.158-4.456c0.206-0.118,0.383-0.413,0.383-0.62
		s0.295-0.708,0.679-1.092c0.354-0.383,0.855-1.062,1.063-1.505c0.236-0.472,0.531-0.826,0.649-0.826
		c0.147,0,0.472-0.472,0.737-1.033s0.797-1.328,1.18-1.711c0.385-0.354,0.709-0.767,0.709-0.944c0-0.148,0.472-0.826,1.032-1.446
		c0.561-0.649,1.033-1.328,1.033-1.535c0-0.177,0.324-0.649,0.737-1.033c0.384-0.383,0.738-0.826,0.738-0.974
		c0-0.354,2.095-3.216,2.566-3.511c0.207-0.118,0.384-0.413,0.384-0.62s0.295-0.708,0.679-1.092s0.768-0.944,0.885-1.21
		c0.178-0.501,1.269-0.531,17.173-0.531c9.324,0,16.967,0.088,16.967,0.177s-0.591,0.413-1.299,0.708
		c-0.708,0.324-1.829,1.209-2.537,1.977c-0.679,0.797-1.505,1.711-1.8,2.036c-0.295,0.354-0.561,0.738-0.561,0.826
		c0,0.413-3.335,3.423-4.22,3.865c-0.768,0.354-2.803,0.443-11.124,0.502l-10.15,0.088l-1.121,1.623
		c-0.619,0.885-1.387,1.918-1.711,2.243c-0.325,0.354-0.591,0.738-0.591,0.855c0,0.118-0.266,0.59-0.619,1.063l-0.59,0.855h10.032
		c6.521,0,10.062,0.118,10.062,0.295c0,0.177-0.118,0.295-0.295,0.295c-0.148,0-0.473,0.442-0.738,1.003
		c-0.266,0.561-0.679,1.092-0.914,1.181c-0.236,0.088-0.414,0.295-0.414,0.472c0,0.442-2.626,4.131-3.393,4.78
		c-0.531,0.472-1.534,0.531-10.593,0.501h-10.003l-0.442,0.886c-0.236,0.501-0.531,0.915-0.679,0.915
		c-0.118,0-0.473,0.472-0.737,1.032c-0.266,0.561-0.797,1.328-1.181,1.711c-0.384,0.354-0.708,0.768-0.708,0.915
		c0,0.177-0.236,0.561-0.562,0.886c-0.295,0.354-0.648,0.914-0.767,1.298l-0.177,0.649h10.799h10.8l-0.591,0.855
		c-0.354,0.472-0.619,0.944-0.619,1.033c0,0.088-0.295,0.472-0.679,0.885s-1.003,1.328-1.357,2.065
		c-0.384,0.738-0.974,1.623-1.328,2.007c-0.324,0.354-0.825,1.062-1.091,1.563l-0.473,0.885l-15.55,0.089
		C201.238,190.153,198.73,190.094,198.583,189.739z"/>
	<path fill="#F90000" d="M233.224,189.031c0.531-0.442,1.741-1.563,2.655-2.479c0.944-0.944,1.83-1.711,1.948-1.711
		c0.117,0,0.914-0.708,1.8-1.534c0.855-0.855,2.36-2.302,3.334-3.187c4.662-4.22,5.458-4.957,6.934-6.345
		c0.886-0.796,2.449-2.242,3.481-3.216c1.033-0.944,2.627-2.39,3.541-3.246c0.915-0.826,2.567-2.301,3.659-3.275
		c1.092-0.974,2.537-2.302,3.216-2.98c0.649-0.679,2.951-2.773,5.046-4.662c2.125-1.918,5.017-4.603,6.462-5.96l2.655-2.479h6.875
		c6.374,0,6.875,0.029,6.875,0.531c0,0.679-1.711,5.725-2.095,6.108c-0.147,0.147-0.266,0.561-0.266,0.915
		c0,0.383-0.118,0.737-0.266,0.855c-0.147,0.088-0.442,0.885-0.619,1.771s-0.473,1.682-0.62,1.77
		c-0.147,0.118-0.266,0.443-0.266,0.797c0,0.325-0.177,1.003-0.413,1.505c-0.648,1.505-0.855,2.095-0.914,2.567
		c-0.089,0.738-0.768,2.656-1.476,4.278c-0.384,0.826-1.033,2.686-1.476,4.131c-0.442,1.476-0.914,2.892-1.062,3.157
		c-0.147,0.295-0.266,0.768-0.266,1.033c0,0.295-0.207,0.914-0.443,1.387c-0.235,0.442-0.442,1.032-0.442,1.269
		s-0.177,0.855-0.413,1.357c-0.679,1.563-0.855,2.095-0.944,2.773c-0.059,0.354-0.266,0.944-0.472,1.328
		c-0.207,0.383-0.384,1.003-0.442,1.356c-0.03,0.384-0.266,1.033-0.502,1.417c-0.266,0.384-0.472,0.885-0.472,1.15
		c0,0.413-0.768,0.442-6.403,0.384l-6.433-0.089l0.089-0.737c0.029-0.413,0.177-1.003,0.324-1.328
		c0.147-0.324,0.591-1.475,1.003-2.566l0.738-1.978l-7.436-0.089l-7.406-0.088l-3.481,3.481l-3.482,3.452h-6.55l-6.551-0.029
		L233.224,189.031z M266.861,173.924l4.337-0.029l0.531-1.239c0.295-0.679,0.679-1.475,0.826-1.741
		c0.147-0.295,0.266-0.767,0.266-1.062c0-0.295,0.207-0.797,0.442-1.121c0.236-0.295,0.442-0.826,0.442-1.18
		c0-0.325,0.207-0.856,0.443-1.181c0.235-0.295,0.442-0.826,0.442-1.18c0-0.325,0.206-0.855,0.442-1.18
		c0.236-0.295,0.442-0.826,0.442-1.18c0-0.325,0.207-0.856,0.443-1.18c0.235-0.295,0.442-0.856,0.442-1.21
		c0-0.383,0.147-0.679,0.324-0.679c0.147,0,0.207-0.147,0.118-0.325c-0.118-0.147-3.334,2.921-7.288,6.934
		c-3.895,4.013-7.259,7.259-7.494,7.259c-0.236,0-0.414,0.147-0.414,0.325c0,0.177,0.207,0.235,0.473,0.147
		C262.347,174.013,264.5,173.924,266.861,173.924z"/>
	<path fill="#F90000" d="M328.707,189.209c0.088-0.384,0.235-1.21,0.354-1.859s0.266-1.387,0.325-1.623
		c0.029-0.235,0.147-1.416,0.235-2.626c0.089-1.21,0.236-2.302,0.324-2.419c0.207-0.384,0.502-2.36,0.473-3.335
		c-0.029-0.472,0.089-1.032,0.266-1.239c0.177-0.206,0.236-0.531,0.118-0.679c-0.089-0.177-0.029-1.091,0.147-2.006
		c0.206-0.945,0.413-2.184,0.472-2.745c0.178-1.593,0.354-2.98,0.561-4.278c0.089-0.649,0.236-1.505,0.296-1.918
		c0.059-0.413,0.206-1.652,0.295-2.773c0.088-1.122,0.295-2.272,0.472-2.567c0.325-0.62,0.325-0.855,0.029-0.855
		c-0.118,0-0.354,0.266-0.501,0.561c-0.502,0.944-1.269,2.508-1.446,2.98c-0.118,0.236-0.767,1.505-1.476,2.803
		c-0.708,1.298-2.095,3.954-3.098,5.901s-2.656,5.134-3.688,7.082c-1.033,1.947-2.803,5.43-3.954,7.761l-2.095,4.189h-3.776h-3.777
		l0.029-3.629c0-1.978,0.118-9.029,0.236-15.698l0.236-12.098l-0.708,1.033c-0.384,0.561-0.944,1.593-1.24,2.301
		c-0.324,0.679-0.737,1.387-0.974,1.564c-0.206,0.177-0.383,0.531-0.383,0.738c0,0.236-0.354,0.974-0.797,1.682
		c-0.974,1.505-1.505,2.479-2.715,4.78c-2.744,5.311-4.22,7.997-4.603,8.41c-0.236,0.266-0.443,0.708-0.443,0.944
		c0,0.265-0.206,0.648-0.472,0.855c-0.266,0.236-0.944,1.327-1.476,2.479c-0.561,1.121-1.475,2.862-2.006,3.836
		c-0.561,0.974-1.121,2.006-1.239,2.302c-0.178,0.442-0.708,0.501-5.488,0.501h-5.282l1.328-2.419
		c0.708-1.357,2.184-4.161,3.246-6.285c1.888-3.688,2.921-5.694,3.452-6.639c0.118-0.236,0.708-1.358,1.298-2.509
		c0.59-1.121,2.095-4.042,3.364-6.491c1.269-2.42,3.245-6.285,4.426-8.557c1.15-2.272,2.331-4.514,2.597-5.016
		c0.235-0.472,0.767-1.475,1.15-2.213l0.679-1.328l7.524-0.088l7.554-0.059l0.059,12.157l0.089,12.186l4.81-9.442
		c2.626-5.193,4.898-9.648,5.046-9.884c0.147-0.236,0.679-1.357,1.18-2.508l0.944-2.065h6.964c6.284,0,6.934,0.059,7.199,0.531
		c0.177,0.295,0.206,0.796,0.059,1.18c-0.117,0.354-0.235,1.062-0.265,1.534c-0.178,3.394-0.473,6.639-0.68,7.377
		c-0.147,0.501-0.265,1.15-0.265,1.475c-0.03,0.325-0.089,1.387-0.178,2.36c-0.117,1.682-0.235,2.715-0.619,6.196
		c-0.118,0.826-0.177,1.8-0.207,2.213c0,0.413-0.147,1.8-0.295,3.099c-0.147,1.298-0.324,2.773-0.384,3.245
		c-0.059,0.502-0.177,1.623-0.266,2.509c-0.354,3.717-0.472,4.927-0.648,6.196c-0.089,0.737-0.178,1.8-0.207,2.36l-0.059,1.032
		l-6.138,0.089l-6.107,0.059L328.707,189.209z M318.704,172.744c0.088-0.147,0.029-0.295-0.118-0.295
		c-0.177,0-0.324,0.147-0.324,0.295c0,0.177,0.059,0.295,0.118,0.295C318.468,173.039,318.615,172.921,318.704,172.744z"/>
</g>
</svg>
