<?xml version="1.0" encoding="utf-8"?>
<!-- Generator: Adobe Illustrator 16.0.0, SVG Export Plug-In . SVG Version: 6.00 Build 0)  -->
<!DOCTYPE svg PUBLIC "-//W3C//DTD SVG 1.1//EN" "http://www.w3.org/Graphics/SVG/1.1/DTD/svg11.dtd">
<svg version="1.1" id="Layer_1" xmlns="http://www.w3.org/2000/svg" xmlns:xlink="http://www.w3.org/1999/xlink" x="0px" y="0px"
	 width="345px" height="345px" viewBox="0 0 345 345" enable-background="new 0 0 345 345" xml:space="preserve">
<g>
	
		<path fill-rule="evenodd" clip-rule="evenodd" fill="#231F20" stroke="#231F20" stroke-width="0.216" stroke-miterlimit="22.9256" d="
		M74.28,131.576c-7.805,22.822,4.307,39.059,26.647,52.767c18.417,10.479,44.331,15.32,70.417,16.237
		c27.15-1.132,53.424-6.338,72.385-17.147c21.46-11.602,35.014-30.837,26.93-52.705c10.53,16.172,9.137,38.449-20.517,56.253
		c-16.632,11.089-40.805,18.15-79.136,19.761c-13.719-0.564-45.715-2.231-73.176-17.138
		C74.427,176.531,59.472,156.582,74.28,131.576L74.28,131.576z M182.299,98.392l2.565-4.04
		c-30.612-1.242-59.071,2.826-82.439,16.252c-32.393,18.979-38.103,47.844,4.316,70.05c12.489-20.813,24.146-41.623,36.632-62.433
		c-1.35-2.205-2.143-3.027-3.489-5.229c-11.751,19.829-22.95,40.459-34.703,60.292c-31.291-17.588-33.923-43.141,5.356-63.935
		C136.689,98.14,160.725,97.011,182.299,98.392L182.299,98.392z M189.08,100.811c1.414-2.236,2.231-4.169,3.646-6.408
		c15.798,25.22,31.904,51.356,47.701,76.58c17.974-7.808,32.183-27.622,17.33-45.155c-16.387-16.979-33.663-22.901-51.657-24.408
		c-0.407-2.033-1.728-3.459-2.135-5.491c20.945,4.086,41.964,10.641,58.951,30.815c11.85,16.775,3.549,39.146-24.913,53.697
		C221.691,153.896,205.381,127.352,189.08,100.811L189.08,100.811z M113.412,183.186l33.732-59.495l14.28,25.017l23.708-42.1
		l46.63,75.705C202.539,195.389,152.052,198.763,113.412,183.186L113.412,183.186z M155.043,158.166l-11.243-15.56l-21.302,36.472
		c3.781,2.099,10.065,3.562,18.871,4.408L155.043,158.166L155.043,158.166z M154.737,184.707l33.432-60.1l33.115,53.695
		C199.483,186.16,177.351,189.056,154.737,184.707L154.737,184.707z"/>
	<path fill-rule="evenodd" clip-rule="evenodd" fill="#231F20" d="M6.865,246.361l5.727-21.132h-3.14l1.365-4.225h18.271
		l2.727,18.676l15.405-18.676h17.858l-0.817,2.996l-3.545,0.135l-6.407,21.812h3.681l-0.955,4.639H39.311l1.228-4.639h4.228
		l4.089-16.494l-17.315,21.133l-7.225,0.135l-3.954-23.995l-6.135,19.496l2.59,0.14l-1.091,4.499H2.5l1.091-4.499H6.865
		L6.865,246.361z M88.449,225.229h7.056c2.911,0,4.484,2.113,3.498,4.691l-3.967,10.382c-0.986,2.578-4.173,4.695-7.083,4.695
		h-7.053c-2.911,0-4.486-2.117-3.498-4.695l3.965-10.382C82.352,227.343,85.541,225.229,88.449,225.229L88.449,225.229z
		 M81.503,250.179c12.354,0,25.185-6.923,28.569-15.41c3.382-8.482-3.931-15.405-16.286-15.405c-12.347,0-25.18,6.923-28.566,15.405
		C61.837,243.256,69.154,250.179,81.503,250.179L81.503,250.179z M119.34,223.727l0.818-3.269l24.735-0.032
		c17.647,0.611,19.431,11.634,12.02,20.042c-5.236,5.937-16.036,8.988-29.392,9.438h-15.695l1.38-4.227h2.866l6.543-21.953H119.34
		L119.34,223.727z M134.338,224.408l-6.001,20.59c3.14,0.292,6.271,0.199,9.407,0.135c12.499-2.363,16.815-21.089,5.999-20.585
		L134.338,224.408L134.338,224.408z M168.149,223.594l1.498-3.684h37.631l-1.361,5.045h-5.598l0.278-1.636l-16.505,0.136
		l-2.313,8.183h7.235l0.418-1.711h5.298l-1.995,6.767l-5.095-0.011l0.549-2.049l-7.639,0.135l-2.724,10.364h16.903l0.814-2.456
		h5.181l-1.771,6.681l-38.169,0.409l1.361-4.634h3.545l6.271-21.539C171.964,223.594,168.01,223.727,168.149,223.594
		L168.149,223.594z M214.089,219.503l-0.816,3.409h2.725l-6.263,22.086h-2.596l-1.222,3.952l13.082,0.135l1.363-4.087h-2.456
		l5.587-20.315l12.816,24.402h10.776l7.219-26.584h3.281l0.761-2.842h-14.682l-0.824,2.7l2.605,0.007l-4.087,14.584l-10.09-17.447
		H214.089L214.089,219.503z M253.94,244.548l-1.021,4.151h12.924l1.222-4.269l-3.753-0.133l2.777-3.41l17.963,0.036l1.009,3.485
		l-5.212,0.117l-0.922,4.27l18.037-0.14l0.933-4.477l-3.003,0.015l-12.46-24.985l-25.749,25.356L253.94,244.548L253.94,244.548z
		 M272.471,235.643l5.341-5.437l3.398,5.533L272.471,235.643L272.471,235.643z M335.41,225.637h5.063
		c0.613-2.36,1.417-4.531,2.027-6.896h-3.882c-1.073,0.393-2.53,0.618-3.594,0.489c-7.838-0.811-14.338-0.324-19.323,1.457
		c-6.019,1.828-8.956,8.044-3.604,10.976c4.29,1.984,8.89,3.77,13.694,5.24c6.605,1.324,6.691,6.52-2.713,7.773
		c-4.826,0.097-9.683-0.872-13.888-2.139c0.096-0.907,0.386-1.715,0.481-2.621c-1.778,0-3.271,0-5.049,0
		c-0.71,3.077-1.62,5.666-2.328,8.739h5.342l0.289-1.941c7.151,1.523,14.702,1.685,21.856,0.097
		c16.966-3.967,14.767-13.421,2.906-16.702c-2.649-1.074-5.89-1.556-8.547-2.628c-6.212-1.845-5.234-4.237,1.746-5.047
		c3.927-0.272,7.283,0.056,9.621,1.067L335.41,225.637L335.41,225.637z"/>
</g>
</svg>
