<?xml version="1.0" encoding="utf-8"?>
<!-- Generator: Adobe Illustrator 16.0.0, SVG Export Plug-In . SVG Version: 6.00 Build 0)  -->
<!DOCTYPE svg PUBLIC "-//W3C//DTD SVG 1.1//EN" "http://www.w3.org/Graphics/SVG/1.1/DTD/svg11.dtd">
<svg version="1.1" id="Layer_1" xmlns="http://www.w3.org/2000/svg" xmlns:xlink="http://www.w3.org/1999/xlink" x="0px" y="0px"
	 width="345px" height="345px" viewBox="0 0 345 345" enable-background="new 0 0 345 345" xml:space="preserve">
<g>
	<path fill-rule="evenodd" clip-rule="evenodd" fill="#A91D21" d="M160.174,4.744c-25.807,2.268-43.633,4.627-68.502,11.537
		c-19.661,5.462-41.965,14.138-54.796,25.035c-7.468,6.342-12.804,11.859-14.349,25.389c-3.254,28.506,9.287,75.818,17.914,101.387
		c11.459,33.967,20.249,52.458,39.163,80.391c5.446,8.044,10.999,15.897,16.722,23.369c12.022,15.696,23.954,29.973,36.986,42.838
		c6.716,6.629,13.305,12.682,21.499,18.248c8.747,5.941,17.406,10.927,29.544,4.712c27.359-14.007,61.04-57.067,78.182-81.457
		c24.852-35.36,37.686-66.968,50.08-109.552c5.702-19.595,11.738-45.642,12.192-67.769c0.298-14.477-0.989-23.227-8.381-31.5
		c-5.78-6.473-14.049-12.228-23.248-16.844C259.502,13.628,199.271,1.308,160.174,4.744L160.174,4.744z"/>
	<path fill-rule="evenodd" clip-rule="evenodd" fill="#FFFFFF" d="M47.539,160.027c1.841-1.01,4.564-4.049,10.738-7.396
		c12.287-6.662,27.524-10.684,41.577-13.67c50.104-10.654,120.077-11.964,172.613-11.712c6.002,0.028,12.369,0.041,18.246,0.292
		c5.459,0.233,12.679,0.732,18.029,0.404c0.93-4.836,2.252-9.444,3.163-14.326c2.63-14.103,5.884-34.218,2.736-47.97
		c-3.831-16.737-24.425-26.048-38.881-31.827c-34.593-13.831-84.217-21.449-122.369-18.09
		c-37.449,3.296-85.479,14.053-108.928,32.503c-6.797,5.348-11.51,10.205-12.93,22.442C28.504,96.785,40.173,136.337,47.539,160.027
		L47.539,160.027z"/>
	<path fill-rule="evenodd" clip-rule="evenodd" fill="#FFFFFF" d="M305.014,141.921c-4.75-0.514-44.029,2.453-48.761,2.915
		c-15.86,1.551-30.88,3.318-46.308,5.602c-28.652,4.241-57.914,11.738-81.721,22.308c-20.334,9.028-48.973,27.637-49.372,54.643
		c-0.067,4.563,0.493,4.168,3.618,9.156c4.537,7.243,10.817,16.671,15.739,23.329c14.853,20.089,42.031,54.15,63.07,66.922
		c6.313,3.833,11.365,6.373,19.354,2.767c5.761-2.601,11.407-7.019,15.512-10.438c27.558-22.958,63.168-70.197,79.85-102.335
		C287.368,194.878,297.896,167.734,305.014,141.921L305.014,141.921z"/>
	<path fill-rule="evenodd" clip-rule="evenodd" fill="#A91D21" d="M50.859,106.254c19.446,0.253,39.383,3.363,46.056-18.717
		c3.015-9.979,1.707-19.225-6.426-22.708c-4.537-1.943-8.879-1.847-14.372-1.849c-4.55-0.002-11.965-0.437-16.166,0.117
		L50.859,106.254L50.859,106.254z"/>
	<path fill-rule="evenodd" clip-rule="evenodd" fill="#A91D21" d="M146.369,63.007l-16.679-0.025
		c-1.093,6.93-3.75,18.305-5.377,26.032c-0.623,2.957-1.255,6.002-3.849,6.614c-4.215,0.995-3.395-3.772-2.814-6.544
		c0.639-3.055,1.174-5.695,1.794-8.678c1.044-5.02,3.08-12.461,3.519-17.393l-16.534-0.028c-0.644,1.161-5.709,26.005-6.24,29.138
		c-2.192,12.949,8.146,15.943,19.717,15.265c20.561-1.206,20.475-14.966,23.491-29.295C144.301,73.79,146.086,67.157,146.369,63.007
		L146.369,63.007z"/>
	<path fill-rule="evenodd" clip-rule="evenodd" fill="#A91D21" d="M183.723,106.329l15.834,0.009l3.222-6.895l12.072-0.04
		l0.197,6.615c1.856,0.658,13.688,0.271,17.384,0.258l-4.54-43.159c-5.162-0.365-15.896-0.141-21.872-0.126l-11.253,21.716
		C193.135,87.75,184.039,104.521,183.723,106.329L183.723,106.329z"/>
	<path fill-rule="evenodd" clip-rule="evenodd" fill="#A91D21" d="M186.482,90.402l-15.738-0.137
		c-0.676,2.682-3.092,7.976-6.932,5.311c-3.174-2.203,0.716-18.321,3.56-21.096c1.062-1.036,3.351-1.88,5.013-0.937
		c1.554,0.882,1.264,3.29,1.217,5.448l15.339,0.008c0.83-7.759-0.122-11.791-5.236-14.769c-9.492-5.528-32.599-3.36-37.435,19.831
		c-2.936,14.079,2.06,23.121,16.051,23.382C174.932,107.678,184.405,101.008,186.482,90.402L186.482,90.402z"/>
	<path fill-rule="evenodd" clip-rule="evenodd" fill="#A91D21" d="M234.885,74.593l10.202,0.039
		c0.149,3.818-6.468,28.747-6.142,31.683l16.494,0.03c1.393-4.351,2.476-11.273,3.397-15.816c0.634-3.126,2.382-13.891,3.526-15.78
		l9.998-0.062c0.621-1.111,2.36-9.86,2.538-11.675l-37.599-0.015L234.885,74.593L234.885,74.593z"/>
	<polygon fill-rule="evenodd" clip-rule="evenodd" fill="#A91D21" points="269.116,106.244 285.97,106.29 294.915,63.038 
		278.107,62.982 269.116,106.244 	"/>
	<path fill-rule="evenodd" clip-rule="evenodd" fill="#FFFFFF" d="M69.389,96.348c7.225,0.489,9.102-4.146,10.461-10.072
		c1.499-6.533,3.324-13.971-5.418-13.362L69.389,96.348L69.389,96.348z"/>
	<path fill-rule="evenodd" clip-rule="evenodd" fill="#FFFFFF" d="M207.726,88.685l6.84,0.049l0.06-15.631
		C213.641,74.166,208.158,86.735,207.726,88.685L207.726,88.685z"/>
</g>
</svg>
