<?xml version="1.0" encoding="utf-8"?>
<!-- Generator: Adobe Illustrator 16.0.0, SVG Export Plug-In . SVG Version: 6.00 Build 0)  -->
<!DOCTYPE svg PUBLIC "-//W3C//DTD SVG 1.1//EN" "http://www.w3.org/Graphics/SVG/1.1/DTD/svg11.dtd">
<svg version="1.1" id="Layer_1" xmlns="http://www.w3.org/2000/svg" xmlns:xlink="http://www.w3.org/1999/xlink" x="0px" y="0px"
	 width="345px" height="345px" viewBox="0 0 345 345" enable-background="new 0 0 345 345" xml:space="preserve">
<path fill-rule="evenodd" clip-rule="evenodd" fill="#231F20" d="M333.692,142.569v-2.373h1.094c1.219,0,1.664,0.437,1.664,1.187
	c0,0.754-0.54,1.187-1.504,1.187H333.692L333.692,142.569L333.692,142.569z M336.046,143.317c1.053-0.168,1.855-0.771,1.855-1.976
	c0-1.691-1.591-2.075-3.063-2.075h-2.558v6.79h1.413v-2.573h0.938l1.861,2.573h1.84L336.046,143.317L336.046,143.317
	L336.046,143.317z"/>
<path fill="#231F20" d="M338.763,158.477l-0.413-0.114c-1.805,0.779-3.885,0.697-5.884,0.938c-2.853-1.696-5.658-3.495-8.584-5.07
	c-1.113,0.85-2.268,1.991-3.622,2.361c-1.557,0.249-3.327,0.251-4.585-0.744c-2.082-1.281-3.272-3.56-3.127-5.951l2.941-13.117
	l-0.138-0.431c-5.252,0.349-10.676,0.138-16.032,0.144c-2.064,0.296-1.332,2.773-2.384,3.965c-2.942-1.661-5.929-3.24-9.337-3.941
	c-10.03-2.494-19.896,1.75-26.081,9.979c-1.664,1.825-2.177,4.296-4.204,5.862l-12.956,8.031c-0.304,0.106-0.744,0.394-1.013,0.016
	c-1.658-6.125-7.083-11.774-13.039-13.729c-12.356-3.248-24.13,1.412-33.245,9.985c-0.453,1.359-0.518,2.875-0.971,4.233
	c-7.059,4.755-13.992,9.879-21.086,14.547c-0.291,0.232-0.881,0.212-1.085-0.16c-0.972-6.014-4.123-11.904-9.343-15.915
	c-1.254-0.764-2.366-2.042-3.905-2.044l-6.554,5.695l-18.473,15.935l-16.345,14.096c-2.845,1.804-6.336,2.297-9.808,1.591
	c-0.407-0.197-1.263-0.025-1.218-0.675l16.699-14.517l0.332-0.495l0.422-0.633c-0.981-1.944-1.812-3.941-3.311-5.714
	c-5.256-7.134-15.048-9.083-23.143-6.676c-6.3,1.919-11.283,7.116-14.037,13.019h-0.002c-0.814,1.743-1.433,3.55-1.833,5.351
	l-31.754,20.536l-2.954,1.909c-0.261,0.11-0.748,0.454-0.923-0.063c0.003-0.303,0.008-1.071,0.017-1.848h0.037
	c0.242-4.863,1.271-9.56,3.069-13.869c1.723-4.366,4.569-8.512,8.13-12.008h0.004c6.231-6.112,14.653-10.225,23.086-10.012
	c0.642-0.125,0.813-0.763,0.598-1.308c-4.252-5.208-7.599-10.712-10.578-16.338c-4.95,0.833-9.219,3.697-13.451,6.646
	c-7.113,5.902-12.256,13.008-15.637,21.005h-0.001c-3.202,7.57-4.817,15.939-5.03,24.83l-0.203,0.017
	c-5.87-7.587-9.648-15.964-11.87-24.845v-0.002c-0.389-1.563-0.732-3.141-1.029-4.729c-2.538-11.353,0.603-23.992,7.676-32.603
	c1.501-2.173,3.673-3.981,4.99-6.229c-4.77-5.054-9.209-10.594-11.82-16.678c-0.656-1.458-1.028-3.087-1.797-4.426
	c-2.432,1.01-4.672,2.603-6.807,4.499c-9.77,9.16-15.363,20.722-14.579,34.817c0.512,8.914,2.798,17.358,6.426,25.351h0
	c4.188,9.223,10.163,17.842,17.262,25.883c2.623,2.972,5.4,5.863,8.297,8.681c-1.436,0.637-3.024,0.736-4.548,1.114
	c-4.982,1.022-10.106,1.93-14.972,3.086c-1.186,4.596-3.654,8.535-6.916,12.079c-0.164,0.242-0.538,0.743-0.065,0.924
	l110.355-21.375l22.714-4.509l26.283-5.219c7.345-1.362,14.608-3.004,22.276-3.839c0.301,2.341-0.774,4.457-0.827,7.026
	c4.861-0.778,9.631-1.793,14.438-2.702l0.612-0.292l1.492-8.077l0.467-0.641l62.177-12.14l5.872-1.147l39.848-7.923l28.106-5.201
	l0.629-0.546C340.99,162.489,339.634,160.475,338.763,158.477z M92.663,202.565l-11.745,2.268l-21.933,4.233l6.444-4.233
	l18.038-11.848c2.305,0.204,2.769,2.913,4.423,4.271c1.756,2.021,4.064,3.384,6.066,4.895L92.663,202.565z M98.158,190.303
	c-0.528-1.809-0.515-4.104,0.404-5.791c1.986-3.064,5.551-4.312,9.183-3.489c0.951-0.017,1.46,0.82,2.093,1.411l-0.119,0.499
	l-10.385,8.632C98.819,191.402,98.377,190.782,98.158,190.303z M150.127,185.082c-1.602,2.713-6.539,1.271-5.769,5.332
	c0.316,0.908,1.144,1.723,1.508,2.55c-6.004,1.457-12.165,2.438-18.292,3.527l0.305-0.736l19.498-16.805l1.768-1.525
	c0.26-0.107,0.68-0.079,0.923,0.064l0.832,1.461l0.369,0.647C151.774,181.445,151.365,183.673,150.127,185.082z M191.744,184.451
	c-6.442,1.383-12.924,2.723-19.492,3.78c0.391-1.363,1.122-2.766,1.804-4.088c1.14-1.207,2.69-1.689,3.983-2.674l3.963-2.52
	l11.568-7.355l0.419,0.028c-0.346,2.383-0.584,4.888-0.969,7.327h0.102l-0.102,0.002
	C192.723,180.851,192.336,182.713,191.744,184.451z M214.021,180.612l-6.316,1.077l-0.389-0.45c0.176-0.695,0.308-1.668,0.443-2.412
	c0.126-0.616,0.293-1.209,0.605-1.729l0.419,0.028c0.776,0.744,1.621,1.336,2.519,1.823h0.009c0.992,0.536,2.053,0.94,3.159,1.273
	L214.021,180.612z M223.946,170.091c-1.436,1.841-3.535,2.623-5.815,2.377c-2.798-0.362-5.252-2.369-6.479-5.007
	c-1.004-2.535-0.905-6.049,1.318-8.002c2.246-1.676,5.818-1.512,8.097-0.023c1.406,1.004,2.884,2.478,3.422,4.117
	C225.388,165.47,225.206,168.368,223.946,170.091z M237.596,176.274c0.794-1.694,2.294-2.958,2.696-4.785l16.442-10.825
	c0.192-0.049,0.349-0.208,0.599-0.125c0.404,4.138,3,8.345,6.865,10.346L237.596,176.274z M283.414,160.169
	c-1.591,1.64-3.807,1.991-5.919,1.441c-2.084-0.629-4.295-2.492-4.814-4.721c-0.714-1.863-0.402-4.497,1.089-5.91
	c1.787-1.753,4.605-1.955,6.813-0.96c1.468,0.715,2.949,2.146,3.619,3.711C285.097,155.691,284.898,158.523,283.414,160.169z
	 M295.61,165.406c-0.177-0.771,0.82-1.164,0.976-1.871l1.098-2.452c1.715,0.499,2.717,2.468,4.625,2.6
	C300.387,164.645,297.957,165.024,295.61,165.406z"/>
<path fill="#231F20" d="M329.022,142.659v-0.001h0.002c0-1.64,0.664-3.125,1.739-4.2c1.073-1.073,2.559-1.736,4.196-1.738l0,0h0.002
	h0.002l0,0c1.64,0,3.125,0.665,4.199,1.738c1.073,1.075,1.736,2.558,1.738,4.198l0,0v0.003l0,0l0,0c0,1.642-0.665,3.127-1.74,4.2
	l0,0c-1.074,1.073-2.558,1.736-4.195,1.738v0.002h-0.004l0,0v-0.002c-1.642,0-3.127-0.665-4.2-1.74
	c-1.073-1.073-1.737-2.556-1.737-4.196h-0.002V142.659L329.022,142.659z M329.723,142.658h0.002v0.001v0.002h-0.002
	c0.002,1.445,0.588,2.753,1.536,3.701s2.258,1.534,3.703,1.534l0,0l0,0h0.004l0,0c1.443,0,2.752-0.586,3.701-1.534h-0.002
	c0.948-0.948,1.536-2.258,1.536-3.703h-0.002l0,0v-0.003h0.002c0-1.443-0.588-2.751-1.534-3.699
	c-0.949-0.948-2.258-1.536-3.703-1.536v0.002h-0.002h-0.002v-0.002c-1.445,0-2.755,0.588-3.701,1.536
	C330.311,139.901,329.723,141.212,329.723,142.658L329.723,142.658z"/>
</svg>
