<?xml version="1.0" encoding="utf-8"?>
<!-- Generator: Adobe Illustrator 16.0.0, SVG Export Plug-In . SVG Version: 6.00 Build 0)  -->
<!DOCTYPE svg PUBLIC "-//W3C//DTD SVG 1.1//EN" "http://www.w3.org/Graphics/SVG/1.1/DTD/svg11.dtd">
<svg version="1.1" id="Layer_1" xmlns="http://www.w3.org/2000/svg" xmlns:xlink="http://www.w3.org/1999/xlink" x="0px" y="0px"
	 width="345px" height="345px" viewBox="0 0 345 345" enable-background="new 0 0 345 345" xml:space="preserve">
<g>
	<g>
		<g>
			<g>
				<g>
					<g>
						<path d="M242.995,210.204c-3.14-9.396-15.842-32.98-25.829-46.253c-2.161-2.894-1.354-4.38-0.196-5.313
							c1.148-0.938,4.867-4.146,9.258-9.176c4.442-5.078,5.513-10.818,2.375-19.126c-3.125-8.225-13.45-27.788-15.617-34.263
							c-2.484-7.475-2.735-10.797-1.242-14.871c1.771-4.79,4.343-4.995,6.289-4.962c1.041,0.021,1.814,1.119,1.823,1.621
							c0.057,2.119,0.16,4.724,2.215,10.183c3.295,8.691,11.743,14.367,14.405,15.515c1.858,0.801,2.187-0.632,2.024-1.327
							c-0.166-0.689-2.917-11.461-4.978-19.558c-2.159-8.488-3.242-10.328-5.162-12.123c-3.063-2.901-7.703-4.458-11.635-4.307
							c-8.771,0.341-12.646,8.815-13.124,9.602c-0.414,0.702-0.584,1.195-1.477,0.58c-2.511-1.754-9.825-7.87-10.5-11.701
							c-0.397-2.26-0.793-2.577-3.057-3.457c-8.804-3.429-16.421-6.452-24.858-7.941c-3.388-0.597-3.566-0.886-7.513-0.153
							c-6.706,1.251-10.812,2.796-15.853,5.438c-2.77,1.472-3.098,2.455-3.636,3.158c-0.419,0.546-0.871,1.201-1.872,1.533
							c-1.675,0.541-7.895,2.86-10.027,4.095c-1.328,0.78-2.057,1.592-1.374,3.096c1.194,2.653,4.772,8.178,6.335,9.568
							c0.947,0.839,3.329,1.418,3.891,1.539c0.562,0.14,0.959,0.304,1.174-0.121c0.231-0.461,0.317-1.14,1.428-1.918
							c1.67-1.169,4.778-1.98,6.432-2.13c1.267-0.105,2.035-0.146,2.689,0.324c0.647,0.479,2.143,2.072,2.664,3.678
							c0.519,1.606,0.194,2.209-0.701,2.587c-0.903,0.374-3.595,0.988-6.723,1.241c-3.116,0.251-3.999-0.612-4.219-0.807
							c-0.167-0.175-0.578-0.438-0.893-0.019c-0.527,0.728-1.312,1.199-2.527,1.805c-0.691,0.336-1.06,1.07-0.409,2.218
							c1.99,3.429,4.604,7.281,7.032,8.014c1.923,0.6,2.96-0.033,5.127-1.582c1.947-1.401,3.211-1.394,3.743-1
							c0.581,0.438,1.749,1.428,1.453,2.418c-0.517,1.722-3.988,5.828-4.657,6.675c-0.624,0.801-1.215,1.226-2.339,0.691
							c-1.64-0.786-26.561-13.713-29.887-15.011c-3.627-1.394-6.009-1.734-9.583-1.897c-2.888-0.128-6.741,0.152-9.153,0.589
							c-1.761,0.324-2.762,1.156-4.401,2.671c-2.256,2.085-4.642,4.755-4.862,6.976c-0.164,1.6,1.619,4.866,1.808,5.093
							c0.199,0.244,0.521,0.698,1.489,0.59c0.984-0.112,3.452-1.392,6.396-0.882c2.665,0.46,2.928,2.554,3.073,4.161
							c0.016,0.278,0.353,0.901,1.108,0.886c1.062-0.012,2.727,0.023,4.641,0.941c2.363,1.124,7.044,4.746,7.765,5.549
							c0.581,0.654,0.546,1.246-0.57,1.355c-5.942,0.525-14.982,2.294-19.166,3.667c-2.969,0.969-6.472,2.306-7.712,4.457
							c-1.404,2.432-3.172,6.345-3.681,9.141c-0.509,2.777,2.463,6.225,3.262,6.99c0.535,0.522,0.897,0.844,1.847,0.329
							c1.45-0.836,4.967-3,8.333-3.2c2.038-0.119,2.855,1.802,3.347,2.51c0.493,0.694,0.965,0.212,2.794-0.283
							c3.238-0.869,21.317-0.538,27.701-0.236c2.92,0.124,6.983,0.557,9.971,2.206c2.968,1.634,8.351,6.71,8.351,6.71
							s-7.15,11.979-10.992,19.077c-3.56,6.561-6.163,11.488-7.443,14.34c-1.183,2.611-2.145,6.311-1.933,9.226
							c0.325,4.265,0.432,6.456,0.379,8.387c-0.048,1.699-1.638,1.887-3.886,2.436c-3.095,0.787-9.271,1.356-14.275,2.59
							c-4.552,1.135-6.247,2.202-7.069,5.722c-0.638,2.735-1.576,9.542-1.686,12.694c-0.057,1.274-0.075,1.897,1.536,1.564
							c0.927-0.183,3.605-0.569,7.015-0.82c4.222-0.325,8.795-0.255,12.332-0.267c6.496-0.037,25.7,1.087,26.988,1.21
							c1.643,0.162,1.971-0.037,1.858-1.183c-0.151-1.511-0.424-6.337-0.5-9.214c-0.081-2.886-0.516-5.812,2.089-8.618
							c2.583-2.813,22.148-24.63,23.233-25.749c0.947-0.946,1.579-1.957,3.039-0.629c1.466,1.351,17.571,12.961,20.839,15.335
							c3.281,2.374,6.318,3.181,10.045,3.234c2.66,0.044,3.402,4.685,1.135,5.117c-2.313,0.448-5.854,1.173-8.319,1.731
							c-3.815,0.891-4.977,2.141-6.128,4.705c-0.973,2.171-2.06,12.829-2.089,13.749c-0.035,0.664-0.078,1.624,0.971,1.405
							c4.702-0.954,12.156-1.224,20.118-0.973c9.152,0.279,18.036,1.035,19.29,1.11c1.333,0.097,1.468-0.107,2.147-1.162
							c1.154-1.807,4.599-5.781,7.594-8.236C243.59,212.547,243.625,212.041,242.995,210.204z M207.857,145.765
							c-2.323,0.761-3.834,0.105-4.961-0.975c-1.135-1.08-10.371-12.186-13.331-15.583c-1.495-1.714-2.619-5.622,1.88-7.292
							c3.691-1.338,10.316-3.471,12.156-4.433c1.833-0.973,2.801-1.97,2.979-3.852c0.143-1.897,0.16-4.019,0.168-4.726
							c0.017-0.717,0.939-1.284,1.41-0.446c0.322,0.59,1.983,3.824,4.006,7.563c3.014,5.611,6.83,12.63,8.077,15.645
							c1.167,2.888,0.595,5.082-1.196,7.295C216.626,141.957,209.558,145.208,207.857,145.765z"/>
					</g>
				</g>
				<linearGradient id="SVGID_1_" gradientUnits="userSpaceOnUse" x1="240.2568" y1="75.7256" x2="189.4074" y2="153.6071">
					<stop  offset="0.2033" style="stop-color:#CCCCCC"/>
					<stop  offset="0.2274" style="stop-color:#A6A7A7"/>
					<stop  offset="0.2583" style="stop-color:#7D7D7D"/>
					<stop  offset="0.2885" style="stop-color:#5D5D5D"/>
					<stop  offset="0.3174" style="stop-color:#464646"/>
					<stop  offset="0.3446" style="stop-color:#383838"/>
					<stop  offset="0.3681" style="stop-color:#333333"/>
					<stop  offset="0.4381" style="stop-color:#393939"/>
					<stop  offset="0.5311" style="stop-color:#4A4A4A"/>
					<stop  offset="0.637" style="stop-color:#656565"/>
					<stop  offset="0.7516" style="stop-color:#8C8C8C"/>
					<stop  offset="0.8132" style="stop-color:#A3A3A3"/>
					<stop  offset="1" style="stop-color:#000000"/>
				</linearGradient>
				<path fill="url(#SVGID_1_)" d="M217.382,67.973c-0.021-0.009-0.045-0.009-0.087,0c-7.2-0.033-14.498,8.316-13.112,20.765
					c0.868,7.619,2.026,11.093,4.288,16.018c1.121,2.434,13.417,25.846,13.985,28.321c0.766,3.544,0.083,5.761-2.639,8.24
					c-3,2.718-7.978,5.805-11.336,6.963c-0.793,0.271-1.524,0.407-2.187,0.407c-0.761,0-2.659-0.258-6.257-4.691l15.889,21.203
					c-2.026-2.71-3.076-4.761-2.705-6.559c0.36-1.766,3.254-3.698,6.583-6.32c3.336-2.594,7.025-5.865,8.717-10.292
					c0.495-1.26,0.708-2.568,0.708-3.936c0-4.227-2.05-9.014-4.507-14.205c-3.176-6.734-12.188-21.424-14.924-31.723
					c-0.675-2.527-0.971-4.801-0.971-6.819c0-5.836,2.482-9.54,5.523-10.796c1.457-0.588,2.761-0.79,3.851-0.79
					c1.67,0,2.825,0.464,3.308,0.718c0.852,0.482,0.975,1.498,0.975,2.299c0,0.059,0,0.113,0,0.175
					c-0.002,0.185-0.028,0.618-0.028,1.258c0,2.404,0.325,7.68,3.124,12.802c3.527,6.507,9.462,10.138,11.796,11.118
					c0.196,0.085-5.456-20.882-6.473-24.837C229.734,72.684,226.48,68.066,217.382,67.973z"/>
				<linearGradient id="SVGID_2_" gradientUnits="userSpaceOnUse" x1="97.4341" y1="132.2607" x2="106.648" y2="111.158">
					<stop  offset="0.031" style="stop-color:#A6A6A6"/>
					<stop  offset="0.2" style="stop-color:#A6A6A6"/>
					<stop  offset="0.9897" style="stop-color:#4D4D4D"/>
				</linearGradient>
				<path fill="url(#SVGID_2_)" d="M118.421,114.558c1.385,1.388-1.03,1.309-8.354,1.947c-7.459,0.648-14.972,2.152-18.9,3.627
					c-2.875,1.085-4.617,1.852-5.765,4.489c0,0-2.388,5.191-2.708,7.242c-0.15,0.971-0.105,1.53,0.401,2.346
					c0.282,0.433,0.971-13.535,18.997-14.452c15.95-0.813,19.875-2.487,16.759-5.536L118.421,114.558z"/>
				<linearGradient id="SVGID_3_" gradientUnits="userSpaceOnUse" x1="223.2461" y1="81.5732" x2="211.894" y2="80.4994">
					<stop  offset="0.1966" style="stop-color:#333333"/>
					<stop  offset="0.2597" style="stop-color:#353535"/>
					<stop  offset="0.2825" style="stop-color:#3C3C3C"/>
					<stop  offset="0.2987" style="stop-color:#484848"/>
					<stop  offset="0.3118" style="stop-color:#585958"/>
					<stop  offset="0.323" style="stop-color:#6E6F6E"/>
					<stop  offset="0.333" style="stop-color:#8A8A8A"/>
					<stop  offset="0.342" style="stop-color:#AAAAAA"/>
					<stop  offset="0.3503" style="stop-color:#D0D0D0"/>
					<stop  offset="0.3576" style="stop-color:#F9F9F9"/>
					<stop  offset="0.3586" style="stop-color:#FFFFFF"/>
					<stop  offset="0.8241" style="stop-color:#333333"/>
					<stop  offset="1" style="stop-color:#1A1A1A"/>
				</linearGradient>
				<path fill="url(#SVGID_3_)" d="M209.745,85.886c0,0,0.345-3.651,0.992-5.371c1.605-4.649,4.576-5.617,6.628-5.617
					c1.375,0,1.995,0.329,2.581,0.943c0.452,0.496,0.748,0.951,0.81,1.65c0.051,2.077,0.135,4.463,2.151,9.843
					c0.118,0.327,0.247,0.653,0.385,0.967c-1.708-4.346-1.914-8.381-1.914-10.44c-0.009-0.661,0.024-1.426,0.024-1.426
					c0.007-1.582-1.727-2.039-3.284-2.037c-0.979,0-2.148,0.173-3.472,0.722c-2.517,1.018-4.82,4.172-4.929,9.539L209.745,85.886z"
					/>
				<linearGradient id="SVGID_4_" gradientUnits="userSpaceOnUse" x1="121.1318" y1="143.4072" x2="130.4699" y2="122.0199">
					<stop  offset="0" style="stop-color:#CCCCCC"/>
					<stop  offset="0.1219" style="stop-color:#B8B8B8"/>
					<stop  offset="0.2537" style="stop-color:#ABABAB"/>
					<stop  offset="0.3681" style="stop-color:#A6A6A6"/>
					<stop  offset="0.9897" style="stop-color:#000000"/>
				</linearGradient>
				<path fill="url(#SVGID_4_)" d="M119.05,115.166c0.541,1.475-1.616,1.128-8.94,1.764c-7.458,0.649-14.977,2.093-18.908,3.569
					c-2.877,1.084-4.614,1.851-5.765,4.49c0,0-2.393,5.196-2.716,7.246c-0.15,0.967,0.089,1.534,0.6,2.339
					c0.764,1.209,1.256,1.468,2.372,0.83c0.906-0.519,4.891-2.779,7.505-2.829c2.382-0.053,3.431,1.4,3.78,2.645
					c0.212,0.772,1.264,0.371,1.447,0.324c1.043-0.263,2.06-0.576,5.789-0.845c4.428-0.326,21.704-0.179,28.047-0.029
					c5.706,0.131,28.173,17.759,28.502,17.841l1.134-2.272c-7.631-6.311-35.987-28.791-42.838-35.496L119.05,115.166z"/>
				<linearGradient id="SVGID_5_" gradientUnits="userSpaceOnUse" x1="211.9717" y1="244.2246" x2="45.1587" y2="74.5226">
					<stop  offset="0.0769" style="stop-color:#808080"/>
					<stop  offset="0.1209" style="stop-color:#8C8C8C"/>
					<stop  offset="0.1703" style="stop-color:#666666"/>
					<stop  offset="0.3077" style="stop-color:#808080"/>
					<stop  offset="0.4725" style="stop-color:#F2F2F2"/>
					<stop  offset="0.6978" style="stop-color:#F2F2F2"/>
					<stop  offset="0.7209" style="stop-color:#E3E3E3"/>
					<stop  offset="0.7655" style="stop-color:#BBBBBB"/>
					<stop  offset="0.8268" style="stop-color:#7B7B7B"/>
					<stop  offset="0.8407" style="stop-color:#6B6B6B"/>
					<stop  offset="0.9615" style="stop-color:#333333"/>
				</linearGradient>
				<path fill="url(#SVGID_5_)" d="M183.781,129.092c3.421,4.108,13.595,16.472,22.32,27.642
					c13.592,17.415,21.987,31.051,30.812,51.142c0.88,2.003,0.21,2.225-1.193,3.354c-2.705,2.194-2.135,3.084-4.146,6.558
					c-0.229,0.398-0.747,1.046-1.385,0.987c-1.863-0.148-16.315-1.371-25.815-1.035c-5.645,0.19-7.104,0.607-8.349,0.895
					c-1.006,0.247-1.355,0.146-1.331-1.169c0.018-0.504,1.08-6.445,1.898-8.632c0.813-2.171,2.078-3.024,3.979-3.546
					c1.886-0.522,7.25-1.515,9.414-2.055c2.181-0.538,2.271-2.608,2.073-4.168c-0.207-1.563-1.444-3.656-2.864-3.914
					c-1.878-0.328-3.167-0.603-5.27-1.517c-2.051-0.928-31.575-24.698-34.271-26.89c-0.687-0.565-1.219-0.979-1.434-0.725
					c-0.218,0.248,0.347,0.961,0.605,1.24c0.505,0.526,4.961,5.129,5.94,6.066c0.707,0.688,0.33,1.023-0.017,1.368
					c-0.524,0.479-14.487,14.248-20.282,20.255c-5.776,5.985-9.946,9.5-9.896,14.286c0.054,4.792,0.261,8.539,0.275,9.368
					c0.008,0.721-0.742,0.709-1.361,0.652c-1.796-0.163-15.66-1.529-23.433-1.699c-7.768-0.146-13.415,0.59-17.072,1.509
					c-0.86,0.215-1.124-0.299-1.073-1.041c0.081-1.203,0.937-6.138,1.993-9.352c0.734-2.218,2.339-3.087,4.253-3.549
					c2.53-0.621,12.487-2.412,16.967-3.101c2.441-0.393,2.947-1.215,2.923-3.272c-0.035-2.1-0.277-6.563-0.384-8.806
					c-0.11-2.231,0.602-4.706,1.43-6.673c3.539-8.288,12.218-25.777,19.758-36.195c0.866-1.207,1.745-1.415,2.581-1.206
					c0.99,0.244,5.518,3.803,5.889,3.982c0.796,0.403,1.85,0.042,1.36-0.446c-2.635-2.641-10.616-7.491-15.474-11.364
					c-9.613-7.669-19.639-18.813-27.709-26.256c-4.162-3.834-8.625-6.657-11.943-7.387c-1.178-0.262-2.28-0.262-3.302-0.403
					c-0.495-0.073-0.575-0.505-0.581-0.736c-0.032-0.51,0.038-1.498-0.984-2.689c-0.769-0.873-2.436-1.167-3.592-1.184
					c-1.629-0.052-4.315,0.3-5.834,0.715c-0.737,0.203-1.097,0.05-1.369-0.271c-0.248-0.3-0.675-1.267-0.826-2.177
					c-0.091-0.646,0.097-1.143,0.473-1.853c0.984-1.877,3.517-3.722,4.974-5.079c1.485-1.379,2.442-1.45,3.851-1.63
					c3.393-0.409,7.897-0.688,12.471,0.353c3.339,0.754,5.985,2.074,9.26,3.691c3.267,1.625,22.234,11.333,24.668,12.487
					L183.781,129.092z"/>
				<radialGradient id="SVGID_6_" cx="139.7871" cy="96.6641" r="38.0421" gradientUnits="userSpaceOnUse">
					<stop  offset="0.0357" style="stop-color:#FFFFFF"/>
					<stop  offset="0.467" style="stop-color:#FFFFFF"/>
					<stop  offset="0.5179" style="stop-color:#FBFBFB"/>
					<stop  offset="0.5707" style="stop-color:#EEEEEE"/>
					<stop  offset="0.6243" style="stop-color:#DADADA"/>
					<stop  offset="0.6785" style="stop-color:#BDBDBD"/>
					<stop  offset="0.7326" style="stop-color:#989898"/>
					<stop  offset="0.7473" style="stop-color:#8C8C8C"/>
					<stop  offset="0.8462" style="stop-color:#666666"/>
					<stop  offset="1" style="stop-color:#333333"/>
				</radialGradient>
				<path fill="url(#SVGID_6_)" d="M152.266,94.563c0.374,2.36-1.145,3.906-2.062,5.362c-0.901,1.427-2.756,3.559-3.708,4.747
					c-1.205,1.534-3.52,1.071-3.52,1.071s10.925,5.551,17.214,8.709c2.49,1.263,6.399,0.09,9.059-4.877
					c0.618-1.153,4.544-9.469,5.529-11.949c0.986-2.469,2.382-5.211,0.137-9.926c-2.253-4.705-9.234-13.397-12.011-16.734
					c-1.458-1.741-3.167-2.807-6.856-3.009c-3.638-0.199-8.147,0.34-13.95,1.901c-5.902,1.587-13.45,4.664-13.724,4.819
					c-0.156,0.102-0.134,0.25-0.051,0.427c0.07,0.161,0.86,1.53,0.86,1.53s0.4,0.925,1.536,1.566
					c1.126,0.638,2.237,0.908,2.527,0.971c0.291,0.062,0.425-0.062,0.527-0.215c0.089-0.129,1.205-2.26,5.286-3.321
					c2.21-0.56,3.619-0.625,4.292-0.625c1.065,0.027,2.715,0.553,3.636,1.444c1.494,1.474,2.801,3.913,3.027,5.083
					c0.242,1.13,0.054,2.542-1.081,3.129c-1.126,0.578-4.431,1.361-6.499,1.569c-2.149,0.206-4.235,0.106-5.47-0.608
					c-0.202-0.109-0.341-0.126-0.533,0.023c-0.465,0.388-0.744,0.705-1.669,1.251c-0.199,0.116-0.331,0.373-0.129,0.772
					c0.196,0.395,2.786,4.692,4.351,5.844c1.56,1.171,2.393,0.646,4.262-0.39c1.875-1.034,3.138-2.302,5.079-2.238
					C150.295,90.945,151.965,92.616,152.266,94.563z"/>
				
					<radialGradient id="SVGID_7_" cx="148.3247" cy="101.6851" r="13.4311" gradientTransform="matrix(1 0 0 0.9636 0 -8.9972)" gradientUnits="userSpaceOnUse">
					<stop  offset="0.0357" style="stop-color:#FFFFFF"/>
					<stop  offset="0.2276" style="stop-color:#FFFFFF"/>
					<stop  offset="0.2932" style="stop-color:#F6F6F6"/>
					<stop  offset="0.4021" style="stop-color:#DCDCDC"/>
					<stop  offset="0.5409" style="stop-color:#B3B3B3"/>
					<stop  offset="0.7043" style="stop-color:#797979"/>
					<stop  offset="0.886" style="stop-color:#313131"/>
					<stop  offset="1" style="stop-color:#000000"/>
				</radialGradient>
				<path opacity="0.85" fill="url(#SVGID_7_)" d="M148.771,85.091c-1.103,0.537-4.345,1.258-6.367,1.445
					c-2.103,0.197-4.151,0.101-5.359-0.558c-0.196-0.097-0.336-0.114-0.519,0.021c-0.458,0.36-0.731,0.655-1.629,1.155
					c-0.202,0.107-0.333,0.35-0.137,0.714c0.196,0.363,2.53,4.292,4.12,5.418c1.589,1.144,2.433,0.633,4.336-0.381
					c1.904-1.015,3.187-2.257,5.163-2.194L148.771,85.091z"/>
				<radialGradient id="SVGID_8_" cx="139.9268" cy="67.897" r="15.7953" gradientUnits="userSpaceOnUse">
					<stop  offset="0.2308" style="stop-color:#FFFFFF"/>
					<stop  offset="0.5714" style="stop-color:#F5F5F5"/>
					<stop  offset="0.8626" style="stop-color:#000000"/>
				</radialGradient>
				<path opacity="0.85" fill="url(#SVGID_8_)" d="M141.804,70.496c-5.609,1.445-12.772,4.235-13.033,4.376
					c-0.15,0.094-0.126,0.4-0.051,0.563c0.07,0.145,0.814,1.386,0.814,1.386s0.377,0.843,1.457,1.422
					c1.073,0.579,1.963,0.863,2.253,0.926c0.291,0.062,0.425-0.062,0.527-0.215c0.089-0.129,1.205-2.26,5.286-3.321
					c2.21-0.56,3.619-0.625,4.292-0.625L141.804,70.496z"/>
				<radialGradient id="SVGID_9_" cx="166.3979" cy="98.7173" r="53.2128" gradientUnits="userSpaceOnUse">
					<stop  offset="0.0357" style="stop-color:#FFFFFF"/>
					<stop  offset="0.2527" style="stop-color:#FFFFFF"/>
					<stop  offset="0.2708" style="stop-color:#FBFBFB"/>
					<stop  offset="0.2895" style="stop-color:#EEEEEE"/>
					<stop  offset="0.3084" style="stop-color:#DADADA"/>
					<stop  offset="0.3275" style="stop-color:#BDBDBD"/>
					<stop  offset="0.3462" style="stop-color:#999999"/>
					<stop  offset="0.4121" style="stop-color:#666666"/>
					<stop  offset="0.4725" style="stop-color:#333333"/>
					<stop  offset="0.8571" style="stop-color:#333333"/>
				</radialGradient>
				<path opacity="0.85" fill="url(#SVGID_9_)" d="M152.306,94.896c0.374,2.363-1.143,4.073-2.063,5.523
					c-0.908,1.43-2.764,3.563-3.705,4.752c-1.21,1.53-2.974,0.863-2.974,0.863s10.335,5.258,16.625,8.416
					c2.49,1.263,6.256,0.403,8.908-4.567c0.619-1.153,4.559-9.473,5.533-11.947L152.306,94.896z"/>
				<g>
					<linearGradient id="SVGID_10_" gradientUnits="userSpaceOnUse" x1="129.2285" y1="128.9902" x2="103.1785" y2="135.5028">
						<stop  offset="0" style="stop-color:#F2F2F2"/>
						<stop  offset="0.0805" style="stop-color:#DDDDDD"/>
						<stop  offset="0.2582" style="stop-color:#B3B3B3"/>
						<stop  offset="0.2996" style="stop-color:#C6C6C6"/>
						<stop  offset="0.3578" style="stop-color:#DADADA"/>
						<stop  offset="0.4245" style="stop-color:#E8E8E8"/>
						<stop  offset="0.5065" style="stop-color:#F0F0F0"/>
						<stop  offset="0.6484" style="stop-color:#F2F2F2"/>
						<stop  offset="0.8956" style="stop-color:#FFFFFF"/>
					</linearGradient>
					<path fill="url(#SVGID_10_)" d="M100.823,133.798c-0.484-0.194-0.486-0.765,0.153-1.441c0.379-0.395,3.229-2.728,4.953-3.13
						c1.78-0.404,7.986-0.973,10.632-1.126c0.75-0.038,10.363-0.898,11.242-0.857c0.876,0.042,3.07,3.459,5.663,6.276
						c-0.304,0.026-8.674-0.159-15.772-0.14c-6.717,0.013-12.643,0.197-14.827,0.382
						C102.137,133.822,101.232,133.959,100.823,133.798z"/>
					<path fill="#7F7F7E" d="M100.774,133.917l0.049-0.119L100.774,133.917c-0.266-0.097-0.435-0.331-0.43-0.609l0,0
						c0-0.314,0.183-0.664,0.538-1.039l0,0c0.406-0.424,3.235-2.737,5.022-3.167l0,0c1.791-0.41,8-0.977,10.648-1.13l0,0
						c0.726-0.041,9.917-0.86,11.18-0.86l0,0c0.027,0,0.06,0,0.076,0.007l0,0c0.301,0.018,0.602,0.263,0.981,0.637l0,0
						c0.374,0.377,0.814,0.896,1.298,1.506l0,0c0.99,1.216,2.178,2.77,3.466,4.176l0,0l0.185,0.195l-0.271,0.02
						c-0.025,0-0.067,0-0.137,0l0,0c-1.097,0-8.239-0.149-14.692-0.149l0,0c-0.322,0-0.637,0.004-0.946,0.006l0,0
						c-6.717,0.01-12.643,0.198-14.813,0.377l0,0c-0.476,0.044-1.024,0.119-1.487,0.119l0,0
						C101.156,134,100.946,133.982,100.774,133.917L100.774,133.917z M101.393,133.744c0.433,0,0.979-0.07,1.468-0.114l0,0
						c2.189-0.187,8.109-0.37,14.832-0.384l0,0c0.309,0,0.624,0,0.946,0l0,0c6.195,0,13.039,0.136,14.531,0.147l0,0
						c-1.867-2.065-3.515-4.397-4.571-5.455l0,0c-0.352-0.371-0.659-0.567-0.802-0.564l0,0c-0.016-0.003-0.037-0.003-0.064-0.003
						l0,0c-1.226,0-10.429,0.822-11.167,0.857l0,0c-2.632,0.157-8.854,0.724-10.602,1.125l0,0c-1.667,0.379-4.55,2.72-4.894,3.096
						l0,0c-0.331,0.343-0.468,0.653-0.468,0.857l0,0c0.005,0.183,0.085,0.292,0.264,0.37l0,0l0,0
						C100.984,133.724,101.172,133.744,101.393,133.744L101.393,133.744z"/>
				</g>
				<g>
					<g>
						
							<linearGradient id="SVGID_11_" gradientUnits="userSpaceOnUse" x1="960.9238" y1="379.1602" x2="1233.1561" y2="710.8384" gradientTransform="matrix(0.4383 0 0 0.4383 -293.2314 -102.683)">
							<stop  offset="0" style="stop-color:#FFFFFF"/>
							<stop  offset="0.069" style="stop-color:#DEDEDE"/>
							<stop  offset="0.1565" style="stop-color:#FFFFFF"/>
							<stop  offset="0.2033" style="stop-color:#FFFFFF"/>
							<stop  offset="0.2785" style="stop-color:#DEDEDE"/>
							<stop  offset="0.3297" style="stop-color:#CCCCCC"/>
							<stop  offset="0.3357" style="stop-color:#D1D1D1"/>
							<stop  offset="0.3647" style="stop-color:#E6E6E6"/>
							<stop  offset="0.3976" style="stop-color:#F4F4F4"/>
							<stop  offset="0.4372" style="stop-color:#FCFCFC"/>
							<stop  offset="0.502" style="stop-color:#FFFFFF"/>
							<stop  offset="0.8852" style="stop-color:#FFFFFF"/>
							<stop  offset="0.9797" style="stop-color:#B0B0B0"/>
						</linearGradient>
						<path fill="url(#SVGID_11_)" d="M239.271,208.691c-2.906-7.32-11.113-23.197-22.363-39.709
							c-11.029-16.242-29.735-38.242-32.317-41.896c-2.535-3.582-3.524-7.611,1.748-9.277c3.439-1.093,11.737-2.808,15.125-3.757
							c3.296-0.903,3.533-1.977,3.81-4.528c0.288-2.762-0.468-16.163-2.132-24.145c-0.345-1.656-1.46-3.039-2.788-3.98
							c-1.173-0.822-5.73-4.791-8.25-7.666c-2.888-3.302-4.199-6.413-4.673-8.805c0,0-0.08-0.51-0.643-1.047
							c-0.214-0.226-0.379-0.333-0.734-0.54c-4.96-3.05-22.484-7.842-26.06-8.151c-2.447-0.222-11.121,0.895-19.021,5.642
							c-2.324,1.406-2.42,3.136-4.047,4.076c-1.616,0.943-5.337,1.791-9.241,3.541c-2.151,0.958-2.165,1.117-1.651,2.332
							c0.204,0.511,1.608,3.061,2.32,3.061c0.702,0.021,1.557-0.343,2.422-0.692c1.151-0.455,8.852-3.434,14.972-4.743
							c6.811-1.458,14.133-1.581,16.733,1.171c3.955,4.185,10.903,13.576,13.008,17.648c2.068,4.028,1.858,5.983,0.481,10.118
							c-1.27,3.818-6.066,13.743-7.475,15.798c-1.422,2.058-3.138,3.202-7.246,1.524c-4.405-1.812-20.624-10.132-24.149-11.914
							c-2.391-1.203-12.417-6.28-19.997-10.083c-2.805-1.408-5.117-2.43-7.636-3.066c-5.575-1.418-11.57-0.782-14.335-0.322
							c-1.255,0.207-2.048,2.234-1.99,3.056c0.081,1.021,3.022,0.296,5.47,0.47c1.976,0.136,8.738,0.869,12.64,2.45
							c4.117,1.667,24.743,12.777,29.956,15.58c39.683,21.589,56.659,35.488,87.329,87.024c1.368,2.301,2.024,5.133-0.135,5.775
							c-3.142,0.917-16.229,3.407-20.18,4.7c-3.329,1.101-3.77,1.361-4.262,3.003c-0.541,1.88-1.377,5.602-1.184,6.349
							c0.09,0.31-0.18,0.708,0.5,0.708c3.682,0,16.878,0.019,27.05,0.979c1.225,0.124,1.289,0.094,2.061-1.078
							c0.89-1.366,4.409-5.394,6.728-7.102C240.084,210.471,239.436,209.129,239.271,208.691z"/>
					</g>
				</g>
				<linearGradient id="SVGID_12_" gradientUnits="userSpaceOnUse" x1="97.665" y1="91.7168" x2="219.613" y2="207.5418">
					<stop  offset="0" style="stop-color:#D9D9D9"/>
					<stop  offset="0.043" style="stop-color:#C3C4C3"/>
					<stop  offset="0.1571" style="stop-color:#909090"/>
					<stop  offset="0.2643" style="stop-color:#686868"/>
					<stop  offset="0.3616" style="stop-color:#4B4B4B"/>
					<stop  offset="0.4457" style="stop-color:#393939"/>
					<stop  offset="0.5069" style="stop-color:#333333"/>
					<stop  offset="0.5726" style="stop-color:#383838"/>
					<stop  offset="0.6507" style="stop-color:#464746"/>
					<stop  offset="0.735" style="stop-color:#5E5E5E"/>
					<stop  offset="0.8238" style="stop-color:#808080"/>
					<stop  offset="0.915" style="stop-color:#AAAAAA"/>
					<stop  offset="1" style="stop-color:#D9D9D9"/>
				</linearGradient>
				<path fill="url(#SVGID_12_)" d="M229.938,201.058c-0.204-2.096-2.13-5.203-5.542-10.549c-3.434-5.38-7.749-12.727-13.489-20.86
					c-10.197-14.434-20.237-25.709-32.713-35.577c-9.209-7.284-18.878-13.127-25.966-17.283
					c-7.094-4.151-37.031-20.522-41.669-21.979c-4.224-1.323-7.58-1.756-10.573-2.062c-2.036-0.206-3.746-0.053-5.561-0.053
					c-1.715,0-1.11-1.393-0.874-1.943c-0.175,0.389-1.205,2.309,0.487,2.309c1.229,0,4.09-0.094,6.015,0.121
					c3.695,0.399,8.356,1.426,11.285,2.558c4.165,1.619,23.705,13.272,28.76,16.091c15.217,8.63,26.792,16.559,37.652,25.31
					c16.601,13.373,30.932,28.878,48.898,60.347c0.711,1.22,1.087,2.155,1.087,3.293c0.064,1.762-1.449,2.391-1.957,2.536
					c-3.09,0.927-15.775,3.783-19.537,5.078c-3.192,1.13-3.778,1.835-4.238,3.313c-0.167,0.613-0.707,3.608-1.336,4.404
					c-0.63,0.817-2.09,0.989-3.644,0.989c-0.957,0-1.434,0.054-1.333-1.011c0.082-1.062,0.714-3.937,1.08-5.59
					c0.36-1.664,1.044-2.907,2.557-3.821c1.509-0.92,6.773-1.77,9.731-2.501c2.958-0.718,3.114-2.092,3.063-4.326
					c0,2.369-0.819,2.939-3.789,3.608c-3.013,0.67-8.079,1.323-9.752,2.458c-1.605,1.105-2.24,2.644-2.53,3.859
					c-1.017,4.201-1.702,7.28-1.584,8.313c0.092,0.918,0.463,1.047,1.484,0.931c1.019-0.118,3.568-0.479,7.396-0.621
					c1.133,0,1.055-1.371,1.036-2.889c0-0.55,0.026-2.19,0.314-2.992c0.277-0.804,0.888-1.538,1.857-1.833
					c2.127-0.656,13.91-3.843,19.903-5.625C229.086,204.281,230.175,203.448,229.938,201.058z"/>
				<linearGradient id="SVGID_13_" gradientUnits="userSpaceOnUse" x1="156.4355" y1="147.7661" x2="108.9168" y2="218.8064">
					<stop  offset="0" style="stop-color:#BFBFBF"/>
					<stop  offset="0.1" style="stop-color:#FFFFFF"/>
					<stop  offset="0.3492" style="stop-color:#EDEDED"/>
					<stop  offset="0.4228" style="stop-color:#F6F6F6"/>
					<stop  offset="0.5385" style="stop-color:#FFFFFF"/>
					<stop  offset="0.5442" style="stop-color:#F4F4F4"/>
					<stop  offset="0.5799" style="stop-color:#B2B2B2"/>
					<stop  offset="0.6139" style="stop-color:#7C7C7C"/>
					<stop  offset="0.6453" style="stop-color:#515151"/>
					<stop  offset="0.6735" style="stop-color:#333333"/>
					<stop  offset="0.6974" style="stop-color:#202020"/>
					<stop  offset="0.7143" style="stop-color:#1A1A1A"/>
					<stop  offset="0.7229" style="stop-color:#373737"/>
					<stop  offset="0.7398" style="stop-color:#6C6C6C"/>
					<stop  offset="0.757" style="stop-color:#999999"/>
					<stop  offset="0.7741" style="stop-color:#BEBEBE"/>
					<stop  offset="0.7912" style="stop-color:#DADADA"/>
					<stop  offset="0.8081" style="stop-color:#EFEFEF"/>
					<stop  offset="0.8249" style="stop-color:#FBFBFB"/>
					<stop  offset="0.8414" style="stop-color:#FFFFFF"/>
					<stop  offset="0.85" style="stop-color:#FAFAFA"/>
					<stop  offset="0.8597" style="stop-color:#EDEDED"/>
					<stop  offset="0.87" style="stop-color:#D6D6D6"/>
					<stop  offset="0.8806" style="stop-color:#B7B7B7"/>
					<stop  offset="0.8915" style="stop-color:#8E8E8E"/>
					<stop  offset="0.9025" style="stop-color:#5D5D5D"/>
					<stop  offset="0.9103" style="stop-color:#363636"/>
					<stop  offset="0.9451" style="stop-color:#363636"/>
					<stop  offset="1" style="stop-color:#737373"/>
				</linearGradient>
				<path fill="url(#SVGID_13_)" d="M151.287,145.825c0.817,0.255,2.302,1.322,3.477,2.176c0.938,0.686,1.686,1.242,1.686,1.242
					c-7.939,9.925-19.711,27.053-23.5,34.297c-1.963,3.764-1.919,5.324-1.868,8.809c0.057,3.328,0.449,7.426,0.234,9.34
					c-0.215,1.931-1.447,2.76-3.375,3.292c-1.933,0.532-13.35,2.366-15.872,3.111c-2.522,0.745-3.097,2.158-3.522,3.981
					c-0.43,1.826-0.572,3.009-0.785,3.716c-0.226,0.786-0.078,1.334-0.82,1.388c-0.713,0.049-2.471,0.204-3.289,0.323
					c-0.833,0.107-0.947-0.068-0.922-0.952c0.029-0.904,0.855-4.878,1.425-6.97c0.553-2.103,1.449-3.521,4.313-4.222
					c2.858-0.692,14.471-2.64,16.652-3.032c2.576-0.468,3.208-1.555,3.082-4.033c-0.129-2.582-0.5-6.177-0.565-8.385
					c-0.075-2.227,0.06-4.041,0.791-6.018c0.806-2.167,4.937-11.114,8.386-17.421c4.757-8.709,10.629-18.037,11.777-19.427
					C149.512,145.911,150.158,145.47,151.287,145.825z"/>
				<linearGradient id="SVGID_14_" gradientUnits="userSpaceOnUse" x1="151.1304" y1="184.7686" x2="163.6737" y2="192.1571">
					<stop  offset="0.2" style="stop-color:#FFFFFF"/>
					<stop  offset="0.3197" style="stop-color:#FDFDFD"/>
					<stop  offset="0.3903" style="stop-color:#F4F4F4"/>
					<stop  offset="0.4482" style="stop-color:#E6E6E6"/>
					<stop  offset="0.4989" style="stop-color:#D2D2D2"/>
					<stop  offset="0.5207" style="stop-color:#C7C7C7"/>
					<stop  offset="0.8189" style="stop-color:#3B3B3B"/>
					<stop  offset="0.8352" style="stop-color:#333333"/>
					<stop  offset="0.9389" style="stop-color:#242524"/>
					<stop  offset="1" style="stop-color:#1A1A1A"/>
				</linearGradient>
				<path fill="url(#SVGID_14_)" d="M144.576,209.578c-0.102-2.054,0.653-3.938,1.963-5.818c1.758-2.525,4.466-5.104,7.795-8.553
					c5.827-6.042,20.026-19.944,20.534-20.455c0.323-0.316,0.708-0.763-0.08-1.524c-1.408-1.353-2.151-2.22-4.366-4.443
					c-1.353-1.354-2.293-2.177-2.246-2.646c0.006-0.067-15.861,17.775-21.061,30.968c-2.135,4.707-2.749,7.388-2.749,9.729
					C144.366,208.868,144.576,209.578,144.576,209.578z"/>
				<linearGradient id="SVGID_15_" gradientUnits="userSpaceOnUse" x1="158.1685" y1="150.8022" x2="171.3619" y2="135.0065">
					<stop  offset="0.022" style="stop-color:#FFFFFF"/>
					<stop  offset="0.1828" style="stop-color:#FFFFFF"/>
					<stop  offset="0.2088" style="stop-color:#FFFFFF"/>
					<stop  offset="0.3037" style="stop-color:#F7F7F7"/>
					<stop  offset="0.4491" style="stop-color:#E2E2E2"/>
					<stop  offset="0.5" style="stop-color:#D9D9D9"/>
					<stop  offset="0.597" style="stop-color:#C5C5C5"/>
					<stop  offset="0.8268" style="stop-color:#9C9C9C"/>
					<stop  offset="0.9451" style="stop-color:#8C8C8C"/>
					<stop  offset="1" style="stop-color:#858585"/>
				</linearGradient>
				<path fill="url(#SVGID_15_)" d="M94.251,93.061c2.215-0.018,4.272-0.079,6.187,0.16c3.767,0.468,8.381,1.465,11.293,2.678
					c1.514,0.633,5.101,2.583,9.29,4.949c7.254,4.104,16.315,9.445,19.534,11.25c11.205,6.374,20.465,12.378,28.892,18.631
					c3.043,2.252,5.961,4.576,8.833,6.905c16.655,13.451,30.33,28.343,48.602,60.26c0.704,1.235,0.919,2.218,0.841,3.296
					c-0.064,0.952-0.884,1.914-2.223,2.21L94.251,93.061z"/>
				<linearGradient id="SVGID_16_" gradientUnits="userSpaceOnUse" x1="187.2881" y1="62.6475" x2="204.4744" y2="80.2289">
					<stop  offset="0" style="stop-color:#000000"/>
					<stop  offset="0.0435" style="stop-color:#020302"/>
					<stop  offset="0.0684" style="stop-color:#0B0B0B"/>
					<stop  offset="0.0886" style="stop-color:#191919"/>
					<stop  offset="0.1064" style="stop-color:#2D2D2D"/>
					<stop  offset="0.1224" style="stop-color:#464646"/>
					<stop  offset="0.1373" style="stop-color:#666666"/>
					<stop  offset="0.1513" style="stop-color:#8C8C8C"/>
					<stop  offset="0.1646" style="stop-color:#B7B7B7"/>
					<stop  offset="0.1768" style="stop-color:#E7E7E7"/>
					<stop  offset="0.1793" style="stop-color:#F2F2F2"/>
					<stop  offset="0.1929" style="stop-color:#E4E4E4"/>
					<stop  offset="0.2458" style="stop-color:#B2B2B2"/>
					<stop  offset="0.2999" style="stop-color:#878787"/>
					<stop  offset="0.3543" style="stop-color:#646464"/>
					<stop  offset="0.4091" style="stop-color:#494949"/>
					<stop  offset="0.4645" style="stop-color:#363636"/>
					<stop  offset="0.5207" style="stop-color:#2A2A2A"/>
					<stop  offset="0.5793" style="stop-color:#262626"/>
					<stop  offset="0.7135" style="stop-color:#1F1F1F"/>
					<stop  offset="0.911" style="stop-color:#0B0B0B"/>
					<stop  offset="1" style="stop-color:#000000"/>
				</linearGradient>
				<path fill="url(#SVGID_16_)" d="M203.005,78.104h-0.024h-0.046c-0.632-0.009-1.081-0.274-1.457-0.536
					c-2.639-1.961-10.006-7.696-11.068-12.564c-0.664-2.276,0.173-1.238-2.196-2.438c-0.659-0.257-1.301-0.516-1.955-0.76
					c0.229,0.122,0.436,0.238,0.635,0.353c0.35,0.209,0.675,0.419,0.931,0.687c0.887,0.825,1.078,1.643,1.105,1.819
					c0.433,2.152,1.626,5.044,4.36,8.167c2.361,2.715,7.23,6.743,8.25,7.453c0.643,0.436,1.279,0.877,1.828,1.485
					c0.312-1.635,0.823-3.432,1.552-5.191c-0.121,0.189-0.231,0.44-0.454,0.722C204.217,77.636,203.729,78.067,203.005,78.104z"/>
				<linearGradient id="SVGID_17_" gradientUnits="userSpaceOnUse" x1="189.3486" y1="135.7002" x2="208.906" y2="122.8595">
					<stop  offset="0" style="stop-color:#000000"/>
					<stop  offset="0.0435" style="stop-color:#020302"/>
					<stop  offset="0.0684" style="stop-color:#0B0B0B"/>
					<stop  offset="0.0886" style="stop-color:#191919"/>
					<stop  offset="0.1064" style="stop-color:#2D2D2D"/>
					<stop  offset="0.1224" style="stop-color:#464646"/>
					<stop  offset="0.1373" style="stop-color:#666666"/>
					<stop  offset="0.1513" style="stop-color:#8C8C8C"/>
					<stop  offset="0.1646" style="stop-color:#B7B7B7"/>
					<stop  offset="0.1768" style="stop-color:#E7E7E7"/>
					<stop  offset="0.1793" style="stop-color:#F2F2F2"/>
					<stop  offset="0.1929" style="stop-color:#E4E4E4"/>
					<stop  offset="0.2458" style="stop-color:#B2B2B2"/>
					<stop  offset="0.2999" style="stop-color:#878787"/>
					<stop  offset="0.3543" style="stop-color:#646464"/>
					<stop  offset="0.4091" style="stop-color:#494949"/>
					<stop  offset="0.4645" style="stop-color:#363636"/>
					<stop  offset="0.5207" style="stop-color:#2A2A2A"/>
					<stop  offset="0.5793" style="stop-color:#262626"/>
					<stop  offset="0.7135" style="stop-color:#1F1F1F"/>
					<stop  offset="0.911" style="stop-color:#0B0B0B"/>
					<stop  offset="1" style="stop-color:#000000"/>
				</linearGradient>
				<path fill="url(#SVGID_17_)" d="M186.903,119.135c-2.457,0.888-2.77,1.667-2.847,2.895v0.016
					c-0.006,1.136,0.516,2.906,1.618,4.428c1.28,1.823,7.464,8.854,14.363,17.523c0.793,0.969,1.124,1.339,1.778,2.008
					c-0.251-0.327-9.987-12.651-12.972-16.055c-0.852-0.997-1.826-2.338-1.841-4.096c-0.006-1.754,1.338-4.252,4.11-5.209
					c3.703-1.354,10.44-3.536,11.973-4.369c1.496-0.855,1.937-1.231,2.157-2.253c-0.77,0.626-1.765,1.034-3.028,1.388
					C198.743,116.364,190.197,118.105,186.903,119.135z"/>
				<g>
					<linearGradient id="SVGID_18_" gradientUnits="userSpaceOnUse" x1="205.043" y1="73.271" x2="230.7236" y2="73.271">
						<stop  offset="0" style="stop-color:#4D4D4D"/>
						<stop  offset="0.2857" style="stop-color:#CCCCCC"/>
						<stop  offset="0.2991" style="stop-color:#C0C0C0"/>
						<stop  offset="0.3504" style="stop-color:#979797"/>
						<stop  offset="0.4006" style="stop-color:#767676"/>
						<stop  offset="0.4488" style="stop-color:#5F5F5F"/>
						<stop  offset="0.4939" style="stop-color:#515151"/>
						<stop  offset="0.533" style="stop-color:#4D4D4D"/>
						<stop  offset="0.7582" style="stop-color:#1A1A1A"/>
						<stop  offset="1" style="stop-color:#000000"/>
					</linearGradient>
					<path fill="url(#SVGID_18_)" d="M205.043,78.756c1.336-4.667,5.585-10.186,12.322-10.186c8.583,0,12.162,3.24,13.358,8.071
						c-1.538-6.855-7.531-8.987-13.377-8.849C210.765,67.942,206.333,73.533,205.043,78.756z"/>
				</g>
				<linearGradient id="SVGID_19_" gradientUnits="userSpaceOnUse" x1="100.2314" y1="206.8115" x2="159.4473" y2="206.8115">
					<stop  offset="0" style="stop-color:#000000"/>
					<stop  offset="0.0512" style="stop-color:#020302"/>
					<stop  offset="0.0805" style="stop-color:#0B0B0B"/>
					<stop  offset="0.1043" style="stop-color:#191919"/>
					<stop  offset="0.1252" style="stop-color:#2C2D2C"/>
					<stop  offset="0.1441" style="stop-color:#464646"/>
					<stop  offset="0.1615" style="stop-color:#666666"/>
					<stop  offset="0.1777" style="stop-color:#8B8B8B"/>
					<stop  offset="0.1793" style="stop-color:#8F8F8F"/>
					<stop  offset="0.1944" style="stop-color:#878787"/>
					<stop  offset="0.2688" style="stop-color:#646464"/>
					<stop  offset="0.3444" style="stop-color:#494949"/>
					<stop  offset="0.4208" style="stop-color:#363636"/>
					<stop  offset="0.4984" style="stop-color:#2A2A2A"/>
					<stop  offset="0.5793" style="stop-color:#262626"/>
					<stop  offset="0.7135" style="stop-color:#1F1F1F"/>
					<stop  offset="0.911" style="stop-color:#0B0B0B"/>
					<stop  offset="1" style="stop-color:#000000"/>
				</linearGradient>
				<path fill="url(#SVGID_19_)" d="M149.163,203.206c1.14-1.234,5.579-6.169,10.284-11.396c-1.54,1.552-2.938,2.979-4.03,4.103
					c-6.642,6.798-9.664,8.911-9.524,13.142c0.078,2.495,0.272,8.633,0.285,9.548c0,0.623,0.059,1.215-0.995,1.766
					c-0.517,0.28-1.407,0.277-1.861,0.277c-1.807,0-19.328-1.704-25.469-1.704c-6.152,0-11.422,0.682-14.59,1.478
					c-0.516,0.122-1.85,0.038-2.388-0.758c-0.274-0.414-0.374-0.833-0.398-1.196c-0.135,1.196-0.247,2.595-0.247,3.205
					c1.107-0.217,3.713-0.578,7.077-0.831c4.305-0.339,9.177-0.279,12.422-0.279c3.253,0,27.356,1.253,27.448,1.253
					c-0.159-1.855-0.398-6.259-0.465-9.019c-0.019-0.707-0.019-0.699-0.081-2.667C146.632,207.971,147.044,205.453,149.163,203.206z
					"/>
				<linearGradient id="SVGID_20_" gradientUnits="userSpaceOnUse" x1="175.5752" y1="184.0869" x2="202.0605" y2="184.0869">
					<stop  offset="0" style="stop-color:#000000"/>
					<stop  offset="0.0512" style="stop-color:#020302"/>
					<stop  offset="0.0805" style="stop-color:#0B0B0B"/>
					<stop  offset="0.1043" style="stop-color:#191919"/>
					<stop  offset="0.1252" style="stop-color:#2C2D2C"/>
					<stop  offset="0.1441" style="stop-color:#464646"/>
					<stop  offset="0.1615" style="stop-color:#666666"/>
					<stop  offset="0.1777" style="stop-color:#8B8B8B"/>
					<stop  offset="0.1793" style="stop-color:#8F8F8F"/>
					<stop  offset="0.1944" style="stop-color:#878787"/>
					<stop  offset="0.2688" style="stop-color:#646464"/>
					<stop  offset="0.3444" style="stop-color:#494949"/>
					<stop  offset="0.4208" style="stop-color:#363636"/>
					<stop  offset="0.4984" style="stop-color:#2A2A2A"/>
					<stop  offset="0.5793" style="stop-color:#262626"/>
					<stop  offset="0.7135" style="stop-color:#1F1F1F"/>
					<stop  offset="0.911" style="stop-color:#0B0B0B"/>
					<stop  offset="1" style="stop-color:#000000"/>
				</linearGradient>
				<path fill="url(#SVGID_20_)" d="M198.103,191.988c1.369,0.976,2.646,1.664,3.958,2.119c-1.105-0.775-2.732-2.018-4.867-3.648
					c-3.105-2.402-7.073-5.532-11.062-8.694c-3.369-2.678-6.75-5.378-9.623-7.698c-0.052,1.017-0.684,1.558-0.934,1.713
					c0.678,0.1,1.272,0.484,1.802,0.968C178.622,177.904,194.865,189.657,198.103,191.988z"/>
				<linearGradient id="SVGID_21_" gradientUnits="userSpaceOnUse" x1="193.3086" y1="187.6445" x2="241.9551" y2="187.6445">
					<stop  offset="0" style="stop-color:#000000"/>
					<stop  offset="0.0512" style="stop-color:#020302"/>
					<stop  offset="0.0805" style="stop-color:#0B0B0B"/>
					<stop  offset="0.1043" style="stop-color:#191919"/>
					<stop  offset="0.1252" style="stop-color:#2C2D2C"/>
					<stop  offset="0.1441" style="stop-color:#464646"/>
					<stop  offset="0.1615" style="stop-color:#666666"/>
					<stop  offset="0.1777" style="stop-color:#8B8B8B"/>
					<stop  offset="0.1793" style="stop-color:#8F8F8F"/>
					<stop  offset="0.1944" style="stop-color:#878787"/>
					<stop  offset="0.2688" style="stop-color:#646464"/>
					<stop  offset="0.3444" style="stop-color:#494949"/>
					<stop  offset="0.4208" style="stop-color:#363636"/>
					<stop  offset="0.4984" style="stop-color:#2A2A2A"/>
					<stop  offset="0.5793" style="stop-color:#262626"/>
					<stop  offset="0.7135" style="stop-color:#1F1F1F"/>
					<stop  offset="0.911" style="stop-color:#0B0B0B"/>
					<stop  offset="1" style="stop-color:#000000"/>
				</linearGradient>
				<path fill="url(#SVGID_21_)" d="M241.181,212.708c0.554-0.446,0.774-0.414,0.774-0.841c0-0.304-0.172-0.858-0.436-1.608
					c-3.28-9.393-15.781-32.564-25.504-45.453c-0.92-1.232-1.546-2.882-1.546-4.025c0-1.487,0.779-2.576,1.573-3.191
					c0.683-0.553,2.32-1.967,4.487-4.112c-3.356,2.514-5.705,4.52-5.99,5.423c-0.173,0.419-0.385,0.993-0.385,1.809
					c0,1.009,0.333,2.407,1.624,4.281c0.774,1.098,1.529,2.179,2.25,3.225c11.29,16.617,19.156,32.691,22.132,40.191
					c0.648,1.817,0.522,2.71-0.069,3.527c0,0-5.875,6.013-6.585,7.137c-0.31,0.449-0.533,0.833-0.939,1.177
					c-0.395,0.369-1.43,0.603-2.419,0.52c-8.682-0.82-18.109-1.158-22.833-1.158c-6.145,0-9.734,0.591-11.775,0.646
					c-1.104,0.037-1.883-0.227-2.018-0.409c-0.007-0.027-0.023-0.06-0.053-0.081c-0.089,0.86-0.143,1.511-0.161,1.799
					c3.724-0.673,8.735-0.959,14.31-0.959c1.769,0,3.585,0.031,5.453,0.079c9.169,0.283,19.814,1.13,19.85,1.13
					C232.939,221.8,238.029,215.319,241.181,212.708z"/>
				<linearGradient id="SVGID_22_" gradientUnits="userSpaceOnUse" x1="97.6313" y1="140.1377" x2="148.3374" y2="140.1377">
					<stop  offset="0" style="stop-color:#666666"/>
					<stop  offset="0.0568" style="stop-color:#686968"/>
					<stop  offset="0.0893" style="stop-color:#717171"/>
					<stop  offset="0.1157" style="stop-color:#7F7F7F"/>
					<stop  offset="0.1388" style="stop-color:#929292"/>
					<stop  offset="0.1596" style="stop-color:#ACACAC"/>
					<stop  offset="0.1787" style="stop-color:#CBCBCB"/>
					<stop  offset="0.1793" style="stop-color:#CCCCCC"/>
					<stop  offset="0.2072" style="stop-color:#BEBEBE"/>
					<stop  offset="0.3158" style="stop-color:#8C8C8C"/>
					<stop  offset="0.4268" style="stop-color:#616161"/>
					<stop  offset="0.5384" style="stop-color:#3E3E3E"/>
					<stop  offset="0.6508" style="stop-color:#232323"/>
					<stop  offset="0.7644" style="stop-color:#0F100F"/>
					<stop  offset="0.8798" style="stop-color:#040404"/>
					<stop  offset="1" style="stop-color:#000000"/>
				</linearGradient>
				<path fill="url(#SVGID_22_)" d="M148.337,144.809c-2.756-1.936-5.676-3.911-8.317-5.528c-3.484-2.184-6.797-3.69-7.787-3.666
					c-10.6-0.161-10.6-0.161-16.838-0.161c-4.866,0-9.48,0.183-11.314,0.32c-3.694,0.267-5.496,0.718-5.856,0.804
					c-0.363,0.084-0.575,0.061-0.594,0.061c0.094,0.145,0.228,0.426,0.292,0.535c0.097-0.034,0.245-0.094,0.517-0.171
					c2.224-0.634,7.185-0.935,13.38-0.951c5.907,0,12.353,0.043,15.687,0.196c2.993,0.149,7.211,0.55,10.583,2.388
					C141.22,140.387,148.012,145.101,148.337,144.809z"/>
				<linearGradient id="SVGID_23_" gradientUnits="userSpaceOnUse" x1="98.752" y1="109.2803" x2="116.7979" y2="109.2803">
					<stop  offset="0" style="stop-color:#262626"/>
					<stop  offset="0.0489" style="stop-color:#292929"/>
					<stop  offset="0.0769" style="stop-color:#313131"/>
					<stop  offset="0.0996" style="stop-color:#3F3F3F"/>
					<stop  offset="0.1195" style="stop-color:#535353"/>
					<stop  offset="0.1376" style="stop-color:#6C6C6C"/>
					<stop  offset="0.1543" style="stop-color:#8C8C8C"/>
					<stop  offset="0.1697" style="stop-color:#B1B1B1"/>
					<stop  offset="0.1793" style="stop-color:#CCCCCC"/>
					<stop  offset="0.2072" style="stop-color:#BEBEBE"/>
					<stop  offset="0.3158" style="stop-color:#8C8C8C"/>
					<stop  offset="0.4268" style="stop-color:#616161"/>
					<stop  offset="0.5384" style="stop-color:#3E3E3E"/>
					<stop  offset="0.6508" style="stop-color:#232323"/>
					<stop  offset="0.7644" style="stop-color:#0F100F"/>
					<stop  offset="0.8798" style="stop-color:#040404"/>
					<stop  offset="1" style="stop-color:#000000"/>
				</linearGradient>
				<path fill="url(#SVGID_23_)" d="M116.354,114.044c-4.02-3.734-10.104-8.037-12.958-8.627c-1.008-0.238-2.425-0.343-3.576-0.397
					c-0.878-0.051-0.82-1.074-1.067-1.269c0.022,0.181,0.078,1.723,0.613,1.761c0.715,0.054,2.958-0.262,4.934,0.688
					c2.697,1.331,9.553,6.399,10.602,7.497C116.203,115.193,117.504,115.045,116.354,114.044z"/>
				<linearGradient id="SVGID_24_" gradientUnits="userSpaceOnUse" x1="83.3345" y1="135.5972" x2="95.2114" y2="135.5972">
					<stop  offset="0" style="stop-color:#666666"/>
					<stop  offset="0.062" style="stop-color:#686968"/>
					<stop  offset="0.0976" style="stop-color:#717171"/>
					<stop  offset="0.1264" style="stop-color:#7F7F7F"/>
					<stop  offset="0.1516" style="stop-color:#929292"/>
					<stop  offset="0.1743" style="stop-color:#ACACAC"/>
					<stop  offset="0.1793" style="stop-color:#B3B3B3"/>
					<stop  offset="0.1821" style="stop-color:#B2B2B2"/>
					<stop  offset="0.3133" style="stop-color:#878787"/>
					<stop  offset="0.447" style="stop-color:#646464"/>
					<stop  offset="0.5816" style="stop-color:#494949"/>
					<stop  offset="0.7176" style="stop-color:#363636"/>
					<stop  offset="0.856" style="stop-color:#2A2A2A"/>
					<stop  offset="1" style="stop-color:#262626"/>
				</linearGradient>
				<path fill="url(#SVGID_24_)" d="M93.479,134.345c0.836,0,1.079,0.021,1.732,0.29c-0.409-0.696-0.861-1.007-2.154-0.983
					c-1.896,0.046-6.692,2.429-7.426,2.908c-1.119,0.624-1.597,0.634-2.296-0.124c0.317,0.771,0.86,1.242,1.353,1.076
					C85.173,137.341,90.933,134.345,93.479,134.345z"/>
				<linearGradient id="SVGID_25_" gradientUnits="userSpaceOnUse" x1="145.7925" y1="61.9697" x2="147.0963" y2="64.838">
					<stop  offset="0" style="stop-color:#FFFFFF"/>
					<stop  offset="0.1154" style="stop-color:#EBEBEB"/>
					<stop  offset="0.9066" style="stop-color:#404040"/>
				</linearGradient>
				<path fill="url(#SVGID_25_)" d="M149.273,61.343c0.879-0.142,1.626-0.333,1.715,0.388c0.036,0.356,0,0.8-0.131,1.136
					c-0.083,0.208-0.248,0.409-0.637,0.539c-0.909,0.289-6.083,2.191-6.972,2.554c-0.646,0.276-1.062-0.035-1.181-0.449
					c-0.131-0.4,0.003-1.44,0.299-1.915c0.293-0.478,0.53-0.627,0.984-0.77C143.791,62.679,147.963,61.55,149.273,61.343z"/>
				<path d="M149.123,61.788c0.578-0.11,0.86-0.053,0.893,0.266c0.024,0.331,0,0.534-0.027,0.656
					c-0.024,0.179-0.097,0.274-0.387,0.38c-0.592,0.211-4.373,1.559-5.284,1.938c-0.834,0.351-1.253,0.157-1.334-0.195
					c-0.07-0.359,0.059-0.92,0.205-1.171c0.145-0.25,0.368-0.42,0.677-0.52C144.549,62.898,148.049,61.981,149.123,61.788z"/>
				<linearGradient id="SVGID_26_" gradientUnits="userSpaceOnUse" x1="129.4644" y1="91.5186" x2="177.4443" y2="91.5186">
					<stop  offset="0.6868" style="stop-color:#FFFFFF"/>
					<stop  offset="0.7158" style="stop-color:#FAFAFA"/>
					<stop  offset="0.7521" style="stop-color:#EAEAEA"/>
					<stop  offset="0.7922" style="stop-color:#D1D1D1"/>
					<stop  offset="0.8352" style="stop-color:#ADADAD"/>
					<stop  offset="0.8803" style="stop-color:#7F7F7F"/>
					<stop  offset="0.9273" style="stop-color:#474847"/>
					<stop  offset="0.9751" style="stop-color:#070707"/>
					<stop  offset="0.9797" style="stop-color:#000000"/>
				</linearGradient>
				<path fill="url(#SVGID_26_)" d="M170.246,111.139c0.632-1.145,4.818-9.996,5.818-12.545c0.648-1.602,1.38-3.189,1.38-5.226
					c0-1.333-0.366-3.384-1.277-5.278c-2.304-4.858-9.594-14.088-12.509-17.575c-2.465-2.908-4.691-3.364-8.895-3.26
					c-10.712,0.283-20.056,4.821-25.299,6.962c3.74-1.278,12.82-5.001,22.952-5.61c5.565-0.337,7.798,0.136,9.836,2.426
					c2.958,3.26,9.854,12.523,12.309,17.219c0.971,1.863,1.404,3.527,1.264,4.957c-0.193,2.155-0.962,3.741-1.573,5.165
					c-1.066,2.451-5.009,10.462-5.694,11.628c-2.875,4.974-5.623,4.8-8.554,4.122c0.157,0.085,1.495,0.718,2.724,1.218
					C166.141,116.738,168.302,114.797,170.246,111.139z"/>
				<linearGradient id="SVGID_27_" gradientUnits="userSpaceOnUse" x1="126.3145" y1="210.293" x2="144.1022" y2="147.3852">
					<stop  offset="0" style="stop-color:#E5E6E6"/>
					<stop  offset="0.0659" style="stop-color:#404040"/>
					<stop  offset="0.075" style="stop-color:#424242"/>
					<stop  offset="0.2587" style="stop-color:#6E6F6E"/>
					<stop  offset="0.3517" style="stop-color:#808080"/>
					<stop  offset="0.4902" style="stop-color:#9A9A9A"/>
					<stop  offset="0.6044" style="stop-color:#ABABAB"/>
					<stop  offset="0.7298" style="stop-color:#898989"/>
					<stop  offset="0.8783" style="stop-color:#666666"/>
					<stop  offset="0.9586" style="stop-color:#595959"/>
					<stop  offset="1" style="stop-color:#A6A6A6"/>
				</linearGradient>
				<path fill="url(#SVGID_27_)" d="M157.315,149.853c-0.118-0.056-0.624-0.436-1.307-0.939
					c-1.614,1.812-8.838,10.842-13.883,18.882c-3.799,6.053-9.284,15.087-10.143,17.072c-0.793,1.833-1.051,3.484-1.078,5.641
					c0,0.021,0.312,9.767,0.312,9.825c0,1.205-0.177,2.197-0.823,2.96c-0.659,0.751-1.646,1.127-3.022,1.32
					c-2.255,0.334-12.906,1.975-15.826,2.568c-2.84,0.612-4.017,1.915-4.649,3.799c-0.46,1.355-0.987,3.662-0.981,4.674
					c0,0-0.032,0.555,0,0.555c-0.081,1.08,0.312,1.016,0.312,1.016s12.323-0.943,19.661-0.506
					c7.338,0.431,17.461,1.388,17.461,1.388s-10.653-1.995-17.905-2.449c-7.249-0.429-16.856,0.357-16.948-0.079
					c-0.054-0.309-0.242-0.76-0.167-1.653c0.121-0.572,0.269-1.233,0.468-1.922c0.473-1.802,1.312-3.391,4.127-4.044
					c2.689-0.684,13.033-2.394,14.999-2.875c1.938-0.489,3.194-1.212,3.465-2.794c0.07-0.482,0.135-1.575,0.129-2.581
					c0-2.078-0.366-7.596-0.355-7.942c0.07-3.394,0.215-5.195,2.434-8.857c3.439-5.722,16.383-25.399,22.825-32.23
					c0.404-0.43,0.592-0.798,1.31-0.684C157.589,149.967,157.45,149.925,157.315,149.853z"/>
			</g>
		</g>
		<g>
			<path fill="#192753" d="M2.5,262.624v28.73h7.913v-8.838h7.088c15.197,0,22.936-4.878,22.936-10.267
				c0-5.792-8.314-9.626-22.253-9.626H2.5z M10.413,279.413v-13.581h6.228c6.429,0,14.909,1.089,14.909,6.418
				c0,3.613-2.75,7.163-15.942,7.163H10.413z"/>
			<path fill="#192753" d="M85.547,291.354v-3.622H66.045c-4.181,0-5.394-1.893-5.394-5.104v-4.205h22.888v-3.606H60.651v-8.586
				h23.92v-3.607H52.743v20.177c0,5.399,2.235,8.554,9.519,8.554H85.547z"/>
			<path fill="#192753" d="M136.17,262.624h-7.911v24.248c-2.178,0.753-5.098,1.44-9.347,1.44c-6.077,0-12.105-1.548-12.105-6.885
				v-18.804h-7.905v19.379c0,7.916,7.905,10.26,16.623,10.26c8.319,0,15.084-1.724,20.645-4.063V262.624z"/>
			<path fill="#192753" d="M158.168,277.068c0-7.964,6.773-11.705,15.022-11.705c6.763,0,11.986,1.953,16.924,3.622v-4.817
				c-5.225-1.544-10.161-2.41-16.924-2.41c-13.237,0-24.022,6.077-24.022,15.311c0,9.755,10.785,15.194,24.022,15.194
				c6.604,0,13.533-1.368,17.79-2.455v-11.384h-7.804v8.516c-2.869,0.971-4.934,1.721-9.405,1.721
				C164.764,288.66,158.168,284.189,158.168,277.068"/>
			<path fill="#192753" d="M238.193,291.354v-3.622h-19.502c-4.18,0-5.389-1.893-5.389-5.104v-4.205h22.885v-3.606h-22.885v-8.586
				h23.915v-3.607h-31.825v20.177c0,5.399,2.229,8.554,9.516,8.554H238.193z"/>
			<path fill="#192753" d="M272.521,261.758c-13.245,0-24.073,6.19-24.073,15.458c0,9.724,10.828,15.047,24.073,15.047
				c13.248,0,24.031-5.323,24.031-15.047C296.553,267.948,285.77,261.758,272.521,261.758 M272.521,289.056
				c-9.005,0-15.079-4.641-15.079-11.84c0-7.892,6.769-11.853,15.079-11.853c8.263,0,15.028,3.961,15.028,11.853
				C287.55,284.415,281.465,289.056,272.521,289.056"/>
			<polygon fill="#192753" points="303.046,266.749 318.813,266.749 318.813,291.354 326.727,291.354 326.727,266.749 
				342.5,266.749 342.5,262.624 303.046,262.624 			"/>
		</g>
	</g>
</g>
</svg>
