<?xml version="1.0" encoding="utf-8"?>
<!-- Generator: Adobe Illustrator 16.0.0, SVG Export Plug-In . SVG Version: 6.00 Build 0)  -->
<!DOCTYPE svg PUBLIC "-//W3C//DTD SVG 1.1//EN" "http://www.w3.org/Graphics/SVG/1.1/DTD/svg11.dtd">
<svg version="1.1" id="Layer_1" xmlns="http://www.w3.org/2000/svg" xmlns:xlink="http://www.w3.org/1999/xlink" x="0px" y="0px"
	 width="345px" height="345px" viewBox="0 0 345 345" enable-background="new 0 0 345 345" xml:space="preserve">
<path fill-rule="evenodd" clip-rule="evenodd" fill="#FFFFFF" stroke="#221F1F" stroke-width="2" stroke-linecap="round" stroke-linejoin="round" stroke-miterlimit="2.6131" d="
	M341.039,173.485c0-93.069-75.445-168.516-168.516-168.516S4,80.417,4,173.485C4,266.556,79.453,342,172.523,342
	S341.039,266.556,341.039,173.485L341.039,173.485z"/>
<path fill-rule="evenodd" clip-rule="evenodd" d="M336.974,173.485c0-90.826-73.628-164.452-164.45-164.452
	C81.697,9.034,8.067,82.66,8.067,173.485c0,90.823,73.63,164.451,164.457,164.451C263.346,337.937,336.974,264.309,336.974,173.485
	L336.974,173.485z"/>
<path fill-rule="evenodd" clip-rule="evenodd" fill="#FFFFFF" d="M101.354,81.05c-0.628-4.392-3.274-8.083-7.334-9.93
	c-4.071-1.849-8.805-1.154-12.396,1.388c-0.292,0.209-0.563,0.459-0.84,0.683c0.594-2.032,0.777-4.081,0.27-6.165
	c-0.493-2.028-1.56-3.903-3.056-5.361c-3.045-2.972-7.665-3.949-11.658-2.455c-1.878,0.7-3.552,1.906-4.807,3.473
	c-0.712,0.89-1.425,1.781-2.137,2.675c-3.729,4.654-7.452,9.306-11.177,13.961c-3.202,3.994-6.4,7.988-9.597,11.983
	c-0.212,0.264-0.42,0.528-0.632,0.792c-0.017,0.015,0.41,0.339,0.439,0.361c1.243,0.996,2.483,1.987,3.724,2.982
	c4.694,3.757,9.388,7.515,14.084,11.275c4.642,3.721,9.292,7.442,13.943,11.166c1.186,0.947,2.367,1.895,3.557,2.843
	c0.047,0.043,0.324,0.319,0.374,0.26c0.234-0.296,0.469-0.59,0.702-0.881c3.19-3.989,6.381-7.971,9.57-11.956
	c3.825-4.774,7.647-9.548,11.471-14.324c1.974-2.464,4.154-4.789,5.093-7.879C101.428,84.354,101.506,82.693,101.354,81.05
	L101.354,81.05L101.354,81.05z M60.187,94.517c-1.933-1.548-3.868-3.098-5.8-4.644c-0.739-0.59-1.474-1.182-2.213-1.772
	c-0.019-0.019,0.757-0.971,0.814-1.034c3.6-4.499,7.205-9.002,10.805-13.5c0.95-1.187,1.801-2.453,3.26-3.056
	c1.993-0.82,4.333-0.294,5.778,1.295c1.167,1.288,1.552,3.04,1.177,4.716c-0.43,1.49-1.485,2.588-2.435,3.771
	c-1.894,2.367-3.792,4.738-5.688,7.106C63.986,89.773,62.086,92.147,60.187,94.517L60.187,94.517L60.187,94.517z M88.761,88.977
	c-1.223,1.529-2.444,3.055-3.665,4.582c-3.358,4.195-6.723,8.392-10.081,12.586c-0.015,0.018-0.105,0.159-0.129,0.141
	c-0.173-0.138-0.346-0.275-0.519-0.414c-0.916-0.734-1.825-1.462-2.74-2.195c-1.584-1.269-3.169-2.539-4.753-3.805
	c3.047-3.807,6.093-7.612,9.14-11.419c1.484-1.854,2.969-3.709,4.451-5.562c1.063-1.329,2.405-2.271,4.17-2.327
	c2.117-0.069,3.962,1.168,4.861,3.042C90.25,85.428,89.997,87.434,88.761,88.977L88.761,88.977z"/>
<path fill-rule="evenodd" clip-rule="evenodd" fill="#FFFFFF" d="M275.306,173.485c0-56.767-46.019-102.781-102.782-102.781
	c-56.767,0-102.787,46.015-102.787,102.781c0,56.766,46.02,102.783,102.787,102.783
	C229.287,276.269,275.306,230.251,275.306,173.485L275.306,173.485z"/>
<path fill-rule="evenodd" clip-rule="evenodd" fill="#0099D8" d="M172.52,75.912c-53.265,1.384-96.192,44.309-97.572,97.573h97.572
	V75.912L172.52,75.912z"/>
<path fill-rule="evenodd" clip-rule="evenodd" fill="#0099D8" d="M172.52,271.063c53.272-1.387,96.193-44.31,97.58-97.577h-97.58
	V271.063L172.52,271.063z"/>
<polygon fill-rule="evenodd" clip-rule="evenodd" fill="#FFFFFF" points="282.165,61.009 273.6,53.053 245.792,89.583 
	254.355,97.535 284.852,83.548 264.529,110.243 270.422,120.343 312.146,101.195 306.259,91.098 282.178,102.145 299.296,79.663 
	291.803,70.304 266.12,82.085 282.165,61.009 "/>
<polygon fill-rule="evenodd" clip-rule="evenodd" fill="#FFFFFF" points="157.392,33.011 168.237,63.847 176.805,63.847 
	187.65,33.011 188.795,63.847 200.788,65.56 199.072,19.309 183.656,17.593 172.523,50.143 161.383,17.593 145.965,19.309 
	144.255,65.56 156.25,63.847 157.392,33.011 "/>
</svg>
