<?xml version="1.0" encoding="utf-8"?>
<!-- Generator: Adobe Illustrator 16.0.0, SVG Export Plug-In . SVG Version: 6.00 Build 0)  -->
<!DOCTYPE svg PUBLIC "-//W3C//DTD SVG 1.1//EN" "http://www.w3.org/Graphics/SVG/1.1/DTD/svg11.dtd">
<svg version="1.1" id="Layer_1" xmlns="http://www.w3.org/2000/svg" xmlns:xlink="http://www.w3.org/1999/xlink" x="0px" y="0px"
	 width="345px" height="345px" viewBox="0 0 345 345" enable-background="new 0 0 345 345" xml:space="preserve">
<g id="g10" transform="matrix(1.25,0,0,-1.25,0,242.5)">
	<g id="g12" transform="scale(0.1,0.1)">
		<path id="path14" fill="#ED1C24" d="M-0.004-820H2760v2760H-0.004V-820z"/>
		<path id="path16" fill="#FFFFFF" d="M2342.008,165.211h-106.672l76.195,75.312L2342.008,165.211z M816.512,166.094l75.309,74.43
			l31.387-74.43H816.512z M1613.57,304.172l-79.805-218.766h142.555l80.695,218.766H1613.57z M422.477,227.07
			c28.688,17.477,67.238,27.781,116.105,31.367c48.402,4.055,96.379,0,142.555-11.195l23.309,51.555
			C652,312.219,590.578,316.719,521.094,313.125c-67.687-3.57-124.629-14.797-170.789-32.266
			c-63.668-20.633-99.52-52.008-107.594-94.594c-2.238-15.234,3.582-30.023,17.934-44.828
			c15.695-16.586,38.102-30.031,68.594-40.336c75.305-26.898,173.48-30.953,293.617-11.211L646.617,154
			c-20.176-7.625-41.695-12.563-64.105-14.805c-30.625-1.344-61.262-2.695-91.902-4.031c-30.035,2.242-56.031,9.867-78.445,24.211
			C381.684,182.242,384.367,205.539,422.477,227.07L422.477,227.07z M1562,290.719c-103.992,39.445-218.313,37.219-342.027-8.063
			c-30.934-11.219-56.934-27.805-78.449-47.977c-21.973-21.055-32.285-40.336-32.285-59.164
			c-3.133-19.273,4.488-38.109,22.418-55.141c23.758-23.313,61.41-37.203,111.168-41.703c62.313-8.961,145.254-2.227,247.457,19.289
			l37.195,100.859h-155.086l-13.445-32.727h53.781l-14.344-41.242c-68.133-15.688-115.645-8.07-144.348,21.078
			c-12.551,13.445-14.793,29.586-6.727,48.414c8.527,17.023,23.316,32.266,44.836,43.469c15.25,8.078,33.617,13.891,56.039,18.375
			c21.969,4.039,43.48,6.305,65.895,6.305c59.625-1.805,103.094-8.523,129.984-19.734L1562,290.719L1562,290.719z M1926.016,304.172
			h-147.938l108.953-218.766h116.539l220.539,218.766h-100.852l-132.242-131.344L1926.016,304.172z M864.934,304.172L643.93,85.852
			h90.992l40.348,39h164.523l16.148-39h151.953l-100.41,218.32H864.934z M2284.64,304.172L2062.75,85.852h91.883l39.453,39h164.969
			l16.578-39h142.109l-91.453,218.32H2284.64"/>
		<path id="path18" fill="#FFFFFF" d="M1392.461,1110.57c-9.008,0-15.008,0-24,0l0,0c-77.949,0-152.906-14.996-215.863-41.977
			c-83.941-32.969-140.918-83.945-176.906-137.91c-23.973-38.992-38.953-83.949-38.953-128.93c0-14.988,2.984-29.977,5.984-44.977
			c-11.988,2.992-17.992,6.008-20.984,6.008c-2.996,0-5.988,0-5.988-3.016c-3,0-3-2.992,0-2.992c0-2.984,2.992-2.984,2.992-2.984
			s8.996-6,26.969-17.98c6.008-12.008,9.012-23.984,15-35.977c38.98-80.965,122.93-158.914,269.832-191.891
			c44.973-8.992,89.949-14.984,137.918-14.984l0,0c8.992,0,14.992,0,24,0c245.828,0,452.711,131.902,452.711,308.793
			C1845.172,996.637,1602.32,1110.57,1392.461,1110.57z M1320.492,648.848L1320.492,648.848
			c-20.984-2.996-44.977-5.984-65.953-5.984l2.988-3.008c12.004-14.992,14.988-17.992,20.996-23.984
			c5.996-5.984,14.992-20.984,2.996-26.98c-9.004-2.996-86.949-2.996-236.855,50.965c0,0,17.992-17.992,56.969-44.969
			c0,0,29.98-14.996,56.961-23.988c53.965-20.984,104.93-29.977,137.906-32.969c83.969-6.008,77.969,23.977,62.969,53.961
			C1347.476,618.871,1320.492,648.848,1320.492,648.848z M1248.531,819.754c3,2.996,11.992,2.996,11.992,5.984
			c-2.996,0-20.977,9.008-29.98,12.004c-2.996,3-5.996,3-8.992,3v2.996c0,0-11.996,5.988,5.996-23.984l0,0
			c0,0,9.004-11.988,14.988-18l0,0c8.996-8.98,14.992-14.988,12.004-8.98c-6.008,11.992-8.996,23.984-8.996,26.98
			C1245.543,819.754,1245.543,819.754,1248.531,819.754z M1182.578,936.672c44.969,71.957,161.898,65.977,161.898,65.977
			s47.984,47.965,77.961,71.934c0,0-236.863-20.977-281.832-143.898c-35.996-92.941,65.957-218.855,65.957-218.855
			c11.988,0,53.961,5.977,53.961,5.977C1215.555,768.789,1140.605,867.723,1182.578,936.672z M1362.476,513.937
			c-116.934,0-221.871,32.984-293.82,89.953c-44.984,32.969-74.957,74.961-92.965,119.914c0,0,0,0,3.016-2.984
			c14.992-6.008,29.984-12.012,44.965-17.984c12-6,23.988-12.004,35.984-15.016c17.977-5.98,35.98-11.98,47.969-14.988l0,0
			c29.984-8.992,62.961-14.977,104.934-17.984c14.988-2.988,29.977-2.988,44.969-2.988c62.965,2.988,134.934,32.965,182.887,50.977
			c12,5.973,20.992,8.992,26.992,14.969c-41.977,14.988-44.969,14.988-74.945,29.988l0,0
			c-65.969-29.988-110.941-44.957-164.914-44.957c-5.996,0-8.996,0-11.992,0c-41.977,0-80.945,2.984-116.922,8.992l0,0
			c-11.988,2.984-62.961,14.992-104.934,26.984c-2.996,2.973-2.996,2.973-6,2.973c-5.992,3-20.988,6.008-20.988,6.008l0,0
			c-6,17.977-6,35.988-6,53.961c0,158.91,179.894,287.82,401.766,287.82c29.984,0,59.961-2.988,89.938-8.992
			c-41.969-29.969-104.938-92.941-137.914-134.914c-6-8.996-6-11.988-11.992-20.984c0,0,0,0,0-3.008c-3,0-3-2.988-3-2.988
			c0-2.996,0-2.996,3-2.996h3.008c0,0,2.984,0,2.984,2.996c6,5.996,14.992,17.984,35.977,38.969
			c23.984,23.98,41.977,38.98,41.977,38.98c38.977,32.988,92.945,74.953,149.906,62.953c3,0,3,0,5.992-2.988
			c41.977-14.992,77.961-32.981,107.938-56.965c0,0,2.992,0,2.992-3c3.023,0,8.992-8.996,6-11.988c0-3.012-8.992-6-17.977-8.992
			c-15-5.996-35.992-8.988-44.977-12c-62.969-14.988-113.93-26.984-146.906-32.973c-3-3.004-3-3.004,0-3.004
			c0-2.996,0-2.996,2.992-2.996c5.977,0,65.953,2.996,89.938,6c44.969,2.996,77.961,2.996,86.945,0h2.992
			c12.008-6,14.992-14.992,14.992-20.98c-2.984-29.988-20.977-89.949-20.977-89.949c-14.984-44.969-41.977-86.961-71.945-83.941
			c-41.977,3-86.953,17.98-131.922,29.957c-29.977,9.016-41.969,12-59.961,20.996c-3.008,0-5.996,0-5.996,0
			c-3.02-2.984-3.02-5.984,0-5.984c8.973-9.004,44.973-24.004,74.941-35.996c104.938-41.949,272.844-89.938,287.813-44.949
			c0,0-38.953,11.992-44.953,41.949c-3.016,41.996,2.977,77.969,11.977,128.949c6.008,41.949,15.016,62.945,21,74.934
			c35.961-41.969,53.969-92.934,53.969-143.914C1761.226,642.863,1581.328,513.937,1362.476,513.937"/>
	</g>
</g>
</svg>
