<?xml version="1.0" encoding="utf-8"?>
<!-- Generator: Adobe Illustrator 16.0.0, SVG Export Plug-In . SVG Version: 6.00 Build 0)  -->
<!DOCTYPE svg PUBLIC "-//W3C//DTD SVG 1.1//EN" "http://www.w3.org/Graphics/SVG/1.1/DTD/svg11.dtd">
<svg version="1.1" id="Layer_1" xmlns="http://www.w3.org/2000/svg" xmlns:xlink="http://www.w3.org/1999/xlink" x="0px" y="0px"
	 width="345px" height="345px" viewBox="0 0 345 345" enable-background="new 0 0 345 345" xml:space="preserve">
<path fill="#00487F" d="M300.923,187.454l21.867-33.052v32.914h19.71v-67.991l-3.946-0.097c0,0-5.605-0.051-6.72-0.055
	c-4.864,0.07-9.142,2.527-11.729,6.242c-0.011,0.015-0.019,0.032-0.022,0.047c-3.059,4.325-20.307,29.799-20.307,29.799v-36.034
	l-6.559,0.097c0,0-0.738-0.045-1.857-0.04c-0.457,0.018-0.955,0.04-1.497,0.04c-0.967,0.029-2.05,0.119-3.111,0.274
	c-2.977,0.593-5.604,2.101-7.616,4.2c-0.156,0.165-0.32,0.319-0.494,0.483c-2.619,2.867-4.545,6.081-4.545,6.081l-38.466,56.961
	l24.83-0.057l22.158-32.591v32.725L300.923,187.454z"/>
<path fill="#00487F" d="M179.409,154.918c-0.533-0.402-1.086-0.712-1.679-1.119l-20.191-11.591
	c-0.474-0.268-0.817-0.789-0.817-1.367c0-0.867,0.696-1.588,1.567-1.588l32.371-0.01l-13.165-19.934c0,0-21.938,0-22.625,0.009
	c-1.493,0.125-1.571,0.099-3.252,0.307c-2.924,0.546-6.942,1.697-10.298,4.532c-0.375,0.272-0.748,0.574-1.101,0.867
	c-3.822,3.709-6.22,8.899-6.22,14.662c0,6.356,4.19,12.682,8.268,15.262c1.245,0.891,1.508,1.045,1.573,1.083l14.602,8.36
	c0.557,0.234,0.944,0.773,0.944,1.433c0,0.859-0.703,1.585-1.569,1.585l-25.391-0.04l-13.504,19.969l46.484-0.07
	c0.817-0.037,1.259-0.078,2.449-0.126c10.307-0.299,18.654-8.038,18.654-18.369C186.51,162.808,183.079,157.279,179.409,154.918"/>
<path fill="#00487F" d="M237.714,124.746c0,0,1.583-2.718,3.925-4.484c1.478-1.107,4.413-1.107,4.413-1.107h20.972
	c0,0-0.92,0.662-2.122,2.139c-0.826,1.019-2.078,2.863-2.078,2.863l-49.234,73.196h-24.986L237.714,124.746z"/>
<polygon fill="#E01927" points="186.352,119.325 208.854,152.912 185.74,187.345 207.559,187.345 230.664,152.912 207.951,119.325 
	"/>
<path fill="#E01927" d="M21.734,125.363L21.734,125.363c-8.405,8.414-13.042,19.6-13.042,31.497
	c0,11.906,4.636,23.086,13.042,31.519c8.419,8.414,19.612,13.059,31.513,13.059s23.097-4.645,31.504-13.059
	c8.416-8.433,13.043-19.613,13.043-31.519c0-11.896-4.627-23.083-13.043-31.497c-8.408-8.421-19.604-13.055-31.504-13.055
	S30.153,116.942,21.734,125.363"/>
<path fill="none" stroke="#E01927" stroke-width="0.006" d="M21.734,125.363L21.734,125.363c-8.405,8.414-13.042,19.6-13.042,31.497
	c0,11.906,4.636,23.086,13.042,31.519c8.419,8.414,19.612,13.059,31.513,13.059s23.097-4.645,31.504-13.059
	c8.416-8.433,13.043-19.613,13.043-31.519c0-11.896-4.627-23.083-13.043-31.497c-8.408-8.421-19.604-13.055-31.504-13.055
	S30.153,116.942,21.734,125.363z"/>
<path fill="#323D3C" d="M57.805,194.866c8.904-0.789,17.104-4.542,23.504-10.949c7.22-7.219,11.207-16.83,11.207-27.059
	c0-10.209-3.986-19.833-11.207-27.054c-7.228-7.238-16.843-11.213-27.059-11.213c-6.807,0-13.351,1.758-19.096,5.067l6.292,10.849
	c3.856-2.206,8.238-3.392,12.803-3.392c6.877,0,13.339,2.677,18.214,7.546c4.867,4.866,7.548,11.337,7.548,18.219
	c0,6.881-2.682,13.347-7.548,18.217c-1.653,1.655-3.49,3.054-5.46,4.187L57.805,194.866z"/>
<path fill="none" stroke="#323D3C" stroke-width="0.006" d="M57.805,194.866c8.904-0.789,17.104-4.542,23.504-10.949
	c7.22-7.219,11.207-16.83,11.207-27.059c0-10.209-3.986-19.833-11.207-27.054c-7.228-7.238-16.843-11.213-27.059-11.213
	c-6.807,0-13.351,1.758-19.096,5.067l6.292,10.849c3.856-2.206,8.238-3.392,12.803-3.392c6.877,0,13.339,2.677,18.214,7.546
	c4.867,4.866,7.548,11.337,7.548,18.219c0,6.881-2.682,13.347-7.548,18.217c-1.653,1.655-3.49,3.054-5.46,4.187L57.805,194.866z"/>
<g>
	<defs>
		<path id="SVGID_1_" d="M34.696,123.391c5.606-3.106,11.948-4.759,18.551-4.759c10.226,0,19.834,3.934,27.061,11.171
			c7.222,7.221,11.215,16.846,11.215,27.055c0,10.229-3.994,19.84-11.215,27.061c-6.394,6.407-14.664,10.268-23.568,11.064
			l9.262-15.699c1.974-1.135,3.807-2.531,5.462-4.187c4.863-4.87,7.552-11.335,7.552-18.217c0-6.881-2.688-13.352-7.552-18.218
			c-4.866-4.872-11.336-7.549-18.216-7.549c-4.307,0-8.46,1.053-12.163,3.037L34.696,123.391z"/>
	</defs>
	<clipPath id="SVGID_2_">
		<use xlink:href="#SVGID_1_"  overflow="visible"/>
	</clipPath>
	<g clip-path="url(#SVGID_2_)">
		<g>
			<defs>
				<rect id="SVGID_3_" x="13.8" y="117.282" width="79.179" height="77.877"/>
			</defs>
			<clipPath id="SVGID_4_">
				<use xlink:href="#SVGID_3_"  overflow="visible"/>
			</clipPath>
			<g clip-path="url(#SVGID_4_)">
				<defs>
					<rect id="SVGID_5_" x="13.8" y="117.283" width="79.179" height="77.876"/>
				</defs>
				<clipPath id="SVGID_6_">
					<use xlink:href="#SVGID_5_"  overflow="visible"/>
				</clipPath>
				<g clip-path="url(#SVGID_6_)">
					
						<image overflow="visible" width="330" height="325" xlink:href="87BB6334.jpg"  transform="matrix(0.24 0 0 0.24 13.8003 117.2827)">
					</image>
				</g>
			</g>
		</g>
	</g>
</g>
<path fill="#323D3C" d="M40.814,178.868c-1.709-1.054-3.325-2.313-4.789-3.771c-4.866-4.87-7.543-11.335-7.543-18.217
	c0-5.814,1.909-11.329,5.443-15.835l-6.604-11.382h-1.007c-0.044,0.046-0.085,0.089-0.125,0.141
	c-7.231,7.221-11.207,16.845-11.207,27.054c0,10.229,3.976,19.84,11.207,27.061c5.763,5.782,13.058,9.486,20.961,10.75h1.023
	l22.599-38.248l-14.267-24.542c-2.011-3.943-2.336-7.94-0.849-10.188c2.673-4.079,15.927,0.172,22.208,5.054
	c-6.722-5.303-14.929-8.153-23.613-8.153c-6.8,0-13.363,1.758-19.096,5.067l18.997,32.763l-13.354,22.49"/>
<path fill="none" stroke="#323D3C" stroke-width="0.006" d="M40.814,178.868c-1.709-1.054-3.325-2.313-4.789-3.771
	c-4.866-4.87-7.543-11.335-7.543-18.217c0-5.814,1.909-11.329,5.443-15.835l-6.604-11.382h-1.007
	c-0.044,0.046-0.085,0.089-0.125,0.141c-7.231,7.221-11.207,16.845-11.207,27.054c0,10.229,3.976,19.84,11.207,27.061
	c5.763,5.782,13.058,9.486,20.961,10.75h1.023l22.599-38.248l-14.267-24.542c-2.011-3.943-2.336-7.94-0.849-10.188
	c2.673-4.079,15.927,0.172,22.208,5.054c-6.722-5.303-14.929-8.153-23.613-8.153c-6.8,0-13.363,1.758-19.096,5.067l18.997,32.763
	l-13.354,22.49"/>
<g>
	<defs>
		<path id="SVGID_7_" d="M47.175,194.667l7.112-12.032c-0.35,0-0.698,0.013-1.041,0.013c-6.88,0-13.354-2.686-18.218-7.55
			c-4.87-4.87-7.55-11.335-7.55-18.217c0-5.815,1.922-11.329,5.437-15.837l-6.603-11.381c-0.044,0.048-0.085,0.092-0.125,0.141
			c-7.231,7.221-11.207,16.846-11.207,27.055c0,10.229,3.976,19.84,11.207,27.061c5.763,5.784,13.058,9.486,20.961,10.748"/>
	</defs>
	<clipPath id="SVGID_8_">
		<use xlink:href="#SVGID_7_"  overflow="visible"/>
	</clipPath>
	<g clip-path="url(#SVGID_8_)">
		<g>
			<defs>
				<rect id="SVGID_9_" x="13.105" y="117.282" width="79.873" height="78.555"/>
			</defs>
			<clipPath id="SVGID_10_">
				<use xlink:href="#SVGID_9_"  overflow="visible"/>
			</clipPath>
			<g clip-path="url(#SVGID_10_)">
				<defs>
					<rect id="SVGID_11_" x="13.105" y="117.283" width="79.872" height="78.553"/>
				</defs>
				<clipPath id="SVGID_12_">
					<use xlink:href="#SVGID_11_"  overflow="visible"/>
				</clipPath>
				<g clip-path="url(#SVGID_12_)">
					
						<image overflow="visible" width="333" height="328" xlink:href="87BB633B.jpg"  transform="matrix(0.24 0 0 0.24 13.105 117.2827)">
					</image>
				</g>
			</g>
		</g>
	</g>
</g>
<g>
	<defs>
		<path id="SVGID_13_" d="M69.767,156.421l-14.263-24.543c-2.011-3.94-2.329-7.939-0.842-10.188
			c2.666-4.078,15.913,0.173,22.204,5.055c-6.716-5.303-14.936-8.152-23.619-8.152c-6.8,0-13.358,1.756-19.102,5.066l19.013,32.763
			L39.8,178.909c-7.879,11.063-20.331-4.015-20.331-4.015c1.762,3.291,3.992,6.306,6.718,9.024
			c5.78,5.784,13.079,9.486,20.987,10.748L69.767,156.421z"/>
	</defs>
	<clipPath id="SVGID_14_">
		<use xlink:href="#SVGID_13_"  overflow="visible"/>
	</clipPath>
	<g clip-path="url(#SVGID_14_)">
		<g>
			<defs>
				<rect id="SVGID_15_" x="16.744" y="116.788" width="62.215" height="77.776"/>
			</defs>
			<clipPath id="SVGID_16_">
				<use xlink:href="#SVGID_15_"  overflow="visible"/>
			</clipPath>
			<g clip-path="url(#SVGID_16_)">
				<defs>
					<rect id="SVGID_17_" x="16.745" y="116.789" width="62.215" height="77.776"/>
				</defs>
				<clipPath id="SVGID_18_">
					<use xlink:href="#SVGID_17_"  overflow="visible"/>
				</clipPath>
				<g clip-path="url(#SVGID_18_)">
					
						<image overflow="visible" width="260" height="325" xlink:href="87BB633C.jpg"  transform="matrix(0.24 0 0 0.24 16.7446 116.7886)">
					</image>
				</g>
			</g>
		</g>
	</g>
</g>
<g>
	<defs>
		<path id="SVGID_19_" d="M53.247,207.621c-28.025,0-50.747-22.737-50.747-50.763c0-28.021,22.722-50.729,50.747-50.729
			c28.021,0,50.738,22.707,50.738,50.729C103.984,184.884,81.268,207.621,53.247,207.621 M19.283,122.909
			c-9.074,9.07-14.063,21.123-14.063,33.949c0,12.827,4.989,24.892,14.063,33.976c9.066,9.064,21.137,14.062,33.964,14.062
			c12.825,0,24.891-4.997,33.967-14.062c9.061-9.084,14.059-21.149,14.059-33.976c0-12.826-4.998-24.878-14.059-33.949
			c-9.077-9.079-21.142-14.067-33.967-14.067C40.42,108.842,28.349,113.831,19.283,122.909"/>
	</defs>
	<clipPath id="SVGID_20_">
		<use xlink:href="#SVGID_19_"  overflow="visible"/>
	</clipPath>
	<g clip-path="url(#SVGID_20_)">
		<g>
			<defs>
				<rect id="SVGID_21_" x="-1.51" y="101.541" width="109.093" height="108.81"/>
			</defs>
			<clipPath id="SVGID_22_">
				<use xlink:href="#SVGID_21_"  overflow="visible"/>
			</clipPath>
			<g clip-path="url(#SVGID_22_)">
				<defs>
					<rect id="SVGID_23_" x="-1.51" y="101.541" width="109.092" height="108.81"/>
				</defs>
				<clipPath id="SVGID_24_">
					<use xlink:href="#SVGID_23_"  overflow="visible"/>
				</clipPath>
				<g clip-path="url(#SVGID_24_)">
					
						<image overflow="visible" width="455" height="454" xlink:href="87BB633F.jpg"  transform="matrix(0.24 0 0 0.24 -1.5098 101.5405)">
					</image>
				</g>
			</g>
		</g>
	</g>
</g>
<g>
	<defs>
		<path id="SVGID_25_" d="M53.247,109.594c12.619,0,24.504,4.908,33.423,13.849c8.928,8.918,13.844,20.792,13.844,33.415
			c0,12.627-4.916,24.509-13.844,33.447c-8.919,8.919-20.804,13.84-33.423,13.84c-12.634,0-24.499-4.921-33.436-13.84
			c-8.927-8.938-13.837-20.82-13.837-33.447c0-12.623,4.911-24.497,13.837-33.415C28.748,114.502,40.612,109.594,53.247,109.594
			 M21.734,125.364L21.734,125.364c-8.405,8.415-13.042,19.598-13.042,31.494c0,11.906,4.636,23.088,13.042,31.521
			c8.419,8.414,19.612,13.059,31.513,13.059s23.097-4.645,31.504-13.059c8.416-8.433,13.043-19.615,13.043-31.521
			c0-11.896-4.627-23.079-13.043-31.494c-8.408-8.421-19.604-13.057-31.504-13.057S30.153,116.943,21.734,125.364"/>
	</defs>
	<clipPath id="SVGID_26_">
		<use xlink:href="#SVGID_25_"  overflow="visible"/>
	</clipPath>
	<g clip-path="url(#SVGID_26_)">
		<g>
			<defs>
				<polygon id="SVGID_27_" points="-31.264,194.637 84.972,238.552 131.145,116.365 14.907,72.453 				"/>
			</defs>
			<clipPath id="SVGID_28_">
				<use xlink:href="#SVGID_27_"  overflow="visible"/>
			</clipPath>
			<g clip-path="url(#SVGID_28_)">
				<defs>
					<rect id="SVGID_29_" x="-31.264" y="72.453" width="162.408" height="166.098"/>
				</defs>
				<clipPath id="SVGID_30_">
					<use xlink:href="#SVGID_29_"  overflow="visible"/>
				</clipPath>
				<g transform="matrix(1 0 0 1 -1.907349e-006 0)" clip-path="url(#SVGID_30_)">
					
						<image overflow="visible" width="677" height="693" xlink:href="87BB633E.jpg"  transform="matrix(0.24 0 0 0.24 -31.2637 72.4526)">
					</image>
				</g>
			</g>
		</g>
	</g>
</g>
<polygon fill="#00487F" points="121.325,222.425 118.67,222.425 118.67,218.537 121.325,218.537 121.325,209.666 138.358,209.666 
	138.358,213.559 125.42,213.559 125.42,218.537 134.435,218.537 134.435,222.425 125.42,222.425 125.42,227.984 138.358,227.984 
	138.358,231.869 121.325,231.869 "/>
<path fill="#00487F" d="M142.073,214.75h3.682v2.171h0.06c1.03-1.596,2.907-2.616,5.233-2.616c3.607,0,6.639,2.996,6.639,7.246
	v10.318h-3.665v-9.512c0-3.1-1.634-4.383-4.064-4.383c-2.37,0-4.203,1.521-4.203,4.306v9.589h-3.682V214.75z"/>
<path fill="#00487F" d="M178.696,229.961c0,5.655-4.323,8.91-8.941,8.91c-2.378,0-5.277-0.991-7.217-3.402l3.007-2.188
	c0.71,0.982,2.289,2.117,4.026,2.117c3.748,0,5.652-2.437,5.652-5.051v-1.126c-1.552,1.725-3.317,2.647-5.837,2.647
	c-4.409,0-8.303-3.317-8.303-8.733c0-5.623,4.178-8.831,8.74-8.831c2.294,0,4.135,0.884,5.339,2.47h0.061v-2.024h3.473V229.961z
	 M170.137,228.4c2.966,0,5.086-2.373,5.086-5.296c0-2.968-2.293-5.344-5.086-5.344c-2.854,0-5.159,2.376-5.159,5.303
	C164.978,226.027,167.026,228.4,170.137,228.4"/>
<path fill="#00487F" d="M185.266,209.22c1.132,0,2.053,0.908,2.053,2.043c0,1.134-0.921,2.051-2.053,2.051
	c-1.123,0-2.043-0.917-2.043-2.051C183.223,210.128,184.143,209.22,185.266,209.22 M183.424,214.75h3.685v17.119h-3.685V214.75"/>
<path fill="#00487F" d="M191.851,214.75h3.667v2.171h0.067c1.031-1.596,2.907-2.616,5.232-2.616c3.616,0,6.642,2.996,6.642,7.246
	v10.318h-3.666v-9.512c0-3.1-1.623-4.383-4.061-4.383c-2.378,0-4.215,1.521-4.215,4.306v9.589h-3.667V214.75z"/>
<path fill="#00487F" d="M228.537,228.161c-2.059,2.579-4.877,4.131-7.952,4.168c-5.971,0-9.437-4.487-9.437-9.013
	c0-4.523,3.466-9.012,9.437-9.012c3.561,0,8.868,2.928,8.868,9.615v0.667h-14.209c0.208,2.616,2.645,4.486,5.231,4.486
	c1.982,0,3.67-0.95,4.948-2.651L228.537,228.161z M225.14,221.551c-0.78-2.626-2.721-3.993-5.052-3.993
	c-2.341,0-4.245,1.445-4.844,3.993H225.14"/>
<path fill="#00487F" d="M250.771,214.305c5.973,0,9.434,4.488,9.434,9.01c0,4.527-3.461,9.012-9.434,9.012
	c-5.979,0-9.444-4.484-9.444-9.012C241.327,218.793,244.792,214.305,250.771,214.305 M250.771,228.86
	c3.208,0,5.547-2.473,5.547-5.546c0-3.078-2.339-5.553-5.547-5.553c-3.222,0-5.559,2.475-5.559,5.553
	C245.213,226.388,247.55,228.86,250.771,228.86"/>
<path fill="#00487F" d="M264.553,221.754h-2.406v-3.453h2.406v-2.904c0-3.179,1.945-6.179,6.36-6.179
	c0.886,0,2.052,0.129,2.835,0.448l-1.526,3.316c-0.5-0.203-0.947-0.302-1.615-0.302c-1.494,0-2.376,1.223-2.376,2.508v3.112h3.664
	v3.453h-3.664v16.019h-3.678V221.754z"/>
<polygon fill="#00487F" points="284.672,209.666 288.771,209.666 288.771,227.984 297.499,227.984 297.499,222.686 301.6,222.686 
	301.6,231.869 284.672,231.869 "/>
<path fill="#00487F" d="M307.067,209.22c1.135,0,2.063,0.908,2.063,2.043c0,1.134-0.928,2.051-2.063,2.051
	c-1.124,0-2.035-0.917-2.035-2.051C305.032,210.128,305.943,209.22,307.067,209.22 M305.238,214.75h3.671v17.119h-3.671V214.75"/>
<path fill="#00487F" d="M314.602,221.754h-2.403v-3.453h2.403v-2.904c0-3.179,1.949-6.179,6.361-6.179
	c0.888,0,2.053,0.129,2.832,0.448l-1.523,3.316c-0.495-0.203-0.96-0.302-1.625-0.302c-1.486,0-2.362,1.223-2.362,2.508v3.112h3.666
	v3.453h-3.666v16.019h-3.683V221.754z"/>
<path fill="#00487F" d="M341.192,228.161c-2.056,2.579-4.889,4.131-7.96,4.168c-5.973,0-9.441-4.487-9.441-9.013
	c0-4.523,3.469-9.012,9.441-9.012c3.572,0,8.873,2.928,8.873,9.615v0.667h-14.209c0.212,2.616,2.651,4.486,5.228,4.486
	c1.989,0,3.681-0.95,4.954-2.651L341.192,228.161z M337.791,221.551c-0.773-2.626-2.719-3.993-5.049-3.993
	c-2.338,0-4.25,1.445-4.846,3.993H337.791"/>
</svg>
