<?xml version="1.0" encoding="utf-8"?>
<!-- Generator: Adobe Illustrator 16.0.0, SVG Export Plug-In . SVG Version: 6.00 Build 0)  -->
<!DOCTYPE svg PUBLIC "-//W3C//DTD SVG 1.1//EN" "http://www.w3.org/Graphics/SVG/1.1/DTD/svg11.dtd">
<svg version="1.1" id="Layer_1" xmlns="http://www.w3.org/2000/svg" xmlns:xlink="http://www.w3.org/1999/xlink" x="0px" y="0px"
	 width="345px" height="345px" viewBox="0 0 345 345" enable-background="new 0 0 345 345" xml:space="preserve">
<g>
	<path fill-rule="evenodd" clip-rule="evenodd" fill="#FEFEFE" d="M0,165.638c0.282-0.484,3.666-14.349,4.312-16.858l54.267,0.012
		l-3.836,17.01l-12.55-0.023l1.011-5.296h-5.034c-0.306,0.73-7.393,29.05-8.28,32.762h7.804c-0.275,1.965-1.501,7.061-1.982,9.456
		c-0.13,0.649-0.117,0.561-0.79,0.553l-32.709-0.009c0.04-0.578,2.703-8.72,3.104-9.998l6.208-0.021l7.614-32.955l-5.271-0.006
		l-1.498,5.538L0,165.775v38.765h128.94c-0.544-0.204-3.749-0.195-4.654-0.248c-2.851-0.165-5.934-0.462-8.709-1.03
		c-1.694-0.347-2.219-0.609-3.784-1.224l4.27-15.391l10.869,0.001l0.004,5.373c1.154,0.449,5.868,0.426,7.341,0.293
		c7.135-0.646,6.381-5.793,4.1-8.079c-1.163-1.166-2.929-2.146-4.721-3.062c-3.844-1.967-7.013-3.37-9.114-6.244
		c-2.516-3.441-3.349-8.227-2.298-12.425c1.776-7.093,9.486-11.591,17.389-13.441c4.505-1.054,9.283-1.289,14.096-1.042
		c6.118,0.314,7.665,0.818,13.415,2.058l-4.229,14.869l-10.213-0.013l-0.023-4.052c-1.783-0.495-3.106-1.256-5.254-0.951
		c-1.742,0.247-3.461,0.813-4.533,1.771c-2.959,2.643-0.524,5.735,2.558,7.563c2.29,1.358,5.138,2.451,8.201,4.314
		c0.855,0.521,2.022,1.308,2.769,1.968c0.722,0.638,1.633,1.721,2.131,2.601c2.335,4.131,1.935,8.552,0.081,12.562
		c-0.969,2.097-2.42,4.036-3.883,5.587c-4.204,4.459-10.898,7.209-17.201,7.951c-0.711,0.084-2.347,0.089-2.862,0.291H345v-64.08
		h-43.84c0.688,0.272,3.361,0.016,7.576,1.99c1.461,0.684,4.891,2.657,5.73,3.797l-3.114,2.902l-7.466-1.233
		c-2.691,0.002-5.106,0.56-7.365,1.376c-2.147,0.776-4.026,1.807-5.831,2.897c-1.815,1.097-3.58,2.18-5.238,3.39
		c-3.31,2.416-6.622,4.814-10.331,7.022c-1.913,1.14-3.926,1.867-6.519,2.206c-4.328,0.564-5.409-0.276-7.917-0.346l-0.394-0.152
		l0.497-0.087c2.086,0.29,8.167-1.345,10.351-2.763c1.847-1.199,2.229-1.929,3.512-3.116c0.591-0.547,1.048-1.128,1.539-1.724
		c0.455-0.551,1.149-1.236,1.438-1.871l-4.039,0.313c-0.252,0.163-0.208,0.111-0.573,0.147l0.2-0.237
		c1.187-1.495,6.985-5.035,8.821-6.07c0.44-0.247,0.928-0.435,1.335-0.762l-1.78-1.894l3.563-2.222
		c2.259-1.239,5.85-2.391,8.455-2.908c0.852-0.169,4.757-0.548,5.024-0.657H0V165.638z"/>
	<path fill-rule="evenodd" clip-rule="evenodd" fill="#E52937" d="M315.278,147.28l-0.23-0.254l-3.485,4.264
		c-3.006,0.225-4.75-1.178-10.389,0.343c-8.29,2.235-13.734,9.078-21.238,13.577c-5.229,3.136-10.912,5.313-18.319,3.976
		c-3.453-0.623-5.625-1.876-8.598-2.971c-2.885-1.062-5.251-2.569-8.748-2.938c-3.599-0.378-6.748,0.644-9.136,2.24
		c-3.494,2.337-4.901,5.945-7.624,9.734c-2.521,3.51-4.668,6.879-8.938,8.524c-1.948,0.751-2.589,0.408-3.169,1.142
		c-1.438,1.819-3.77,4.632-5.435,6.136c-0.273,0.247-0.434,0.513-0.698,0.774c-0.491,0.487-0.92,0.808-1.498,1.342
		c-0.459,0.424-1.065,0.91-1.625,1.321c-2.112,1.553-4.691,2.906-7.581,3.988l-9.46,2.143l-0.001-2.246l-11.189,2.57
		c11.202,3.879,19.469,2.78,29.884-1.33c4.742-1.872,10.628-5.077,14.314-8.088c1.54-1.257,0.973-1.046,3.416-0.861
		c2.904,0.22,5.915,0.301,8.851,0.239c5.693-0.117,10.583-0.452,15.265-2.656c4.272-2.011,0.98-2.014,5.818-0.072
		c6.52,2.615,16.314,3.996,23.288,3.299c2.567-0.257,5.222-0.696,7.634-1.287c2.825-0.692,1.517-1.019,5.934,2.148
		c0.167-0.059,1.467-0.961,2.154-1.319c0.772-0.401,1.668-0.745,2.536-1.039c1.873-0.635,3.906-0.99,6.012-1.167
		c4.284-0.358,9.07,0.187,13.07,1.09l19.078,9.501l-0.99,2.085l10.743,1.729c-0.703-2.6-10.012-10.188-11.998-11.637l-3.392-2.499
		c-5.598-4.238-11.66-8.074-17.592-11.858c-2.261-1.442-5.183-3.391-6.454-5.325c-2.083-3.169,0.544-6.23,3.441-6.826l9.008,2.667
		l0.004,1.677h7.711c0.336-0.122,0.432-0.341,0.652-0.629l1.593-2.271c-0.768-0.556-2.154-2.144-2.92-2.968l-2.95-3.046
		c-0.344-0.368-0.656-0.614-1.015-0.981l-4.88-5.11C315.897,154.057,315.204,147.979,315.278,147.28z"/>
	<path fill-rule="evenodd" clip-rule="evenodd" fill="#264796" d="M60.283,158.562l4.896,0.017l2.582,44.658l0.376,0.007
		l20.885-0.008c0.524-0.695,1.547-2.447,2.135-3.335c2.141-3.231,4.362-6.865,6.514-10.21c1.465-2.277,2.866-4.55,4.334-6.82
		c1.49-2.306,2.923-4.499,4.344-6.804c4.169-6.76,8.884-13.705,13.023-20.429c0.733-1.19,1.406-2.214,2.172-3.402l2.14-3.456
		l-25.499-0.001l-3.379,9.787l5.469,0.029c-0.572,1.087-1.309,2.286-1.945,3.344c-3.355,5.578-6.753,11.701-10.109,17.135
		l-4.074,6.83l-0.013-0.408l0.012-26.501l4.498-0.002c0.303-0.151,0.157,0.014,0.313-0.438c0.074-0.214,0.12-0.431,0.186-0.658
		l2.629-9.116l-28.72-0.002L60.283,158.562z"/>
	<path fill-rule="evenodd" clip-rule="evenodd" fill="#264796" d="M128.94,204.54h5.742c0.516-0.202,2.151-0.207,2.862-0.291
		c6.303-0.742,12.997-3.492,17.201-7.951c1.463-1.551,2.914-3.49,3.883-5.587c1.854-4.01,2.254-8.431-0.081-12.562
		c-0.498-0.88-1.409-1.963-2.131-2.601c-0.746-0.66-1.913-1.447-2.769-1.968c-3.063-1.863-5.911-2.956-8.201-4.314
		c-3.082-1.828-5.517-4.921-2.558-7.563c1.072-0.958,2.791-1.523,4.533-1.771c2.147-0.305,3.471,0.456,5.254,0.951l0.023,4.052
		l10.213,0.013l4.229-14.869c-5.75-1.239-7.297-1.743-13.415-2.058c-4.813-0.247-9.591-0.012-14.096,1.042
		c-7.902,1.851-15.612,6.349-17.389,13.441c-1.051,4.198-0.218,8.983,2.298,12.425c2.102,2.874,5.271,4.277,9.114,6.244
		c1.792,0.916,3.558,1.896,4.721,3.062c2.281,2.286,3.035,7.434-4.1,8.079c-1.473,0.133-6.187,0.156-7.341-0.293l-0.004-5.373
		l-10.869-0.001l-4.27,15.391c1.565,0.614,2.09,0.877,3.784,1.224c2.775,0.568,5.858,0.865,8.709,1.03
		C125.191,204.345,128.396,204.336,128.94,204.54z"/>
	<path fill-rule="evenodd" clip-rule="evenodd" fill="#264796" d="M0,165.638v0.138l12.369,0.025l1.498-5.538l5.271,0.006
		l-7.614,32.955l-6.208,0.021c-0.401,1.278-3.064,9.42-3.104,9.998l32.709,0.009c0.673,0.008,0.66,0.097,0.79-0.553
		c0.481-2.396,1.707-7.491,1.982-9.456h-7.804c0.888-3.712,7.975-32.031,8.28-32.762h5.034l-1.011,5.296l12.55,0.023l3.836-17.01
		l-54.267-0.012C3.666,151.289,0.282,165.153,0,165.638z"/>
	<path fill-rule="evenodd" clip-rule="evenodd" fill="#E52937" d="M273.217,154.973c0.125,0.083-0.097,0.084,0.373,0.09l4.039-0.313
		c-0.289,0.635-0.983,1.32-1.438,1.871c-0.491,0.596-0.948,1.177-1.539,1.724c-1.282,1.188-1.665,1.917-3.512,3.116
		c-2.184,1.418-8.265,3.053-10.351,2.763l-0.104,0.239c2.508,0.069,3.589,0.91,7.917,0.346c2.593-0.339,4.605-1.066,6.519-2.206
		c3.709-2.208,7.021-4.606,10.331-7.022c1.658-1.21,3.423-2.293,5.238-3.39c1.805-1.091,3.684-2.121,5.831-2.897
		c2.259-0.816,4.674-1.374,7.365-1.376l7.466,1.233l3.114-2.902c-0.84-1.14-4.27-3.113-5.73-3.797
		c-4.215-1.974-6.889-1.718-7.576-1.99h-2.524c-0.268,0.109-4.173,0.488-5.024,0.657c-2.605,0.517-6.196,1.669-8.455,2.908
		l-3.563,2.222l1.78,1.894c-0.407,0.327-0.895,0.515-1.335,0.762C280.202,149.938,274.403,153.478,273.217,154.973z"/>
	<path fill-rule="evenodd" clip-rule="evenodd" fill="#E52937" d="M238.48,161.213c0.177-0.109,0.055-0.021,0.225-0.099l0.323-0.172
		c-0.647-0.047-2.166-0.568-3.024-0.733c-3.368-0.648-6.898-0.662-9.98,0.614c-4.721,1.954-7.26,1.717-11.805-0.922
		c-2.963-1.721-6.365-4.038-10.066-5.081c-2.953-0.831-6.728-0.753-9.313,0.894l-2.219,1.563c2.66-0.061,7.794-0.142,10.17,1.324
		l2.221,1.64l-3.593,1.12c1.785-0.005,4.955,2.294,6.341,3.424c3.596,2.932,5.991,5.683,11.624,3.808
		c3.136-1.045,6.072-2.919,8.924-4.33C230.258,163.298,235.921,160.87,238.48,161.213z"/>
	<path fill-rule="evenodd" clip-rule="evenodd" fill="#F6B4AE" d="M238.48,161.213l0.833-0.075l-0.285-0.195l-0.323,0.172
		C238.535,161.191,238.657,161.104,238.48,161.213z"/>
	<path fill-rule="evenodd" clip-rule="evenodd" fill="#F39E9A" d="M273.59,155.063c-0.47-0.006-0.248-0.007-0.373-0.09l-0.2,0.237
		C273.382,155.174,273.338,155.226,273.59,155.063z"/>
	<polygon fill-rule="evenodd" clip-rule="evenodd" fill="#F6B4AE" points="260.686,164.462 260.789,164.223 260.292,164.31 	"/>
	<polygon fill-rule="evenodd" clip-rule="evenodd" fill="#F6B4AE" points="315.278,147.28 315.213,146.865 315.048,147.026 	"/>
</g>
</svg>
