<?xml version="1.0" encoding="utf-8"?>
<!-- Generator: Adobe Illustrator 16.0.0, SVG Export Plug-In . SVG Version: 6.00 Build 0)  -->
<!DOCTYPE svg PUBLIC "-//W3C//DTD SVG 1.1//EN" "http://www.w3.org/Graphics/SVG/1.1/DTD/svg11.dtd">
<svg version="1.1" id="Layer_1" xmlns="http://www.w3.org/2000/svg" xmlns:xlink="http://www.w3.org/1999/xlink" x="0px" y="0px"
	 width="345px" height="345px" viewBox="0 0 345 345" enable-background="new 0 0 345 345" xml:space="preserve">
<path fill-rule="evenodd" clip-rule="evenodd" fill="#F90315" d="M206.026,82.115h133.368v6.913
	c-4.765,22.081-32.817,40.579-70.992,48.634c41.447,8.953,70.748,30.254,70.842,55.018H203.945
	c10.638-5.597,16.823-12.256,16.823-19.392c0-19.747-47.359-35.854-105.428-35.854c-1.99,0-3.966,0.021-5.929,0.059v55.013H6.217
	V81.94h103.194v52.15c0.833,0.007,1.668,0.011,2.505,0.011c58.068,0,105.428-16.106,105.428-35.854
	C217.345,92.45,213.261,86.969,206.026,82.115L206.026,82.115z"/>
<g>
	<path d="M6.646,198.198h14.032v17.16l14.697-17.16h18.662l-16.57,17.14l17.313,28.27H37.501l-9.574-18.675l-7.249,7.594v11.081
		H6.646V198.198z"/>
	<path d="M70.082,221.367l-12.049-1.27c0.454-2.106,1.109-3.764,1.967-4.972c0.856-1.208,2.091-2.256,3.701-3.144
		c1.156-0.64,2.746-1.136,4.771-1.487c2.023-0.351,4.212-0.526,6.566-0.526c3.779,0,6.814,0.212,9.106,0.635
		c2.292,0.424,4.202,1.307,5.73,2.648c1.073,0.93,1.92,2.246,2.54,3.949c0.619,1.704,0.929,3.33,0.929,4.879v14.527
		c0,1.549,0.098,2.762,0.295,3.64c0.195,0.878,0.624,1.997,1.285,3.36H83.092c-0.476-0.847-0.785-1.491-0.93-1.936
		s-0.289-1.142-0.434-2.091c-1.652,1.59-3.294,2.726-4.925,3.407c-2.23,0.908-4.822,1.362-7.774,1.362
		c-3.924,0-6.903-0.908-8.937-2.726c-2.034-1.816-3.051-4.058-3.051-6.722c0-2.498,0.732-4.553,2.199-6.164
		c1.466-1.61,4.171-2.808,8.115-3.593c4.729-0.949,7.795-1.615,9.199-1.998c1.404-0.382,2.891-0.883,4.461-1.502
		c0-1.549-0.321-2.633-0.961-3.253c-0.64-0.619-1.766-0.929-3.376-0.929c-2.065,0-3.614,0.33-4.646,0.991
		C71.229,218.973,70.577,219.942,70.082,221.367z M81.017,227.996c-1.735,0.619-3.542,1.167-5.421,1.642
		c-2.561,0.682-4.182,1.353-4.863,2.014c-0.702,0.682-1.053,1.456-1.053,2.323c0,0.991,0.346,1.802,1.037,2.432
		s1.709,0.944,3.051,0.944c1.404,0,2.711-0.341,3.919-1.022s2.064-1.512,2.57-2.493c0.506-0.98,0.76-2.256,0.76-3.825V227.996z"/>
	<path d="M97.216,210.712h12.19l5.273,20.711l6.673-20.711h11.393l6.957,20.764l5.305-20.764h12.114l-12.117,32.896h-11.219
		l-6.663-19.793l-6.439,19.793h-11.269L97.216,210.712z"/>
	<path d="M171.556,221.367l-12.05-1.27c0.454-2.106,1.11-3.764,1.967-4.972s2.091-2.256,3.702-3.144
		c1.156-0.64,2.746-1.136,4.77-1.487c2.023-0.351,4.213-0.526,6.567-0.526c3.778,0,6.814,0.212,9.106,0.635
		c2.292,0.424,4.202,1.307,5.73,2.648c1.073,0.93,1.92,2.246,2.54,3.949c0.619,1.704,0.929,3.33,0.929,4.879v14.527
		c0,1.549,0.098,2.762,0.294,3.64s0.625,1.997,1.286,3.36h-11.833c-0.475-0.847-0.784-1.491-0.929-1.936s-0.29-1.142-0.434-2.091
		c-1.652,1.59-3.294,2.726-4.925,3.407c-2.23,0.908-4.822,1.362-7.775,1.362c-3.924,0-6.902-0.908-8.937-2.726
		c-2.034-1.816-3.051-4.058-3.051-6.722c0-2.498,0.733-4.553,2.199-6.164c1.466-1.61,4.171-2.808,8.115-3.593
		c4.729-0.949,7.796-1.615,9.2-1.998c1.404-0.382,2.891-0.883,4.46-1.502c0-1.549-0.32-2.633-0.96-3.253
		c-0.641-0.619-1.766-0.929-3.376-0.929c-2.065,0-3.614,0.33-4.646,0.991C172.701,218.973,172.051,219.942,171.556,221.367z
		 M182.489,227.996c-1.734,0.619-3.542,1.167-5.42,1.642c-2.562,0.682-4.182,1.353-4.863,2.014
		c-0.703,0.682-1.054,1.456-1.054,2.323c0,0.991,0.346,1.802,1.038,2.432c0.691,0.63,1.708,0.944,3.051,0.944
		c1.404,0,2.711-0.341,3.919-1.022s2.064-1.512,2.57-2.493c0.506-0.98,0.759-2.256,0.759-3.825V227.996z"/>
	<path d="M200.146,234.47l12.514-1.177c0.516,1.486,1.238,2.551,2.168,3.19c0.93,0.641,2.168,0.96,3.717,0.96
		c1.693,0,3.005-0.36,3.934-1.083c0.723-0.535,1.085-1.205,1.085-2.01c0-0.907-0.476-1.608-1.426-2.104
		c-0.681-0.35-2.488-0.782-5.42-1.299c-4.378-0.763-7.419-1.469-9.122-2.119c-1.704-0.649-3.14-1.748-4.306-3.296
		c-1.167-1.546-1.75-3.311-1.75-5.291c0-2.166,0.63-4.033,1.89-5.601c1.259-1.568,2.994-2.738,5.203-3.512
		c2.21-0.773,5.173-1.161,8.89-1.161c3.924,0,6.819,0.3,8.688,0.898s3.428,1.528,4.678,2.788c1.249,1.26,2.287,2.963,3.113,5.11
		l-11.957,1.177c-0.31-1.053-0.826-1.827-1.549-2.323c-0.991-0.66-2.188-0.99-3.593-0.99c-1.425,0-2.462,0.252-3.113,0.758
		c-0.65,0.505-0.976,1.118-0.976,1.84c0,0.805,0.413,1.412,1.239,1.824c0.826,0.413,2.622,0.784,5.39,1.114
		c4.191,0.474,7.311,1.134,9.354,1.98c2.044,0.846,3.608,2.052,4.692,3.62c1.084,1.567,1.626,3.29,1.626,5.167
		c0,1.898-0.572,3.745-1.719,5.539c-1.146,1.795-2.953,3.224-5.421,4.286c-2.468,1.062-5.828,1.593-10.082,1.593
		c-6.009,0-10.289-0.856-12.839-2.57C202.504,240.066,200.868,237.629,200.146,234.47z"/>
	<path d="M252.617,221.367l-12.05-1.27c0.454-2.106,1.11-3.764,1.968-4.972c0.856-1.208,2.09-2.256,3.701-3.144
		c1.156-0.64,2.746-1.136,4.77-1.487c2.024-0.351,4.213-0.526,6.567-0.526c3.778,0,6.814,0.212,9.106,0.635
		c2.292,0.424,4.202,1.307,5.73,2.648c1.073,0.93,1.92,2.246,2.54,3.949c0.619,1.704,0.929,3.33,0.929,4.879v14.527
		c0,1.549,0.098,2.762,0.294,3.64s0.625,1.997,1.286,3.36h-11.833c-0.475-0.847-0.784-1.491-0.929-1.936s-0.29-1.142-0.434-2.091
		c-1.652,1.59-3.294,2.726-4.925,3.407c-2.23,0.908-4.822,1.362-7.775,1.362c-3.923,0-6.902-0.908-8.936-2.726
		c-2.034-1.816-3.052-4.058-3.052-6.722c0-2.498,0.733-4.553,2.199-6.164c1.467-1.61,4.171-2.808,8.116-3.593
		c4.729-0.949,7.795-1.615,9.199-1.998c1.404-0.382,2.891-0.883,4.46-1.502c0-1.549-0.32-2.633-0.96-3.253
		c-0.641-0.619-1.766-0.929-3.376-0.929c-2.065,0-3.614,0.33-4.646,0.991C253.763,218.973,253.112,219.942,252.617,221.367z
		 M263.551,227.996c-1.734,0.619-3.542,1.167-5.42,1.642c-2.562,0.682-4.182,1.353-4.863,2.014
		c-0.702,0.682-1.054,1.456-1.054,2.323c0,0.991,0.346,1.802,1.038,2.432c0.691,0.63,1.708,0.944,3.051,0.944
		c1.404,0,2.711-0.341,3.919-1.022s2.064-1.512,2.57-2.493c0.506-0.98,0.759-2.256,0.759-3.825V227.996z"/>
	<path d="M283.437,198.198h12.886v23.439l9.416-10.926h15.519l-11.801,11.523l12.482,21.372h-14.204l-6.663-13.187l-4.749,4.638
		v8.549h-12.886V198.198z"/>
	<path d="M326.213,198.198h12.606v8.58h-12.606V198.198z M326.213,210.712h12.606v32.896h-12.606V210.712z"/>
</g>
</svg>
