<?xml version="1.0" encoding="utf-8"?>
<!-- Generator: Adobe Illustrator 16.0.0, SVG Export Plug-In . SVG Version: 6.00 Build 0)  -->
<!DOCTYPE svg PUBLIC "-//W3C//DTD SVG 1.1//EN" "http://www.w3.org/Graphics/SVG/1.1/DTD/svg11.dtd">
<svg version="1.1" id="Layer_1" xmlns="http://www.w3.org/2000/svg" xmlns:xlink="http://www.w3.org/1999/xlink" x="0px" y="0px"
	 width="345px" height="345px" viewBox="0 0 345 345" enable-background="new 0 0 345 345" xml:space="preserve">
<g>
	<g>
		<path fill="#003E9F" d="M167.913,245.826c-27.105,0-36.124,0-49.559-3.712c-4.614-1.619-12.959-3.929-18.981-13.438
			c-11.106-19.011-11.106-54.698-11.106-71.833c0-17.153,0-47.525,11.106-66.295c6.022-9.731,14.367-12.048,18.981-13.667
			c13.435-3.475,22.454-3.475,49.559-3.475c26.393,0,35.433,0,49.102,3.475c4.624,1.619,12.717,3.936,18.286,13.667
			c12.05,18.77,12.05,51.231,12.05,68.382c0,16.667,0,50.735-12.05,69.746c-5.567,9.509-13.66,11.818-18.286,13.438
			C203.346,245.826,194.306,245.826,167.913,245.826L167.913,245.826z M167.913,169.073c22.695,0,22.366,0,22.366,7.405v46.717
			h31.936V93.836h-31.936v38.838c0,7.629,0.329,7.629-22.366,7.629c-23.154,0-23.046,0-23.046-7.629V93.836h-31.513v129.358h31.513
			v-46.717C144.867,169.073,144.759,169.073,167.913,169.073L167.913,169.073z M167.791,278.959
			c23.114,0.116,65.143,2.161,89.046-24.319c11.639-12.914,14.591-21.322,20.377-39.647c5.083-15.979,4.396-25.479,6.009-43.084
			c0.477-12.977,1.161-28.511-3.244-50.762c-4.85-24.792-8.548-38.238-19.906-49.588c15.057-7.646,17.142-30.12,15.057-45.406
			c0,0-11.539-5.731-19.224-8.602c-8.378-3.108-22.005-6.488-22.005-6.488c0,12.051,1.397,30.376-7.633,36.385
			c-9.257,5.323-31.966,0-35.661-11.575c-1.153-3.472-2.315-15.523,0-30.587c-3.241-0.708-12.26-2.784-23.161-2.784
			c-11.8,0-19.454,2.077-22.687,2.777c1.625,15.069,1.148,27.12,0,30.588c-3.951,11.575-26.405,16.899-35.435,11.575
			c-9.948-6.008-7.622-24.331-7.622-36.385c0,0-14.629,3.589-23.632,6.958c-7.307,2.749-18.29,8.131-18.29,8.131
			c-2.318,15.287,0,37.76,15.045,45.407c-11.339,11.35-15.045,24.796-19.917,49.587c-3.929,22.251-3,37.785-2.769,50.763
			c1.158,17.604,1.158,27.105,5.322,43.083c6.024,18.325,9.567,26.917,21.777,39.647
			C103.965,280.479,144.586,278.983,167.791,278.959L167.791,278.959z"/>
	</g>
	<g>
		<path fill="#003E9F" d="M100.483,300.205h-8.08v19.521c0,5.521-2.216,8.318-6.759,8.318c-1.772,0-3.073-0.703-3.994-1.618
			c-1.164-1.166-1.726-3.103-1.726-5.923v-20.295h-8.021v20.975c0,4.619,1.052,7.918,3.229,10.09
			c2.074,2.083,4.608,3.093,8.803,3.093c2.928,0,6.52-1.993,8.574-4.619v3.735h7.976v-33.276H100.483z"/>
		<path fill="#003E9F" d="M226.108,309.179c0-2.488-0.832-4.579-2.464-6.221c-2.308-2.315-5.606-3.659-10.373-3.638
			c-4.764,0.024-12.813,0.997-13.744,10.063h8.064c-0.11-4.226,5.271-3.854,5.271-3.854c1.707,0,3.276,0.542,4.417,1.46
			c0.7,0.556,1.172,1.415,1.222,2.813c0.092,2.257-0.992,3.334-8.555,4.071c-5.829,0.56-12.782,2.147-12.782,10.525
			c0,2.668,0.918,4.994,2.639,6.722c2.087,2.089,5.237,3.237,8.875,3.237c4.812,0,7.59-1.205,10.062-3.974l0.388,3.091h7.756v-1.243
			c-1.002-0.787-0.771-4.092-0.771-4.092v-18.962H226.108z M205.189,324.139c-0.214-2.502,1.238-4.296,5.047-4.953
			c0.988-0.194,2.023-0.29,3.007-0.438c1.513-0.229,3.312-0.646,4.842-1.684v5.096c0,4.129-4.102,5.671-7.091,5.629
			C207.99,327.738,205.403,326.641,205.189,324.139L205.189,324.139z"/>
		<path fill="#003E9F" d="M166.146,342.481l-0.004-42.251l-7.654-0.028v4.165c-2.063-2.85-4.943-5.05-9.2-5.05
			c-9.595,0-15.175,6.783-15.175,17.701c0,5.57,1.764,10.525,4.838,13.6c2.479,2.481,5.298,3.74,9.142,3.74
			c4.365,0,7.553-2,9.978-4.981V342.5L166.146,342.481L166.146,342.481z M150.271,327.791c-2.26,0-3.745-0.727-5.162-2.148
			c-1.918-1.92-2.97-5.054-2.97-8.826c0-3.595,1.156-6.817,3.167-8.827c1.449-1.455,2.863-2.194,4.964-2.194
			c4.704,0,7.177,3.01,7.904,8.483c0.106,0.828,0.153,3.853,0.106,4.42C157.75,324.558,155.243,327.791,150.271,327.791
			L150.271,327.791z"/>
		<polygon fill="#003E9F" points="31.436,333.476 40.186,333.476 40.186,313.73 58.531,313.73 58.531,333.476 67.279,333.476 
			67.279,289.088 58.531,289.088 58.531,306.074 40.186,306.074 40.186,289.088 31.436,289.088 		"/>
		<path fill="#003E9F" d="M118.4,327.944c-3.449,0.088-6.142-1.4-6.646-4.396h-8.123c0.389,8.411,8.827,10.938,14.666,10.815
			c5.838-0.122,8.479-1.5,11.098-4.116c1.824-1.831,2.75-4.147,2.75-6.882c0-6.493-4.922-8.616-10.522-9.95
			c-0.013-0.003-1.759-0.408-1.759-0.408c-4.355-0.849-7.931-1.718-7.728-4.241c0.205-2.521,2.934-3.063,5.076-3.126
			c2.138-0.06,3.929,0.274,5.195,2.835h8.375c-0.832-6.451-6.758-9.246-13.054-9.152c-6.184,0.093-13.535,2.542-13.535,9.701
			c0,6.746,4.669,8.794,10.274,10.007c0.756,0.174,1.521,0.331,2.258,0.492c4.186,0.876,7.342,1.711,7.408,4.479
			C124.186,326.769,121.852,327.851,118.4,327.944L118.4,327.944z"/>
		<polygon fill="#003E9F" points="199.299,300.205 190.943,300.205 183.802,325.802 176.403,300.205 167.686,300.205 
			179.233,333.476 187.865,333.476 		"/>
		<path fill="#003E9F" d="M238.641,317.591c0-3.612,0.23-6.342,1.897-8.479c1.258-1.613,3.482-3.222,5.697-3.158
			c2.206,0.06,3.49,0.513,3.49,0.513v-7.184c0,0-2.138-0.511-4.473-0.164c-2.617,0.395-5.735,3.356-7.078,6.904v-5.817h-7.611
			v33.271h8.077V317.591L238.641,317.591z"/>
		<path fill="#003E9F" d="M281.274,310.739c0-3.487-0.994-6.262-2.984-8.254c-2.064-2.068-5.002-3.162-8.771-3.162
			c-3.956,0-6.923,2.093-9.309,5.868v-4.983h-7.605v33.271h8.019v-19.622c0-2.395,0.518-4.613,2.009-6.112
			c1.326-1.325,3.229-2.073,5.528-2.026c3.703,0.065,4.953,2.197,5.102,6.956v20.802h8.013V310.739L281.274,310.739z"/>
		<path fill="#003E9F" d="M312.783,309.199c0-2.49-0.827-4.588-2.46-6.222c-2.313-2.312-6.148-3.66-10.918-3.641
			c-4.767,0.021-12.813,1.003-13.744,10.06h8.065c-0.11-4.219,5.265-3.847,5.265-3.847c1.719,0,3.828,0.534,4.967,1.453
			c0.696,0.562,1.162,1.419,1.226,2.819c0.09,2.254-0.997,3.333-8.557,4.073c-5.827,0.563-12.783,2.14-12.783,10.522
			c0,2.672,0.916,4.991,2.641,6.721c2.08,2.091,5.236,3.24,8.867,3.24c4.811,0,7.586-1.207,10.069-3.975l0.39,3.091h7.754v-1.241
			c-1.001-0.79-0.781-4.094-0.781-4.094V309.199L312.783,309.199z M291.868,324.157c-0.213-2.506,1.236-4.292,5.046-4.955
			c0.992-0.194,2.022-0.287,3.015-0.439c1.506-0.224,3.304-0.641,4.838-1.679v5.096c0,4.127-4.104,5.669-7.101,5.622
			C294.673,327.75,292.083,326.665,291.868,324.157L291.868,324.157z"/>
	</g>
</g>
</svg>
