<?xml version="1.0" encoding="utf-8"?>
<!-- Generator: Adobe Illustrator 16.0.0, SVG Export Plug-In . SVG Version: 6.00 Build 0)  -->
<!DOCTYPE svg PUBLIC "-//W3C//DTD SVG 1.1//EN" "http://www.w3.org/Graphics/SVG/1.1/DTD/svg11.dtd">
<svg version="1.1" id="Layer_1" xmlns="http://www.w3.org/2000/svg" xmlns:xlink="http://www.w3.org/1999/xlink" x="0px" y="0px"
	 width="345px" height="345px" viewBox="0 0 345 345" enable-background="new 0 0 345 345" xml:space="preserve">
<g>
	<polygon fill-rule="evenodd" clip-rule="evenodd" fill="#EC1C24" points="339,253.879 339,90.878 5.755,90.878 5.755,253.879 
		339,253.879 	"/>
	<path fill-rule="evenodd" clip-rule="evenodd" fill="#FFFFFF" d="M67.797,203.83c-2.243,0.431-3.884,0.431-6.212,0.431
		c-10.959,0-18.639-7.508-18.639-17.429c0-12.686,8.111-16.223,17.431-17.518c2.761-0.345,5.436-0.517,8.025-0.604
		c6.04-0.345,10.872-0.691,10.872-5.178c0-6.989-5.695-7.507-10.872-7.507c-5.522,0.087-9.061,2.502-9.578,7.68l-13.72-0.173
		c0.863-13.462,11.563-17.689,23.298-17.862c10.268,0,25.023,1.554,25.023,15.877v29.253c0,5.09-0.776,9.319,1.64,12.51h-13.72
		c-0.518-1.726-1.552-3.625-1.64-5.346c-3.105,3.363-7.075,5.089-11.303,5.777L67.797,203.83L67.797,203.83z M68.401,193.65
		c9.837-0.953,10.7-8.374,10.7-11.564l-0.173-6.902c-2.243,2.157-6.299,2.414-10.527,3.021c-0.432,0.17-0.863,0.257-1.294,0.257
		c-4.66,1.036-9.579,3.02-9.579,8.714c0,5.783,3.969,6.476,8.802,6.476C67.107,193.65,67.711,193.65,68.401,193.65L68.401,193.65z"
		/>
	<path fill-rule="evenodd" clip-rule="evenodd" fill="#FFFFFF" d="M273.766,203.659c-2.242,0.428-3.881,0.428-6.212,0.428
		c-10.958,0-18.639-7.504-18.639-17.43c0-12.681,8.111-16.222,17.431-17.516c2.762-0.344,5.438-0.518,8.025-0.604
		c6.04-0.344,10.872-0.69,10.872-5.177c0-6.989-5.695-7.508-10.872-7.508c-5.523,0.087-9.061,2.502-9.58,7.68l-13.719-0.172
		c0.863-13.461,11.563-17.689,23.299-17.862c10.268,0,25.023,1.553,25.023,15.877v29.251c0,5.093-0.777,9.32,1.64,12.514h-13.72
		c-0.519-1.726-1.554-3.625-1.641-5.351c-3.104,3.364-7.076,5.09-11.303,5.782L273.766,203.659L273.766,203.659z M274.371,193.477
		c9.837-0.95,10.699-8.371,10.699-11.564l-0.174-6.902c-2.244,2.157-6.299,2.414-10.525,3.02c-0.432,0.175-0.863,0.258-1.295,0.258
		c-4.66,1.037-9.577,3.02-9.577,8.715c0,5.782,3.968,6.475,8.8,6.475C273.076,193.477,273.681,193.477,274.371,193.477
		L274.371,193.477z"/>
	<path fill-rule="evenodd" clip-rule="evenodd" fill="#FFFFFF" d="M125.524,192.182c9.75-0.174,12.943-8.802,12.943-17.864
		c0-8.713-3.451-17.774-12.943-18.032c-10.527,0-13.029,9.491-13.029,18.032C112.495,182.949,114.91,192.182,125.524,192.182
		L125.524,192.182z M125.524,203.572c-5.35-0.862-10.182-3.8-13.202-8.287h0.43v23.646H98.429v-71.448h12.943v5.781h0.258
		c3.194-5.177,8.111-7.852,13.893-8.542c0.949-0.087,1.898-0.173,2.847-0.173c17.689,0,25.542,14.238,25.542,30.202
		c0,15.013-8.284,29.078-24.678,29.078C128.026,203.83,126.732,203.742,125.524,203.572L125.524,203.572z"/>
	<path fill-rule="evenodd" clip-rule="evenodd" fill="#FFFFFF" d="M186.701,160.167c-8.197,0-15.445,5.178-15.445,17.949v25.369
		h-14.41v-56.261h13.375l-0.086,8.974c3.194-6.989,8.542-10.355,16.567-10.355V160.167L186.701,160.167z"/>
	<polygon fill-rule="evenodd" clip-rule="evenodd" fill="#FFFFFF" points="210.862,125.912 225.272,125.912 225.272,203.485 
		210.862,203.485 210.862,125.912 	"/>
	<polygon fill-rule="evenodd" clip-rule="evenodd" fill="#FFFFFF" points="230.018,125.912 244.43,125.912 244.43,138.769 
		230.018,138.769 230.018,125.912 	"/>
	<polygon fill-rule="evenodd" clip-rule="evenodd" fill="#FFFFFF" points="230.018,147.225 244.43,147.225 244.43,203.311 
		230.018,203.311 230.018,147.225 	"/>
	<polygon fill-rule="evenodd" clip-rule="evenodd" fill="#FFFFFF" points="191.964,125.912 206.376,125.912 206.376,138.769 
		191.964,138.769 191.964,125.912 	"/>
	<polygon fill-rule="evenodd" clip-rule="evenodd" fill="#FFFFFF" points="191.964,147.225 206.376,147.225 206.376,203.311 
		191.964,203.311 191.964,147.225 	"/>
</g>
</svg>
