<?xml version="1.0" encoding="utf-8"?>
<!-- Generator: Adobe Illustrator 16.0.0, SVG Export Plug-In . SVG Version: 6.00 Build 0)  -->
<!DOCTYPE svg PUBLIC "-//W3C//DTD SVG 1.1//EN" "http://www.w3.org/Graphics/SVG/1.1/DTD/svg11.dtd">
<svg version="1.1" id="Layer_1" xmlns="http://www.w3.org/2000/svg" xmlns:xlink="http://www.w3.org/1999/xlink" x="0px" y="0px"
	 width="345px" height="345px" viewBox="0 0 345 345" enable-background="new 0 0 345 345" xml:space="preserve">
<path fill-rule="evenodd" clip-rule="evenodd" fill="#EC1C24" d="M36.015,139.906l33.481,23.147c0,0-8.21,5.224-17.3,5.224
	c-4.105,0-6.851-1.617-12.947-5.724c-6.095-4.103-9.006-6.297-9.622-6.753c-1.298-0.957-3.046,0.451-1.692,1.579
	c1.353,1.13,41.215,27.827,41.215,27.827s-14.976,5.108-33.189,19.891L2.5,181.947c0,0,8.211-5.225,17.301-5.225
	c4.105,0,6.85,1.617,12.946,5.723c6.095,4.105,9.006,6.3,9.623,6.752c1.298,0.961,3.045-0.45,1.692-1.578
	c-1.354-1.13-41.216-27.825-41.216-27.825S17.802,154.688,36.015,139.906z"/>
<path fill-rule="evenodd" clip-rule="evenodd" fill="#2E3191" d="M101.812,179.912c-0.072,0.578,0.799,4.099,6.792,4.099
	c4.464,0,5.583-1.413,5.583-2.58c0-6.863-29.75,0-29.75-15.653c0-9.589,10.742-12.959,22.021-12.959
	c24.99,0,23.313,12.241,23.313,12.241h-17.74c0-2.249-3.346-4.157-5.664-4.157c-1.878,0-6.392,0-6.392,2.716
	c0,5.434,31.153,1.44,31.153,16.063c0,5.069-2.717,12.772-24.103,12.772c-26.06,0-23.437-12.542-23.437-12.542H101.812z"/>
<rect x="328.972" y="153.396" fill-rule="evenodd" clip-rule="evenodd" fill="#2E3191" width="13.528" height="37.553"/>
<polygon fill-rule="evenodd" clip-rule="evenodd" fill="#2E3191" points="277.245,190.949 277.245,153.396 290.552,153.396 
	290.552,167.474 306.728,153.396 325.782,153.396 304.685,170.858 325.639,190.949 306.504,190.949 290.552,176.413 
	290.552,190.949 "/>
<polygon fill-rule="evenodd" clip-rule="evenodd" fill="#2E3191" points="203.391,181.689 225.564,181.689 225.564,190.949 
	181.075,190.949 181.075,183.163 203.259,163.096 181.894,163.096 181.894,153.396 225.476,153.396 225.476,161.628 "/>
<path fill-rule="evenodd" clip-rule="evenodd" fill="#2E3191" d="M132.56,153.396h14.775c0,0-0.006,15.76-0.006,23.277
	c0,4.692,4.227,6.698,8.421,6.688c4.181-0.011,8.379-2.007,8.379-6.688c0-7.693-0.011-23.277-0.011-23.277h14.194
	c0,0,0,17.677,0,25.83c0,11.107-12.741,12.352-22.883,12.352c-10.136-0.006-22.87-1.248-22.87-12.352
	C132.56,171.513,132.56,153.396,132.56,153.396z"/>
<path fill-rule="evenodd" clip-rule="evenodd" fill="#2E3191" d="M228.115,153.396h14.777c0,0-0.006,15.76-0.006,23.277
	c0,4.692,4.223,6.698,8.419,6.688c4.18-0.011,8.381-2.007,8.381-6.688c0-7.693-0.011-23.277-0.011-23.277h14.193
	c0,0,0,17.677,0,25.83c0,11.107-12.741,12.352-22.882,12.352c-10.139-0.006-22.872-1.248-22.872-12.352
	C228.115,171.513,228.115,153.396,228.115,153.396z"/>
</svg>
