<?xml version="1.0" encoding="utf-8"?>
<!-- Generator: Adobe Illustrator 16.0.0, SVG Export Plug-In . SVG Version: 6.00 Build 0)  -->
<!DOCTYPE svg PUBLIC "-//W3C//DTD SVG 1.1//EN" "http://www.w3.org/Graphics/SVG/1.1/DTD/svg11.dtd">
<svg version="1.1" id="Layer_1" xmlns="http://www.w3.org/2000/svg" xmlns:xlink="http://www.w3.org/1999/xlink" x="0px" y="0px"
	 width="345px" height="345px" viewBox="0 0 345 345" enable-background="new 0 0 345 345" xml:space="preserve">
<path fill="#0345D8" d="M135.851,153.953c-0.735-2.25-1-4.629-0.776-6.986c0.302-3.236,1.463-6.333,3.364-8.97
	c3.068-4.271,7.736-7.119,12.937-7.892c4.18-0.56,8.414-0.56,12.594,0L176,131.184c4.313,0.474,8.625,1.035,12.938,1.509
	c4.313,0.474,7.849,0.776,11.773,1.078c3.924,0.302,7.158,0.474,10.738,0.431c5.084,0.13,10.116-1.042,14.619-3.407
	c0.819-0.498,1.67-0.944,2.544-1.337c-0.646,1.293-1.251,2.587-1.983,3.838c-2.871,5.547-7.391,10.067-12.938,12.938
	c-3.473,1.628-7.215,2.608-11.04,2.89c-4.575,0.247-9.163-0.042-13.671-0.863l-3.752-0.518c-0.539-0.095-1.054,0.265-1.148,0.804
	c-0.012,0.062-0.017,0.125-0.016,0.188c-0.819,2.63-1.467,5.304-2.502,7.849c-2.58,6.996-7.061,13.134-12.938,17.725
	c-4.479,3.321-9.681,5.538-15.18,6.469c-3.607,0.694-7.289,0.912-10.954,0.646c-6.682-0.577-13.036-3.146-18.242-7.374
	c-5.285-3.989-9.153-9.566-11.04-15.913c-0.75-2.733-1.212-5.538-1.38-8.367c-0.846-11.037,3.061-21.911,10.738-29.885
	c6.248-6.582,14.358-11.096,23.244-12.938c6.504-1.363,13.158-1.87,19.795-1.51c4.873,0,9.789,0.518,14.662,0.819l8.236,0.561
	c3.234,0.259,6.512,0.561,9.746,0.776c3.234,0.216,5.478,0.302,8.237,0.388c4.097,0,8.194,0.388,12.29,0.388
	c4.098,0,7.073-0.215,10.609-0.561c2.896-0.247,5.777-0.664,8.625-1.25c2.008-0.542,3.98-1.205,5.908-1.984l-0.949,2.199
	c-2.035,4.945-4.958,9.477-8.625,13.369c-4.584,4.802-10.502,8.121-16.99,9.53c-3.033,0.526-6.121,0.656-9.186,0.388
	c-4.787,0-9.531-0.431-14.318-0.819s-9.962-1.035-14.921-1.552l-10.911-1.294c-1.846-0.224-3.703-0.354-5.563-0.388
	c-3.23-0.216-6.473-0.216-9.703,0c-8.862,0.533-16.614,6.149-19.881,14.404c-1.336,3.248-1.897,6.762-1.639,10.264
	c0.699,9.203,7.49,16.791,16.561,18.5c11.063,1.899,22.09-3.553,27.297-13.498c1.361-2.45,2.418-5.057,3.148-7.762
	c0.303-1.122,0-1.423-0.992-1.596c-5.002-0.733-9.875-1.596-14.576-2.329c-3.471-0.616-6.998-0.862-10.521-0.733
	c-4.725,0.02-9.269,1.822-12.722,5.046c-1.105,1.337-2.073,2.782-2.89,4.313C136.284,153.048,136.053,153.494,135.851,153.953z"/>
<path fill="#0345D8" d="M255.91,218.727c0,0.777,0,1.338,0,1.898c0,5.75,0,11.5,0,17.25c0,1.25,0,1.423-1.466,1.423h-6.599h-2.328
	c-0.518,0.081-1.004-0.272-1.084-0.79c-0.018-0.109-0.016-0.223,0.006-0.331c0-11.155,0-22.31,0-33.466
	c-0.106-0.513,0.224-1.015,0.736-1.121c0.127-0.025,0.258-0.025,0.385,0h7.633c1.01-0.02,1.98,0.388,2.674,1.121l17.25,17.035
	l1.208,1.121c0.229,0.155,0.476,0.285,0.733,0.389c0.088-0.295,0.131-0.6,0.129-0.906c0-0.819,0-1.682,0-2.502
	c0-5.031,0-10.047,0-15.05c0-1.122,0-1.294,1.294-1.337h9.099c1.035,0,1.208,0,1.208,1.207c0,11.098,0,22.195,0,33.293
	c0,0.949,0,1.164-1.164,1.164h-8.064c-0.781,0.019-1.533-0.295-2.07-0.862l-17.854-18.155
	C257.118,219.805,256.558,219.331,255.91,218.727z"/>
<path fill="#0345D8" d="M335.563,217.131h-10.35c-1.537,0.289-3.09-0.419-3.882-1.768c-1.597-2.283-4.244-3.6-7.029-3.493
	c-3.916-0.222-7.525,2.115-8.927,5.778c-1.745,3.459-1.745,7.539,0,10.998c2.425,4.671,8.178,6.492,12.85,4.067
	c0.191-0.099,0.379-0.204,0.563-0.316c1.473-0.929,2.631-2.282,3.32-3.881c0.14-0.366,0.255-0.74,0.345-1.122h-7.503
	c-0.447,0.074-0.868-0.229-0.941-0.675c-0.004-0.019-0.006-0.038-0.008-0.058c0-1.553,0-3.105,0-4.658
	c-0.079-0.396,0.179-0.783,0.575-0.861c0.095-0.02,0.192-0.02,0.287,0h20.7c0.432,0,0.819,0,0.819,0.604
	c0.226,4.031-0.863,8.026-3.104,11.385c-2.213,2.749-5.228,4.739-8.625,5.692c-4.312,1.318-8.829,1.83-13.326,1.509
	c-4.945-0.012-9.805-1.304-14.102-3.751c-3.691-2.261-6.104-6.127-6.512-10.437c-0.527-3.285-0.396-6.643,0.388-9.875
	c1.11-4.134,3.892-7.618,7.677-9.617c3.6-2.1,7.653-3.297,11.815-3.493c4.112-0.366,8.255,0.133,12.161,1.466
	c4.972,1.717,9.113,5.242,11.602,9.876C335.002,215.191,335.304,216.097,335.563,217.131z"/>
<path fill="#0345D8" d="M190.49,214.889h-13.801c-0.68,0.121-1.328-0.334-1.448-1.014c-0.009-0.05-0.015-0.1-0.018-0.15
	c-0.163-1.851-1.796-3.219-3.646-3.055c-0.093,0.008-0.186,0.02-0.278,0.036c-1.441,0.025-2.881,0.126-4.313,0.302
	c-1.258,0.234-2.155,1.352-2.113,2.631c0.035,0.723,0.578,1.32,1.295,1.423c1.854,0.388,3.665,0.862,5.52,1.165
	c4.125,0.434,8.18,1.376,12.075,2.803c1.857,0.885,3.597,2,5.175,3.32c3.232,2.358,3.94,6.891,1.582,10.123
	c-0.289,0.396-0.616,0.76-0.979,1.09c-2.757,2.738-6.271,4.586-10.091,5.304c-3.107,0.656-6.27,1.017-9.444,1.078
	c-4.753,0.273-9.505-0.553-13.887-2.415c-2.577-1.016-4.828-2.715-6.512-4.916c-1.022-1.593-1.631-3.416-1.768-5.305
	c0-0.561,0-0.775,0.732-0.775h12.938c0.471-0.072,0.911,0.252,0.982,0.723c0.006,0.031,0.008,0.064,0.01,0.096
	c0.055,0.395,0.141,0.785,0.259,1.165c0.452,2.006,2.257,3.414,4.313,3.364c2.219,0.027,4.437-0.088,6.642-0.346
	c1.758-0.124,3.082-1.65,2.958-3.408c-0.022-0.31-0.089-0.614-0.198-0.904c-0.229-0.814-0.896-1.432-1.725-1.596
	c-2.33-0.518-4.615-1.121-6.943-1.51c-4.641-0.52-9.16-1.817-13.369-3.838c-1.483-0.699-2.75-1.787-3.666-3.148
	c-1.547-2.754-1.013-6.208,1.294-8.365c2.276-2.127,5.073-3.614,8.108-4.313c4.61-1.21,9.4-1.59,14.145-1.121
	c3.47,0.158,6.866,1.055,9.961,2.63c3.127,1.488,5.365,4.366,6.038,7.763C190.404,213.94,190.447,214.371,190.49,214.889z"/>
<path fill="#0345D8" d="M195.665,216.7c0-3.882,0-7.748,0-11.601c0-1.294,0-1.467,1.423-1.424h8.928h2.5
	c1.122,0,1.381,0.26,1.381,1.381c0,6.728,0,13.412,0,20.139c0.02,1.317,0.15,2.63,0.388,3.925c0.198,1.202,1.13,2.151,2.329,2.372
	c2.734,0.67,5.59,0.67,8.323,0c1.79-0.217,3.14-1.732,3.147-3.536c0.056-1.077,0.056-2.157,0-3.234c0-6.671,0-13.325,0-19.968
	c-0.14-0.455,0.115-0.938,0.57-1.078c0.166-0.051,0.343-0.051,0.508,0h11.946c1.078,0,1.164,0,1.164,1.208
	c0,7.504,0,14.964,0,22.468c0.064,3.961-2.245,7.578-5.864,9.186c-3.34,1.705-6.967,2.772-10.695,3.148
	c-5.125,0.615-10.321,0.25-15.31-1.078c-2.874-0.908-5.54-2.374-7.849-4.313c-1.908-1.452-3.014-3.726-2.977-6.123
	c0-3.882,0-7.807,0-11.688l0,0L195.665,216.7z"/>
<path fill="#0345D8" d="M98.375,221.186c0.134-4.566,2.223-8.854,5.736-11.773c3.667-3.338,8.276-5.462,13.196-6.08
	c5.752-0.983,11.667-0.232,16.992,2.156c4.462,1.758,8.086,5.15,10.134,9.486c2.795,5.789,1.618,12.711-2.933,17.25
	c-3.418,3.723-7.963,6.223-12.938,7.116c-6.653,1.52-13.631,0.602-19.665-2.587c-5.125-2.365-8.8-7.052-9.875-12.593
	C98.677,223.169,98.634,222.35,98.375,221.186z M131.71,221.703c0.075-2.072-0.481-4.117-1.595-5.865
	c-2.548-4.524-8.281-6.127-12.805-3.579c-0.345,0.194-0.678,0.41-0.996,0.646c-4.896,3.944-5.668,11.111-1.724,16.009
	c0.356,0.441,0.745,0.857,1.164,1.241c1.941,1.854,4.635,2.7,7.288,2.286c5.275-0.754,9.097-5.418,8.797-10.738H131.71z"/>
<path fill="#0345D8" d="M8.589,221.487c0-5.521,0-11.026,0-16.517c0-1.078,0.388-1.338,1.466-1.294c3.306,0,6.626,0,9.962,0
	c1.121,0,1.552,0.259,1.552,1.38c0,3.508,0,7,0,10.479c0,1.164,0,1.38,1.337,1.38h13.326c1.078,0,1.423-0.302,1.423-1.38
	c0-3.45,0-6.886,0-10.308c-0.148-0.723,0.318-1.43,1.042-1.578c0.212-0.043,0.432-0.034,0.641,0.026c3.191,0,6.339,0,9.531,0
	c1.25,0,1.639,0,1.639,1.38c0,10.896,0,21.793,0,32.688c0,1.553,0,1.553-1.596,1.553H38.776c-0.992,0-1.251-0.259-1.251-1.208
	c0-3.133,0-6.268,0-9.4c0-0.906,0-1.812,0-2.76c0.141-0.579-0.213-1.162-0.792-1.303c-0.179-0.045-0.367-0.041-0.544,0.008H22.777
	c-1.035,0-1.25,0.26-1.25,1.295c0,3.996,0,7.978,0,11.945c0,1.164,0,1.336-1.337,1.336H9.882c-1.208,0-1.293,0-1.293-1.336
	C8.589,232.441,8.589,226.979,8.589,221.487z"/>
<path fill="#0345D8" d="M52.533,203.763h13.455c0.648-0.019,1.256,0.31,1.596,0.862l8.323,11.17
	c0.259,0.345,0.561,0.646,0.906,1.035l2.889-3.882l5.736-8.064c0.465-0.734,1.288-1.163,2.156-1.121h12.938l-2.803,3.622
	c-4.571,5.865-9.143,11.773-13.8,17.596c-0.892,1.332-1.288,2.934-1.122,4.527c0,2.631,0,5.262,0,7.893c0,0.302,0,0.561,0,0.862
	c0.053,0.521-0.327,0.987-0.848,1.04c-0.077,0.008-0.154,0.006-0.23-0.005H71.292c-0.48,0.139-0.982-0.139-1.121-0.619
	c-0.047-0.164-0.047-0.338,0-0.502c0-3.45,0-6.943,0-10.394c0.043-1.066-0.31-2.111-0.992-2.932L53.439,205.1L52.533,203.763z"/>
</svg>
