<svg width="36" height="36" viewBox="0 0 36 36" xmlns="http://www.w3.org/2000/svg" xmlns:xlink="http://www.w3.org/1999/xlink"><title>ic_download</title><defs><path d="M18.804 12.802a.684.684 0 0 0 0-.957.63.63 0 0 0-.922 0l-4.725 4.845V.68a.666.666 0 0 0-.652-.68.674.674 0 0 0-.662.68v16.01l-4.716-4.845a.64.64 0 0 0-.931 0 .684.684 0 0 0 0 .957l5.843 6.004a.656.656 0 0 0 .932 0l5.833-6.004zm3.908 3.873c0-.376.283-.675.64-.675.356 0 .648.3.648.675v6.64c0 .376-.292.685-.648.685H.639C.283 24 0 23.691 0 23.315v-6.64C0 16.3.283 16 .64 16c.355 0 .648.3.648.675v5.964h21.424v-5.964z" id="b"/><filter x="-37.5%" y="-37.5%" width="175%" height="175%" filterUnits="objectBoundingBox" id="a"><feOffset in="SourceAlpha" result="shadowOffsetOuter1"/><feGaussianBlur stdDeviation="3" in="shadowOffsetOuter1" result="shadowBlurOuter1"/><feColorMatrix values="0 0 0 0 0 0 0 0 0 0 0 0 0 0 0 0 0 0 0.5 0" in="shadowBlurOuter1"/></filter></defs><g transform="translate(6 6)" fill="none"><use fill="#000" filter="url(#a)" xlink:href="#b"/><use fill="#FFF" fill-rule="evenodd" xlink:href="#b"/></g></svg>