<svg width="23" height="32" viewBox="0 0 23 32" xmlns="http://www.w3.org/2000/svg"><title>ic_location</title><g fill="#fff"><path d="M11.379 6.982a4.078 4.078 0 0 0-4.073 4.073 4.078 4.078 0 0 0 4.073 4.072 4.078 4.078 0 0 0 4.072-4.072 4.078 4.078 0 0 0-4.072-4.073zm0 6.982a2.912 2.912 0 0 1-2.91-2.91 2.912 2.912 0 0 1 2.91-2.909 2.912 2.912 0 0 1 2.909 2.91 2.912 2.912 0 0 1-2.91 2.909z"/><path d="M19.165 3.268A11.085 11.085 0 0 0 11.275 0c-2.98 0-5.781 1.16-7.889 3.268-3.9 3.9-4.384 11.236-1.05 15.681l8.94 12.91L20.2 18.967c3.349-4.463 2.864-11.8-1.036-15.699zm.093 15.02l-7.982 11.526L3.28 18.27C.256 14.236.689 7.61 4.209 4.091a9.928 9.928 0 0 1 7.067-2.927 9.93 9.93 0 0 1 7.066 2.927c3.52 3.52 3.954 10.145.916 14.196z"/></g></svg>