<svg width="24" height="24" viewBox="0 0 24 24" xmlns="http://www.w3.org/2000/svg"><title>ic_phone</title><path d="M18.96 14.861c-.491-.511-1.084-.785-1.712-.785-.622 0-1.22.269-1.731.78l-1.6 1.595c-.132-.07-.264-.137-.39-.203a6.017 6.017 0 0 1-.501-.268c-1.5-.952-2.861-2.192-4.167-3.797-.633-.8-1.059-1.474-1.368-2.157.416-.38.8-.775 1.175-1.155.142-.142.284-.288.425-.43 1.064-1.063 1.064-2.44 0-3.504L7.71 3.555a21.095 21.095 0 0 1-.47-.481 23.907 23.907 0 0 0-.953-.942c-.49-.486-1.078-.744-1.696-.744-.618 0-1.215.258-1.721.744l-.01.01L1.137 3.88A3.704 3.704 0 0 0 .038 6.233C-.083 7.712.352 9.09.686 9.99c.82 2.213 2.046 4.263 3.874 6.46 2.218 2.649 4.886 4.74 7.934 6.214 1.165.551 2.719 1.205 4.456 1.316.106.005.217.01.319.01 1.17 0 2.152-.42 2.921-1.256.005-.01.015-.015.02-.025.264-.319.568-.607.887-.916.217-.208.44-.426.658-.653.501-.522.764-1.13.764-1.752 0-.628-.268-1.23-.78-1.737l-2.78-2.79zm1.812 5.332c-.005 0-.005.005 0 0-.197.212-.4.405-.617.617-.33.314-.664.643-.977 1.013-.512.547-1.114.805-1.904.805-.076 0-.157 0-.233-.005-1.504-.096-2.901-.683-3.95-1.185-2.865-1.387-5.382-3.357-7.473-5.853-1.727-2.08-2.881-4.005-3.646-6.07-.47-1.262-.643-2.244-.567-3.17a2.323 2.323 0 0 1 .7-1.504L3.83 3.114c.248-.233.511-.36.77-.36.318 0 .577.193.739.355l.015.015c.309.289.602.588.911.907.157.162.32.324.481.49L8.13 5.905c.537.537.537 1.033 0 1.57-.146.147-.288.293-.435.435-.425.436-.83.84-1.27 1.236-.011.01-.021.015-.026.025-.436.435-.355.86-.264 1.15l.016.045c.36.87.865 1.691 1.635 2.668l.005.005c1.398 1.722 2.871 3.064 4.496 4.091.208.132.42.238.623.34.182.09.355.177.501.268.02.01.04.025.061.035.172.087.334.127.501.127.42 0 .684-.263.77-.35l1.732-1.731c.172-.172.445-.38.764-.38.314 0 .572.198.73.37l.01.01 2.79 2.79c.52.516.52 1.048.004 1.585zM12.965 5.707a6.42 6.42 0 0 1 3.494 1.812 6.454 6.454 0 0 1 1.812 3.494.68.68 0 0 0 .674.567c.04 0 .076-.005.116-.01a.684.684 0 0 0 .562-.79 7.81 7.81 0 0 0-2.192-4.228 7.81 7.81 0 0 0-4.228-2.192.687.687 0 0 0-.79.557.676.676 0 0 0 .552.79zm10.997 4.876a12.848 12.848 0 0 0-3.61-6.962A12.848 12.848 0 0 0 13.39.01a.681.681 0 0 0-.785.556.687.687 0 0 0 .562.79c2.36.4 4.512 1.52 6.223 3.226a11.47 11.47 0 0 1 3.225 6.222.68.68 0 0 0 .674.567c.04 0 .076-.005.116-.01a.67.67 0 0 0 .557-.78z"/></svg>