<svg width="31" height="32" viewBox="0 0 31 32" xmlns="http://www.w3.org/2000/svg" xmlns:xlink="http://www.w3.org/1999/xlink"><title>ic_instagram</title><defs><path d="M29.233 21.86c0 4.066-3.307 7.373-7.374 7.373H7.374C3.308 29.233 0 25.926 0 21.86V7.374C0 3.308 3.308 0 7.374 0H21.86c4.067 0 7.374 3.308 7.374 7.374V21.86zm-6.54-19.995H6.54a4.681 4.681 0 0 0-4.676 4.676v16.151a4.681 4.681 0 0 0 4.676 4.676h16.151a4.681 4.681 0 0 0 4.676-4.676V6.541a4.681 4.681 0 0 0-4.676-4.676zm-8.077 20.038c-4.017 0-7.286-3.269-7.286-7.287 0-4.017 3.27-7.286 7.286-7.286 4.018 0 7.287 3.27 7.287 7.286 0 4.018-3.269 7.287-7.287 7.287zm0-12.751a5.472 5.472 0 0 0-5.464 5.463 5.473 5.473 0 0 0 5.465 5.467 5.472 5.472 0 0 0 5.465-5.467 5.47 5.47 0 0 0-5.465-5.463zm9.109-1.822a1.824 1.824 0 0 1-1.822-1.821c0-1.005.817-1.822 1.822-1.822 1.004 0 1.821.817 1.821 1.822a1.824 1.824 0 0 1-1.821 1.821z" id="b"/><filter x="-6.8%" y="-3.4%" width="113.7%" height="113.7%" filterUnits="objectBoundingBox" id="a"><feOffset dy="1" in="SourceAlpha" result="shadowOffsetOuter1"/><feGaussianBlur stdDeviation=".5" in="shadowOffsetOuter1" result="shadowBlurOuter1"/><feColorMatrix values="0 0 0 0 0.0784313725 0 0 0 0 0.0784313725 0 0 0 0 0.0588235294 0 0 0 0.4 0" in="shadowBlurOuter1"/></filter></defs><g transform="translate(1)" fill="none"><use fill="#000" filter="url(#a)" xlink:href="#b"/><use fill="#FFF" fill-rule="evenodd" xlink:href="#b"/></g></svg>