<svg width="35" height="36" viewBox="0 0 35 36" xmlns="http://www.w3.org/2000/svg" xmlns:xlink="http://www.w3.org/1999/xlink"><title>ic_share</title><defs><path d="M19.443 15.406a4.644 4.644 0 0 0-3.598 1.673l-6.978-3.68c.163-.443.253-.921.253-1.414 0-.498-.09-.97-.258-1.419l6.973-3.675c.828 1.021 2.136 1.683 3.602 1.683 2.5 0 4.542-1.922 4.542-4.287S21.943 0 19.437 0c-2.505 0-4.541 1.922-4.541 4.287 0 .498.09.976.258 1.42L8.186 9.38C7.358 8.355 6.05 7.698 4.584 7.698c-2.5 0-4.542 1.922-4.542 4.287s2.042 4.287 4.547 4.287a4.639 4.639 0 0 0 3.608-1.688l6.973 3.68a4.054 4.054 0 0 0-.264 1.429c0 2.36 2.036 4.287 4.542 4.287 2.505 0 4.541-1.922 4.541-4.287s-2.04-4.287-4.546-4.287zm0-14.057c1.72 0 3.117 1.32 3.117 2.943s-1.398 2.943-3.117 2.943c-1.72 0-3.118-1.32-3.118-2.943s1.403-2.943 3.118-2.943zM4.589 14.928c-1.72 0-3.117-1.32-3.117-2.943s1.397-2.943 3.117-2.943 3.117 1.32 3.117 2.943-1.403 2.943-3.117 2.943zm14.854 7.703c-1.72 0-3.118-1.32-3.118-2.943s1.398-2.943 3.118-2.943 3.117 1.32 3.117 2.943-1.398 2.943-3.117 2.943z" id="b"/><filter x="-37.6%" y="-37.5%" width="175.2%" height="175.1%" filterUnits="objectBoundingBox" id="a"><feOffset in="SourceAlpha" result="shadowOffsetOuter1"/><feGaussianBlur stdDeviation="3" in="shadowOffsetOuter1" result="shadowBlurOuter1"/><feColorMatrix values="0 0 0 0 0 0 0 0 0 0 0 0 0 0 0 0 0 0 0.5 0" in="shadowBlurOuter1"/></filter></defs><g transform="translate(5 6)" fill="none"><use fill="#000" filter="url(#a)" xlink:href="#b"/><use fill="#FFF" fill-rule="evenodd" xlink:href="#b"/></g></svg>