<svg width="33" height="24" viewBox="0 0 33 24" xmlns="http://www.w3.org/2000/svg" xmlns:xlink="http://www.w3.org/1999/xlink"><title>ic_youtube</title><defs><path d="M247.328 22.054c-.378 1.642-1.721 2.852-3.337 3.033-3.827.428-7.7.43-11.558.428-3.858.002-7.732 0-11.56-.428-1.616-.18-2.957-1.391-3.335-3.033-.538-2.338-.538-4.89-.538-7.296 0-2.407.006-4.96.544-7.297.378-1.641 1.72-2.852 3.335-3.033 3.829-.428 7.703-.43 11.56-.428 3.857-.002 7.731 0 11.558.428 1.617.18 2.96 1.391 3.337 3.033.538 2.338.533 4.89.533 7.297 0 2.406-.001 4.958-.54 7.296zM228.45 19.55l9.813-5.088-9.813-5.12V19.55z" id="b"/><filter x="-6.5%" y="-4.6%" width="113%" height="118.6%" filterUnits="objectBoundingBox" id="a"><feOffset dy="1" in="SourceAlpha" result="shadowOffsetOuter1"/><feGaussianBlur stdDeviation=".5" in="shadowOffsetOuter1" result="shadowBlurOuter1"/><feColorMatrix values="0 0 0 0 0.0784313725 0 0 0 0 0.0784313725 0 0 0 0 0.0588235294 0 0 0 0.4 0" in="shadowBlurOuter1"/></filter></defs><g transform="translate(-216 -4)" fill="none"><use fill="#000" filter="url(#a)" xlink:href="#b"/><use fill="#FFF" fill-rule="evenodd" xlink:href="#b"/></g></svg>