<?xml version="1.0" encoding="utf-8"?>
<!-- Generator: Adobe Illustrator 16.0.0, SVG Export Plug-In . SVG Version: 6.00 Build 0)  -->
<!DOCTYPE svg PUBLIC "-//W3C//DTD SVG 1.1//EN" "http://www.w3.org/Graphics/SVG/1.1/DTD/svg11.dtd">
<svg version="1.1" id="Layer_1" xmlns="http://www.w3.org/2000/svg" xmlns:xlink="http://www.w3.org/1999/xlink" x="0px" y="0px"
	 width="150px" height="150px" viewBox="0 0 150 150" enable-background="new 0 0 150 150" xml:space="preserve">
<g>
	<g>
		<path fill="#040305" d="M94.858,34.137H55.07c-11.438,0-20.757,9.306-20.757,20.759V94.67c0,11.452,9.319,20.771,20.757,20.771
			h39.789c11.44,0,20.759-9.318,20.759-20.771V54.896C115.617,43.443,106.299,34.137,94.858,34.137z M55.07,38.776v0.015h39.789
			c8.884,0,16.105,7.221,16.105,16.105v5.098h-25.56c-2.954-2.089-6.558-3.321-10.447-3.321c-3.88,0-7.479,1.233-10.43,3.321H38.965
			v-5.098C38.965,46.012,46.187,38.776,55.07,38.776z M74.958,61.309c7.44,0,13.472,6.047,13.472,13.486
			c0,7.427-6.032,13.458-13.472,13.458c-7.427,0-13.47-6.031-13.47-13.458C61.488,67.356,67.531,61.309,74.958,61.309z
			 M94.858,110.787H55.07c-8.883,0-16.104-7.221-16.104-16.117V64.646h20.994c-1.963,2.896-3.111,6.385-3.111,10.136
			c0,9.996,8.128,18.126,18.109,18.126c9.997,0,18.126-8.13,18.126-18.126c0-3.754-1.147-7.242-3.11-10.136h20.99V94.67
			C110.964,103.553,103.742,110.787,94.858,110.787z"/>
		<path fill="#040305" d="M90.756,58.639h10.455c1.278,0,2.326-1.034,2.326-2.327V45.87c0-1.293-1.048-2.327-2.326-2.327H90.756
			c-1.278,0-2.326,1.034-2.326,2.327v10.442C88.43,57.605,89.478,58.639,90.756,58.639z M93.084,48.183h5.801v5.816h-5.801V48.183z"
			/>
	</g>
	<path fill="#EE3626" stroke="#EE3626" stroke-width="3" stroke-miterlimit="10" d="M74.964,2.146
		c-40.055,0-72.642,32.586-72.642,72.641c0,40.057,32.587,72.643,72.642,72.643c40.056,0,72.642-32.586,72.642-72.643
		C147.606,34.733,115.021,2.146,74.964,2.146z M5.229,74.787c0-38.452,31.283-69.735,69.736-69.735
		c19.063,0,36.36,7.69,48.961,20.129l-99.908,97.171C12.37,109.884,5.229,93.155,5.229,74.787z M74.964,144.524
		c-19.928,0-37.928-8.403-50.648-21.852c0.576,0.588,1.161,1.168,1.758,1.733l99.848-97.113c-0.556-0.619-1.125-1.226-1.701-1.824
		c12.646,12.63,20.48,30.077,20.48,49.318C144.701,113.24,113.417,144.524,74.964,144.524z"/>
</g>
</svg>
